  0
SECTION
  2
HEADER
  9
$ACADVER
  1
AC1009
  9
$ANGDIR
  70
0
  9
$CECOLOR
  62
256
  9
$CELTYPE
  6
BYLAYER
  9
$EXTMIN
  10
0.0
  20
0.0
  9
$EXTMAX
  10
70.0
  20
22.0
  9
$FILLMODE
  70
1
  9
$MIRRTEXT
  70
0
  0
ENDSEC
  0
SECTION
  2
TABLES
  0
TABLE
  2
LAYER
  70
23
  0
LAYER
  2
Обводка_Bottom
  70
64
  62
23
  6
CONTINUOUS
  0
ENDTAB
  0
ENDSEC
  0
SECTION
  2
ENTITIES
  0
POLYLINE
  8
Обводка_Bottom
  6
CONTINUOUS
  66
1
  70
0
  40
0.8
  41
0.8
  0
VERTEX
  8
Обводка_Bottom
  10
-4.3973
  20
12.9757
  42
0
  0
VERTEX
  8
Обводка_Bottom
  10
-4.5646
  20
12.9063
  42
0
  0
VERTEX
  8
Обводка_Bottom
  10
-4.7401
  20
12.8642
  42
0
  0
VERTEX
  8
Обводка_Bottom
  10
-5.0046
  20
12.85
  42
0
  0
VERTEX
  8
Обводка_Bottom
  10
-8.706
  20
12.85
  42
0
  0
VERTEX
  8
Обводка_Bottom
  10
-8.9182
  20
12.7266
  42
0
  0
VERTEX
  8
Обводка_Bottom
  10
-9.1054
  20
12.6567
  42
0
  0
VERTEX
  8
Обводка_Bottom
  10
-9.3007
  20
12.6142
  42
0
  0
VERTEX
  8
Обводка_Bottom
  10
-9.5334
  20
12.6
  42
0
  0
VERTEX
  8
Обводка_Bottom
  10
-10.5
  20
12.6
  42
0
  0
VERTEX
  8
Обводка_Bottom
  10
-10.6976
  20
12.614
  42
0
  0
VERTEX
  8
Обводка_Bottom
  10
-10.8929
  20
12.6563
  42
0
  0
VERTEX
  8
Обводка_Bottom
  10
-11.0802
  20
12.7259
  42
0
  0
VERTEX
  8
Обводка_Bottom
  10
-11.2938
  20
12.85
  42
0
  0
VERTEX
  8
Обводка_Bottom
  10
-12.8732
  20
12.8505
  42
0
  0
VERTEX
  8
Обводка_Bottom
  10
-16.8068
  20
8.9168
  42
0
  0
VERTEX
  8
Обводка_Bottom
  10
-16.944
  20
8.7996
  42
0
  0
VERTEX
  8
Обводка_Bottom
  10
-17.0979
  20
8.7053
  42
0
  0
VERTEX
  8
Обводка_Bottom
  10
-17.2646
  20
8.6363
  42
0
  0
VERTEX
  8
Обводка_Bottom
  10
-17.4401
  20
8.5942
  42
0
  0
VERTEX
  8
Обводка_Bottom
  10
-17.62
  20
8.58
  42
0
  0
VERTEX
  8
Обводка_Bottom
  10
-23.0
  20
8.58
  42
0
  0
VERTEX
  8
Обводка_Bottom
  10
-23.1799
  20
8.5942
  42
0
  0
VERTEX
  8
Обводка_Bottom
  10
-23.3554
  20
8.6363
  42
0
  0
VERTEX
  8
Обводка_Bottom
  10
-23.5221
  20
8.7053
  42
0
  0
VERTEX
  8
Обводка_Bottom
  10
-23.676
  20
8.7996
  42
0
  0
VERTEX
  8
Обводка_Bottom
  10
-23.8132
  20
8.9168
  42
0
  0
VERTEX
  8
Обводка_Bottom
  10
-23.9304
  20
9.054
  42
0
  0
VERTEX
  8
Обводка_Bottom
  10
-24.0247
  20
9.2079
  42
0
  0
VERTEX
  8
Обводка_Bottom
  10
-24.0689
  20
9.3059
  42
0
  0
VERTEX
  8
Обводка_Bottom
  10
-24.1364
  20
9.3636
  42
0
  0
VERTEX
  8
Обводка_Bottom
  10
-24.2281
  20
9.471
  42
0
  0
VERTEX
  8
Обводка_Bottom
  10
-24.3019
  20
9.5914
  42
0
  0
VERTEX
  8
Обводка_Bottom
  10
-24.356
  20
9.7219
  42
0
  0
VERTEX
  8
Обводка_Bottom
  10
-24.3889
  20
9.8592
  42
0
  0
VERTEX
  8
Обводка_Bottom
  10
-24.4
  20
10.0
  42
0
  0
VERTEX
  8
Обводка_Bottom
  10
-24.3889
  20
10.1408
  42
0
  0
VERTEX
  8
Обводка_Bottom
  10
-24.356
  20
10.2781
  42
0
  0
VERTEX
  8
Обводка_Bottom
  10
-24.3019
  20
10.4086
  42
0
  0
VERTEX
  8
Обводка_Bottom
  10
-24.2281
  20
10.529
  42
0
  0
VERTEX
  8
Обводка_Bottom
  10
-24.1364
  20
10.6364
  42
0
  0
VERTEX
  8
Обводка_Bottom
  10
-24.029
  20
10.7281
  42
0
  0
VERTEX
  8
Обводка_Bottom
  10
-23.9086
  20
10.8019
  42
0
  0
VERTEX
  8
Обводка_Bottom
  10
-23.7781
  20
10.856
  42
0
  0
VERTEX
  8
Обводка_Bottom
  10
-23.6408
  20
10.8889
  42
0
  0
VERTEX
  8
Обводка_Bottom
  10
-23.4667
  20
10.9
  42
0
  0
VERTEX
  8
Обводка_Bottom
  10
-22.5
  20
10.9
  42
0
  0
VERTEX
  8
Обводка_Bottom
  10
-22.3114
  20
10.88
  42
0
  0
VERTEX
  8
Обводка_Bottom
  10
-18.0968
  20
10.8795
  42
0
  0
VERTEX
  8
Обводка_Bottom
  10
-14.1632
  20
14.8132
  42
0
  0
VERTEX
  8
Обводка_Bottom
  10
-14.026
  20
14.9304
  42
0
  0
VERTEX
  8
Обводка_Bottom
  10
-13.8721
  20
15.0247
  42
0
  0
VERTEX
  8
Обводка_Bottom
  10
-13.7054
  20
15.0937
  42
0
  0
VERTEX
  8
Обводка_Bottom
  10
-13.5299
  20
15.1358
  42
0
  0
VERTEX
  8
Обводка_Bottom
  10
-13.3494
  20
15.15
  42
0
  0
VERTEX
  8
Обводка_Bottom
  10
-11.294
  20
15.15
  42
0
  0
VERTEX
  8
Обводка_Bottom
  10
-11.0818
  20
15.2734
  42
0
  0
VERTEX
  8
Обводка_Bottom
  10
-10.8946
  20
15.3433
  42
0
  0
VERTEX
  8
Обводка_Bottom
  10
-10.6993
  20
15.3858
  42
0
  0
VERTEX
  8
Обводка_Bottom
  10
-10.4666
  20
15.4
  42
0
  0
VERTEX
  8
Обводка_Bottom
  10
-9.5
  20
15.4
  42
0
  0
VERTEX
  8
Обводка_Bottom
  10
-9.3024
  20
15.386
  42
0
  0
VERTEX
  8
Обводка_Bottom
  10
-9.1071
  20
15.3437
  42
0
  0
VERTEX
  8
Обводка_Bottom
  10
-8.9198
  20
15.2741
  42
0
  0
VERTEX
  8
Обводка_Bottom
  10
-8.7021
  20
15.15
  42
0
  0
VERTEX
  8
Обводка_Bottom
  10
-6.7873
  20
15.1495
  42
0
  0
VERTEX
  8
Обводка_Bottom
  10
-6.7273
  20
15.3962
  42
0
  0
VERTEX
  8
Обводка_Bottom
  10
-6.6562
  20
15.5819
  42
0
  0
VERTEX
  8
Обводка_Bottom
  10
-6.566
  20
15.7591
  42
0
  0
VERTEX
  8
Обводка_Bottom
  10
-6.4577
  20
15.926
  42
0
  0
VERTEX
  8
Обводка_Bottom
  10
-6.3327
  20
16.0806
  42
0
  0
VERTEX
  8
Обводка_Bottom
  10
-6.1921
  20
16.2213
  42
0
  0
VERTEX
  8
Обводка_Bottom
  10
-6.0376
  20
16.3465
  42
0
  0
VERTEX
  8
Обводка_Bottom
  10
-5.8709
  20
16.4549
  42
0
  0
VERTEX
  8
Обводка_Bottom
  10
-5.6937
  20
16.5453
  42
0
  0
VERTEX
  8
Обводка_Bottom
  10
-5.5081
  20
16.6167
  42
0
  0
VERTEX
  8
Обводка_Bottom
  10
-5.316
  20
16.6683
  42
0
  0
VERTEX
  8
Обводка_Bottom
  10
-5.1196
  20
16.6995
  42
0
  0
VERTEX
  8
Обводка_Bottom
  10
-4.921
  20
16.71
  42
0
  0
VERTEX
  8
Обводка_Bottom
  10
-4.7224
  20
16.6997
  42
0
  0
VERTEX
  8
Обводка_Bottom
  10
-4.526
  20
16.6687
  42
0
  0
VERTEX
  8
Обводка_Bottom
  10
-4.3338
  20
16.6173
  42
0
  0
VERTEX
  8
Обводка_Bottom
  10
-4.1481
  20
16.5462
  42
0
  0
VERTEX
  8
Обводка_Bottom
  10
-3.9709
  20
16.456
  42
0
  0
VERTEX
  8
Обводка_Bottom
  10
-3.804
  20
16.3477
  42
0
  0
VERTEX
  8
Обводка_Bottom
  10
-3.6494
  20
16.2227
  42
0
  0
VERTEX
  8
Обводка_Bottom
  10
-3.5087
  20
16.0821
  42
0
  0
VERTEX
  8
Обводка_Bottom
  10
-3.3835
  20
15.9276
  42
0
  0
VERTEX
  8
Обводка_Bottom
  10
-3.2751
  20
15.7609
  42
0
  0
VERTEX
  8
Обводка_Bottom
  10
-3.1847
  20
15.5837
  42
0
  0
VERTEX
  8
Обводка_Bottom
  10
-3.1133
  20
15.3981
  42
0
  0
VERTEX
  8
Обводка_Bottom
  10
-3.0617
  20
15.206
  42
0
  0
VERTEX
  8
Обводка_Bottom
  10
-3.0305
  20
15.0096
  42
0
  0
VERTEX
  8
Обводка_Bottom
  10
-3.02
  20
14.811
  42
0
  0
VERTEX
  8
Обводка_Bottom
  10
-3.0303
  20
14.6124
  42
0
  0
VERTEX
  8
Обводка_Bottom
  10
-3.0613
  20
14.416
  42
0
  0
VERTEX
  8
Обводка_Bottom
  10
-3.1127
  20
14.2238
  42
0
  0
VERTEX
  8
Обводка_Bottom
  10
-3.1838
  20
14.0381
  42
0
  0
VERTEX
  8
Обводка_Bottom
  10
-3.274
  20
13.8609
  42
0
  0
VERTEX
  8
Обводка_Bottom
  10
-3.3823
  20
13.694
  42
0
  0
VERTEX
  8
Обводка_Bottom
  10
-3.5073
  20
13.5394
  42
0
  0
VERTEX
  8
Обводка_Bottom
  10
-3.6479
  20
13.3987
  42
0
  0
VERTEX
  8
Обводка_Bottom
  10
-3.8024
  20
13.2735
  42
0
  0
VERTEX
  8
Обводка_Bottom
  10
-3.9691
  20
13.1651
  42
0
  0
VERTEX
  8
Обводка_Bottom
  10
-4.1463
  20
13.0747
  42
0
  0
VERTEX
  8
Обводка_Bottom
  10
-4.3596
  20
12.9959
  42
0
  0
VERTEX
  8
Обводка_Bottom
  10
-4.3973
  20
12.9757
  42
0
  0
SEQEND
  0
POLYLINE
  8
Обводка_Bottom
  6
CONTINUOUS
  66
1
  70
0
  40
0.8
  41
0.8
  0
VERTEX
  8
Обводка_Bottom
  10
-11.2938
  20
6.85
  42
0
  0
VERTEX
  8
Обводка_Bottom
  10
-11.0802
  20
6.7259
  42
0
  0
VERTEX
  8
Обводка_Bottom
  10
-10.8929
  20
6.6563
  42
0
  0
VERTEX
  8
Обводка_Bottom
  10
-10.6976
  20
6.614
  42
0
  0
VERTEX
  8
Обводка_Bottom
  10
-10.3334
  20
6.6
  42
0
  0
VERTEX
  8
Обводка_Bottom
  10
-9.5
  20
6.6
  42
0
  0
VERTEX
  8
Обводка_Bottom
  10
-9.3007
  20
6.6142
  42
0
  0
VERTEX
  8
Обводка_Bottom
  10
-9.1054
  20
6.6567
  42
0
  0
VERTEX
  8
Обводка_Bottom
  10
-8.9182
  20
6.7266
  42
0
  0
VERTEX
  8
Обводка_Bottom
  10
-8.7429
  20
6.8224
  42
0
  0
VERTEX
  8
Обводка_Bottom
  10
-8.5829
  20
6.9422
  42
0
  0
VERTEX
  8
Обводка_Bottom
  10
-8.4417
  20
7.0835
  42
0
  0
VERTEX
  8
Обводка_Bottom
  10
-8.322
  20
7.2435
  42
0
  0
VERTEX
  8
Обводка_Bottom
  10
-8.2857
  20
7.31
  42
0
  0
VERTEX
  8
Обводка_Bottom
  10
-6.8138
  20
7.3096
  42
0
  0
VERTEX
  8
Обводка_Bottom
  10
-6.82
  20
7.19
  42
0
  0
VERTEX
  8
Обводка_Bottom
  10
-6.8095
  20
6.9904
  42
0
  0
VERTEX
  8
Обводка_Bottom
  10
-6.7783
  20
6.794
  42
0
  0
VERTEX
  8
Обводка_Bottom
  10
-6.7267
  20
6.6019
  42
0
  0
VERTEX
  8
Обводка_Bottom
  10
-6.6553
  20
6.4163
  42
0
  0
VERTEX
  8
Обводка_Bottom
  10
-6.5649
  20
6.2391
  42
0
  0
VERTEX
  8
Обводка_Bottom
  10
-6.4565
  20
6.0724
  42
0
  0
VERTEX
  8
Обводка_Bottom
  10
-6.3313
  20
5.9179
  42
0
  0
VERTEX
  8
Обводка_Bottom
  10
-6.1906
  20
5.7773
  42
0
  0
VERTEX
  8
Обводка_Bottom
  10
-6.036
  20
5.6523
  42
0
  0
VERTEX
  8
Обводка_Bottom
  10
-5.8691
  20
5.544
  42
0
  0
VERTEX
  8
Обводка_Bottom
  10
-5.6919
  20
5.4538
  42
0
  0
VERTEX
  8
Обводка_Bottom
  10
-5.5062
  20
5.3827
  42
0
  0
VERTEX
  8
Обводка_Bottom
  10
-5.314
  20
5.3313
  42
0
  0
VERTEX
  8
Обводка_Bottom
  10
-5.1176
  20
5.3003
  42
0
  0
VERTEX
  8
Обводка_Bottom
  10
-4.919
  20
5.29
  42
0
  0
VERTEX
  8
Обводка_Bottom
  10
-4.7204
  20
5.3005
  42
0
  0
VERTEX
  8
Обводка_Bottom
  10
-4.524
  20
5.3317
  42
0
  0
VERTEX
  8
Обводка_Bottom
  10
-4.3319
  20
5.3833
  42
0
  0
VERTEX
  8
Обводка_Bottom
  10
-4.1463
  20
5.4547
  42
0
  0
VERTEX
  8
Обводка_Bottom
  10
-3.9691
  20
5.5451
  42
0
  0
VERTEX
  8
Обводка_Bottom
  10
-3.8024
  20
5.6535
  42
0
  0
VERTEX
  8
Обводка_Bottom
  10
-3.6479
  20
5.7787
  42
0
  0
VERTEX
  8
Обводка_Bottom
  10
-3.5073
  20
5.9194
  42
0
  0
VERTEX
  8
Обводка_Bottom
  10
-3.3823
  20
6.074
  42
0
  0
VERTEX
  8
Обводка_Bottom
  10
-3.274
  20
6.2409
  42
0
  0
VERTEX
  8
Обводка_Bottom
  10
-3.1838
  20
6.4181
  42
0
  0
VERTEX
  8
Обводка_Bottom
  10
-3.1127
  20
6.6038
  42
0
  0
VERTEX
  8
Обводка_Bottom
  10
-3.0613
  20
6.796
  42
0
  0
VERTEX
  8
Обводка_Bottom
  10
-3.0303
  20
6.9924
  42
0
  0
VERTEX
  8
Обводка_Bottom
  10
-3.02
  20
7.191
  42
0
  0
VERTEX
  8
Обводка_Bottom
  10
-3.0305
  20
7.3896
  42
0
  0
VERTEX
  8
Обводка_Bottom
  10
-3.0617
  20
7.586
  42
0
  0
VERTEX
  8
Обводка_Bottom
  10
-3.1133
  20
7.7781
  42
0
  0
VERTEX
  8
Обводка_Bottom
  10
-3.1847
  20
7.9637
  42
0
  0
VERTEX
  8
Обводка_Bottom
  10
-3.2751
  20
8.1409
  42
0
  0
VERTEX
  8
Обводка_Bottom
  10
-3.3835
  20
8.3076
  42
0
  0
VERTEX
  8
Обводка_Bottom
  10
-3.5087
  20
8.4621
  42
0
  0
VERTEX
  8
Обводка_Bottom
  10
-3.6494
  20
8.6027
  42
0
  0
VERTEX
  8
Обводка_Bottom
  10
-3.804
  20
8.7277
  42
0
  0
VERTEX
  8
Обводка_Bottom
  10
-3.9709
  20
8.836
  42
0
  0
VERTEX
  8
Обводка_Bottom
  10
-4.1481
  20
8.9262
  42
0
  0
VERTEX
  8
Обводка_Bottom
  10
-4.3338
  20
8.9973
  42
0
  0
VERTEX
  8
Обводка_Bottom
  10
-4.526
  20
9.0487
  42
0
  0
VERTEX
  8
Обводка_Bottom
  10
-4.7224
  20
9.0797
  42
0
  0
VERTEX
  8
Обводка_Bottom
  10
-4.921
  20
9.09
  42
0
  0
VERTEX
  8
Обводка_Bottom
  10
-5.1741
  20
9.0708
  42
0
  0
VERTEX
  8
Обводка_Bottom
  10
-5.3768
  20
9.2732
  42
0
  0
VERTEX
  8
Обводка_Bottom
  10
-5.514
  20
9.3904
  42
0
  0
VERTEX
  8
Обводка_Bottom
  10
-5.6679
  20
9.4847
  42
0
  0
VERTEX
  8
Обводка_Bottom
  10
-5.8346
  20
9.5537
  42
0
  0
VERTEX
  8
Обводка_Bottom
  10
-6.0101
  20
9.5958
  42
0
  0
VERTEX
  8
Обводка_Bottom
  10
-6.19
  20
9.61
  42
0
  0
VERTEX
  8
Обводка_Bottom
  10
-8.85
  20
9.61
  42
0
  0
VERTEX
  8
Обводка_Bottom
  10
-8.8464
  20
9.7619
  42
0
  0
VERTEX
  8
Обводка_Bottom
  10
-8.6768
  20
9.8676
  42
0
  0
VERTEX
  8
Обводка_Bottom
  10
-8.524
  20
9.9963
  42
0
  0
VERTEX
  8
Обводка_Bottom
  10
-8.391
  20
10.1455
  42
0
  0
VERTEX
  8
Обводка_Bottom
  10
-8.2807
  20
10.3121
  42
0
  0
VERTEX
  8
Обводка_Bottom
  10
-8.1952
  20
10.4927
  42
0
  0
VERTEX
  8
Обводка_Bottom
  10
-8.1362
  20
10.6836
  42
0
  0
VERTEX
  8
Обводка_Bottom
  10
-8.1051
  20
10.881
  42
0
  0
VERTEX
  8
Обводка_Bottom
  10
-8.1023
  20
11.0808
  42
0
  0
VERTEX
  8
Обводка_Bottom
  10
-8.1281
  20
11.279
  42
0
  0
VERTEX
  8
Обводка_Bottom
  10
-8.1818
  20
11.4715
  42
0
  0
VERTEX
  8
Обводка_Bottom
  10
-8.2623
  20
11.6543
  42
0
  0
VERTEX
  8
Обводка_Bottom
  10
-8.3681
  20
11.8239
  42
0
  0
VERTEX
  8
Обводка_Bottom
  10
-8.4969
  20
11.9766
  42
0
  0
VERTEX
  8
Обводка_Bottom
  10
-8.6462
  20
12.1095
  42
0
  0
VERTEX
  8
Обводка_Bottom
  10
-8.8128
  20
12.2197
  42
0
  0
VERTEX
  8
Обводка_Bottom
  10
-8.9935
  20
12.3052
  42
0
  0
VERTEX
  8
Обводка_Bottom
  10
-9.1845
  20
12.364
  42
0
  0
VERTEX
  8
Обводка_Bottom
  10
-9.3819
  20
12.395
  42
0
  0
VERTEX
  8
Обводка_Bottom
  10
-10.0666
  20
12.4
  42
0
  0
VERTEX
  8
Обводка_Bottom
  10
-10.5
  20
12.4
  42
0
  0
VERTEX
  8
Обводка_Bottom
  10
-10.6993
  20
12.3858
  42
0
  0
VERTEX
  8
Обводка_Bottom
  10
-10.8946
  20
12.3433
  42
0
  0
VERTEX
  8
Обводка_Bottom
  10
-11.0818
  20
12.2734
  42
0
  0
VERTEX
  8
Обводка_Bottom
  10
-11.2571
  20
12.1776
  42
0
  0
VERTEX
  8
Обводка_Bottom
  10
-11.4171
  20
12.0578
  42
0
  0
VERTEX
  8
Обводка_Bottom
  10
-11.5583
  20
11.9165
  42
0
  0
VERTEX
  8
Обводка_Bottom
  10
-11.678
  20
11.7565
  42
0
  0
VERTEX
  8
Обводка_Bottom
  10
-11.7737
  20
11.581
  42
0
  0
VERTEX
  8
Обводка_Bottom
  10
-11.8435
  20
11.3938
  42
0
  0
VERTEX
  8
Обводка_Bottom
  10
-11.8859
  20
11.1985
  42
0
  0
VERTEX
  8
Обводка_Bottom
  10
-11.9
  20
10.9992
  42
0
  0
VERTEX
  8
Обводка_Bottom
  10
-11.8856
  20
10.7998
  42
0
  0
VERTEX
  8
Обводка_Bottom
  10
-11.843
  20
10.6046
  42
0
  0
VERTEX
  8
Обводка_Bottom
  10
-11.773
  20
10.4174
  42
0
  0
VERTEX
  8
Обводка_Bottom
  10
-11.6771
  20
10.2421
  42
0
  0
VERTEX
  8
Обводка_Bottom
  10
-11.5572
  20
10.0823
  42
0
  0
VERTEX
  8
Обводка_Bottom
  10
-11.4158
  20
9.9411
  42
0
  0
VERTEX
  8
Обводка_Bottom
  10
-11.2557
  20
9.8215
  42
0
  0
VERTEX
  8
Обводка_Bottom
  10
-11.1494
  20
9.7636
  42
0
  0
VERTEX
  8
Обводка_Bottom
  10
-11.15
  20
9.2398
  42
0
  0
VERTEX
  8
Обводка_Bottom
  10
-11.294
  20
9.15
  42
0
  0
VERTEX
  8
Обводка_Bottom
  10
-14.86
  20
9.15
  42
0
  0
VERTEX
  8
Обводка_Bottom
  10
-15.0399
  20
9.1358
  42
0
  0
VERTEX
  8
Обводка_Bottom
  10
-15.2154
  20
9.0937
  42
0
  0
VERTEX
  8
Обводка_Bottom
  10
-15.3821
  20
9.0247
  42
0
  0
VERTEX
  8
Обводка_Bottom
  10
-15.536
  20
8.9304
  42
0
  0
VERTEX
  8
Обводка_Bottom
  10
-15.6736
  20
8.8126
  42
0
  0
VERTEX
  8
Обводка_Bottom
  10
-16.1468
  20
8.3395
  42
0
  0
VERTEX
  8
Обводка_Bottom
  10
-20.75
  20
8.34
  42
0
  0
VERTEX
  8
Обводка_Bottom
  10
-20.9299
  20
8.3258
  42
0
  0
VERTEX
  8
Обводка_Bottom
  10
-21.1054
  20
8.2837
  42
0
  0
VERTEX
  8
Обводка_Bottom
  10
-21.2721
  20
8.2147
  42
0
  0
VERTEX
  8
Обводка_Bottom
  10
-21.426
  20
8.1204
  42
0
  0
VERTEX
  8
Обводка_Bottom
  10
-21.5636
  20
8.0026
  42
0
  0
VERTEX
  8
Обводка_Bottom
  10
-23.7665
  20
5.7999
  42
0
  0
VERTEX
  8
Обводка_Bottom
  10
-42.2737
  20
5.8
  42
0
  0
VERTEX
  8
Обводка_Bottom
  10
-45.7468
  20
9.2732
  42
0
  0
VERTEX
  8
Обводка_Bottom
  10
-45.884
  20
9.3904
  42
0
  0
VERTEX
  8
Обводка_Bottom
  10
-46.0379
  20
9.4847
  42
0
  0
VERTEX
  8
Обводка_Bottom
  10
-46.2046
  20
9.5537
  42
0
  0
VERTEX
  8
Обводка_Bottom
  10
-46.3801
  20
9.5958
  42
0
  0
VERTEX
  8
Обводка_Bottom
  10
-46.5607
  20
9.6099
  42
0
  0
VERTEX
  8
Обводка_Bottom
  10
-50.64
  20
9.61
  42
0
  0
VERTEX
  8
Обводка_Bottom
  10
-50.8199
  20
9.5958
  42
0
  0
VERTEX
  8
Обводка_Bottom
  10
-50.9954
  20
9.5537
  42
0
  0
VERTEX
  8
Обводка_Bottom
  10
-51.1621
  20
9.4847
  42
0
  0
VERTEX
  8
Обводка_Bottom
  10
-51.316
  20
9.3904
  42
0
  0
VERTEX
  8
Обводка_Bottom
  10
-51.4532
  20
9.2732
  42
0
  0
VERTEX
  8
Обводка_Bottom
  10
-51.5704
  20
9.136
  42
0
  0
VERTEX
  8
Обводка_Bottom
  10
-51.6647
  20
8.9821
  42
0
  0
VERTEX
  8
Обводка_Bottom
  10
-51.7337
  20
8.8154
  42
0
  0
VERTEX
  8
Обводка_Bottom
  10
-51.7758
  20
8.6399
  42
0
  0
VERTEX
  8
Обводка_Bottom
  10
-51.79
  20
8.46
  42
0
  0
VERTEX
  8
Обводка_Bottom
  10
-51.7758
  20
8.2801
  42
0
  0
VERTEX
  8
Обводка_Bottom
  10
-51.7337
  20
8.1046
  42
0
  0
VERTEX
  8
Обводка_Bottom
  10
-51.6647
  20
7.9379
  42
0
  0
VERTEX
  8
Обводка_Bottom
  10
-51.5704
  20
7.784
  42
0
  0
VERTEX
  8
Обводка_Bottom
  10
-51.4532
  20
7.6468
  42
0
  0
VERTEX
  8
Обводка_Bottom
  10
-51.316
  20
7.5296
  42
0
  0
VERTEX
  8
Обводка_Bottom
  10
-51.1621
  20
7.4353
  42
0
  0
VERTEX
  8
Обводка_Bottom
  10
-50.9954
  20
7.3663
  42
0
  0
VERTEX
  8
Обводка_Bottom
  10
-50.8199
  20
7.3242
  42
0
  0
VERTEX
  8
Обводка_Bottom
  10
-50.64
  20
7.31
  42
0
  0
VERTEX
  8
Обводка_Bottom
  10
-47.0366
  20
7.3102
  42
0
  0
VERTEX
  8
Обводка_Bottom
  10
-43.5632
  20
3.8368
  42
0
  0
VERTEX
  8
Обводка_Bottom
  10
-43.426
  20
3.7196
  42
0
  0
VERTEX
  8
Обводка_Bottom
  10
-43.2721
  20
3.6253
  42
0
  0
VERTEX
  8
Обводка_Bottom
  10
-43.1054
  20
3.5563
  42
0
  0
VERTEX
  8
Обводка_Bottom
  10
-42.9299
  20
3.5142
  42
0
  0
VERTEX
  8
Обводка_Bottom
  10
-42.75
  20
3.5
  42
0
  0
VERTEX
  8
Обводка_Bottom
  10
-23.29
  20
3.5
  42
0
  0
VERTEX
  8
Обводка_Bottom
  10
-23.1101
  20
3.5142
  42
0
  0
VERTEX
  8
Обводка_Bottom
  10
-22.9346
  20
3.5563
  42
0
  0
VERTEX
  8
Обводка_Bottom
  10
-22.7679
  20
3.6253
  42
0
  0
VERTEX
  8
Обводка_Bottom
  10
-22.614
  20
3.7196
  42
0
  0
VERTEX
  8
Обводка_Bottom
  10
-22.4768
  20
3.8368
  42
0
  0
VERTEX
  8
Обводка_Bottom
  10
-20.2735
  20
6.0401
  42
0
  0
VERTEX
  8
Обводка_Bottom
  10
-15.67
  20
6.04
  42
0
  0
VERTEX
  8
Обводка_Bottom
  10
-15.4901
  20
6.0542
  42
0
  0
VERTEX
  8
Обводка_Bottom
  10
-15.3146
  20
6.0963
  42
0
  0
VERTEX
  8
Обводка_Bottom
  10
-15.1479
  20
6.1653
  42
0
  0
VERTEX
  8
Обводка_Bottom
  10
-14.994
  20
6.2596
  42
0
  0
VERTEX
  8
Обводка_Bottom
  10
-14.8568
  20
6.3768
  42
0
  0
VERTEX
  8
Обводка_Bottom
  10
-14.3832
  20
6.8505
  42
0
  0
VERTEX
  8
Обводка_Bottom
  10
-11.2989
  20
6.85
  42
0
  0
VERTEX
  8
Обводка_Bottom
  10
-11.2938
  20
6.85
  42
0
  0
SEQEND
  0
POLYLINE
  8
Обводка_Bottom
  6
CONTINUOUS
  66
1
  70
0
  40
0.8
  41
0.8
  0
VERTEX
  8
Обводка_Bottom
  10
-21.297
  20
12.4166
  42
0
  0
VERTEX
  8
Обводка_Bottom
  10
-21.356
  20
12.2781
  42
0
  0
VERTEX
  8
Обводка_Bottom
  10
-21.3889
  20
12.1408
  42
0
  0
VERTEX
  8
Обводка_Bottom
  10
-21.4
  20
12.0
  42
0
  0
VERTEX
  8
Обводка_Bottom
  10
-21.3889
  20
11.8592
  42
0
  0
VERTEX
  8
Обводка_Bottom
  10
-21.356
  20
11.7219
  42
0
  0
VERTEX
  8
Обводка_Bottom
  10
-21.3019
  20
11.5914
  42
0
  0
VERTEX
  8
Обводка_Bottom
  10
-21.2281
  20
11.471
  42
0
  0
VERTEX
  8
Обводка_Bottom
  10
-21.1364
  20
11.3636
  42
0
  0
VERTEX
  8
Обводка_Bottom
  10
-21.029
  20
11.2719
  42
0
  0
VERTEX
  8
Обводка_Bottom
  10
-20.9086
  20
11.1981
  42
0
  0
VERTEX
  8
Обводка_Bottom
  10
-20.7781
  20
11.144
  42
0
  0
VERTEX
  8
Обводка_Bottom
  10
-20.6408
  20
11.1111
  42
0
  0
VERTEX
  8
Обводка_Bottom
  10
-20.3333
  20
11.1
  42
0
  0
VERTEX
  8
Обводка_Bottom
  10
-19.5
  20
11.1
  42
0
  0
VERTEX
  8
Обводка_Bottom
  10
-19.3592
  20
11.1111
  42
0
  0
VERTEX
  8
Обводка_Bottom
  10
-19.2219
  20
11.144
  42
0
  0
VERTEX
  8
Обводка_Bottom
  10
-19.0914
  20
11.1981
  42
0
  0
VERTEX
  8
Обводка_Bottom
  10
-18.971
  20
11.2719
  42
0
  0
VERTEX
  8
Обводка_Bottom
  10
-18.8636
  20
11.3636
  42
0
  0
VERTEX
  8
Обводка_Bottom
  10
-18.7719
  20
11.471
  42
0
  0
VERTEX
  8
Обводка_Bottom
  10
-18.6981
  20
11.5914
  42
0
  0
VERTEX
  8
Обводка_Bottom
  10
-18.644
  20
11.7219
  42
0
  0
VERTEX
  8
Обводка_Bottom
  10
-18.6111
  20
11.8592
  42
0
  0
VERTEX
  8
Обводка_Bottom
  10
-18.6
  20
12.0
  42
0
  0
VERTEX
  8
Обводка_Bottom
  10
-18.6111
  20
12.1408
  42
0
  0
VERTEX
  8
Обводка_Bottom
  10
-18.644
  20
12.2781
  42
0
  0
VERTEX
  8
Обводка_Bottom
  10
-18.6981
  20
12.4086
  42
0
  0
VERTEX
  8
Обводка_Bottom
  10
-18.7719
  20
12.529
  42
0
  0
VERTEX
  8
Обводка_Bottom
  10
-18.8699
  20
12.6418
  42
0
  0
VERTEX
  8
Обводка_Bottom
  10
-18.9063
  20
12.7854
  42
0
  0
VERTEX
  8
Обводка_Bottom
  10
-18.9753
  20
12.9521
  42
0
  0
VERTEX
  8
Обводка_Bottom
  10
-19.0103
  20
13.0092
  42
0
  0
VERTEX
  8
Обводка_Bottom
  10
-19.01
  20
16.2001
  42
0
  0
VERTEX
  8
Обводка_Bottom
  10
-11.6457
  20
16.2003
  42
0
  0
VERTEX
  8
Обводка_Bottom
  10
-11.5572
  20
16.0823
  42
0
  0
VERTEX
  8
Обводка_Bottom
  10
-11.4158
  20
15.9411
  42
0
  0
VERTEX
  8
Обводка_Bottom
  10
-11.2557
  20
15.8215
  42
0
  0
VERTEX
  8
Обводка_Bottom
  10
-11.0802
  20
15.7259
  42
0
  0
VERTEX
  8
Обводка_Bottom
  10
-10.8929
  20
15.6563
  42
0
  0
VERTEX
  8
Обводка_Bottom
  10
-10.6976
  20
15.614
  42
0
  0
VERTEX
  8
Обводка_Bottom
  10
-10.3334
  20
15.6
  42
0
  0
VERTEX
  8
Обводка_Bottom
  10
-9.5
  20
15.6
  42
0
  0
VERTEX
  8
Обводка_Bottom
  10
-9.3007
  20
15.6142
  42
0
  0
VERTEX
  8
Обводка_Bottom
  10
-9.1054
  20
15.6567
  42
0
  0
VERTEX
  8
Обводка_Bottom
  10
-8.9182
  20
15.7266
  42
0
  0
VERTEX
  8
Обводка_Bottom
  10
-8.7429
  20
15.8224
  42
0
  0
VERTEX
  8
Обводка_Bottom
  10
-8.5829
  20
15.9422
  42
0
  0
VERTEX
  8
Обводка_Bottom
  10
-8.4417
  20
16.0835
  42
0
  0
VERTEX
  8
Обводка_Bottom
  10
-8.322
  20
16.2435
  42
0
  0
VERTEX
  8
Обводка_Bottom
  10
-8.2263
  20
16.419
  42
0
  0
VERTEX
  8
Обводка_Bottom
  10
-8.1565
  20
16.6062
  42
0
  0
VERTEX
  8
Обводка_Bottom
  10
-8.1141
  20
16.8015
  42
0
  0
VERTEX
  8
Обводка_Bottom
  10
-8.1
  20
17.0008
  42
0
  0
VERTEX
  8
Обводка_Bottom
  10
-8.1144
  20
17.2002
  42
0
  0
VERTEX
  8
Обводка_Bottom
  10
-8.157
  20
17.3954
  42
0
  0
VERTEX
  8
Обводка_Bottom
  10
-8.227
  20
17.5826
  42
0
  0
VERTEX
  8
Обводка_Bottom
  10
-8.3229
  20
17.7579
  42
0
  0
VERTEX
  8
Обводка_Bottom
  10
-8.4428
  20
17.9177
  42
0
  0
VERTEX
  8
Обводка_Bottom
  10
-8.5842
  20
18.0589
  42
0
  0
VERTEX
  8
Обводка_Bottom
  10
-8.7443
  20
18.1785
  42
0
  0
VERTEX
  8
Обводка_Bottom
  10
-8.9198
  20
18.2741
  42
0
  0
VERTEX
  8
Обводка_Bottom
  10
-9.1071
  20
18.3437
  42
0
  0
VERTEX
  8
Обводка_Bottom
  10
-9.3024
  20
18.386
  42
0
  0
VERTEX
  8
Обводка_Bottom
  10
-9.5306
  20
18.4
  42
0
  0
VERTEX
  8
Обводка_Bottom
  10
-9.6446
  20
18.4437
  42
0
  0
VERTEX
  8
Обводка_Bottom
  10
-9.8201
  20
18.4858
  42
0
  0
VERTEX
  8
Обводка_Bottom
  10
-10.0
  20
18.5
  42
0
  0
VERTEX
  8
Обводка_Bottom
  10
-22.7
  20
18.5
  42
0
  0
VERTEX
  8
Обводка_Bottom
  10
-22.8799
  20
18.4858
  42
0
  0
VERTEX
  8
Обводка_Bottom
  10
-23.0554
  20
18.4437
  42
0
  0
VERTEX
  8
Обводка_Bottom
  10
-23.2221
  20
18.3747
  42
0
  0
VERTEX
  8
Обводка_Bottom
  10
-23.376
  20
18.2804
  42
0
  0
VERTEX
  8
Обводка_Bottom
  10
-23.5132
  20
18.1632
  42
0
  0
VERTEX
  8
Обводка_Bottom
  10
-23.6304
  20
18.026
  42
0
  0
VERTEX
  8
Обводка_Bottom
  10
-23.7247
  20
17.8721
  42
0
  0
VERTEX
  8
Обводка_Bottom
  10
-23.7937
  20
17.7054
  42
0
  0
VERTEX
  8
Обводка_Bottom
  10
-23.8358
  20
17.5299
  42
0
  0
VERTEX
  8
Обводка_Bottom
  10
-23.85
  20
17.35
  42
0
  0
VERTEX
  8
Обводка_Bottom
  10
-23.8358
  20
17.1701
  42
0
  0
VERTEX
  8
Обводка_Bottom
  10
-23.7937
  20
16.9946
  42
0
  0
VERTEX
  8
Обводка_Bottom
  10
-23.7247
  20
16.8279
  42
0
  0
VERTEX
  8
Обводка_Bottom
  10
-23.6304
  20
16.674
  42
0
  0
VERTEX
  8
Обводка_Bottom
  10
-23.5132
  20
16.5368
  42
0
  0
VERTEX
  8
Обводка_Bottom
  10
-23.376
  20
16.4196
  42
0
  0
VERTEX
  8
Обводка_Bottom
  10
-23.2221
  20
16.3253
  42
0
  0
VERTEX
  8
Обводка_Bottom
  10
-23.0554
  20
16.2563
  42
0
  0
VERTEX
  8
Обводка_Bottom
  10
-22.8799
  20
16.2142
  42
0
  0
VERTEX
  8
Обводка_Bottom
  10
-22.7
  20
16.2
  42
0
  0
VERTEX
  8
Обводка_Bottom
  10
-21.31
  20
16.2
  42
0
  0
VERTEX
  8
Обводка_Bottom
  10
-21.3099
  20
12.5893
  42
0
  0
VERTEX
  8
Обводка_Bottom
  10
-21.297
  20
12.4166
  42
0
  0
SEQEND
  0
POLYLINE
  8
Обводка_Bottom
  6
CONTINUOUS
  66
1
  70
0
  40
0.8
  41
0.8
  0
VERTEX
  8
Обводка_Bottom
  10
-33.9422
  20
16.8008
  42
0
  0
VERTEX
  8
Обводка_Bottom
  10
-34.0116
  20
16.9682
  42
0
  0
VERTEX
  8
Обводка_Bottom
  10
-34.0537
  20
17.1436
  42
0
  0
VERTEX
  8
Обводка_Bottom
  10
-34.0679
  20
17.3235
  42
0
  0
VERTEX
  8
Обводка_Bottom
  10
-34.0537
  20
17.5034
  42
0
  0
VERTEX
  8
Обводка_Bottom
  10
-34.0116
  20
17.6789
  42
0
  0
VERTEX
  8
Обводка_Bottom
  10
-33.9425
  20
17.8456
  42
0
  0
VERTEX
  8
Обводка_Bottom
  10
-33.8482
  20
17.9995
  42
0
  0
VERTEX
  8
Обводка_Bottom
  10
-33.731
  20
18.1367
  42
0
  0
VERTEX
  8
Обводка_Bottom
  10
-33.5938
  20
18.2539
  42
0
  0
VERTEX
  8
Обводка_Bottom
  10
-33.44
  20
18.3482
  42
0
  0
VERTEX
  8
Обводка_Bottom
  10
-33.2732
  20
18.4172
  42
0
  0
VERTEX
  8
Обводка_Bottom
  10
-33.0978
  20
18.4594
  42
0
  0
VERTEX
  8
Обводка_Bottom
  10
-32.9056
  20
18.4735
  42
0
  0
VERTEX
  8
Обводка_Bottom
  10
-30.7056
  20
18.4735
  42
0
  0
VERTEX
  8
Обводка_Bottom
  10
-30.32
  20
18.5
  42
0
  0
VERTEX
  8
Обводка_Bottom
  10
-30.1401
  20
18.4858
  42
0
  0
VERTEX
  8
Обводка_Bottom
  10
-29.9646
  20
18.4437
  42
0
  0
VERTEX
  8
Обводка_Bottom
  10
-29.7979
  20
18.3747
  42
0
  0
VERTEX
  8
Обводка_Bottom
  10
-29.644
  20
18.2804
  42
0
  0
VERTEX
  8
Обводка_Bottom
  10
-29.5068
  20
18.1632
  42
0
  0
VERTEX
  8
Обводка_Bottom
  10
-24.4268
  20
13.0832
  42
0
  0
VERTEX
  8
Обводка_Bottom
  10
-24.2781
  20
12.9
  42
0
  0
VERTEX
  8
Обводка_Bottom
  10
-24.235
  20
12.8998
  42
0
  0
VERTEX
  8
Обводка_Bottom
  10
-24.235
  20
13.54
  42
0
  0
VERTEX
  8
Обводка_Bottom
  10
-24.2239
  20
13.6808
  42
0
  0
VERTEX
  8
Обводка_Bottom
  10
-24.191
  20
13.8181
  42
0
  0
VERTEX
  8
Обводка_Bottom
  10
-24.1369
  20
13.9486
  42
0
  0
VERTEX
  8
Обводка_Bottom
  10
-24.0631
  20
14.069
  42
0
  0
VERTEX
  8
Обводка_Bottom
  10
-23.9714
  20
14.1764
  42
0
  0
VERTEX
  8
Обводка_Bottom
  10
-23.864
  20
14.2681
  42
0
  0
VERTEX
  8
Обводка_Bottom
  10
-23.7436
  20
14.3419
  42
0
  0
VERTEX
  8
Обводка_Bottom
  10
-23.6131
  20
14.396
  42
0
  0
VERTEX
  8
Обводка_Bottom
  10
-23.4758
  20
14.4289
  42
0
  0
VERTEX
  8
Обводка_Bottom
  10
-23.335
  20
14.44
  42
0
  0
VERTEX
  8
Обводка_Bottom
  10
-23.1942
  20
14.4289
  42
0
  0
VERTEX
  8
Обводка_Bottom
  10
-23.0143
  20
14.381
  42
0
  0
VERTEX
  8
Обводка_Bottom
  10
-22.8408
  20
14.4289
  42
0
  0
VERTEX
  8
Обводка_Bottom
  10
-22.7
  20
14.44
  42
0
  0
VERTEX
  8
Обводка_Bottom
  10
-22.5592
  20
14.4289
  42
0
  0
VERTEX
  8
Обводка_Bottom
  10
-22.4219
  20
14.396
  42
0
  0
VERTEX
  8
Обводка_Bottom
  10
-22.2914
  20
14.3419
  42
0
  0
VERTEX
  8
Обводка_Bottom
  10
-22.171
  20
14.2681
  42
0
  0
VERTEX
  8
Обводка_Bottom
  10
-22.0636
  20
14.1764
  42
0
  0
VERTEX
  8
Обводка_Bottom
  10
-21.9719
  20
14.069
  42
0
  0
VERTEX
  8
Обводка_Bottom
  10
-21.8981
  20
13.9486
  42
0
  0
VERTEX
  8
Обводка_Bottom
  10
-21.844
  20
13.8181
  42
0
  0
VERTEX
  8
Обводка_Bottom
  10
-21.8111
  20
13.6808
  42
0
  0
VERTEX
  8
Обводка_Bottom
  10
-21.8
  20
13.5067
  42
0
  0
VERTEX
  8
Обводка_Bottom
  10
-21.8002
  20
12.5621
  42
0
  0
VERTEX
  8
Обводка_Bottom
  10
-21.6981
  20
12.4086
  42
0
  0
VERTEX
  8
Обводка_Bottom
  10
-21.644
  20
12.2781
  42
0
  0
VERTEX
  8
Обводка_Bottom
  10
-21.6111
  20
12.1408
  42
0
  0
VERTEX
  8
Обводка_Bottom
  10
-21.6
  20
12.0
  42
0
  0
VERTEX
  8
Обводка_Bottom
  10
-21.6111
  20
11.8592
  42
0
  0
VERTEX
  8
Обводка_Bottom
  10
-21.644
  20
11.7219
  42
0
  0
VERTEX
  8
Обводка_Bottom
  10
-21.6981
  20
11.5914
  42
0
  0
VERTEX
  8
Обводка_Bottom
  10
-21.7719
  20
11.471
  42
0
  0
VERTEX
  8
Обводка_Bottom
  10
-21.8636
  20
11.3636
  42
0
  0
VERTEX
  8
Обводка_Bottom
  10
-21.971
  20
11.2719
  42
0
  0
VERTEX
  8
Обводка_Bottom
  10
-22.0914
  20
11.1981
  42
0
  0
VERTEX
  8
Обводка_Bottom
  10
-22.2219
  20
11.144
  42
0
  0
VERTEX
  8
Обводка_Bottom
  10
-22.3592
  20
11.1111
  42
0
  0
VERTEX
  8
Обводка_Bottom
  10
-22.5333
  20
11.1
  42
0
  0
VERTEX
  8
Обводка_Bottom
  10
-26.5
  20
11.1
  42
0
  0
VERTEX
  8
Обводка_Bottom
  10
-26.6408
  20
11.1111
  42
0
  0
VERTEX
  8
Обводка_Bottom
  10
-26.7781
  20
11.144
  42
0
  0
VERTEX
  8
Обводка_Bottom
  10
-26.9086
  20
11.1981
  42
0
  0
VERTEX
  8
Обводка_Bottom
  10
-27.029
  20
11.2719
  42
0
  0
VERTEX
  8
Обводка_Bottom
  10
-27.1364
  20
11.3636
  42
0
  0
VERTEX
  8
Обводка_Bottom
  10
-27.2281
  20
11.471
  42
0
  0
VERTEX
  8
Обводка_Bottom
  10
-27.3019
  20
11.5914
  42
0
  0
VERTEX
  8
Обводка_Bottom
  10
-27.356
  20
11.7219
  42
0
  0
VERTEX
  8
Обводка_Bottom
  10
-27.3889
  20
11.8592
  42
0
  0
VERTEX
  8
Обводка_Bottom
  10
-27.4
  20
12.0
  42
0
  0
VERTEX
  8
Обводка_Bottom
  10
-27.3889
  20
12.1408
  42
0
  0
VERTEX
  8
Обводка_Bottom
  10
-27.356
  20
12.2781
  42
0
  0
VERTEX
  8
Обводка_Bottom
  10
-27.3019
  20
12.4086
  42
0
  0
VERTEX
  8
Обводка_Bottom
  10
-27.2281
  20
12.529
  42
0
  0
VERTEX
  8
Обводка_Bottom
  10
-27.1831
  20
12.5867
  42
0
  0
VERTEX
  8
Обводка_Bottom
  10
-30.7706
  20
16.1735
  42
0
  0
VERTEX
  8
Обводка_Bottom
  10
-32.9179
  20
16.1735
  42
0
  0
VERTEX
  8
Обводка_Bottom
  10
-33.0978
  20
16.1877
  42
0
  0
VERTEX
  8
Обводка_Bottom
  10
-33.2732
  20
16.2298
  42
0
  0
VERTEX
  8
Обводка_Bottom
  10
-33.4399
  20
16.2989
  42
0
  0
VERTEX
  8
Обводка_Bottom
  10
-33.5938
  20
16.3932
  42
0
  0
VERTEX
  8
Обводка_Bottom
  10
-33.731
  20
16.5104
  42
0
  0
VERTEX
  8
Обводка_Bottom
  10
-33.8486
  20
16.6482
  42
0
  0
VERTEX
  8
Обводка_Bottom
  10
-33.9422
  20
16.8008
  42
0
  0
SEQEND
  0
POLYLINE
  8
Обводка_Bottom
  6
CONTINUOUS
  66
1
  70
0
  40
0.8
  41
0.8
  0
VERTEX
  8
Обводка_Bottom
  10
-35.3333
  20
9.1
  42
0
  0
VERTEX
  8
Обводка_Bottom
  10
-34.5
  20
9.1
  42
0
  0
VERTEX
  8
Обводка_Bottom
  10
-34.3592
  20
9.1111
  42
0
  0
VERTEX
  8
Обводка_Bottom
  10
-34.2219
  20
9.144
  42
0
  0
VERTEX
  8
Обводка_Bottom
  10
-34.0914
  20
9.1981
  42
0
  0
VERTEX
  8
Обводка_Bottom
  10
-33.971
  20
9.2719
  42
0
  0
VERTEX
  8
Обводка_Bottom
  10
-33.8636
  20
9.3636
  42
0
  0
VERTEX
  8
Обводка_Bottom
  10
-33.7719
  20
9.471
  42
0
  0
VERTEX
  8
Обводка_Bottom
  10
-33.6981
  20
9.5914
  42
0
  0
VERTEX
  8
Обводка_Bottom
  10
-33.644
  20
9.7219
  42
0
  0
VERTEX
  8
Обводка_Bottom
  10
-33.6111
  20
9.8592
  42
0
  0
VERTEX
  8
Обводка_Bottom
  10
-33.6
  20
10.0
  42
0
  0
VERTEX
  8
Обводка_Bottom
  10
-33.6111
  20
10.1408
  42
0
  0
VERTEX
  8
Обводка_Bottom
  10
-33.644
  20
10.2781
  42
0
  0
VERTEX
  8
Обводка_Bottom
  10
-33.6981
  20
10.4086
  42
0
  0
VERTEX
  8
Обводка_Bottom
  10
-33.7719
  20
10.529
  42
0
  0
VERTEX
  8
Обводка_Bottom
  10
-33.8791
  20
10.6497
  42
0
  0
VERTEX
  8
Обводка_Bottom
  10
-33.85
  20
10.9089
  42
0
  0
VERTEX
  8
Обводка_Bottom
  10
-33.8642
  20
11.0888
  42
0
  0
VERTEX
  8
Обводка_Bottom
  10
-33.9063
  20
11.2643
  42
0
  0
VERTEX
  8
Обводка_Bottom
  10
-33.9753
  20
11.431
  42
0
  0
VERTEX
  8
Обводка_Bottom
  10
-34.0696
  20
11.5849
  42
0
  0
VERTEX
  8
Обводка_Bottom
  10
-34.1868
  20
11.7221
  42
0
  0
VERTEX
  8
Обводка_Bottom
  10
-34.324
  20
11.8393
  42
0
  0
VERTEX
  8
Обводка_Bottom
  10
-34.4779
  20
11.9336
  42
0
  0
VERTEX
  8
Обводка_Bottom
  10
-34.6446
  20
12.0026
  42
0
  0
VERTEX
  8
Обводка_Bottom
  10
-34.8201
  20
12.0448
  42
0
  0
VERTEX
  8
Обводка_Bottom
  10
-35.0
  20
12.0589
  42
0
  0
VERTEX
  8
Обводка_Bottom
  10
-42.6413
  20
12.0589
  42
0
  0
VERTEX
  8
Обводка_Bottom
  10
-42.8212
  20
12.0448
  42
0
  0
VERTEX
  8
Обводка_Bottom
  10
-42.9966
  20
12.0026
  42
0
  0
VERTEX
  8
Обводка_Bottom
  10
-43.1634
  20
11.9336
  42
0
  0
VERTEX
  8
Обводка_Bottom
  10
-43.3172
  20
11.8393
  42
0
  0
VERTEX
  8
Обводка_Bottom
  10
-43.4545
  20
11.7221
  42
0
  0
VERTEX
  8
Обводка_Bottom
  10
-43.5716
  20
11.5849
  42
0
  0
VERTEX
  8
Обводка_Bottom
  10
-43.6659
  20
11.431
  42
0
  0
VERTEX
  8
Обводка_Bottom
  10
-43.735
  20
11.2643
  42
0
  0
VERTEX
  8
Обводка_Bottom
  10
-43.7771
  20
11.0888
  42
0
  0
VERTEX
  8
Обводка_Bottom
  10
-43.7913
  20
10.9089
  42
0
  0
VERTEX
  8
Обводка_Bottom
  10
-43.7771
  20
10.729
  42
0
  0
VERTEX
  8
Обводка_Bottom
  10
-43.735
  20
10.5535
  42
0
  0
VERTEX
  8
Обводка_Bottom
  10
-43.6659
  20
10.3868
  42
0
  0
VERTEX
  8
Обводка_Bottom
  10
-43.5716
  20
10.233
  42
0
  0
VERTEX
  8
Обводка_Bottom
  10
-43.4545
  20
10.0957
  42
0
  0
VERTEX
  8
Обводка_Bottom
  10
-43.3172
  20
9.9785
  42
0
  0
VERTEX
  8
Обводка_Bottom
  10
-43.1634
  20
9.8842
  42
0
  0
VERTEX
  8
Обводка_Bottom
  10
-42.9966
  20
9.8152
  42
0
  0
VERTEX
  8
Обводка_Bottom
  10
-42.8212
  20
9.7731
  42
0
  0
VERTEX
  8
Обводка_Bottom
  10
-42.6413
  20
9.7589
  42
0
  0
VERTEX
  8
Обводка_Bottom
  10
-36.3675
  20
9.7589
  42
0
  0
VERTEX
  8
Обводка_Bottom
  10
-36.3019
  20
9.5914
  42
0
  0
VERTEX
  8
Обводка_Bottom
  10
-36.2281
  20
9.471
  42
0
  0
VERTEX
  8
Обводка_Bottom
  10
-36.1364
  20
9.3636
  42
0
  0
VERTEX
  8
Обводка_Bottom
  10
-36.029
  20
9.2719
  42
0
  0
VERTEX
  8
Обводка_Bottom
  10
-35.9086
  20
9.1981
  42
0
  0
VERTEX
  8
Обводка_Bottom
  10
-35.7781
  20
9.144
  42
0
  0
VERTEX
  8
Обводка_Bottom
  10
-35.6408
  20
9.1111
  42
0
  0
VERTEX
  8
Обводка_Bottom
  10
-35.3333
  20
9.1
  42
0
  0
SEQEND
  0
POLYLINE
  8
Обводка_Bottom
  6
CONTINUOUS
  66
1
  70
0
  40
0.8
  41
0.8
  0
VERTEX
  8
Обводка_Bottom
  10
-61.8894
  20
12.4043
  42
0
  0
VERTEX
  8
Обводка_Bottom
  10
-62.07
  20
12.39
  42
0
  0
VERTEX
  8
Обводка_Bottom
  10
-62.2499
  20
12.4042
  42
0
  0
VERTEX
  8
Обводка_Bottom
  10
-62.4253
  20
12.4463
  42
0
  0
VERTEX
  8
Обводка_Bottom
  10
-62.5921
  20
12.5153
  42
0
  0
VERTEX
  8
Обводка_Bottom
  10
-62.7459
  20
12.6096
  42
0
  0
VERTEX
  8
Обводка_Bottom
  10
-62.9331
  20
12.7768
  42
0
  0
VERTEX
  8
Обводка_Bottom
  10
-62.9906
  20
12.8337
  42
0
  0
VERTEX
  8
Обводка_Bottom
  10
-64.586
  20
12.8338
  42
0
  0
VERTEX
  8
Обводка_Bottom
  10
-64.7982
  20
12.7103
  42
0
  0
VERTEX
  8
Обводка_Bottom
  10
-64.9854
  20
12.6405
  42
0
  0
VERTEX
  8
Обводка_Bottom
  10
-65.1807
  20
12.598
  42
0
  0
VERTEX
  8
Обводка_Bottom
  10
-65.4133
  20
12.5837
  42
0
  0
VERTEX
  8
Обводка_Bottom
  10
-66.38
  20
12.5837
  42
0
  0
VERTEX
  8
Обводка_Bottom
  10
-66.5776
  20
12.5977
  42
0
  0
VERTEX
  8
Обводка_Bottom
  10
-66.7729
  20
12.64
  42
0
  0
VERTEX
  8
Обводка_Bottom
  10
-66.9602
  20
12.7096
  42
0
  0
VERTEX
  8
Обводка_Bottom
  10
-67.1357
  20
12.8052
  42
0
  0
VERTEX
  8
Обводка_Bottom
  10
-67.2958
  20
12.9248
  42
0
  0
VERTEX
  8
Обводка_Bottom
  10
-67.4372
  20
13.066
  42
0
  0
VERTEX
  8
Обводка_Bottom
  10
-67.5571
  20
13.2258
  42
0
  0
VERTEX
  8
Обводка_Bottom
  10
-67.653
  20
13.4011
  42
0
  0
VERTEX
  8
Обводка_Bottom
  10
-67.723
  20
13.5883
  42
0
  0
VERTEX
  8
Обводка_Bottom
  10
-67.7656
  20
13.7835
  42
0
  0
VERTEX
  8
Обводка_Bottom
  10
-67.78
  20
13.9829
  42
0
  0
VERTEX
  8
Обводка_Bottom
  10
-67.7659
  20
14.1822
  42
0
  0
VERTEX
  8
Обводка_Bottom
  10
-67.7235
  20
14.3775
  42
0
  0
VERTEX
  8
Обводка_Bottom
  10
-67.6538
  20
14.5647
  42
0
  0
VERTEX
  8
Обводка_Bottom
  10
-67.5581
  20
14.7402
  42
0
  0
VERTEX
  8
Обводка_Bottom
  10
-67.4384
  20
14.9002
  42
0
  0
VERTEX
  8
Обводка_Bottom
  10
-67.2971
  20
15.0415
  42
0
  0
VERTEX
  8
Обводка_Bottom
  10
-67.1372
  20
15.1613
  42
0
  0
VERTEX
  8
Обводка_Bottom
  10
-66.9618
  20
15.2571
  42
0
  0
VERTEX
  8
Обводка_Bottom
  10
-66.7746
  20
15.327
  42
0
  0
VERTEX
  8
Обводка_Bottom
  10
-66.5793
  20
15.3695
  42
0
  0
VERTEX
  8
Обводка_Bottom
  10
-66.3467
  20
15.3837
  42
0
  0
VERTEX
  8
Обводка_Bottom
  10
-65.38
  20
15.3837
  42
0
  0
VERTEX
  8
Обводка_Bottom
  10
-65.1824
  20
15.3697
  42
0
  0
VERTEX
  8
Обводка_Bottom
  10
-64.9871
  20
15.3275
  42
0
  0
VERTEX
  8
Обводка_Bottom
  10
-64.7998
  20
15.2579
  42
0
  0
VERTEX
  8
Обводка_Bottom
  10
-64.5862
  20
15.1338
  42
0
  0
VERTEX
  8
Обводка_Bottom
  10
-62.5137
  20
15.1337
  42
0
  0
VERTEX
  8
Обводка_Bottom
  10
-62.3338
  20
15.1196
  42
0
  0
VERTEX
  8
Обводка_Bottom
  10
-62.1583
  20
15.078
  42
0
  0
VERTEX
  8
Обводка_Bottom
  10
-61.6131
  20
15.6232
  42
0
  0
VERTEX
  8
Обводка_Bottom
  10
-61.4759
  20
15.7404
  42
0
  0
VERTEX
  8
Обводка_Bottom
  10
-61.3221
  20
15.8347
  42
0
  0
VERTEX
  8
Обводка_Bottom
  10
-61.1553
  20
15.9037
  42
0
  0
VERTEX
  8
Обводка_Bottom
  10
-60.9799
  20
15.9458
  42
0
  0
VERTEX
  8
Обводка_Bottom
  10
-60.7993
  20
15.96
  42
0
  0
VERTEX
  8
Обводка_Bottom
  10
-56.1965
  20
15.9599
  42
0
  0
VERTEX
  8
Обводка_Bottom
  10
-52.7232
  20
19.4332
  42
0
  0
VERTEX
  8
Обводка_Bottom
  10
-52.586
  20
19.5504
  42
0
  0
VERTEX
  8
Обводка_Bottom
  10
-52.4321
  20
19.6447
  42
0
  0
VERTEX
  8
Обводка_Bottom
  10
-52.2654
  20
19.7137
  42
0
  0
VERTEX
  8
Обводка_Bottom
  10
-52.0899
  20
19.7558
  42
0
  0
VERTEX
  8
Обводка_Bottom
  10
-51.8517
  20
19.77
  42
0
  0
VERTEX
  8
Обводка_Bottom
  10
-50.64
  20
19.77
  42
0
  0
VERTEX
  8
Обводка_Bottom
  10
-50.4601
  20
19.7558
  42
0
  0
VERTEX
  8
Обводка_Bottom
  10
-50.2846
  20
19.7137
  42
0
  0
VERTEX
  8
Обводка_Bottom
  10
-50.1179
  20
19.6447
  42
0
  0
VERTEX
  8
Обводка_Bottom
  10
-49.964
  20
19.5504
  42
0
  0
VERTEX
  8
Обводка_Bottom
  10
-49.8268
  20
19.4332
  42
0
  0
VERTEX
  8
Обводка_Bottom
  10
-49.7096
  20
19.296
  42
0
  0
VERTEX
  8
Обводка_Bottom
  10
-49.6153
  20
19.1421
  42
0
  0
VERTEX
  8
Обводка_Bottom
  10
-49.5463
  20
18.9754
  42
0
  0
VERTEX
  8
Обводка_Bottom
  10
-49.5042
  20
18.7999
  42
0
  0
VERTEX
  8
Обводка_Bottom
  10
-49.49
  20
18.62
  42
0
  0
VERTEX
  8
Обводка_Bottom
  10
-49.5042
  20
18.4401
  42
0
  0
VERTEX
  8
Обводка_Bottom
  10
-49.5463
  20
18.2646
  42
0
  0
VERTEX
  8
Обводка_Bottom
  10
-49.6153
  20
18.0979
  42
0
  0
VERTEX
  8
Обводка_Bottom
  10
-49.7096
  20
17.944
  42
0
  0
VERTEX
  8
Обводка_Bottom
  10
-49.8268
  20
17.8068
  42
0
  0
VERTEX
  8
Обводка_Bottom
  10
-49.964
  20
17.6896
  42
0
  0
VERTEX
  8
Обводка_Bottom
  10
-50.1179
  20
17.5953
  42
0
  0
VERTEX
  8
Обводка_Bottom
  10
-50.2846
  20
17.5263
  42
0
  0
VERTEX
  8
Обводка_Bottom
  10
-50.4601
  20
17.4842
  42
0
  0
VERTEX
  8
Обводка_Bottom
  10
-50.6983
  20
17.47
  42
0
  0
VERTEX
  8
Обводка_Bottom
  10
-51.4335
  20
17.4701
  42
0
  0
VERTEX
  8
Обводка_Bottom
  10
-54.9068
  20
13.9968
  42
0
  0
VERTEX
  8
Обводка_Bottom
  10
-55.044
  20
13.8796
  42
0
  0
VERTEX
  8
Обводка_Bottom
  10
-55.1979
  20
13.7853
  42
0
  0
VERTEX
  8
Обводка_Bottom
  10
-55.3646
  20
13.7163
  42
0
  0
VERTEX
  8
Обводка_Bottom
  10
-55.5401
  20
13.6742
  42
0
  0
VERTEX
  8
Обводка_Bottom
  10
-55.8786
  20
13.66
  42
0
  0
VERTEX
  8
Обводка_Bottom
  10
-57.11
  20
13.6599
  42
0
  0
VERTEX
  8
Обводка_Bottom
  10
-57.1242
  20
13.3601
  42
0
  0
VERTEX
  8
Обводка_Bottom
  10
-57.1663
  20
13.1846
  42
0
  0
VERTEX
  8
Обводка_Bottom
  10
-57.2353
  20
13.0179
  42
0
  0
VERTEX
  8
Обводка_Bottom
  10
-57.3296
  20
12.864
  42
0
  0
VERTEX
  8
Обводка_Bottom
  10
-57.4468
  20
12.7268
  42
0
  0
VERTEX
  8
Обводка_Bottom
  10
-57.584
  20
12.6096
  42
0
  0
VERTEX
  8
Обводка_Bottom
  10
-57.7379
  20
12.5153
  42
0
  0
VERTEX
  8
Обводка_Bottom
  10
-57.9046
  20
12.4463
  42
0
  0
VERTEX
  8
Обводка_Bottom
  10
-58.0801
  20
12.4042
  42
0
  0
VERTEX
  8
Обводка_Bottom
  10
-58.26
  20
12.39
  42
0
  0
VERTEX
  8
Обводка_Bottom
  10
-58.4399
  20
12.4042
  42
0
  0
VERTEX
  8
Обводка_Bottom
  10
-58.6154
  20
12.4463
  42
0
  0
VERTEX
  8
Обводка_Bottom
  10
-58.7821
  20
12.5153
  42
0
  0
VERTEX
  8
Обводка_Bottom
  10
-58.936
  20
12.6096
  42
0
  0
VERTEX
  8
Обводка_Bottom
  10
-59.0732
  20
12.7268
  42
0
  0
VERTEX
  8
Обводка_Bottom
  10
-59.1904
  20
12.864
  42
0
  0
VERTEX
  8
Обводка_Bottom
  10
-59.2847
  20
13.0179
  42
0
  0
VERTEX
  8
Обводка_Bottom
  10
-59.3537
  20
13.1846
  42
0
  0
VERTEX
  8
Обводка_Bottom
  10
-59.3958
  20
13.3601
  42
0
  0
VERTEX
  8
Обводка_Bottom
  10
-59.4099
  20
13.66
  42
0
  0
VERTEX
  8
Обводка_Bottom
  10
-60.3238
  20
13.6598
  42
0
  0
VERTEX
  8
Обводка_Bottom
  10
-61.2568
  20
12.7268
  42
0
  0
VERTEX
  8
Обводка_Bottom
  10
-61.394
  20
12.6096
  42
0
  0
VERTEX
  8
Обводка_Bottom
  10
-61.5479
  20
12.5153
  42
0
  0
VERTEX
  8
Обводка_Bottom
  10
-61.7153
  20
12.4461
  42
0
  0
VERTEX
  8
Обводка_Bottom
  10
-61.8894
  20
12.4043
  42
0
  0
SEQEND
  0
POLYLINE
  8
Обводка_Bottom
  6
CONTINUOUS
  66
1
  70
0
  40
0.8
  41
0.8
  0
VERTEX
  8
Обводка_Bottom
  10
-25.6449
  20
8.2839
  42
0
  0
VERTEX
  8
Обводка_Bottom
  10
-25.4775
  20
8.2147
  42
0
  0
VERTEX
  8
Обводка_Bottom
  10
-25.3236
  20
8.1204
  42
0
  0
VERTEX
  8
Обводка_Bottom
  10
-25.1864
  20
8.0032
  42
0
  0
VERTEX
  8
Обводка_Bottom
  10
-25.0692
  20
7.866
  42
0
  0
VERTEX
  8
Обводка_Bottom
  10
-24.9749
  20
7.7121
  42
0
  0
VERTEX
  8
Обводка_Bottom
  10
-24.9058
  20
7.5454
  42
0
  0
VERTEX
  8
Обводка_Bottom
  10
-24.8637
  20
7.3699
  42
0
  0
VERTEX
  8
Обводка_Bottom
  10
-24.8496
  20
7.19
  42
0
  0
VERTEX
  8
Обводка_Bottom
  10
-24.8637
  20
7.0101
  42
0
  0
VERTEX
  8
Обводка_Bottom
  10
-24.9058
  20
6.8346
  42
0
  0
VERTEX
  8
Обводка_Bottom
  10
-24.9749
  20
6.6679
  42
0
  0
VERTEX
  8
Обводка_Bottom
  10
-25.0692
  20
6.514
  42
0
  0
VERTEX
  8
Обводка_Bottom
  10
-25.1864
  20
6.3768
  42
0
  0
VERTEX
  8
Обводка_Bottom
  10
-25.3236
  20
6.2596
  42
0
  0
VERTEX
  8
Обводка_Bottom
  10
-25.4775
  20
6.1653
  42
0
  0
VERTEX
  8
Обводка_Bottom
  10
-25.6449
  20
6.0961
  42
0
  0
VERTEX
  8
Обводка_Bottom
  10
-25.8197
  20
6.0542
  42
0
  0
VERTEX
  8
Обводка_Bottom
  10
-25.9996
  20
6.04
  42
0
  0
VERTEX
  8
Обводка_Bottom
  10
-26.51
  20
6.04
  42
0
  0
VERTEX
  8
Обводка_Bottom
  10
-26.6899
  20
6.0542
  42
0
  0
VERTEX
  8
Обводка_Bottom
  10
-26.8654
  20
6.0963
  42
0
  0
VERTEX
  8
Обводка_Bottom
  10
-27.0321
  20
6.1653
  42
0
  0
VERTEX
  8
Обводка_Bottom
  10
-27.186
  20
6.2596
  42
0
  0
VERTEX
  8
Обводка_Bottom
  10
-27.4121
  20
6.4658
  42
0
  0
VERTEX
  8
Обводка_Bottom
  10
-29.8132
  20
8.8668
  42
0
  0
VERTEX
  8
Обводка_Bottom
  10
-29.9304
  20
9.004
  42
0
  0
VERTEX
  8
Обводка_Bottom
  10
-30.0247
  20
9.1579
  42
0
  0
VERTEX
  8
Обводка_Bottom
  10
-30.0949
  20
9.3281
  42
0
  0
VERTEX
  8
Обводка_Bottom
  10
-30.2281
  20
9.471
  42
0
  0
VERTEX
  8
Обводка_Bottom
  10
-30.3019
  20
9.5914
  42
0
  0
VERTEX
  8
Обводка_Bottom
  10
-30.356
  20
9.7219
  42
0
  0
VERTEX
  8
Обводка_Bottom
  10
-30.3889
  20
9.8592
  42
0
  0
VERTEX
  8
Обводка_Bottom
  10
-30.4
  20
10.0
  42
0
  0
VERTEX
  8
Обводка_Bottom
  10
-30.3889
  20
10.1408
  42
0
  0
VERTEX
  8
Обводка_Bottom
  10
-30.356
  20
10.2781
  42
0
  0
VERTEX
  8
Обводка_Bottom
  10
-30.3019
  20
10.4086
  42
0
  0
VERTEX
  8
Обводка_Bottom
  10
-30.2281
  20
10.529
  42
0
  0
VERTEX
  8
Обводка_Bottom
  10
-30.1364
  20
10.6364
  42
0
  0
VERTEX
  8
Обводка_Bottom
  10
-30.029
  20
10.7281
  42
0
  0
VERTEX
  8
Обводка_Bottom
  10
-29.9086
  20
10.8019
  42
0
  0
VERTEX
  8
Обводка_Bottom
  10
-29.7547
  20
10.8631
  42
0
  0
VERTEX
  8
Обводка_Bottom
  10
-29.676
  20
10.9304
  42
0
  0
VERTEX
  8
Обводка_Bottom
  10
-29.5221
  20
11.0247
  42
0
  0
VERTEX
  8
Обводка_Bottom
  10
-29.3554
  20
11.0937
  42
0
  0
VERTEX
  8
Обводка_Bottom
  10
-29.1799
  20
11.1358
  42
0
  0
VERTEX
  8
Обводка_Bottom
  10
-29.0
  20
11.15
  42
0
  0
VERTEX
  8
Обводка_Bottom
  10
-28.8201
  20
11.1358
  42
0
  0
VERTEX
  8
Обводка_Bottom
  10
-28.6446
  20
11.0937
  42
0
  0
VERTEX
  8
Обводка_Bottom
  10
-28.4779
  20
11.0247
  42
0
  0
VERTEX
  8
Обводка_Bottom
  10
-28.324
  20
10.9304
  42
0
  0
VERTEX
  8
Обводка_Bottom
  10
-28.2219
  20
10.856
  42
0
  0
VERTEX
  8
Обводка_Bottom
  10
-28.0914
  20
10.8019
  42
0
  0
VERTEX
  8
Обводка_Bottom
  10
-27.971
  20
10.7281
  42
0
  0
VERTEX
  8
Обводка_Bottom
  10
-27.8636
  20
10.6364
  42
0
  0
VERTEX
  8
Обводка_Bottom
  10
-27.7719
  20
10.529
  42
0
  0
VERTEX
  8
Обводка_Bottom
  10
-27.6981
  20
10.4086
  42
0
  0
VERTEX
  8
Обводка_Bottom
  10
-27.644
  20
10.2781
  42
0
  0
VERTEX
  8
Обводка_Bottom
  10
-27.6111
  20
10.1408
  42
0
  0
VERTEX
  8
Обводка_Bottom
  10
-27.6
  20
10.0
  42
0
  0
VERTEX
  8
Обводка_Bottom
  10
-27.6046
  20
9.9109
  42
0
  0
VERTEX
  8
Обводка_Bottom
  10
-26.034
  20
8.34
  42
0
  0
VERTEX
  8
Обводка_Bottom
  10
-25.819
  20
8.3257
  42
0
  0
VERTEX
  8
Обводка_Bottom
  10
-25.6449
  20
8.2839
  42
0
  0
SEQEND
  0
POLYLINE
  8
Обводка_Bottom
  6
CONTINUOUS
  66
1
  70
0
  40
0.8
  41
0.8
  0
VERTEX
  8
Обводка_Bottom
  10
-40.2416
  20
19.7822
  42
0
  0
VERTEX
  8
Обводка_Bottom
  10
-40.4221
  20
19.7965
  42
0
  0
VERTEX
  8
Обводка_Bottom
  10
-40.8005
  20
19.77
  42
0
  0
VERTEX
  8
Обводка_Bottom
  10
-43.02
  20
19.77
  42
0
  0
VERTEX
  8
Обводка_Bottom
  10
-43.1999
  20
19.7558
  42
0
  0
VERTEX
  8
Обводка_Bottom
  10
-43.3754
  20
19.7137
  42
0
  0
VERTEX
  8
Обводка_Bottom
  10
-43.5421
  20
19.6447
  42
0
  0
VERTEX
  8
Обводка_Bottom
  10
-43.696
  20
19.5504
  42
0
  0
VERTEX
  8
Обводка_Bottom
  10
-43.8332
  20
19.4332
  42
0
  0
VERTEX
  8
Обводка_Bottom
  10
-43.9504
  20
19.296
  42
0
  0
VERTEX
  8
Обводка_Bottom
  10
-44.0447
  20
19.1421
  42
0
  0
VERTEX
  8
Обводка_Bottom
  10
-44.1137
  20
18.9754
  42
0
  0
VERTEX
  8
Обводка_Bottom
  10
-44.1558
  20
18.7999
  42
0
  0
VERTEX
  8
Обводка_Bottom
  10
-44.17
  20
18.62
  42
0
  0
VERTEX
  8
Обводка_Bottom
  10
-44.1558
  20
18.4401
  42
0
  0
VERTEX
  8
Обводка_Bottom
  10
-44.1137
  20
18.2646
  42
0
  0
VERTEX
  8
Обводка_Bottom
  10
-44.0447
  20
18.0979
  42
0
  0
VERTEX
  8
Обводка_Bottom
  10
-43.9504
  20
17.944
  42
0
  0
VERTEX
  8
Обводка_Bottom
  10
-43.8332
  20
17.8068
  42
0
  0
VERTEX
  8
Обводка_Bottom
  10
-43.696
  20
17.6896
  42
0
  0
VERTEX
  8
Обводка_Bottom
  10
-43.5421
  20
17.5953
  42
0
  0
VERTEX
  8
Обводка_Bottom
  10
-43.3754
  20
17.5263
  42
0
  0
VERTEX
  8
Обводка_Bottom
  10
-43.1999
  20
17.4842
  42
0
  0
VERTEX
  8
Обводка_Bottom
  10
-43.02
  20
17.47
  42
0
  0
VERTEX
  8
Обводка_Bottom
  10
-35.4
  20
17.47
  42
0
  0
VERTEX
  8
Обводка_Bottom
  10
-35.2201
  20
17.4842
  42
0
  0
VERTEX
  8
Обводка_Bottom
  10
-35.0446
  20
17.5263
  42
0
  0
VERTEX
  8
Обводка_Bottom
  10
-34.8779
  20
17.5953
  42
0
  0
VERTEX
  8
Обводка_Bottom
  10
-34.724
  20
17.6896
  42
0
  0
VERTEX
  8
Обводка_Bottom
  10
-34.5864
  20
17.8074
  42
0
  0
VERTEX
  8
Обводка_Bottom
  10
-33.6538
  20
18.7398
  42
0
  0
VERTEX
  8
Обводка_Bottom
  10
-19.8197
  20
18.74
  42
0
  0
VERTEX
  8
Обводка_Bottom
  10
-19.6398
  20
18.7542
  42
0
  0
VERTEX
  8
Обводка_Bottom
  10
-19.4643
  20
18.7963
  42
0
  0
VERTEX
  8
Обводка_Bottom
  10
-19.2976
  20
18.8653
  42
0
  0
VERTEX
  8
Обводка_Bottom
  10
-19.1437
  20
18.9596
  42
0
  0
VERTEX
  8
Обводка_Bottom
  10
-19.0065
  20
19.0768
  42
0
  0
VERTEX
  8
Обводка_Bottom
  10
-18.8893
  20
19.214
  42
0
  0
VERTEX
  8
Обводка_Bottom
  10
-18.795
  20
19.3679
  42
0
  0
VERTEX
  8
Обводка_Bottom
  10
-18.726
  20
19.5346
  42
0
  0
VERTEX
  8
Обводка_Bottom
  10
-18.6839
  20
19.7101
  42
0
  0
VERTEX
  8
Обводка_Bottom
  10
-18.6697
  20
19.89
  42
0
  0
VERTEX
  8
Обводка_Bottom
  10
-18.6839
  20
20.0699
  42
0
  0
VERTEX
  8
Обводка_Bottom
  10
-18.726
  20
20.2454
  42
0
  0
VERTEX
  8
Обводка_Bottom
  10
-18.795
  20
20.4121
  42
0
  0
VERTEX
  8
Обводка_Bottom
  10
-18.8893
  20
20.566
  42
0
  0
VERTEX
  8
Обводка_Bottom
  10
-19.0065
  20
20.7032
  42
0
  0
VERTEX
  8
Обводка_Bottom
  10
-19.1437
  20
20.8204
  42
0
  0
VERTEX
  8
Обводка_Bottom
  10
-19.2976
  20
20.9147
  42
0
  0
VERTEX
  8
Обводка_Bottom
  10
-19.4643
  20
20.9837
  42
0
  0
VERTEX
  8
Обводка_Bottom
  10
-19.6398
  20
21.0258
  42
0
  0
VERTEX
  8
Обводка_Bottom
  10
-19.8197
  20
21.04
  42
0
  0
VERTEX
  8
Обводка_Bottom
  10
-34.13
  20
21.04
  42
0
  0
VERTEX
  8
Обводка_Bottom
  10
-34.3099
  20
21.0258
  42
0
  0
VERTEX
  8
Обводка_Bottom
  10
-34.4854
  20
20.9837
  42
0
  0
VERTEX
  8
Обводка_Bottom
  10
-34.6521
  20
20.9147
  42
0
  0
VERTEX
  8
Обводка_Bottom
  10
-34.806
  20
20.8204
  42
0
  0
VERTEX
  8
Обводка_Bottom
  10
-34.9432
  20
20.7032
  42
0
  0
VERTEX
  8
Обводка_Bottom
  10
-35.8762
  20
19.7702
  42
0
  0
VERTEX
  8
Обводка_Bottom
  10
-40.1763
  20
19.77
  42
0
  0
VERTEX
  8
Обводка_Bottom
  10
-40.2416
  20
19.7822
  42
0
  0
SEQEND
  0
POLYLINE
  8
Обводка_Bottom
  6
CONTINUOUS
  66
1
  70
0
  40
0.8
  41
0.8
  0
VERTEX
  8
Обводка_Bottom
  10
-51.7759
  20
16.2593
  42
0
  0
VERTEX
  8
Обводка_Bottom
  10
-51.7337
  20
16.4355
  42
0
  0
VERTEX
  8
Обводка_Bottom
  10
-51.6647
  20
16.6022
  42
0
  0
VERTEX
  8
Обводка_Bottom
  10
-51.5704
  20
16.7561
  42
0
  0
VERTEX
  8
Обводка_Bottom
  10
-51.4532
  20
16.8933
  42
0
  0
VERTEX
  8
Обводка_Bottom
  10
-51.316
  20
17.0105
  42
0
  0
VERTEX
  8
Обводка_Bottom
  10
-51.1621
  20
17.1048
  42
0
  0
VERTEX
  8
Обводка_Bottom
  10
-50.9954
  20
17.1738
  42
0
  0
VERTEX
  8
Обводка_Bottom
  10
-50.8199
  20
17.216
  42
0
  0
VERTEX
  8
Обводка_Bottom
  10
-50.64
  20
17.2301
  42
0
  0
VERTEX
  8
Обводка_Bottom
  10
-50.4601
  20
17.216
  42
0
  0
VERTEX
  8
Обводка_Bottom
  10
-50.2846
  20
17.1738
  42
0
  0
VERTEX
  8
Обводка_Bottom
  10
-50.1179
  20
17.1048
  42
0
  0
VERTEX
  8
Обводка_Bottom
  10
-49.964
  20
17.0105
  42
0
  0
VERTEX
  8
Обводка_Bottom
  10
-49.8268
  20
16.8933
  42
0
  0
VERTEX
  8
Обводка_Bottom
  10
-49.7096
  20
16.7561
  42
0
  0
VERTEX
  8
Обводка_Bottom
  10
-49.6153
  20
16.6022
  42
0
  0
VERTEX
  8
Обводка_Bottom
  10
-49.5463
  20
16.4355
  42
0
  0
VERTEX
  8
Обводка_Bottom
  10
-49.5041
  20
16.2593
  42
0
  0
VERTEX
  8
Обводка_Bottom
  10
-49.49
  20
15.9214
  42
0
  0
VERTEX
  8
Обводка_Bottom
  10
-49.49
  20
14.6901
  42
0
  0
VERTEX
  8
Обводка_Bottom
  10
-48.1
  20
14.6901
  42
0
  0
VERTEX
  8
Обводка_Bottom
  10
-47.9201
  20
14.676
  42
0
  0
VERTEX
  8
Обводка_Bottom
  10
-47.7446
  20
14.6338
  42
0
  0
VERTEX
  8
Обводка_Bottom
  10
-47.5779
  20
14.5648
  42
0
  0
VERTEX
  8
Обводка_Bottom
  10
-47.424
  20
14.4705
  42
0
  0
VERTEX
  8
Обводка_Bottom
  10
-47.2868
  20
14.3533
  42
0
  0
VERTEX
  8
Обводка_Bottom
  10
-47.1696
  20
14.2161
  42
0
  0
VERTEX
  8
Обводка_Bottom
  10
-47.0753
  20
14.0622
  42
0
  0
VERTEX
  8
Обводка_Bottom
  10
-47.0063
  20
13.8955
  42
0
  0
VERTEX
  8
Обводка_Bottom
  10
-46.9642
  20
13.72
  42
0
  0
VERTEX
  8
Обводка_Bottom
  10
-46.95
  20
13.5401
  42
0
  0
VERTEX
  8
Обводка_Bottom
  10
-46.9642
  20
13.3602
  42
0
  0
VERTEX
  8
Обводка_Bottom
  10
-47.0063
  20
13.1848
  42
0
  0
VERTEX
  8
Обводка_Bottom
  10
-47.0753
  20
13.018
  42
0
  0
VERTEX
  8
Обводка_Bottom
  10
-47.1696
  20
12.8642
  42
0
  0
VERTEX
  8
Обводка_Bottom
  10
-47.2868
  20
12.727
  42
0
  0
VERTEX
  8
Обводка_Bottom
  10
-47.424
  20
12.6098
  42
0
  0
VERTEX
  8
Обводка_Bottom
  10
-47.5779
  20
12.5155
  42
0
  0
VERTEX
  8
Обводка_Bottom
  10
-47.7446
  20
12.4464
  42
0
  0
VERTEX
  8
Обводка_Bottom
  10
-47.9201
  20
12.4043
  42
0
  0
VERTEX
  8
Обводка_Bottom
  10
-48.2586
  20
12.3901
  42
0
  0
VERTEX
  8
Обводка_Bottom
  10
-51.4335
  20
12.3901
  42
0
  0
VERTEX
  8
Обводка_Bottom
  10
-53.6368
  20
10.1868
  42
0
  0
VERTEX
  8
Обводка_Bottom
  10
-53.774
  20
10.0696
  42
0
  0
VERTEX
  8
Обводка_Bottom
  10
-53.9279
  20
9.9753
  42
0
  0
VERTEX
  8
Обводка_Bottom
  10
-54.0946
  20
9.9063
  42
0
  0
VERTEX
  8
Обводка_Bottom
  10
-54.2701
  20
9.8642
  42
0
  0
VERTEX
  8
Обводка_Bottom
  10
-54.538
  20
9.85
  42
0
  0
VERTEX
  8
Обводка_Bottom
  10
-63.1764
  20
9.8479
  42
0
  0
VERTEX
  8
Обводка_Bottom
  10
-63.4997
  20
9.8337
  42
0
  0
VERTEX
  8
Обводка_Bottom
  10
-64.586
  20
9.8338
  42
0
  0
VERTEX
  8
Обводка_Bottom
  10
-64.7982
  20
9.7103
  42
0
  0
VERTEX
  8
Обводка_Bottom
  10
-64.9854
  20
9.6405
  42
0
  0
VERTEX
  8
Обводка_Bottom
  10
-65.1807
  20
9.598
  42
0
  0
VERTEX
  8
Обводка_Bottom
  10
-65.4133
  20
9.5837
  42
0
  0
VERTEX
  8
Обводка_Bottom
  10
-66.38
  20
9.5837
  42
0
  0
VERTEX
  8
Обводка_Bottom
  10
-66.5776
  20
9.5977
  42
0
  0
VERTEX
  8
Обводка_Bottom
  10
-66.7729
  20
9.64
  42
0
  0
VERTEX
  8
Обводка_Bottom
  10
-66.9602
  20
9.7096
  42
0
  0
VERTEX
  8
Обводка_Bottom
  10
-67.1357
  20
9.8052
  42
0
  0
VERTEX
  8
Обводка_Bottom
  10
-67.2958
  20
9.9248
  42
0
  0
VERTEX
  8
Обводка_Bottom
  10
-67.4372
  20
10.066
  42
0
  0
VERTEX
  8
Обводка_Bottom
  10
-67.5571
  20
10.2258
  42
0
  0
VERTEX
  8
Обводка_Bottom
  10
-67.653
  20
10.4011
  42
0
  0
VERTEX
  8
Обводка_Bottom
  10
-67.723
  20
10.5883
  42
0
  0
VERTEX
  8
Обводка_Bottom
  10
-67.7656
  20
10.7835
  42
0
  0
VERTEX
  8
Обводка_Bottom
  10
-67.78
  20
10.9829
  42
0
  0
VERTEX
  8
Обводка_Bottom
  10
-67.7659
  20
11.1822
  42
0
  0
VERTEX
  8
Обводка_Bottom
  10
-67.7235
  20
11.3775
  42
0
  0
VERTEX
  8
Обводка_Bottom
  10
-67.6538
  20
11.5647
  42
0
  0
VERTEX
  8
Обводка_Bottom
  10
-67.5581
  20
11.7402
  42
0
  0
VERTEX
  8
Обводка_Bottom
  10
-67.4384
  20
11.9002
  42
0
  0
VERTEX
  8
Обводка_Bottom
  10
-67.2971
  20
12.0415
  42
0
  0
VERTEX
  8
Обводка_Bottom
  10
-67.1372
  20
12.1613
  42
0
  0
VERTEX
  8
Обводка_Bottom
  10
-66.9618
  20
12.2571
  42
0
  0
VERTEX
  8
Обводка_Bottom
  10
-66.7746
  20
12.327
  42
0
  0
VERTEX
  8
Обводка_Bottom
  10
-66.5793
  20
12.3695
  42
0
  0
VERTEX
  8
Обводка_Bottom
  10
-66.3467
  20
12.3837
  42
0
  0
VERTEX
  8
Обводка_Bottom
  10
-65.38
  20
12.3837
  42
0
  0
VERTEX
  8
Обводка_Bottom
  10
-65.1824
  20
12.3697
  42
0
  0
VERTEX
  8
Обводка_Bottom
  10
-64.9871
  20
12.3275
  42
0
  0
VERTEX
  8
Обводка_Bottom
  10
-64.7998
  20
12.2579
  42
0
  0
VERTEX
  8
Обводка_Bottom
  10
-64.5862
  20
12.1338
  42
0
  0
VERTEX
  8
Обводка_Bottom
  10
-63.5199
  20
12.1358
  42
0
  0
VERTEX
  8
Обводка_Bottom
  10
-63.252
  20
12.15
  42
0
  0
VERTEX
  8
Обводка_Bottom
  10
-54.9265
  20
12.1499
  42
0
  0
VERTEX
  8
Обводка_Bottom
  10
-52.7232
  20
14.3532
  42
0
  0
VERTEX
  8
Обводка_Bottom
  10
-52.586
  20
14.4704
  42
0
  0
VERTEX
  8
Обводка_Bottom
  10
-52.4321
  20
14.5647
  42
0
  0
VERTEX
  8
Обводка_Bottom
  10
-52.2654
  20
14.6337
  42
0
  0
VERTEX
  8
Обводка_Bottom
  10
-52.0899
  20
14.6758
  42
0
  0
VERTEX
  8
Обводка_Bottom
  10
-51.79
  20
14.6901
  42
0
  0
VERTEX
  8
Обводка_Bottom
  10
-51.7899
  20
16.0808
  42
0
  0
VERTEX
  8
Обводка_Bottom
  10
-51.7759
  20
16.2593
  42
0
  0
SEQEND
  0
POLYLINE
  8
Обводка_Bottom
  6
CONTINUOUS
  66
1
  70
0
  40
0.8
  41
0.8
  0
VERTEX
  8
Обводка_Bottom
  10
-60.9184
  20
8.9145
  42
0
  0
VERTEX
  8
Обводка_Bottom
  10
-60.6843
  20
8.7006
  42
0
  0
VERTEX
  8
Обводка_Bottom
  10
-59.0538
  20
7.07
  42
0
  0
VERTEX
  8
Обводка_Bottom
  10
-51.0881
  20
7.07
  42
0
  0
VERTEX
  8
Обводка_Bottom
  10
-50.9954
  20
7.1048
  42
0
  0
VERTEX
  8
Обводка_Bottom
  10
-50.8199
  20
7.1469
  42
0
  0
VERTEX
  8
Обводка_Bottom
  10
-50.6393
  20
7.1611
  42
0
  0
VERTEX
  8
Обводка_Bottom
  10
-47.9211
  20
7.1611
  42
0
  0
VERTEX
  8
Обводка_Bottom
  10
-47.7412
  20
7.1469
  42
0
  0
VERTEX
  8
Обводка_Bottom
  10
-47.5657
  20
7.1048
  42
0
  0
VERTEX
  8
Обводка_Bottom
  10
-47.399
  20
7.0358
  42
0
  0
VERTEX
  8
Обводка_Bottom
  10
-47.2451
  20
6.9415
  42
0
  0
VERTEX
  8
Обводка_Bottom
  10
-47.08
  20
6.7963
  42
0
  0
VERTEX
  8
Обводка_Bottom
  10
-43.544
  20
3.26
  42
0
  0
VERTEX
  8
Обводка_Bottom
  10
-20.6369
  20
3.2595
  42
0
  0
VERTEX
  8
Обводка_Bottom
  10
-20.5504
  20
3.351
  42
0
  0
VERTEX
  8
Обводка_Bottom
  10
-20.5363
  20
3.5599
  42
0
  0
VERTEX
  8
Обводка_Bottom
  10
-20.4942
  20
3.7354
  42
0
  0
VERTEX
  8
Обводка_Bottom
  10
-20.4251
  20
3.9021
  42
0
  0
VERTEX
  8
Обводка_Bottom
  10
-20.3308
  20
4.056
  42
0
  0
VERTEX
  8
Обводка_Bottom
  10
-20.2136
  20
4.1932
  42
0
  0
VERTEX
  8
Обводка_Bottom
  10
-20.0764
  20
4.3104
  42
0
  0
VERTEX
  8
Обводка_Bottom
  10
-19.9225
  20
4.4047
  42
0
  0
VERTEX
  8
Обводка_Bottom
  10
-19.7558
  20
4.4737
  42
0
  0
VERTEX
  8
Обводка_Bottom
  10
-19.5803
  20
4.5158
  42
0
  0
VERTEX
  8
Обводка_Bottom
  10
-19.2636
  20
4.53
  42
0
  0
VERTEX
  8
Обводка_Bottom
  10
-12.2737
  20
4.53
  42
0
  0
VERTEX
  8
Обводка_Bottom
  10
-12.2004
  20
4.646
  42
0
  0
VERTEX
  8
Обводка_Bottom
  10
-12.0305
  20
4.8359
  42
0
  0
VERTEX
  8
Обводка_Bottom
  10
-11.8978
  20
4.9688
  42
0
  0
VERTEX
  8
Обводка_Bottom
  10
-11.8859
  20
5.1985
  42
0
  0
VERTEX
  8
Обводка_Bottom
  10
-11.8435
  20
5.3938
  42
0
  0
VERTEX
  8
Обводка_Bottom
  10
-11.7737
  20
5.581
  42
0
  0
VERTEX
  8
Обводка_Bottom
  10
-11.678
  20
5.7565
  42
0
  0
VERTEX
  8
Обводка_Bottom
  10
-11.5583
  20
5.9165
  42
0
  0
VERTEX
  8
Обводка_Bottom
  10
-11.4171
  20
6.0578
  42
0
  0
VERTEX
  8
Обводка_Bottom
  10
-11.2571
  20
6.1776
  42
0
  0
VERTEX
  8
Обводка_Bottom
  10
-11.0818
  20
6.2734
  42
0
  0
VERTEX
  8
Обводка_Bottom
  10
-10.8946
  20
6.3433
  42
0
  0
VERTEX
  8
Обводка_Bottom
  10
-10.6993
  20
6.3858
  42
0
  0
VERTEX
  8
Обводка_Bottom
  10
-10.4666
  20
6.4
  42
0
  0
VERTEX
  8
Обводка_Bottom
  10
-9.5
  20
6.4
  42
0
  0
VERTEX
  8
Обводка_Bottom
  10
-9.3024
  20
6.386
  42
0
  0
VERTEX
  8
Обводка_Bottom
  10
-9.1071
  20
6.3437
  42
0
  0
VERTEX
  8
Обводка_Bottom
  10
-8.9198
  20
6.2741
  42
0
  0
VERTEX
  8
Обводка_Bottom
  10
-8.7443
  20
6.1785
  42
0
  0
VERTEX
  8
Обводка_Bottom
  10
-8.5842
  20
6.0589
  42
0
  0
VERTEX
  8
Обводка_Bottom
  10
-8.4428
  20
5.9177
  42
0
  0
VERTEX
  8
Обводка_Bottom
  10
-8.3229
  20
5.7579
  42
0
  0
VERTEX
  8
Обводка_Bottom
  10
-8.227
  20
5.5826
  42
0
  0
VERTEX
  8
Обводка_Bottom
  10
-8.157
  20
5.3954
  42
0
  0
VERTEX
  8
Обводка_Bottom
  10
-8.1144
  20
5.2002
  42
0
  0
VERTEX
  8
Обводка_Bottom
  10
-8.1
  20
5.0008
  42
0
  0
VERTEX
  8
Обводка_Bottom
  10
-8.1141
  20
4.8015
  42
0
  0
VERTEX
  8
Обводка_Bottom
  10
-8.1565
  20
4.6062
  42
0
  0
VERTEX
  8
Обводка_Bottom
  10
-8.2263
  20
4.419
  42
0
  0
VERTEX
  8
Обводка_Bottom
  10
-8.322
  20
4.2435
  42
0
  0
VERTEX
  8
Обводка_Bottom
  10
-8.4417
  20
4.0835
  42
0
  0
VERTEX
  8
Обводка_Bottom
  10
-8.5829
  20
3.9422
  42
0
  0
VERTEX
  8
Обводка_Bottom
  10
-8.7429
  20
3.8224
  42
0
  0
VERTEX
  8
Обводка_Bottom
  10
-8.9182
  20
3.7266
  42
0
  0
VERTEX
  8
Обводка_Bottom
  10
-9.1054
  20
3.6567
  42
0
  0
VERTEX
  8
Обводка_Bottom
  10
-9.3007
  20
3.6142
  42
0
  0
VERTEX
  8
Обводка_Bottom
  10
-9.5334
  20
3.6
  42
0
  0
VERTEX
  8
Обводка_Bottom
  10
-10.0137
  20
3.5999
  42
0
  0
VERTEX
  8
Обводка_Bottom
  10
-10.12
  20
3.4938
  42
0
  0
VERTEX
  8
Обводка_Bottom
  10
-10.1342
  20
3.2001
  42
0
  0
VERTEX
  8
Обводка_Bottom
  10
-10.1763
  20
3.0246
  42
0
  0
VERTEX
  8
Обводка_Bottom
  10
-10.2453
  20
2.8579
  42
0
  0
VERTEX
  8
Обводка_Bottom
  10
-10.3396
  20
2.704
  42
0
  0
VERTEX
  8
Обводка_Bottom
  10
-10.4568
  20
2.5668
  42
0
  0
VERTEX
  8
Обводка_Bottom
  10
-10.594
  20
2.4496
  42
0
  0
VERTEX
  8
Обводка_Bottom
  10
-10.7479
  20
2.3553
  42
0
  0
VERTEX
  8
Обводка_Bottom
  10
-10.9146
  20
2.2863
  42
0
  0
VERTEX
  8
Обводка_Bottom
  10
-11.0901
  20
2.2442
  42
0
  0
VERTEX
  8
Обводка_Bottom
  10
-11.4069
  20
2.23
  42
0
  0
VERTEX
  8
Обводка_Bottom
  10
-18.4069
  20
2.23
  42
0
  0
VERTEX
  8
Обводка_Bottom
  10
-18.4701
  20
2.1936
  42
0
  0
VERTEX
  8
Обводка_Bottom
  10
-18.6545
  20
1.9891
  42
0
  0
VERTEX
  8
Обводка_Bottom
  10
-19.3468
  20
1.2968
  42
0
  0
VERTEX
  8
Обводка_Bottom
  10
-19.484
  20
1.1796
  42
0
  0
VERTEX
  8
Обводка_Bottom
  10
-19.6379
  20
1.0853
  42
0
  0
VERTEX
  8
Обводка_Bottom
  10
-19.8046
  20
1.0163
  42
0
  0
VERTEX
  8
Обводка_Bottom
  10
-19.9801
  20
0.9742
  42
0
  0
VERTEX
  8
Обводка_Bottom
  10
-20.2212
  20
0.96
  42
0
  0
VERTEX
  8
Обводка_Bottom
  10
-44.02
  20
0.96
  42
0
  0
VERTEX
  8
Обводка_Bottom
  10
-44.1999
  20
0.9742
  42
0
  0
VERTEX
  8
Обводка_Bottom
  10
-44.3754
  20
1.0163
  42
0
  0
VERTEX
  8
Обводка_Bottom
  10
-44.5421
  20
1.0853
  42
0
  0
VERTEX
  8
Обводка_Bottom
  10
-44.696
  20
1.1796
  42
0
  0
VERTEX
  8
Обводка_Bottom
  10
-44.9192
  20
1.3828
  42
0
  0
VERTEX
  8
Обводка_Bottom
  10
-46.3008
  20
2.7645
  42
0
  0
VERTEX
  8
Обводка_Bottom
  10
-46.3956
  20
2.6579
  42
0
  0
VERTEX
  8
Обводка_Bottom
  10
-46.5328
  20
2.5407
  42
0
  0
VERTEX
  8
Обводка_Bottom
  10
-46.6866
  20
2.4464
  42
0
  0
VERTEX
  8
Обводка_Bottom
  10
-46.8534
  20
2.3774
  42
0
  0
VERTEX
  8
Обводка_Bottom
  10
-47.0288
  20
2.3352
  42
0
  0
VERTEX
  8
Обводка_Bottom
  10
-47.2087
  20
2.3211
  42
0
  0
VERTEX
  8
Обводка_Bottom
  10
-47.3886
  20
2.3352
  42
0
  0
VERTEX
  8
Обводка_Bottom
  10
-47.5641
  20
2.3774
  42
0
  0
VERTEX
  8
Обводка_Bottom
  10
-47.7308
  20
2.4464
  42
0
  0
VERTEX
  8
Обводка_Bottom
  10
-47.8847
  20
2.5407
  42
0
  0
VERTEX
  8
Обводка_Bottom
  10
-48.0219
  20
2.6579
  42
0
  0
VERTEX
  8
Обводка_Bottom
  10
-48.1391
  20
2.7951
  42
0
  0
VERTEX
  8
Обводка_Bottom
  10
-48.2334
  20
2.949
  42
0
  0
VERTEX
  8
Обводка_Bottom
  10
-48.3024
  20
3.1157
  42
0
  0
VERTEX
  8
Обводка_Bottom
  10
-48.3446
  20
3.2912
  42
0
  0
VERTEX
  8
Обводка_Bottom
  10
-48.3587
  20
3.516
  42
0
  0
VERTEX
  8
Обводка_Bottom
  10
-48.3586
  20
4.8222
  42
0
  0
VERTEX
  8
Обводка_Bottom
  10
-48.3973
  20
4.8611
  42
0
  0
VERTEX
  8
Обводка_Bottom
  10
-50.1919
  20
4.8611
  42
0
  0
VERTEX
  8
Обводка_Bottom
  10
-50.2846
  20
4.8263
  42
0
  0
VERTEX
  8
Обводка_Bottom
  10
-50.4601
  20
4.7842
  42
0
  0
VERTEX
  8
Обводка_Bottom
  10
-50.728
  20
4.77
  42
0
  0
VERTEX
  8
Обводка_Bottom
  10
-59.53
  20
4.77
  42
0
  0
VERTEX
  8
Обводка_Bottom
  10
-59.7099
  20
4.7842
  42
0
  0
VERTEX
  8
Обводка_Bottom
  10
-59.8854
  20
4.8263
  42
0
  0
VERTEX
  8
Обводка_Bottom
  10
-60.0521
  20
4.8953
  42
0
  0
VERTEX
  8
Обводка_Bottom
  10
-60.206
  20
4.9896
  42
0
  0
VERTEX
  8
Обводка_Bottom
  10
-60.4395
  20
5.2031
  42
0
  0
VERTEX
  8
Обводка_Bottom
  10
-62.0703
  20
6.8337
  42
0
  0
VERTEX
  8
Обводка_Bottom
  10
-63.98
  20
6.8345
  42
0
  0
VERTEX
  8
Обводка_Bottom
  10
-63.98
  20
6.5837
  42
0
  0
VERTEX
  8
Обводка_Bottom
  10
-67.78
  20
6.5837
  42
0
  0
VERTEX
  8
Обводка_Bottom
  10
-67.78
  20
9.3837
  42
0
  0
VERTEX
  8
Обводка_Bottom
  10
-63.98
  20
9.3837
  42
0
  0
VERTEX
  8
Обводка_Bottom
  10
-63.98
  20
9.1337
  42
0
  0
VERTEX
  8
Обводка_Bottom
  10
-63.0004
  20
9.136
  42
0
  0
VERTEX
  8
Обводка_Bottom
  10
-62.8832
  20
9.2732
  42
0
  0
VERTEX
  8
Обводка_Bottom
  10
-62.746
  20
9.3904
  42
0
  0
VERTEX
  8
Обводка_Bottom
  10
-62.5921
  20
9.4847
  42
0
  0
VERTEX
  8
Обводка_Bottom
  10
-62.4254
  20
9.5537
  42
0
  0
VERTEX
  8
Обводка_Bottom
  10
-62.2499
  20
9.5958
  42
0
  0
VERTEX
  8
Обводка_Bottom
  10
-62.07
  20
9.61
  42
0
  0
VERTEX
  8
Обводка_Bottom
  10
-61.8901
  20
9.5958
  42
0
  0
VERTEX
  8
Обводка_Bottom
  10
-61.7147
  20
9.5537
  42
0
  0
VERTEX
  8
Обводка_Bottom
  10
-61.548
  20
9.4847
  42
0
  0
VERTEX
  8
Обводка_Bottom
  10
-61.3941
  20
9.3904
  42
0
  0
VERTEX
  8
Обводка_Bottom
  10
-61.2569
  20
9.2732
  42
0
  0
VERTEX
  8
Обводка_Bottom
  10
-61.1397
  20
9.136
  42
0
  0
VERTEX
  8
Обводка_Bottom
  10
-61.2569
  20
9.2732
  42
0
  0
VERTEX
  8
Обводка_Bottom
  10
-61.3941
  20
9.3904
  42
0
  0
VERTEX
  8
Обводка_Bottom
  10
-61.548
  20
9.4847
  42
0
  0
VERTEX
  8
Обводка_Bottom
  10
-61.7147
  20
9.5537
  42
0
  0
VERTEX
  8
Обводка_Bottom
  10
-61.8901
  20
9.5958
  42
0
  0
VERTEX
  8
Обводка_Bottom
  10
-62.07
  20
9.61
  42
0
  0
VERTEX
  8
Обводка_Bottom
  10
-62.2499
  20
9.5958
  42
0
  0
VERTEX
  8
Обводка_Bottom
  10
-62.4254
  20
9.5537
  42
0
  0
VERTEX
  8
Обводка_Bottom
  10
-62.5921
  20
9.4847
  42
0
  0
VERTEX
  8
Обводка_Bottom
  10
-62.746
  20
9.3904
  42
0
  0
VERTEX
  8
Обводка_Bottom
  10
-62.8832
  20
9.2732
  42
0
  0
VERTEX
  8
Обводка_Bottom
  10
-63.0008
  20
9.1354
  42
0
  0
SEQEND
  0
POLYLINE
  8
Обводка_Bottom
  6
CONTINUOUS
  66
1
  70
0
  40
0.8
  41
0.8
  0
VERTEX
  8
Обводка_Bottom
  10
-32.3146
  20
14.8782
  42
0
  0
VERTEX
  8
Обводка_Bottom
  10
-32.466
  20
14.9778
  42
0
  0
VERTEX
  8
Обводка_Bottom
  10
-32.6305
  20
15.052
  42
0
  0
VERTEX
  8
Обводка_Bottom
  10
-32.8045
  20
15.0996
  42
0
  0
VERTEX
  8
Обводка_Bottom
  10
-33.02
  20
15.12
  42
0
  0
VERTEX
  8
Обводка_Bottom
  10
-41.87
  20
15.1214
  42
0
  0
VERTEX
  8
Обводка_Bottom
  10
-41.87
  20
16.0799
  42
0
  0
VERTEX
  8
Обводка_Bottom
  10
-41.8842
  20
16.2598
  42
0
  0
VERTEX
  8
Обводка_Bottom
  10
-41.9263
  20
16.4353
  42
0
  0
VERTEX
  8
Обводка_Bottom
  10
-41.9953
  20
16.602
  42
0
  0
VERTEX
  8
Обводка_Bottom
  10
-42.0896
  20
16.7558
  42
0
  0
VERTEX
  8
Обводка_Bottom
  10
-42.2068
  20
16.8931
  42
0
  0
VERTEX
  8
Обводка_Bottom
  10
-42.344
  20
17.0103
  42
0
  0
VERTEX
  8
Обводка_Bottom
  10
-42.4979
  20
17.1045
  42
0
  0
VERTEX
  8
Обводка_Bottom
  10
-42.6646
  20
17.1736
  42
0
  0
VERTEX
  8
Обводка_Bottom
  10
-42.8401
  20
17.2157
  42
0
  0
VERTEX
  8
Обводка_Bottom
  10
-43.02
  20
17.2299
  42
0
  0
VERTEX
  8
Обводка_Bottom
  10
-43.1999
  20
17.2157
  42
0
  0
VERTEX
  8
Обводка_Bottom
  10
-43.3754
  20
17.1736
  42
0
  0
VERTEX
  8
Обводка_Bottom
  10
-43.5421
  20
17.1045
  42
0
  0
VERTEX
  8
Обводка_Bottom
  10
-43.696
  20
17.0103
  42
0
  0
VERTEX
  8
Обводка_Bottom
  10
-43.8332
  20
16.8931
  42
0
  0
VERTEX
  8
Обводка_Bottom
  10
-43.9504
  20
16.7558
  42
0
  0
VERTEX
  8
Обводка_Bottom
  10
-44.0447
  20
16.602
  42
0
  0
VERTEX
  8
Обводка_Bottom
  10
-44.1137
  20
16.4353
  42
0
  0
VERTEX
  8
Обводка_Bottom
  10
-44.1558
  20
16.2598
  42
0
  0
VERTEX
  8
Обводка_Bottom
  10
-44.17
  20
16.0799
  42
0
  0
VERTEX
  8
Обводка_Bottom
  10
-44.17
  20
14.6899
  42
0
  0
VERTEX
  8
Обводка_Bottom
  10
-44.4249
  20
14.6758
  42
0
  0
VERTEX
  8
Обводка_Bottom
  10
-44.6004
  20
14.6337
  42
0
  0
VERTEX
  8
Обводка_Bottom
  10
-44.7671
  20
14.5647
  42
0
  0
VERTEX
  8
Обводка_Bottom
  10
-44.921
  20
14.4704
  42
0
  0
VERTEX
  8
Обводка_Bottom
  10
-45.0586
  20
14.3526
  42
0
  0
VERTEX
  8
Обводка_Bottom
  10
-47.2615
  20
12.1498
  42
0
  0
VERTEX
  8
Обводка_Bottom
  10
-50.64
  20
12.15
  42
0
  0
VERTEX
  8
Обводка_Bottom
  10
-50.8199
  20
12.1358
  42
0
  0
VERTEX
  8
Обводка_Bottom
  10
-50.9954
  20
12.0937
  42
0
  0
VERTEX
  8
Обводка_Bottom
  10
-51.1621
  20
12.0247
  42
0
  0
VERTEX
  8
Обводка_Bottom
  10
-51.316
  20
11.9304
  42
0
  0
VERTEX
  8
Обводка_Bottom
  10
-51.4532
  20
11.8132
  42
0
  0
VERTEX
  8
Обводка_Bottom
  10
-51.5704
  20
11.676
  42
0
  0
VERTEX
  8
Обводка_Bottom
  10
-51.6647
  20
11.5221
  42
0
  0
VERTEX
  8
Обводка_Bottom
  10
-51.7337
  20
11.3554
  42
0
  0
VERTEX
  8
Обводка_Bottom
  10
-51.7758
  20
11.1799
  42
0
  0
VERTEX
  8
Обводка_Bottom
  10
-51.79
  20
11.0
  42
0
  0
VERTEX
  8
Обводка_Bottom
  10
-51.7758
  20
10.8201
  42
0
  0
VERTEX
  8
Обводка_Bottom
  10
-51.7337
  20
10.6446
  42
0
  0
VERTEX
  8
Обводка_Bottom
  10
-51.6647
  20
10.4779
  42
0
  0
VERTEX
  8
Обводка_Bottom
  10
-51.5704
  20
10.324
  42
0
  0
VERTEX
  8
Обводка_Bottom
  10
-51.4532
  20
10.1868
  42
0
  0
VERTEX
  8
Обводка_Bottom
  10
-51.316
  20
10.0696
  42
0
  0
VERTEX
  8
Обводка_Bottom
  10
-51.1621
  20
9.9753
  42
0
  0
VERTEX
  8
Обводка_Bottom
  10
-50.9954
  20
9.9063
  42
0
  0
VERTEX
  8
Обводка_Bottom
  10
-50.8199
  20
9.8642
  42
0
  0
VERTEX
  8
Обводка_Bottom
  10
-50.64
  20
9.85
  42
0
  0
VERTEX
  8
Обводка_Bottom
  10
-46.785
  20
9.85
  42
0
  0
VERTEX
  8
Обводка_Bottom
  10
-46.6051
  20
9.8642
  42
0
  0
VERTEX
  8
Обводка_Bottom
  10
-46.4296
  20
9.9063
  42
0
  0
VERTEX
  8
Обводка_Bottom
  10
-46.2629
  20
9.9753
  42
0
  0
VERTEX
  8
Обводка_Bottom
  10
-46.109
  20
10.0696
  42
0
  0
VERTEX
  8
Обводка_Bottom
  10
-45.9718
  20
10.1868
  42
0
  0
VERTEX
  8
Обводка_Bottom
  10
-43.7685
  20
12.3901
  42
0
  0
VERTEX
  8
Обводка_Bottom
  10
-43.02
  20
12.39
  42
0
  0
VERTEX
  8
Обводка_Bottom
  10
-42.8401
  20
12.4041
  42
0
  0
VERTEX
  8
Обводка_Bottom
  10
-42.6646
  20
12.4463
  42
0
  0
VERTEX
  8
Обводка_Bottom
  10
-42.4979
  20
12.5153
  42
0
  0
VERTEX
  8
Обводка_Bottom
  10
-42.344
  20
12.6096
  42
0
  0
VERTEX
  8
Обводка_Bottom
  10
-42.2064
  20
12.7274
  42
0
  0
VERTEX
  8
Обводка_Bottom
  10
-42.1239
  20
12.82
  42
0
  0
VERTEX
  8
Обводка_Bottom
  10
-33.4963
  20
12.82
  42
0
  0
VERTEX
  8
Обводка_Bottom
  10
-33.2177
  20
12.5412
  42
0
  0
VERTEX
  8
Обводка_Bottom
  10
-33.3019
  20
12.4086
  42
0
  0
VERTEX
  8
Обводка_Bottom
  10
-33.356
  20
12.2781
  42
0
  0
VERTEX
  8
Обводка_Bottom
  10
-33.3889
  20
12.1408
  42
0
  0
VERTEX
  8
Обводка_Bottom
  10
-33.4
  20
12.0
  42
0
  0
VERTEX
  8
Обводка_Bottom
  10
-33.3889
  20
11.8592
  42
0
  0
VERTEX
  8
Обводка_Bottom
  10
-33.356
  20
11.7219
  42
0
  0
VERTEX
  8
Обводка_Bottom
  10
-33.3019
  20
11.5914
  42
0
  0
VERTEX
  8
Обводка_Bottom
  10
-33.2281
  20
11.471
  42
0
  0
VERTEX
  8
Обводка_Bottom
  10
-33.1364
  20
11.3636
  42
0
  0
VERTEX
  8
Обводка_Bottom
  10
-33.029
  20
11.2719
  42
0
  0
VERTEX
  8
Обводка_Bottom
  10
-32.9086
  20
11.1981
  42
0
  0
VERTEX
  8
Обводка_Bottom
  10
-32.7781
  20
11.144
  42
0
  0
VERTEX
  8
Обводка_Bottom
  10
-32.6408
  20
11.1111
  42
0
  0
VERTEX
  8
Обводка_Bottom
  10
-32.3333
  20
11.1
  42
0
  0
VERTEX
  8
Обводка_Bottom
  10
-31.5
  20
11.1
  42
0
  0
VERTEX
  8
Обводка_Bottom
  10
-31.3592
  20
11.1111
  42
0
  0
VERTEX
  8
Обводка_Bottom
  10
-31.2219
  20
11.144
  42
0
  0
VERTEX
  8
Обводка_Bottom
  10
-31.0914
  20
11.1981
  42
0
  0
VERTEX
  8
Обводка_Bottom
  10
-30.971
  20
11.2719
  42
0
  0
VERTEX
  8
Обводка_Bottom
  10
-30.8636
  20
11.3636
  42
0
  0
VERTEX
  8
Обводка_Bottom
  10
-30.7719
  20
11.471
  42
0
  0
VERTEX
  8
Обводка_Bottom
  10
-30.6981
  20
11.5914
  42
0
  0
VERTEX
  8
Обводка_Bottom
  10
-30.644
  20
11.7219
  42
0
  0
VERTEX
  8
Обводка_Bottom
  10
-30.6111
  20
11.8592
  42
0
  0
VERTEX
  8
Обводка_Bottom
  10
-30.6
  20
12.0
  42
0
  0
VERTEX
  8
Обводка_Bottom
  10
-30.6111
  20
12.1408
  42
0
  0
VERTEX
  8
Обводка_Bottom
  10
-30.644
  20
12.2781
  42
0
  0
VERTEX
  8
Обводка_Bottom
  10
-30.6981
  20
12.4086
  42
0
  0
VERTEX
  8
Обводка_Bottom
  10
-30.7719
  20
12.529
  42
0
  0
VERTEX
  8
Обводка_Bottom
  10
-30.8875
  20
12.6568
  42
0
  0
VERTEX
  8
Обводка_Bottom
  10
-30.8642
  20
12.7701
  42
0
  0
VERTEX
  8
Обводка_Bottom
  10
-30.85
  20
12.95
  42
0
  0
VERTEX
  8
Обводка_Bottom
  10
-30.8642
  20
13.1299
  42
0
  0
VERTEX
  8
Обводка_Bottom
  10
-30.9063
  20
13.3054
  42
0
  0
VERTEX
  8
Обводка_Bottom
  10
-30.9753
  20
13.4721
  42
0
  0
VERTEX
  8
Обводка_Bottom
  10
-31.0696
  20
13.626
  42
0
  0
VERTEX
  8
Обводка_Bottom
  10
-31.1868
  20
13.7632
  42
0
  0
VERTEX
  8
Обводка_Bottom
  10
-32.2063
  20
14.7827
  42
0
  0
VERTEX
  8
Обводка_Bottom
  10
-32.3146
  20
14.8782
  42
0
  0
SEQEND
  0
POLYLINE
  8
Обводка_Bottom
  6
CONTINUOUS
  66
1
  70
0
  40
0.8
  41
0.8
  0
VERTEX
  8
Обводка_Bottom
  10
-30.8541
  20
9.3727
  42
0
  0
VERTEX
  8
Обводка_Bottom
  10
-30.8642
  20
9.1401
  42
0
  0
VERTEX
  8
Обводка_Bottom
  10
-30.9063
  20
8.9646
  42
0
  0
VERTEX
  8
Обводка_Bottom
  10
-30.9753
  20
8.7979
  42
0
  0
VERTEX
  8
Обводка_Bottom
  10
-31.0696
  20
8.644
  42
0
  0
VERTEX
  8
Обводка_Bottom
  10
-31.2038
  20
8.4898
  42
0
  0
VERTEX
  8
Обводка_Bottom
  10
-33.3168
  20
6.3768
  42
0
  0
VERTEX
  8
Обводка_Bottom
  10
-33.454
  20
6.2596
  42
0
  0
VERTEX
  8
Обводка_Bottom
  10
-33.6079
  20
6.1653
  42
0
  0
VERTEX
  8
Обводка_Bottom
  10
-33.7746
  20
6.0963
  42
0
  0
VERTEX
  8
Обводка_Bottom
  10
-33.9501
  20
6.0542
  42
0
  0
VERTEX
  8
Обводка_Bottom
  10
-34.1306
  20
6.04
  42
0
  0
VERTEX
  8
Обводка_Bottom
  10
-36.67
  20
6.04
  42
0
  0
VERTEX
  8
Обводка_Bottom
  10
-36.8499
  20
6.0542
  42
0
  0
VERTEX
  8
Обводка_Bottom
  10
-37.0254
  20
6.0963
  42
0
  0
VERTEX
  8
Обводка_Bottom
  10
-37.1921
  20
6.1653
  42
0
  0
VERTEX
  8
Обводка_Bottom
  10
-37.346
  20
6.2596
  42
0
  0
VERTEX
  8
Обводка_Bottom
  10
-37.5248
  20
6.4184
  42
0
  0
VERTEX
  8
Обводка_Bottom
  10
-38.3248
  20
7.2189
  42
0
  0
VERTEX
  8
Обводка_Bottom
  10
-41.3713
  20
7.2189
  42
0
  0
VERTEX
  8
Обводка_Bottom
  10
-41.5512
  20
7.2331
  42
0
  0
VERTEX
  8
Обводка_Bottom
  10
-41.7266
  20
7.2752
  42
0
  0
VERTEX
  8
Обводка_Bottom
  10
-41.8934
  20
7.3442
  42
0
  0
VERTEX
  8
Обводка_Bottom
  10
-42.0472
  20
7.4385
  42
0
  0
VERTEX
  8
Обводка_Bottom
  10
-42.1844
  20
7.5557
  42
0
  0
VERTEX
  8
Обводка_Bottom
  10
-42.3016
  20
7.693
  42
0
  0
VERTEX
  8
Обводка_Bottom
  10
-42.3959
  20
7.8468
  42
0
  0
VERTEX
  8
Обводка_Bottom
  10
-42.465
  20
8.0135
  42
0
  0
VERTEX
  8
Обводка_Bottom
  10
-42.5071
  20
8.189
  42
0
  0
VERTEX
  8
Обводка_Bottom
  10
-42.5213
  20
8.3689
  42
0
  0
VERTEX
  8
Обводка_Bottom
  10
-42.5071
  20
8.5488
  42
0
  0
VERTEX
  8
Обводка_Bottom
  10
-42.465
  20
8.7243
  42
0
  0
VERTEX
  8
Обводка_Bottom
  10
-42.3959
  20
8.891
  42
0
  0
VERTEX
  8
Обводка_Bottom
  10
-42.3016
  20
9.0449
  42
0
  0
VERTEX
  8
Обводка_Bottom
  10
-42.1844
  20
9.1821
  42
0
  0
VERTEX
  8
Обводка_Bottom
  10
-42.0472
  20
9.2993
  42
0
  0
VERTEX
  8
Обводка_Bottom
  10
-41.8934
  20
9.3936
  42
0
  0
VERTEX
  8
Обводка_Bottom
  10
-41.7266
  20
9.4626
  42
0
  0
VERTEX
  8
Обводка_Bottom
  10
-41.5512
  20
9.5048
  42
0
  0
VERTEX
  8
Обводка_Bottom
  10
-41.2446
  20
9.5189
  42
0
  0
VERTEX
  8
Обводка_Bottom
  10
-37.8489
  20
9.5189
  42
0
  0
VERTEX
  8
Обводка_Bottom
  10
-37.669
  20
9.5048
  42
0
  0
VERTEX
  8
Обводка_Bottom
  10
-37.4935
  20
9.4626
  42
0
  0
VERTEX
  8
Обводка_Bottom
  10
-37.3268
  20
9.3936
  42
0
  0
VERTEX
  8
Обводка_Bottom
  10
-37.173
  20
9.2993
  42
0
  0
VERTEX
  8
Обводка_Bottom
  10
-36.9941
  20
9.1405
  42
0
  0
VERTEX
  8
Обводка_Bottom
  10
-36.1935
  20
8.34
  42
0
  0
VERTEX
  8
Обводка_Bottom
  10
-34.6063
  20
8.34
  42
0
  0
VERTEX
  8
Обводка_Bottom
  10
-33.3173
  20
9.6286
  42
0
  0
VERTEX
  8
Обводка_Bottom
  10
-33.356
  20
9.7219
  42
0
  0
VERTEX
  8
Обводка_Bottom
  10
-33.3889
  20
9.8592
  42
0
  0
VERTEX
  8
Обводка_Bottom
  10
-33.4
  20
10.0
  42
0
  0
VERTEX
  8
Обводка_Bottom
  10
-33.3889
  20
10.1408
  42
0
  0
VERTEX
  8
Обводка_Bottom
  10
-33.356
  20
10.2781
  42
0
  0
VERTEX
  8
Обводка_Bottom
  10
-33.3019
  20
10.4086
  42
0
  0
VERTEX
  8
Обводка_Bottom
  10
-33.2281
  20
10.529
  42
0
  0
VERTEX
  8
Обводка_Bottom
  10
-33.1364
  20
10.6364
  42
0
  0
VERTEX
  8
Обводка_Bottom
  10
-33.029
  20
10.7281
  42
0
  0
VERTEX
  8
Обводка_Bottom
  10
-32.9086
  20
10.8019
  42
0
  0
VERTEX
  8
Обводка_Bottom
  10
-32.7781
  20
10.856
  42
0
  0
VERTEX
  8
Обводка_Bottom
  10
-32.6408
  20
10.8889
  42
0
  0
VERTEX
  8
Обводка_Bottom
  10
-32.4667
  20
10.9
  42
0
  0
VERTEX
  8
Обводка_Bottom
  10
-31.5
  20
10.9
  42
0
  0
VERTEX
  8
Обводка_Bottom
  10
-31.3592
  20
10.8889
  42
0
  0
VERTEX
  8
Обводка_Bottom
  10
-31.2219
  20
10.856
  42
0
  0
VERTEX
  8
Обводка_Bottom
  10
-31.0914
  20
10.8019
  42
0
  0
VERTEX
  8
Обводка_Bottom
  10
-30.971
  20
10.7281
  42
0
  0
VERTEX
  8
Обводка_Bottom
  10
-30.8636
  20
10.6364
  42
0
  0
VERTEX
  8
Обводка_Bottom
  10
-30.7719
  20
10.529
  42
0
  0
VERTEX
  8
Обводка_Bottom
  10
-30.6981
  20
10.4086
  42
0
  0
VERTEX
  8
Обводка_Bottom
  10
-30.644
  20
10.2781
  42
0
  0
VERTEX
  8
Обводка_Bottom
  10
-30.6111
  20
10.1408
  42
0
  0
VERTEX
  8
Обводка_Bottom
  10
-30.6
  20
10.0
  42
0
  0
VERTEX
  8
Обводка_Bottom
  10
-30.6111
  20
9.8592
  42
0
  0
VERTEX
  8
Обводка_Bottom
  10
-30.644
  20
9.7219
  42
0
  0
VERTEX
  8
Обводка_Bottom
  10
-30.6981
  20
9.5914
  42
0
  0
VERTEX
  8
Обводка_Bottom
  10
-30.7719
  20
9.471
  42
0
  0
VERTEX
  8
Обводка_Bottom
  10
-30.8518
  20
9.3774
  42
0
  0
VERTEX
  8
Обводка_Bottom
  10
-30.8541
  20
9.3727
  42
0
  0
SEQEND
  0
ENDSEC
  0
EOF
