  0
SECTION
  2
HEADER
  9
$ACADVER
  1
AC1009
  9
$ANGDIR
  70
0
  9
$CECOLOR
  62
256
  9
$CELTYPE
  6
BYLAYER
  9
$EXTMIN
  10
0.0
  20
0.0
  9
$EXTMAX
  10
73.66
  20
76.2
  9
$FILLMODE
  70
1
  9
$MIRRTEXT
  70
0
  0
ENDSEC
  0
SECTION
  2
TABLES
  0
TABLE
  2
LAYER
  70
23
  0
LAYER
  2
Обводка_Bottom
  70
64
  62
23
  6
CONTINUOUS
  0
ENDTAB
  0
ENDSEC
  0
SECTION
  2
ENTITIES
  0
POLYLINE
  8
Обводка_Bottom
  6
CONTINUOUS
  66
1
  70
0
  40
0.9
  41
0.9
  0
VERTEX
  8
Обводка_Bottom
  10
-52.2067
  20
53.3667
  42
0
  0
VERTEX
  8
Обводка_Bottom
  10
-54.0067
  20
53.3667
  42
0
  0
VERTEX
  8
Обводка_Bottom
  10
-54.0067
  20
52.7331
  42
0
  0
VERTEX
  8
Обводка_Bottom
  10
-54.0759
  20
52.6148
  42
0
  0
VERTEX
  8
Обводка_Bottom
  10
-54.1479
  20
52.4408
  42
0
  0
VERTEX
  8
Обводка_Bottom
  10
-54.1919
  20
52.2577
  42
0
  0
VERTEX
  8
Обводка_Bottom
  10
-54.2067
  20
52.07
  42
0
  0
VERTEX
  8
Обводка_Bottom
  10
-54.1919
  20
51.8823
  42
0
  0
VERTEX
  8
Обводка_Bottom
  10
-54.1479
  20
51.6992
  42
0
  0
VERTEX
  8
Обводка_Bottom
  10
-54.0759
  20
51.5252
  42
0
  0
VERTEX
  8
Обводка_Bottom
  10
-53.9775
  20
51.3647
  42
0
  0
VERTEX
  8
Обводка_Bottom
  10
-53.8552
  20
51.2215
  42
0
  0
VERTEX
  8
Обводка_Bottom
  10
-53.712
  20
51.0992
  42
0
  0
VERTEX
  8
Обводка_Bottom
  10
-53.5515
  20
51.0008
  42
0
  0
VERTEX
  8
Обводка_Bottom
  10
-53.3775
  20
50.9287
  42
0
  0
VERTEX
  8
Обводка_Bottom
  10
-53.1944
  20
50.8848
  42
0
  0
VERTEX
  8
Обводка_Bottom
  10
-53.0067
  20
50.87
  42
0
  0
VERTEX
  8
Обводка_Bottom
  10
-43.18
  20
50.87
  42
0
  0
VERTEX
  8
Обводка_Bottom
  10
-42.9923
  20
50.8848
  42
0
  0
VERTEX
  8
Обводка_Bottom
  10
-42.8092
  20
50.9287
  42
0
  0
VERTEX
  8
Обводка_Bottom
  10
-42.6352
  20
51.0008
  42
0
  0
VERTEX
  8
Обводка_Bottom
  10
-42.4747
  20
51.0992
  42
0
  0
VERTEX
  8
Обводка_Bottom
  10
-42.3315
  20
51.2215
  42
0
  0
VERTEX
  8
Обводка_Bottom
  10
-42.2092
  20
51.3647
  42
0
  0
VERTEX
  8
Обводка_Bottom
  10
-42.1108
  20
51.5252
  42
0
  0
VERTEX
  8
Обводка_Bottom
  10
-42.0387
  20
51.6992
  42
0
  0
VERTEX
  8
Обводка_Bottom
  10
-41.9948
  20
51.8823
  42
0
  0
VERTEX
  8
Обводка_Bottom
  10
-41.98
  20
52.07
  42
0
  0
VERTEX
  8
Обводка_Bottom
  10
-41.9948
  20
52.2577
  42
0
  0
VERTEX
  8
Обводка_Bottom
  10
-42.0387
  20
52.4408
  42
0
  0
VERTEX
  8
Обводка_Bottom
  10
-42.1108
  20
52.6148
  42
0
  0
VERTEX
  8
Обводка_Bottom
  10
-42.2092
  20
52.7753
  42
0
  0
VERTEX
  8
Обводка_Bottom
  10
-42.3315
  20
52.9185
  42
0
  0
VERTEX
  8
Обводка_Bottom
  10
-42.4747
  20
53.0408
  42
0
  0
VERTEX
  8
Обводка_Bottom
  10
-42.6352
  20
53.1392
  42
0
  0
VERTEX
  8
Обводка_Bottom
  10
-42.8092
  20
53.2113
  42
0
  0
VERTEX
  8
Обводка_Bottom
  10
-42.9923
  20
53.2552
  42
0
  0
VERTEX
  8
Обводка_Bottom
  10
-43.18
  20
53.27
  42
0
  0
VERTEX
  8
Обводка_Bottom
  10
-48.782
  20
53.2701
  42
0
  0
VERTEX
  8
Обводка_Bottom
  10
-48.7817
  20
53.3167
  42
0
  0
VERTEX
  8
Обводка_Bottom
  10
-50.8817
  20
53.3167
  42
0
  0
VERTEX
  8
Обводка_Bottom
  10
-50.8817
  20
53.2706
  42
0
  0
VERTEX
  8
Обводка_Bottom
  10
-52.0074
  20
53.27
  42
0
  0
VERTEX
  8
Обводка_Bottom
  10
-52.0067
  20
53.3667
  42
0
  0
VERTEX
  8
Обводка_Bottom
  10
-52.2067
  20
53.3667
  42
0
  0
SEQEND
  0
POLYLINE
  8
Обводка_Bottom
  6
CONTINUOUS
  66
1
  70
0
  40
0.9
  41
0.9
  0
VERTEX
  8
Обводка_Bottom
  10
-53.4856
  20
48.4867
  42
0
  0
VERTEX
  8
Обводка_Bottom
  10
-54.2067
  20
48.4867
  42
0
  0
VERTEX
  8
Обводка_Bottom
  10
-54.2067
  20
46.0867
  42
0
  0
VERTEX
  8
Обводка_Bottom
  10
-51.8067
  20
46.0867
  42
0
  0
VERTEX
  8
Обводка_Bottom
  10
-51.8067
  20
46.186
  42
0
  0
VERTEX
  8
Обводка_Bottom
  10
-48.8559
  20
46.1867
  42
0
  0
VERTEX
  8
Обводка_Bottom
  10
-49.3924
  20
45.6496
  42
0
  0
VERTEX
  8
Обводка_Bottom
  10
-54.1128
  20
45.65
  42
0
  0
VERTEX
  8
Обводка_Bottom
  10
-54.3465
  20
45.8835
  42
0
  0
VERTEX
  8
Обводка_Bottom
  10
-54.3467
  20
48.4867
  42
0
  0
VERTEX
  8
Обводка_Bottom
  10
-54.5959
  20
48.4867
  42
0
  0
VERTEX
  8
Обводка_Bottom
  10
-54.5959
  20
51.3667
  42
0
  0
VERTEX
  8
Обводка_Bottom
  10
-54.5467
  20
51.3667
  42
0
  0
VERTEX
  8
Обводка_Bottom
  10
-54.5467
  20
53.3667
  42
0
  0
VERTEX
  8
Обводка_Bottom
  10
-56.5467
  20
53.3667
  42
0
  0
VERTEX
  8
Обводка_Bottom
  10
-56.5467
  20
51.3667
  42
0
  0
VERTEX
  8
Обводка_Bottom
  10
-56.4974
  20
51.3667
  42
0
  0
VERTEX
  8
Обводка_Bottom
  10
-56.4967
  20
48.4862
  42
0
  0
VERTEX
  8
Обводка_Bottom
  10
-56.7467
  20
48.4867
  42
0
  0
VERTEX
  8
Обводка_Bottom
  10
-56.7467
  20
45.3867
  42
0
  0
VERTEX
  8
Обводка_Bottom
  10
-56.7319
  20
45.1989
  42
0
  0
VERTEX
  8
Обводка_Bottom
  10
-56.6879
  20
45.0158
  42
0
  0
VERTEX
  8
Обводка_Bottom
  10
-56.6159
  20
44.8419
  42
0
  0
VERTEX
  8
Обводка_Bottom
  10
-56.5175
  20
44.6813
  42
0
  0
VERTEX
  8
Обводка_Bottom
  10
-56.3946
  20
44.5377
  42
0
  0
VERTEX
  8
Обводка_Bottom
  10
-55.4585
  20
43.6015
  42
0
  0
VERTEX
  8
Обводка_Bottom
  10
-55.3153
  20
43.4792
  42
0
  0
VERTEX
  8
Обводка_Bottom
  10
-55.1548
  20
43.3808
  42
0
  0
VERTEX
  8
Обводка_Bottom
  10
-54.9808
  20
43.3087
  42
0
  0
VERTEX
  8
Обводка_Bottom
  10
-54.7977
  20
43.2648
  42
0
  0
VERTEX
  8
Обводка_Bottom
  10
-54.6093
  20
43.2501
  42
0
  0
VERTEX
  8
Обводка_Bottom
  10
-48.895
  20
43.25
  42
0
  0
VERTEX
  8
Обводка_Bottom
  10
-48.7073
  20
43.2648
  42
0
  0
VERTEX
  8
Обводка_Bottom
  10
-48.5242
  20
43.3087
  42
0
  0
VERTEX
  8
Обводка_Bottom
  10
-48.3502
  20
43.3808
  42
0
  0
VERTEX
  8
Обводка_Bottom
  10
-48.1897
  20
43.4792
  42
0
  0
VERTEX
  8
Обводка_Bottom
  10
-48.046
  20
43.602
  42
0
  0
VERTEX
  8
Обводка_Bottom
  10
-45.8575
  20
45.7904
  42
0
  0
VERTEX
  8
Обводка_Bottom
  10
-43.18
  20
45.79
  42
0
  0
VERTEX
  8
Обводка_Bottom
  10
-42.9923
  20
45.8048
  42
0
  0
VERTEX
  8
Обводка_Bottom
  10
-42.8092
  20
45.8487
  42
0
  0
VERTEX
  8
Обводка_Bottom
  10
-42.6352
  20
45.9208
  42
0
  0
VERTEX
  8
Обводка_Bottom
  10
-42.4747
  20
46.0192
  42
0
  0
VERTEX
  8
Обводка_Bottom
  10
-42.3315
  20
46.1415
  42
0
  0
VERTEX
  8
Обводка_Bottom
  10
-42.2092
  20
46.2847
  42
0
  0
VERTEX
  8
Обводка_Bottom
  10
-42.1108
  20
46.4452
  42
0
  0
VERTEX
  8
Обводка_Bottom
  10
-42.0387
  20
46.6192
  42
0
  0
VERTEX
  8
Обводка_Bottom
  10
-41.9948
  20
46.8023
  42
0
  0
VERTEX
  8
Обводка_Bottom
  10
-41.98
  20
46.99
  42
0
  0
VERTEX
  8
Обводка_Bottom
  10
-41.9948
  20
47.1777
  42
0
  0
VERTEX
  8
Обводка_Bottom
  10
-42.0387
  20
47.3608
  42
0
  0
VERTEX
  8
Обводка_Bottom
  10
-42.1108
  20
47.5348
  42
0
  0
VERTEX
  8
Обводка_Bottom
  10
-42.2092
  20
47.6953
  42
0
  0
VERTEX
  8
Обводка_Bottom
  10
-42.3315
  20
47.8385
  42
0
  0
VERTEX
  8
Обводка_Bottom
  10
-42.4747
  20
47.9608
  42
0
  0
VERTEX
  8
Обводка_Bottom
  10
-42.6352
  20
48.0592
  42
0
  0
VERTEX
  8
Обводка_Bottom
  10
-42.8092
  20
48.1313
  42
0
  0
VERTEX
  8
Обводка_Bottom
  10
-42.9923
  20
48.1752
  42
0
  0
VERTEX
  8
Обводка_Bottom
  10
-43.18
  20
48.19
  42
0
  0
VERTEX
  8
Обводка_Bottom
  10
-46.3549
  20
48.1901
  42
0
  0
VERTEX
  8
Обводка_Bottom
  10
-46.5427
  20
48.1753
  42
0
  0
VERTEX
  8
Обводка_Bottom
  10
-46.7258
  20
48.1313
  42
0
  0
VERTEX
  8
Обводка_Bottom
  10
-46.8997
  20
48.0593
  42
0
  0
VERTEX
  8
Обводка_Bottom
  10
-47.0603
  20
47.9609
  42
0
  0
VERTEX
  8
Обводка_Bottom
  10
-47.2039
  20
47.838
  42
0
  0
VERTEX
  8
Обводка_Bottom
  10
-48.6312
  20
46.4109
  42
0
  0
VERTEX
  8
Обводка_Bottom
  10
-48.6317
  20
46.8891
  42
0
  0
VERTEX
  8
Обводка_Bottom
  10
-47.1913
  20
48.33
  42
0
  0
VERTEX
  8
Обводка_Bottom
  10
-43.18
  20
48.33
  42
0
  0
VERTEX
  8
Обводка_Bottom
  10
-42.9923
  20
48.3448
  42
0
  0
VERTEX
  8
Обводка_Bottom
  10
-42.8092
  20
48.3887
  42
0
  0
VERTEX
  8
Обводка_Bottom
  10
-42.6352
  20
48.4608
  42
0
  0
VERTEX
  8
Обводка_Bottom
  10
-42.4747
  20
48.5592
  42
0
  0
VERTEX
  8
Обводка_Bottom
  10
-42.3315
  20
48.6815
  42
0
  0
VERTEX
  8
Обводка_Bottom
  10
-42.2092
  20
48.8247
  42
0
  0
VERTEX
  8
Обводка_Bottom
  10
-42.1108
  20
48.9852
  42
0
  0
VERTEX
  8
Обводка_Bottom
  10
-42.0387
  20
49.1592
  42
0
  0
VERTEX
  8
Обводка_Bottom
  10
-41.9948
  20
49.3423
  42
0
  0
VERTEX
  8
Обводка_Bottom
  10
-41.98
  20
49.53
  42
0
  0
VERTEX
  8
Обводка_Bottom
  10
-41.9948
  20
49.7177
  42
0
  0
VERTEX
  8
Обводка_Bottom
  10
-42.0387
  20
49.9008
  42
0
  0
VERTEX
  8
Обводка_Bottom
  10
-42.1108
  20
50.0748
  42
0
  0
VERTEX
  8
Обводка_Bottom
  10
-42.2092
  20
50.2353
  42
0
  0
VERTEX
  8
Обводка_Bottom
  10
-42.3315
  20
50.3785
  42
0
  0
VERTEX
  8
Обводка_Bottom
  10
-42.4747
  20
50.5008
  42
0
  0
VERTEX
  8
Обводка_Bottom
  10
-42.6352
  20
50.5992
  42
0
  0
VERTEX
  8
Обводка_Bottom
  10
-42.8092
  20
50.6713
  42
0
  0
VERTEX
  8
Обводка_Bottom
  10
-42.9923
  20
50.7152
  42
0
  0
VERTEX
  8
Обводка_Bottom
  10
-43.18
  20
50.73
  42
0
  0
VERTEX
  8
Обводка_Bottom
  10
-47.6883
  20
50.7301
  42
0
  0
VERTEX
  8
Обводка_Bottom
  10
-47.8761
  20
50.7153
  42
0
  0
VERTEX
  8
Обводка_Bottom
  10
-48.0592
  20
50.6713
  42
0
  0
VERTEX
  8
Обводка_Bottom
  10
-48.2331
  20
50.5993
  42
0
  0
VERTEX
  8
Обводка_Bottom
  10
-48.3937
  20
50.5009
  42
0
  0
VERTEX
  8
Обводка_Bottom
  10
-48.5369
  20
50.3786
  42
0
  0
VERTEX
  8
Обводка_Bottom
  10
-50.3287
  20
48.5868
  42
0
  0
VERTEX
  8
Обводка_Bottom
  10
-53.0067
  20
48.5867
  42
0
  0
VERTEX
  8
Обводка_Bottom
  10
-53.1944
  20
48.572
  42
0
  0
VERTEX
  8
Обводка_Bottom
  10
-53.3782
  20
48.5277
  42
0
  0
VERTEX
  8
Обводка_Bottom
  10
-53.4856
  20
48.4867
  42
0
  0
SEQEND
  0
POLYLINE
  8
Обводка_Bottom
  6
CONTINUOUS
  66
1
  70
0
  40
0.9
  41
0.9
  0
VERTEX
  8
Обводка_Bottom
  10
-14.2402
  20
25.39
  42
0
  0
VERTEX
  8
Обводка_Bottom
  10
-21.53
  20
25.39
  42
0
  0
VERTEX
  8
Обводка_Bottom
  10
-21.7177
  20
25.3752
  42
0
  0
VERTEX
  8
Обводка_Bottom
  10
-21.9015
  20
25.331
  42
0
  0
VERTEX
  8
Обводка_Bottom
  10
-25.4
  20
25.33
  42
0
  0
VERTEX
  8
Обводка_Bottom
  10
-25.5877
  20
25.3152
  42
0
  0
VERTEX
  8
Обводка_Bottom
  10
-25.7708
  20
25.2713
  42
0
  0
VERTEX
  8
Обводка_Bottom
  10
-25.9448
  20
25.1992
  42
0
  0
VERTEX
  8
Обводка_Bottom
  10
-26.1053
  20
25.1008
  42
0
  0
VERTEX
  8
Обводка_Bottom
  10
-26.2485
  20
24.9785
  42
0
  0
VERTEX
  8
Обводка_Bottom
  10
-26.3708
  20
24.8353
  42
0
  0
VERTEX
  8
Обводка_Bottom
  10
-26.4692
  20
24.6748
  42
0
  0
VERTEX
  8
Обводка_Bottom
  10
-26.5413
  20
24.5008
  42
0
  0
VERTEX
  8
Обводка_Bottom
  10
-26.5852
  20
24.3177
  42
0
  0
VERTEX
  8
Обводка_Bottom
  10
-26.6
  20
24.13
  42
0
  0
VERTEX
  8
Обводка_Bottom
  10
-26.5852
  20
23.9423
  42
0
  0
VERTEX
  8
Обводка_Bottom
  10
-26.5413
  20
23.7592
  42
0
  0
VERTEX
  8
Обводка_Bottom
  10
-26.4692
  20
23.5852
  42
0
  0
VERTEX
  8
Обводка_Bottom
  10
-26.3708
  20
23.4247
  42
0
  0
VERTEX
  8
Обводка_Bottom
  10
-26.2485
  20
23.2815
  42
0
  0
VERTEX
  8
Обводка_Bottom
  10
-26.1053
  20
23.1592
  42
0
  0
VERTEX
  8
Обводка_Bottom
  10
-25.9448
  20
23.0608
  42
0
  0
VERTEX
  8
Обводка_Bottom
  10
-25.7708
  20
22.9887
  42
0
  0
VERTEX
  8
Обводка_Bottom
  10
-25.5877
  20
22.9448
  42
0
  0
VERTEX
  8
Обводка_Bottom
  10
-25.4
  20
22.93
  42
0
  0
VERTEX
  8
Обводка_Bottom
  10
-13.97
  20
22.93
  42
0
  0
VERTEX
  8
Обводка_Bottom
  10
-13.7823
  20
22.9448
  42
0
  0
VERTEX
  8
Обводка_Bottom
  10
-13.5992
  20
22.9887
  42
0
  0
VERTEX
  8
Обводка_Bottom
  10
-13.4252
  20
23.0608
  42
0
  0
VERTEX
  8
Обводка_Bottom
  10
-13.2647
  20
23.1592
  42
0
  0
VERTEX
  8
Обводка_Bottom
  10
-13.1215
  20
23.2815
  42
0
  0
VERTEX
  8
Обводка_Bottom
  10
-12.9992
  20
23.4247
  42
0
  0
VERTEX
  8
Обводка_Bottom
  10
-12.9008
  20
23.5852
  42
0
  0
VERTEX
  8
Обводка_Bottom
  10
-12.8287
  20
23.7592
  42
0
  0
VERTEX
  8
Обводка_Bottom
  10
-12.7848
  20
23.9423
  42
0
  0
VERTEX
  8
Обводка_Bottom
  10
-12.77
  20
24.13
  42
0
  0
VERTEX
  8
Обводка_Bottom
  10
-12.7848
  20
24.3177
  42
0
  0
VERTEX
  8
Обводка_Bottom
  10
-12.8287
  20
24.5008
  42
0
  0
VERTEX
  8
Обводка_Bottom
  10
-12.9008
  20
24.6748
  42
0
  0
VERTEX
  8
Обводка_Bottom
  10
-12.9992
  20
24.8353
  42
0
  0
VERTEX
  8
Обводка_Bottom
  10
-13.1215
  20
24.9785
  42
0
  0
VERTEX
  8
Обводка_Bottom
  10
-13.2647
  20
25.1008
  42
0
  0
VERTEX
  8
Обводка_Bottom
  10
-13.4252
  20
25.1992
  42
0
  0
VERTEX
  8
Обводка_Bottom
  10
-13.5992
  20
25.2713
  42
0
  0
VERTEX
  8
Обводка_Bottom
  10
-13.7823
  20
25.3152
  42
0
  0
VERTEX
  8
Обводка_Bottom
  10
-14.0401
  20
25.33
  42
0
  0
VERTEX
  8
Обводка_Bottom
  10
-14.0402
  20
25.39
  42
0
  0
VERTEX
  8
Обводка_Bottom
  10
-14.2402
  20
25.39
  42
0
  0
SEQEND
  0
POLYLINE
  8
Обводка_Bottom
  6
CONTINUOUS
  66
1
  70
0
  40
0.9
  41
0.9
  0
VERTEX
  8
Обводка_Bottom
  10
-21.5199
  20
30.4908
  42
0
  0
VERTEX
  8
Обводка_Bottom
  10
-19.1199
  20
30.49
  42
0
  0
VERTEX
  8
Обводка_Bottom
  10
-19.1199
  20
30.5502
  42
0
  0
VERTEX
  8
Обводка_Bottom
  10
-18.8623
  20
30.5648
  42
0
  0
VERTEX
  8
Обводка_Bottom
  10
-18.6792
  20
30.6087
  42
0
  0
VERTEX
  8
Обводка_Bottom
  10
-18.5052
  20
30.6808
  42
0
  0
VERTEX
  8
Обводка_Bottom
  10
-18.3447
  20
30.7792
  42
0
  0
VERTEX
  8
Обводка_Bottom
  10
-18.2015
  20
30.9015
  42
0
  0
VERTEX
  8
Обводка_Bottom
  10
-18.0792
  20
31.0447
  42
0
  0
VERTEX
  8
Обводка_Bottom
  10
-17.9808
  20
31.2052
  42
0
  0
VERTEX
  8
Обводка_Bottom
  10
-17.9087
  20
31.3792
  42
0
  0
VERTEX
  8
Обводка_Bottom
  10
-17.8648
  20
31.5623
  42
0
  0
VERTEX
  8
Обводка_Bottom
  10
-17.85
  20
31.75
  42
0
  0
VERTEX
  8
Обводка_Bottom
  10
-17.8648
  20
31.9377
  42
0
  0
VERTEX
  8
Обводка_Bottom
  10
-17.9087
  20
32.1208
  42
0
  0
VERTEX
  8
Обводка_Bottom
  10
-17.9808
  20
32.2948
  42
0
  0
VERTEX
  8
Обводка_Bottom
  10
-18.0792
  20
32.4553
  42
0
  0
VERTEX
  8
Обводка_Bottom
  10
-18.2015
  20
32.5985
  42
0
  0
VERTEX
  8
Обводка_Bottom
  10
-18.3447
  20
32.7208
  42
0
  0
VERTEX
  8
Обводка_Bottom
  10
-18.5052
  20
32.8192
  42
0
  0
VERTEX
  8
Обводка_Bottom
  10
-18.6792
  20
32.8913
  42
0
  0
VERTEX
  8
Обводка_Bottom
  10
-18.8623
  20
32.9352
  42
0
  0
VERTEX
  8
Обводка_Bottom
  10
-19.05
  20
32.95
  42
0
  0
VERTEX
  8
Обводка_Bottom
  10
-25.4
  20
32.95
  42
0
  0
VERTEX
  8
Обводка_Bottom
  10
-25.5877
  20
32.9352
  42
0
  0
VERTEX
  8
Обводка_Bottom
  10
-25.7708
  20
32.8913
  42
0
  0
VERTEX
  8
Обводка_Bottom
  10
-25.9448
  20
32.8192
  42
0
  0
VERTEX
  8
Обводка_Bottom
  10
-26.1053
  20
32.7208
  42
0
  0
VERTEX
  8
Обводка_Bottom
  10
-26.2485
  20
32.5985
  42
0
  0
VERTEX
  8
Обводка_Bottom
  10
-26.3708
  20
32.4553
  42
0
  0
VERTEX
  8
Обводка_Bottom
  10
-26.4692
  20
32.2948
  42
0
  0
VERTEX
  8
Обводка_Bottom
  10
-26.5413
  20
32.1208
  42
0
  0
VERTEX
  8
Обводка_Bottom
  10
-26.5852
  20
31.9377
  42
0
  0
VERTEX
  8
Обводка_Bottom
  10
-26.6
  20
31.75
  42
0
  0
VERTEX
  8
Обводка_Bottom
  10
-26.5852
  20
31.5623
  42
0
  0
VERTEX
  8
Обводка_Bottom
  10
-26.5413
  20
31.3792
  42
0
  0
VERTEX
  8
Обводка_Bottom
  10
-26.4692
  20
31.2052
  42
0
  0
VERTEX
  8
Обводка_Bottom
  10
-26.3708
  20
31.0447
  42
0
  0
VERTEX
  8
Обводка_Bottom
  10
-26.2485
  20
30.9015
  42
0
  0
VERTEX
  8
Обводка_Bottom
  10
-26.1053
  20
30.7792
  42
0
  0
VERTEX
  8
Обводка_Bottom
  10
-25.9448
  20
30.6808
  42
0
  0
VERTEX
  8
Обводка_Bottom
  10
-25.7708
  20
30.6087
  42
0
  0
VERTEX
  8
Обводка_Bottom
  10
-25.5877
  20
30.5648
  42
0
  0
VERTEX
  8
Обводка_Bottom
  10
-25.33
  20
30.55
  42
0
  0
VERTEX
  8
Обводка_Bottom
  10
-24.5008
  20
30.5487
  42
0
  0
VERTEX
  8
Обводка_Bottom
  10
-24.3177
  20
30.5048
  42
0
  0
VERTEX
  8
Обводка_Bottom
  10
-24.1293
  20
30.4901
  42
0
  0
VERTEX
  8
Обводка_Bottom
  10
-21.52
  20
30.49
  42
0
  0
VERTEX
  8
Обводка_Bottom
  10
-21.5199
  20
30.4908
  42
0
  0
SEQEND
  0
POLYLINE
  8
Обводка_Bottom
  6
CONTINUOUS
  66
1
  70
0
  40
0.9
  41
0.9
  0
VERTEX
  8
Обводка_Bottom
  10
-50.69
  20
17.7101
  42
0
  0
VERTEX
  8
Обводка_Bottom
  10
-60.96
  20
17.71
  42
0
  0
VERTEX
  8
Обводка_Bottom
  10
-61.1477
  20
17.6952
  42
0
  0
VERTEX
  8
Обводка_Bottom
  10
-61.3308
  20
17.6513
  42
0
  0
VERTEX
  8
Обводка_Bottom
  10
-61.5048
  20
17.5792
  42
0
  0
VERTEX
  8
Обводка_Bottom
  10
-61.6654
  20
17.4808
  42
0
  0
VERTEX
  8
Обводка_Bottom
  10
-61.8085
  20
17.3585
  42
0
  0
VERTEX
  8
Обводка_Bottom
  10
-61.9308
  20
17.2153
  42
0
  0
VERTEX
  8
Обводка_Bottom
  10
-62.0292
  20
17.0548
  42
0
  0
VERTEX
  8
Обводка_Bottom
  10
-62.1013
  20
16.8808
  42
0
  0
VERTEX
  8
Обводка_Bottom
  10
-62.1452
  20
16.6977
  42
0
  0
VERTEX
  8
Обводка_Bottom
  10
-62.16
  20
16.51
  42
0
  0
VERTEX
  8
Обводка_Bottom
  10
-62.1452
  20
16.3223
  42
0
  0
VERTEX
  8
Обводка_Bottom
  10
-62.1013
  20
16.1392
  42
0
  0
VERTEX
  8
Обводка_Bottom
  10
-62.0292
  20
15.9652
  42
0
  0
VERTEX
  8
Обводка_Bottom
  10
-61.9308
  20
15.8046
  42
0
  0
VERTEX
  8
Обводка_Bottom
  10
-61.8085
  20
15.6615
  42
0
  0
VERTEX
  8
Обводка_Bottom
  10
-61.6653
  20
15.5392
  42
0
  0
VERTEX
  8
Обводка_Bottom
  10
-61.5048
  20
15.4408
  42
0
  0
VERTEX
  8
Обводка_Bottom
  10
-61.3308
  20
15.3687
  42
0
  0
VERTEX
  8
Обводка_Bottom
  10
-61.1477
  20
15.3248
  42
0
  0
VERTEX
  8
Обводка_Bottom
  10
-60.96
  20
15.31
  42
0
  0
VERTEX
  8
Обводка_Bottom
  10
-59.6202
  20
15.31
  42
0
  0
VERTEX
  8
Обводка_Bottom
  10
-59.6199
  20
15.23
  42
0
  0
VERTEX
  8
Обводка_Bottom
  10
-57.2199
  20
15.23
  42
0
  0
VERTEX
  8
Обводка_Bottom
  10
-57.2199
  20
15.3105
  42
0
  0
VERTEX
  8
Обводка_Bottom
  10
-49.5301
  20
15.31
  42
0
  0
VERTEX
  8
Обводка_Bottom
  10
-49.3423
  20
15.3248
  42
0
  0
VERTEX
  8
Обводка_Bottom
  10
-49.1592
  20
15.3687
  42
0
  0
VERTEX
  8
Обводка_Bottom
  10
-48.9853
  20
15.4408
  42
0
  0
VERTEX
  8
Обводка_Bottom
  10
-48.8247
  20
15.5391
  42
0
  0
VERTEX
  8
Обводка_Bottom
  10
-48.6815
  20
15.6614
  42
0
  0
VERTEX
  8
Обводка_Bottom
  10
-48.5592
  20
15.8046
  42
0
  0
VERTEX
  8
Обводка_Bottom
  10
-48.4608
  20
15.9652
  42
0
  0
VERTEX
  8
Обводка_Bottom
  10
-48.3887
  20
16.1391
  42
0
  0
VERTEX
  8
Обводка_Bottom
  10
-48.3448
  20
16.3222
  42
0
  0
VERTEX
  8
Обводка_Bottom
  10
-48.33
  20
16.5099
  42
0
  0
VERTEX
  8
Обводка_Bottom
  10
-48.3448
  20
16.6977
  42
0
  0
VERTEX
  8
Обводка_Bottom
  10
-48.3887
  20
16.8808
  42
0
  0
VERTEX
  8
Обводка_Bottom
  10
-48.4608
  20
17.0547
  42
0
  0
VERTEX
  8
Обводка_Bottom
  10
-48.5591
  20
17.2153
  42
0
  0
VERTEX
  8
Обводка_Bottom
  10
-48.6814
  20
17.3585
  42
0
  0
VERTEX
  8
Обводка_Bottom
  10
-48.8246
  20
17.4808
  42
0
  0
VERTEX
  8
Обводка_Bottom
  10
-48.9852
  20
17.5792
  42
0
  0
VERTEX
  8
Обводка_Bottom
  10
-49.1591
  20
17.6513
  42
0
  0
VERTEX
  8
Обводка_Bottom
  10
-49.3422
  20
17.6952
  42
0
  0
VERTEX
  8
Обводка_Bottom
  10
-49.5299
  20
17.71
  42
0
  0
VERTEX
  8
Обводка_Bottom
  10
-50.69
  20
17.7101
  42
0
  0
SEQEND
  0
POLYLINE
  8
Обводка_Bottom
  6
CONTINUOUS
  66
1
  70
0
  40
0.9
  41
0.9
  0
VERTEX
  8
Обводка_Bottom
  10
-25.33
  20
43.2508
  42
0
  0
VERTEX
  8
Обводка_Bottom
  10
-6.8473
  20
43.25
  42
0
  0
VERTEX
  8
Обводка_Bottom
  10
-6.2799
  20
42.6828
  42
0
  0
VERTEX
  8
Обводка_Bottom
  10
-6.28
  20
38.0308
  42
0
  0
VERTEX
  8
Обводка_Bottom
  10
-8.82
  20
38.03
  42
0
  0
VERTEX
  8
Обводка_Bottom
  10
-8.82
  20
35.63
  42
0
  0
VERTEX
  8
Обводка_Bottom
  10
-5.08
  20
35.63
  42
0
  0
VERTEX
  8
Обводка_Bottom
  10
-4.8923
  20
35.6448
  42
0
  0
VERTEX
  8
Обводка_Bottom
  10
-4.7092
  20
35.6887
  42
0
  0
VERTEX
  8
Обводка_Bottom
  10
-4.5352
  20
35.7608
  42
0
  0
VERTEX
  8
Обводка_Bottom
  10
-4.3747
  20
35.8592
  42
0
  0
VERTEX
  8
Обводка_Bottom
  10
-4.2315
  20
35.9815
  42
0
  0
VERTEX
  8
Обводка_Bottom
  10
-4.1092
  20
36.1247
  42
0
  0
VERTEX
  8
Обводка_Bottom
  10
-4.0108
  20
36.2852
  42
0
  0
VERTEX
  8
Обводка_Bottom
  10
-3.9387
  20
36.4592
  42
0
  0
VERTEX
  8
Обводка_Bottom
  10
-3.8948
  20
36.6423
  42
0
  0
VERTEX
  8
Обводка_Bottom
  10
-3.8801
  20
36.8307
  42
0
  0
VERTEX
  8
Обводка_Bottom
  10
-3.88
  20
43.18
  42
0
  0
VERTEX
  8
Обводка_Bottom
  10
-3.8948
  20
43.3677
  42
0
  0
VERTEX
  8
Обводка_Bottom
  10
-3.9387
  20
43.5508
  42
0
  0
VERTEX
  8
Обводка_Bottom
  10
-4.0108
  20
43.7248
  42
0
  0
VERTEX
  8
Обводка_Bottom
  10
-4.1092
  20
43.8853
  42
0
  0
VERTEX
  8
Обводка_Bottom
  10
-4.232
  20
44.029
  42
0
  0
VERTEX
  8
Обводка_Bottom
  10
-5.5015
  20
45.2985
  42
0
  0
VERTEX
  8
Обводка_Bottom
  10
-5.6447
  20
45.4208
  42
0
  0
VERTEX
  8
Обводка_Bottom
  10
-5.8052
  20
45.5192
  42
0
  0
VERTEX
  8
Обводка_Bottom
  10
-5.9792
  20
45.5913
  42
0
  0
VERTEX
  8
Обводка_Bottom
  10
-6.1623
  20
45.6352
  42
0
  0
VERTEX
  8
Обводка_Bottom
  10
-6.3507
  20
45.6499
  42
0
  0
VERTEX
  8
Обводка_Bottom
  10
-25.4
  20
45.65
  42
0
  0
VERTEX
  8
Обводка_Bottom
  10
-25.5877
  20
45.6352
  42
0
  0
VERTEX
  8
Обводка_Bottom
  10
-25.7708
  20
45.5913
  42
0
  0
VERTEX
  8
Обводка_Bottom
  10
-25.9448
  20
45.5192
  42
0
  0
VERTEX
  8
Обводка_Bottom
  10
-26.1053
  20
45.4208
  42
0
  0
VERTEX
  8
Обводка_Bottom
  10
-26.2485
  20
45.2985
  42
0
  0
VERTEX
  8
Обводка_Bottom
  10
-26.3708
  20
45.1553
  42
0
  0
VERTEX
  8
Обводка_Bottom
  10
-26.4692
  20
44.9948
  42
0
  0
VERTEX
  8
Обводка_Bottom
  10
-26.5413
  20
44.8208
  42
0
  0
VERTEX
  8
Обводка_Bottom
  10
-26.5852
  20
44.6377
  42
0
  0
VERTEX
  8
Обводка_Bottom
  10
-26.6
  20
44.45
  42
0
  0
VERTEX
  8
Обводка_Bottom
  10
-26.5852
  20
44.2623
  42
0
  0
VERTEX
  8
Обводка_Bottom
  10
-26.5413
  20
44.0792
  42
0
  0
VERTEX
  8
Обводка_Bottom
  10
-26.4692
  20
43.9052
  42
0
  0
VERTEX
  8
Обводка_Bottom
  10
-26.3708
  20
43.7447
  42
0
  0
VERTEX
  8
Обводка_Bottom
  10
-26.2485
  20
43.6015
  42
0
  0
VERTEX
  8
Обводка_Bottom
  10
-26.1053
  20
43.4792
  42
0
  0
VERTEX
  8
Обводка_Bottom
  10
-25.9448
  20
43.3808
  42
0
  0
VERTEX
  8
Обводка_Bottom
  10
-25.7708
  20
43.3087
  42
0
  0
VERTEX
  8
Обводка_Bottom
  10
-25.5877
  20
43.2648
  42
0
  0
VERTEX
  8
Обводка_Bottom
  10
-25.3297
  20
43.25
  42
0
  0
VERTEX
  8
Обводка_Bottom
  10
-25.33
  20
43.2508
  42
0
  0
SEQEND
  0
POLYLINE
  8
Обводка_Bottom
  6
CONTINUOUS
  66
1
  70
0
  40
0.9
  41
0.9
  0
VERTEX
  8
Обводка_Bottom
  10
-25.33
  20
40.7108
  42
0
  0
VERTEX
  8
Обводка_Bottom
  10
-8.8202
  20
40.71
  42
0
  0
VERTEX
  8
Обводка_Bottom
  10
-8.82
  20
38.17
  42
0
  0
VERTEX
  8
Обводка_Bottom
  10
-6.42
  20
38.17
  42
0
  0
VERTEX
  8
Обводка_Bottom
  10
-6.42
  20
41.91
  42
0
  0
VERTEX
  8
Обводка_Bottom
  10
-6.4348
  20
42.0977
  42
0
  0
VERTEX
  8
Обводка_Bottom
  10
-6.4787
  20
42.2808
  42
0
  0
VERTEX
  8
Обводка_Bottom
  10
-6.5508
  20
42.4548
  42
0
  0
VERTEX
  8
Обводка_Bottom
  10
-6.6492
  20
42.6153
  42
0
  0
VERTEX
  8
Обводка_Bottom
  10
-6.7715
  20
42.7585
  42
0
  0
VERTEX
  8
Обводка_Bottom
  10
-6.9147
  20
42.8808
  42
0
  0
VERTEX
  8
Обводка_Bottom
  10
-7.0752
  20
42.9792
  42
0
  0
VERTEX
  8
Обводка_Bottom
  10
-7.2492
  20
43.0513
  42
0
  0
VERTEX
  8
Обводка_Bottom
  10
-7.4323
  20
43.0952
  42
0
  0
VERTEX
  8
Обводка_Bottom
  10
-7.6207
  20
43.1099
  42
0
  0
VERTEX
  8
Обводка_Bottom
  10
-25.4
  20
43.11
  42
0
  0
VERTEX
  8
Обводка_Bottom
  10
-25.5877
  20
43.0952
  42
0
  0
VERTEX
  8
Обводка_Bottom
  10
-25.7708
  20
43.0513
  42
0
  0
VERTEX
  8
Обводка_Bottom
  10
-25.9448
  20
42.9792
  42
0
  0
VERTEX
  8
Обводка_Bottom
  10
-26.1053
  20
42.8808
  42
0
  0
VERTEX
  8
Обводка_Bottom
  10
-26.2485
  20
42.7585
  42
0
  0
VERTEX
  8
Обводка_Bottom
  10
-26.3708
  20
42.6153
  42
0
  0
VERTEX
  8
Обводка_Bottom
  10
-26.4692
  20
42.4548
  42
0
  0
VERTEX
  8
Обводка_Bottom
  10
-26.5413
  20
42.2808
  42
0
  0
VERTEX
  8
Обводка_Bottom
  10
-26.5852
  20
42.0977
  42
0
  0
VERTEX
  8
Обводка_Bottom
  10
-26.6
  20
41.91
  42
0
  0
VERTEX
  8
Обводка_Bottom
  10
-26.5852
  20
41.7223
  42
0
  0
VERTEX
  8
Обводка_Bottom
  10
-26.5413
  20
41.5392
  42
0
  0
VERTEX
  8
Обводка_Bottom
  10
-26.4692
  20
41.3652
  42
0
  0
VERTEX
  8
Обводка_Bottom
  10
-26.3708
  20
41.2047
  42
0
  0
VERTEX
  8
Обводка_Bottom
  10
-26.2485
  20
41.0615
  42
0
  0
VERTEX
  8
Обводка_Bottom
  10
-26.1053
  20
40.9392
  42
0
  0
VERTEX
  8
Обводка_Bottom
  10
-25.9448
  20
40.8408
  42
0
  0
VERTEX
  8
Обводка_Bottom
  10
-25.7708
  20
40.7687
  42
0
  0
VERTEX
  8
Обводка_Bottom
  10
-25.5877
  20
40.7248
  42
0
  0
VERTEX
  8
Обводка_Bottom
  10
-25.3297
  20
40.71
  42
0
  0
VERTEX
  8
Обводка_Bottom
  10
-25.33
  20
40.7108
  42
0
  0
SEQEND
  0
POLYLINE
  8
Обводка_Bottom
  6
CONTINUOUS
  66
1
  70
0
  40
0.9
  41
0.9
  0
VERTEX
  8
Обводка_Bottom
  10
-32.95
  20
22.9308
  42
0
  0
VERTEX
  8
Обводка_Bottom
  10
-32.9352
  20
22.6723
  42
0
  0
VERTEX
  8
Обводка_Bottom
  10
-32.8913
  20
22.4892
  42
0
  0
VERTEX
  8
Обводка_Bottom
  10
-32.8192
  20
22.3152
  42
0
  0
VERTEX
  8
Обводка_Bottom
  10
-32.7208
  20
22.1547
  42
0
  0
VERTEX
  8
Обводка_Bottom
  10
-32.598
  20
22.011
  42
0
  0
VERTEX
  8
Обводка_Bottom
  10
-28.7885
  20
18.2015
  42
0
  0
VERTEX
  8
Обводка_Bottom
  10
-28.6453
  20
18.0792
  42
0
  0
VERTEX
  8
Обводка_Bottom
  10
-28.4848
  20
17.9808
  42
0
  0
VERTEX
  8
Обводка_Bottom
  10
-28.3108
  20
17.9087
  42
0
  0
VERTEX
  8
Обводка_Bottom
  10
-28.1277
  20
17.8648
  42
0
  0
VERTEX
  8
Обводка_Bottom
  10
-27.9393
  20
17.8501
  42
0
  0
VERTEX
  8
Обводка_Bottom
  10
-11.43
  20
17.85
  42
0
  0
VERTEX
  8
Обводка_Bottom
  10
-11.2423
  20
17.8648
  42
0
  0
VERTEX
  8
Обводка_Bottom
  10
-11.0592
  20
17.9087
  42
0
  0
VERTEX
  8
Обводка_Bottom
  10
-10.8852
  20
17.9808
  42
0
  0
VERTEX
  8
Обводка_Bottom
  10
-10.7247
  20
18.0792
  42
0
  0
VERTEX
  8
Обводка_Bottom
  10
-10.581
  20
18.202
  42
0
  0
VERTEX
  8
Обводка_Bottom
  10
-4.2315
  20
24.5515
  42
0
  0
VERTEX
  8
Обводка_Bottom
  10
-4.1092
  20
24.6947
  42
0
  0
VERTEX
  8
Обводка_Bottom
  10
-4.0108
  20
24.8552
  42
0
  0
VERTEX
  8
Обводка_Bottom
  10
-3.9387
  20
25.0292
  42
0
  0
VERTEX
  8
Обводка_Bottom
  10
-3.8948
  20
25.2123
  42
0
  0
VERTEX
  8
Обводка_Bottom
  10
-3.8801
  20
25.4007
  42
0
  0
VERTEX
  8
Обводка_Bottom
  10
-3.88
  20
34.29
  42
0
  0
VERTEX
  8
Обводка_Bottom
  10
-3.8948
  20
34.4777
  42
0
  0
VERTEX
  8
Обводка_Bottom
  10
-3.9387
  20
34.6608
  42
0
  0
VERTEX
  8
Обводка_Bottom
  10
-4.0108
  20
34.8348
  42
0
  0
VERTEX
  8
Обводка_Bottom
  10
-4.1092
  20
34.9953
  42
0
  0
VERTEX
  8
Обводка_Bottom
  10
-4.2315
  20
35.1385
  42
0
  0
VERTEX
  8
Обводка_Bottom
  10
-4.3747
  20
35.2608
  42
0
  0
VERTEX
  8
Обводка_Bottom
  10
-4.5352
  20
35.3592
  42
0
  0
VERTEX
  8
Обводка_Bottom
  10
-4.7092
  20
35.4313
  42
0
  0
VERTEX
  8
Обводка_Bottom
  10
-4.8923
  20
35.4752
  42
0
  0
VERTEX
  8
Обводка_Bottom
  10
-5.0807
  20
35.4899
  42
0
  0
VERTEX
  8
Обводка_Bottom
  10
-8.82
  20
35.49
  42
0
  0
VERTEX
  8
Обводка_Bottom
  10
-8.82
  20
33.09
  42
0
  0
VERTEX
  8
Обводка_Bottom
  10
-6.28
  20
33.088
  42
0
  0
VERTEX
  8
Обводка_Bottom
  10
-6.28
  20
25.8965
  42
0
  0
VERTEX
  8
Обводка_Bottom
  10
-11.9273
  20
20.2498
  42
0
  0
VERTEX
  8
Обводка_Bottom
  10
-27.443
  20
20.25
  42
0
  0
VERTEX
  8
Обводка_Bottom
  10
-30.1648
  20
22.9719
  42
0
  0
VERTEX
  8
Обводка_Bottom
  10
-29.9352
  20
23.0608
  42
0
  0
VERTEX
  8
Обводка_Bottom
  10
-29.7747
  20
23.1592
  42
0
  0
VERTEX
  8
Обводка_Bottom
  10
-29.6315
  20
23.2815
  42
0
  0
VERTEX
  8
Обводка_Bottom
  10
-29.5092
  20
23.4247
  42
0
  0
VERTEX
  8
Обводка_Bottom
  10
-29.4108
  20
23.5852
  42
0
  0
VERTEX
  8
Обводка_Bottom
  10
-29.3387
  20
23.7592
  42
0
  0
VERTEX
  8
Обводка_Bottom
  10
-29.2948
  20
23.9423
  42
0
  0
VERTEX
  8
Обводка_Bottom
  10
-29.28
  20
24.13
  42
0
  0
VERTEX
  8
Обводка_Bottom
  10
-29.2948
  20
24.3177
  42
0
  0
VERTEX
  8
Обводка_Bottom
  10
-29.3387
  20
24.5008
  42
0
  0
VERTEX
  8
Обводка_Bottom
  10
-29.4108
  20
24.6748
  42
0
  0
VERTEX
  8
Обводка_Bottom
  10
-29.5092
  20
24.8353
  42
0
  0
VERTEX
  8
Обводка_Bottom
  10
-29.6315
  20
24.9785
  42
0
  0
VERTEX
  8
Обводка_Bottom
  10
-29.7747
  20
25.1008
  42
0
  0
VERTEX
  8
Обводка_Bottom
  10
-29.9352
  20
25.1992
  42
0
  0
VERTEX
  8
Обводка_Bottom
  10
-30.1092
  20
25.2713
  42
0
  0
VERTEX
  8
Обводка_Bottom
  10
-30.2923
  20
25.3152
  42
0
  0
VERTEX
  8
Обводка_Bottom
  10
-30.48
  20
25.33
  42
0
  0
VERTEX
  8
Обводка_Bottom
  10
-33.02
  20
25.33
  42
0
  0
VERTEX
  8
Обводка_Bottom
  10
-33.2077
  20
25.3152
  42
0
  0
VERTEX
  8
Обводка_Bottom
  10
-33.3908
  20
25.2713
  42
0
  0
VERTEX
  8
Обводка_Bottom
  10
-33.5648
  20
25.1992
  42
0
  0
VERTEX
  8
Обводка_Bottom
  10
-33.7253
  20
25.1008
  42
0
  0
VERTEX
  8
Обводка_Bottom
  10
-33.8685
  20
24.9785
  42
0
  0
VERTEX
  8
Обводка_Bottom
  10
-33.9908
  20
24.8353
  42
0
  0
VERTEX
  8
Обводка_Bottom
  10
-34.0892
  20
24.6748
  42
0
  0
VERTEX
  8
Обводка_Bottom
  10
-34.1613
  20
24.5008
  42
0
  0
VERTEX
  8
Обводка_Bottom
  10
-34.2052
  20
24.3177
  42
0
  0
VERTEX
  8
Обводка_Bottom
  10
-34.22
  20
24.13
  42
0
  0
VERTEX
  8
Обводка_Bottom
  10
-34.2052
  20
23.9423
  42
0
  0
VERTEX
  8
Обводка_Bottom
  10
-34.1613
  20
23.7592
  42
0
  0
VERTEX
  8
Обводка_Bottom
  10
-34.0892
  20
23.5852
  42
0
  0
VERTEX
  8
Обводка_Bottom
  10
-33.9908
  20
23.4247
  42
0
  0
VERTEX
  8
Обводка_Bottom
  10
-33.8685
  20
23.2815
  42
0
  0
VERTEX
  8
Обводка_Bottom
  10
-33.7253
  20
23.1592
  42
0
  0
VERTEX
  8
Обводка_Bottom
  10
-33.5648
  20
23.0608
  42
0
  0
VERTEX
  8
Обводка_Bottom
  10
-33.3908
  20
22.9887
  42
0
  0
VERTEX
  8
Обводка_Bottom
  10
-33.2077
  20
22.9448
  42
0
  0
VERTEX
  8
Обводка_Bottom
  10
-32.9497
  20
22.93
  42
0
  0
VERTEX
  8
Обводка_Bottom
  10
-32.95
  20
22.9308
  42
0
  0
SEQEND
  0
POLYLINE
  8
Обводка_Bottom
  6
CONTINUOUS
  66
1
  70
0
  40
0.9
  41
0.9
  0
VERTEX
  8
Обводка_Bottom
  10
-36.8658
  20
35.4901
  42
0
  0
VERTEX
  8
Обводка_Bottom
  10
-30.48
  20
35.49
  42
0
  0
VERTEX
  8
Обводка_Bottom
  10
-30.2923
  20
35.4752
  42
0
  0
VERTEX
  8
Обводка_Bottom
  10
-30.1092
  20
35.4313
  42
0
  0
VERTEX
  8
Обводка_Bottom
  10
-29.9352
  20
35.3592
  42
0
  0
VERTEX
  8
Обводка_Bottom
  10
-29.7746
  20
35.2608
  42
0
  0
VERTEX
  8
Обводка_Bottom
  10
-29.6315
  20
35.1385
  42
0
  0
VERTEX
  8
Обводка_Bottom
  10
-29.5092
  20
34.9953
  42
0
  0
VERTEX
  8
Обводка_Bottom
  10
-29.4108
  20
34.8348
  42
0
  0
VERTEX
  8
Обводка_Bottom
  10
-29.3387
  20
34.6608
  42
0
  0
VERTEX
  8
Обводка_Bottom
  10
-29.2948
  20
34.4777
  42
0
  0
VERTEX
  8
Обводка_Bottom
  10
-29.28
  20
34.29
  42
0
  0
VERTEX
  8
Обводка_Bottom
  10
-29.2948
  20
34.1023
  42
0
  0
VERTEX
  8
Обводка_Bottom
  10
-29.3387
  20
33.9192
  42
0
  0
VERTEX
  8
Обводка_Bottom
  10
-29.4108
  20
33.7452
  42
0
  0
VERTEX
  8
Обводка_Bottom
  10
-29.5092
  20
33.5846
  42
0
  0
VERTEX
  8
Обводка_Bottom
  10
-29.6315
  20
33.4415
  42
0
  0
VERTEX
  8
Обводка_Bottom
  10
-29.7747
  20
33.3192
  42
0
  0
VERTEX
  8
Обводка_Bottom
  10
-29.9352
  20
33.2208
  42
0
  0
VERTEX
  8
Обводка_Bottom
  10
-30.1092
  20
33.1487
  42
0
  0
VERTEX
  8
Обводка_Bottom
  10
-30.2923
  20
33.1048
  42
0
  0
VERTEX
  8
Обводка_Bottom
  10
-30.55
  20
33.09
  42
0
  0
VERTEX
  8
Обводка_Bottom
  10
-38.0999
  20
33.09
  42
0
  0
VERTEX
  8
Обводка_Bottom
  10
-38.2877
  20
33.1048
  42
0
  0
VERTEX
  8
Обводка_Bottom
  10
-38.4708
  20
33.1487
  42
0
  0
VERTEX
  8
Обводка_Bottom
  10
-38.6447
  20
33.2208
  42
0
  0
VERTEX
  8
Обводка_Bottom
  10
-38.8053
  20
33.3191
  42
0
  0
VERTEX
  8
Обводка_Bottom
  10
-38.9485
  20
33.4414
  42
0
  0
VERTEX
  8
Обводка_Bottom
  10
-39.0708
  20
33.5846
  42
0
  0
VERTEX
  8
Обводка_Bottom
  10
-39.1692
  20
33.7452
  42
0
  0
VERTEX
  8
Обводка_Bottom
  10
-39.2413
  20
33.9191
  42
0
  0
VERTEX
  8
Обводка_Bottom
  10
-39.2852
  20
34.1022
  42
0
  0
VERTEX
  8
Обводка_Bottom
  10
-39.3
  20
34.2899
  42
0
  0
VERTEX
  8
Обводка_Bottom
  10
-39.2852
  20
34.4777
  42
0
  0
VERTEX
  8
Обводка_Bottom
  10
-39.2413
  20
34.6608
  42
0
  0
VERTEX
  8
Обводка_Bottom
  10
-39.1692
  20
34.8347
  42
0
  0
VERTEX
  8
Обводка_Bottom
  10
-39.0709
  20
34.9953
  42
0
  0
VERTEX
  8
Обводка_Bottom
  10
-38.9486
  20
35.1385
  42
0
  0
VERTEX
  8
Обводка_Bottom
  10
-38.8054
  20
35.2608
  42
0
  0
VERTEX
  8
Обводка_Bottom
  10
-38.6448
  20
35.3592
  42
0
  0
VERTEX
  8
Обводка_Bottom
  10
-38.4709
  20
35.4313
  42
0
  0
VERTEX
  8
Обводка_Bottom
  10
-38.2878
  20
35.4752
  42
0
  0
VERTEX
  8
Обводка_Bottom
  10
-38.0665
  20
35.4901
  42
0
  0
VERTEX
  8
Обводка_Bottom
  10
-36.8658
  20
35.4901
  42
0
  0
SEQEND
  0
POLYLINE
  8
Обводка_Bottom
  6
CONTINUOUS
  66
1
  70
0
  40
0.9
  41
0.9
  0
VERTEX
  8
Обводка_Bottom
  10
-32.95
  20
38.1708
  42
0
  0
VERTEX
  8
Обводка_Bottom
  10
-30.48
  20
38.17
  42
0
  0
VERTEX
  8
Обводка_Bottom
  10
-30.2923
  20
38.1848
  42
0
  0
VERTEX
  8
Обводка_Bottom
  10
-30.1092
  20
38.2287
  42
0
  0
VERTEX
  8
Обводка_Bottom
  10
-29.9352
  20
38.3008
  42
0
  0
VERTEX
  8
Обводка_Bottom
  10
-29.7747
  20
38.3992
  42
0
  0
VERTEX
  8
Обводка_Bottom
  10
-29.6315
  20
38.5215
  42
0
  0
VERTEX
  8
Обводка_Bottom
  10
-29.5092
  20
38.6647
  42
0
  0
VERTEX
  8
Обводка_Bottom
  10
-29.4108
  20
38.8252
  42
0
  0
VERTEX
  8
Обводка_Bottom
  10
-29.3387
  20
38.9992
  42
0
  0
VERTEX
  8
Обводка_Bottom
  10
-29.2948
  20
39.1823
  42
0
  0
VERTEX
  8
Обводка_Bottom
  10
-29.28
  20
39.37
  42
0
  0
VERTEX
  8
Обводка_Bottom
  10
-29.2948
  20
39.5577
  42
0
  0
VERTEX
  8
Обводка_Bottom
  10
-29.3387
  20
39.7408
  42
0
  0
VERTEX
  8
Обводка_Bottom
  10
-29.4108
  20
39.9148
  42
0
  0
VERTEX
  8
Обводка_Bottom
  10
-29.5092
  20
40.0753
  42
0
  0
VERTEX
  8
Обводка_Bottom
  10
-29.6315
  20
40.2185
  42
0
  0
VERTEX
  8
Обводка_Bottom
  10
-29.7747
  20
40.3408
  42
0
  0
VERTEX
  8
Обводка_Bottom
  10
-29.9352
  20
40.4392
  42
0
  0
VERTEX
  8
Обводка_Bottom
  10
-30.1092
  20
40.5113
  42
0
  0
VERTEX
  8
Обводка_Bottom
  10
-30.2923
  20
40.5552
  42
0
  0
VERTEX
  8
Обводка_Bottom
  10
-30.48
  20
40.57
  42
0
  0
VERTEX
  8
Обводка_Bottom
  10
-38.1001
  20
40.57
  42
0
  0
VERTEX
  8
Обводка_Bottom
  10
-38.2878
  20
40.5552
  42
0
  0
VERTEX
  8
Обводка_Bottom
  10
-38.4709
  20
40.5112
  42
0
  0
VERTEX
  8
Обводка_Bottom
  10
-38.6448
  20
40.4392
  42
0
  0
VERTEX
  8
Обводка_Bottom
  10
-38.8054
  20
40.3408
  42
0
  0
VERTEX
  8
Обводка_Bottom
  10
-38.9486
  20
40.2185
  42
0
  0
VERTEX
  8
Обводка_Bottom
  10
-39.0709
  20
40.0753
  42
0
  0
VERTEX
  8
Обводка_Bottom
  10
-39.1692
  20
39.9147
  42
0
  0
VERTEX
  8
Обводка_Bottom
  10
-39.2413
  20
39.7408
  42
0
  0
VERTEX
  8
Обводка_Bottom
  10
-39.2852
  20
39.5577
  42
0
  0
VERTEX
  8
Обводка_Bottom
  10
-39.3
  20
39.3699
  42
0
  0
VERTEX
  8
Обводка_Bottom
  10
-39.2852
  20
39.1822
  42
0
  0
VERTEX
  8
Обводка_Bottom
  10
-39.2412
  20
38.9991
  42
0
  0
VERTEX
  8
Обводка_Bottom
  10
-39.1692
  20
38.8252
  42
0
  0
VERTEX
  8
Обводка_Bottom
  10
-39.0708
  20
38.6646
  42
0
  0
VERTEX
  8
Обводка_Bottom
  10
-38.9485
  20
38.5214
  42
0
  0
VERTEX
  8
Обводка_Bottom
  10
-38.8053
  20
38.3991
  42
0
  0
VERTEX
  8
Обводка_Bottom
  10
-38.6447
  20
38.3008
  42
0
  0
VERTEX
  8
Обводка_Bottom
  10
-38.4708
  20
38.2287
  42
0
  0
VERTEX
  8
Обводка_Bottom
  10
-38.2877
  20
38.1848
  42
0
  0
VERTEX
  8
Обводка_Bottom
  10
-38.0999
  20
38.17
  42
0
  0
VERTEX
  8
Обводка_Bottom
  10
-32.9501
  20
38.17
  42
0
  0
VERTEX
  8
Обводка_Bottom
  10
-32.95
  20
38.1708
  42
0
  0
SEQEND
  0
POLYLINE
  8
Обводка_Bottom
  6
CONTINUOUS
  66
1
  70
0
  40
0.9
  41
0.9
  0
VERTEX
  8
Обводка_Bottom
  10
-32.95
  20
40.7108
  42
0
  0
VERTEX
  8
Обводка_Bottom
  10
-30.48
  20
40.71
  42
0
  0
VERTEX
  8
Обводка_Bottom
  10
-30.2923
  20
40.7248
  42
0
  0
VERTEX
  8
Обводка_Bottom
  10
-30.1092
  20
40.7687
  42
0
  0
VERTEX
  8
Обводка_Bottom
  10
-29.9352
  20
40.8408
  42
0
  0
VERTEX
  8
Обводка_Bottom
  10
-29.7747
  20
40.9392
  42
0
  0
VERTEX
  8
Обводка_Bottom
  10
-29.6315
  20
41.0615
  42
0
  0
VERTEX
  8
Обводка_Bottom
  10
-29.5092
  20
41.2047
  42
0
  0
VERTEX
  8
Обводка_Bottom
  10
-29.4108
  20
41.3652
  42
0
  0
VERTEX
  8
Обводка_Bottom
  10
-29.3387
  20
41.5392
  42
0
  0
VERTEX
  8
Обводка_Bottom
  10
-29.2948
  20
41.7223
  42
0
  0
VERTEX
  8
Обводка_Bottom
  10
-29.28
  20
41.91
  42
0
  0
VERTEX
  8
Обводка_Bottom
  10
-29.2948
  20
42.0977
  42
0
  0
VERTEX
  8
Обводка_Bottom
  10
-29.3387
  20
42.2808
  42
0
  0
VERTEX
  8
Обводка_Bottom
  10
-29.4108
  20
42.4548
  42
0
  0
VERTEX
  8
Обводка_Bottom
  10
-29.5092
  20
42.6153
  42
0
  0
VERTEX
  8
Обводка_Bottom
  10
-29.6315
  20
42.7585
  42
0
  0
VERTEX
  8
Обводка_Bottom
  10
-29.7747
  20
42.8808
  42
0
  0
VERTEX
  8
Обводка_Bottom
  10
-29.9352
  20
42.9792
  42
0
  0
VERTEX
  8
Обводка_Bottom
  10
-30.1092
  20
43.0513
  42
0
  0
VERTEX
  8
Обводка_Bottom
  10
-30.2923
  20
43.0952
  42
0
  0
VERTEX
  8
Обводка_Bottom
  10
-30.48
  20
43.11
  42
0
  0
VERTEX
  8
Обводка_Bottom
  10
-38.1001
  20
43.11
  42
0
  0
VERTEX
  8
Обводка_Bottom
  10
-38.2878
  20
43.0952
  42
0
  0
VERTEX
  8
Обводка_Bottom
  10
-38.4709
  20
43.0512
  42
0
  0
VERTEX
  8
Обводка_Bottom
  10
-38.6448
  20
42.9792
  42
0
  0
VERTEX
  8
Обводка_Bottom
  10
-38.8054
  20
42.8808
  42
0
  0
VERTEX
  8
Обводка_Bottom
  10
-38.9486
  20
42.7585
  42
0
  0
VERTEX
  8
Обводка_Bottom
  10
-39.0709
  20
42.6153
  42
0
  0
VERTEX
  8
Обводка_Bottom
  10
-39.1692
  20
42.4547
  42
0
  0
VERTEX
  8
Обводка_Bottom
  10
-39.2413
  20
42.2808
  42
0
  0
VERTEX
  8
Обводка_Bottom
  10
-39.2852
  20
42.0977
  42
0
  0
VERTEX
  8
Обводка_Bottom
  10
-39.3
  20
41.9099
  42
0
  0
VERTEX
  8
Обводка_Bottom
  10
-39.2852
  20
41.7222
  42
0
  0
VERTEX
  8
Обводка_Bottom
  10
-39.2412
  20
41.5391
  42
0
  0
VERTEX
  8
Обводка_Bottom
  10
-39.1692
  20
41.3652
  42
0
  0
VERTEX
  8
Обводка_Bottom
  10
-39.0708
  20
41.2046
  42
0
  0
VERTEX
  8
Обводка_Bottom
  10
-38.9485
  20
41.0614
  42
0
  0
VERTEX
  8
Обводка_Bottom
  10
-38.8053
  20
40.9391
  42
0
  0
VERTEX
  8
Обводка_Bottom
  10
-38.6447
  20
40.8408
  42
0
  0
VERTEX
  8
Обводка_Bottom
  10
-38.4708
  20
40.7687
  42
0
  0
VERTEX
  8
Обводка_Bottom
  10
-38.2877
  20
40.7248
  42
0
  0
VERTEX
  8
Обводка_Bottom
  10
-38.0999
  20
40.71
  42
0
  0
VERTEX
  8
Обводка_Bottom
  10
-32.9501
  20
40.71
  42
0
  0
VERTEX
  8
Обводка_Bottom
  10
-32.95
  20
40.7108
  42
0
  0
SEQEND
  0
POLYLINE
  8
Обводка_Bottom
  6
CONTINUOUS
  66
1
  70
0
  40
0.9
  41
0.9
  0
VERTEX
  8
Обводка_Bottom
  10
-25.47
  20
55.81
  42
0
  0
VERTEX
  8
Обводка_Bottom
  10
-22.86
  20
55.81
  42
0
  0
VERTEX
  8
Обводка_Bottom
  10
-22.6723
  20
55.7952
  42
0
  0
VERTEX
  8
Обводка_Bottom
  10
-22.4892
  20
55.7513
  42
0
  0
VERTEX
  8
Обводка_Bottom
  10
-22.3152
  20
55.6792
  42
0
  0
VERTEX
  8
Обводка_Bottom
  10
-22.1547
  20
55.5808
  42
0
  0
VERTEX
  8
Обводка_Bottom
  10
-22.0109
  20
55.458
  42
0
  0
VERTEX
  8
Обводка_Bottom
  10
-19.8233
  20
53.27
  42
0
  0
VERTEX
  8
Обводка_Bottom
  10
-8.96
  20
53.27
  42
0
  0
VERTEX
  8
Обводка_Bottom
  10
-8.96
  20
50.87
  42
0
  0
VERTEX
  8
Обводка_Bottom
  10
-20.32
  20
50.87
  42
0
  0
VERTEX
  8
Обводка_Bottom
  10
-20.5077
  20
50.8848
  42
0
  0
VERTEX
  8
Обводка_Bottom
  10
-20.6908
  20
50.9287
  42
0
  0
VERTEX
  8
Обводка_Bottom
  10
-20.8648
  20
51.0008
  42
0
  0
VERTEX
  8
Обводка_Bottom
  10
-21.0253
  20
51.0992
  42
0
  0
VERTEX
  8
Обводка_Bottom
  10
-21.1685
  20
51.2215
  42
0
  0
VERTEX
  8
Обводка_Bottom
  10
-23.3567
  20
53.41
  42
0
  0
VERTEX
  8
Обводка_Bottom
  10
-27.8698
  20
53.41
  42
0
  0
VERTEX
  8
Обводка_Bottom
  10
-27.8697
  20
55.682
  42
0
  0
VERTEX
  8
Обводка_Bottom
  10
-32.3302
  20
51.2215
  42
0
  0
VERTEX
  8
Обводка_Bottom
  10
-32.4734
  20
51.0992
  42
0
  0
VERTEX
  8
Обводка_Bottom
  10
-32.6339
  20
51.0008
  42
0
  0
VERTEX
  8
Обводка_Bottom
  10
-32.8079
  20
50.9287
  42
0
  0
VERTEX
  8
Обводка_Bottom
  10
-32.991
  20
50.8848
  42
0
  0
VERTEX
  8
Обводка_Bottom
  10
-33.2616
  20
50.87
  42
0
  0
VERTEX
  8
Обводка_Bottom
  10
-38.1
  20
50.87
  42
0
  0
VERTEX
  8
Обводка_Bottom
  10
-38.2877
  20
50.8848
  42
0
  0
VERTEX
  8
Обводка_Bottom
  10
-38.4708
  20
50.9287
  42
0
  0
VERTEX
  8
Обводка_Bottom
  10
-38.6448
  20
51.0008
  42
0
  0
VERTEX
  8
Обводка_Bottom
  10
-38.8053
  20
51.0992
  42
0
  0
VERTEX
  8
Обводка_Bottom
  10
-38.9485
  20
51.2215
  42
0
  0
VERTEX
  8
Обводка_Bottom
  10
-39.0708
  20
51.3647
  42
0
  0
VERTEX
  8
Обводка_Bottom
  10
-39.1692
  20
51.5252
  42
0
  0
VERTEX
  8
Обводка_Bottom
  10
-39.2413
  20
51.6992
  42
0
  0
VERTEX
  8
Обводка_Bottom
  10
-39.2852
  20
51.8823
  42
0
  0
VERTEX
  8
Обводка_Bottom
  10
-39.3
  20
52.07
  42
0
  0
VERTEX
  8
Обводка_Bottom
  10
-39.2852
  20
52.2577
  42
0
  0
VERTEX
  8
Обводка_Bottom
  10
-39.2413
  20
52.4408
  42
0
  0
VERTEX
  8
Обводка_Bottom
  10
-39.1692
  20
52.6148
  42
0
  0
VERTEX
  8
Обводка_Bottom
  10
-39.0708
  20
52.7753
  42
0
  0
VERTEX
  8
Обводка_Bottom
  10
-38.9485
  20
52.9185
  42
0
  0
VERTEX
  8
Обводка_Bottom
  10
-38.8053
  20
53.0408
  42
0
  0
VERTEX
  8
Обводка_Bottom
  10
-38.6448
  20
53.1392
  42
0
  0
VERTEX
  8
Обводка_Bottom
  10
-38.4708
  20
53.2113
  42
0
  0
VERTEX
  8
Обводка_Bottom
  10
-38.2877
  20
53.2552
  42
0
  0
VERTEX
  8
Обводка_Bottom
  10
-38.0665
  20
53.2701
  42
0
  0
VERTEX
  8
Обводка_Bottom
  10
-33.6763
  20
53.2695
  42
0
  0
VERTEX
  8
Обводка_Bottom
  10
-28.9473
  20
57.9985
  42
0
  0
VERTEX
  8
Обводка_Bottom
  10
-28.8041
  20
58.1208
  42
0
  0
VERTEX
  8
Обводка_Bottom
  10
-28.6435
  20
58.2192
  42
0
  0
VERTEX
  8
Обводка_Bottom
  10
-28.4696
  20
58.2913
  42
0
  0
VERTEX
  8
Обводка_Bottom
  10
-28.2865
  20
58.3352
  42
0
  0
VERTEX
  8
Обводка_Bottom
  10
-28.0484
  20
58.35
  42
0
  0
VERTEX
  8
Обводка_Bottom
  10
-8.9599
  20
58.35
  42
0
  0
VERTEX
  8
Обводка_Bottom
  10
-8.9599
  20
55.95
  42
0
  0
VERTEX
  8
Обводка_Bottom
  10
-27.6012
  20
55.9505
  42
0
  0
VERTEX
  8
Обводка_Bottom
  10
-27.7409
  20
55.81
  42
0
  0
VERTEX
  8
Обводка_Bottom
  10
-25.4698
  20
55.8092
  42
0
  0
VERTEX
  8
Обводка_Bottom
  10
-25.47
  20
55.81
  42
0
  0
SEQEND
  0
POLYLINE
  8
Обводка_Bottom
  6
CONTINUOUS
  66
1
  70
0
  40
0.9
  41
0.9
  0
VERTEX
  8
Обводка_Bottom
  10
-9.1599
  20
55.81
  42
0
  0
VERTEX
  8
Обводка_Bottom
  10
-13.97
  20
55.81
  42
0
  0
VERTEX
  8
Обводка_Bottom
  10
-14.1577
  20
55.7952
  42
0
  0
VERTEX
  8
Обводка_Bottom
  10
-14.3408
  20
55.7513
  42
0
  0
VERTEX
  8
Обводка_Bottom
  10
-14.5148
  20
55.6792
  42
0
  0
VERTEX
  8
Обводка_Bottom
  10
-14.6753
  20
55.5808
  42
0
  0
VERTEX
  8
Обводка_Bottom
  10
-14.8185
  20
55.4585
  42
0
  0
VERTEX
  8
Обводка_Bottom
  10
-14.9408
  20
55.3153
  42
0
  0
VERTEX
  8
Обводка_Bottom
  10
-15.0392
  20
55.1548
  42
0
  0
VERTEX
  8
Обводка_Bottom
  10
-15.1113
  20
54.9808
  42
0
  0
VERTEX
  8
Обводка_Bottom
  10
-15.1552
  20
54.7977
  42
0
  0
VERTEX
  8
Обводка_Bottom
  10
-15.17
  20
54.61
  42
0
  0
VERTEX
  8
Обводка_Bottom
  10
-15.1552
  20
54.4223
  42
0
  0
VERTEX
  8
Обводка_Bottom
  10
-15.1113
  20
54.2392
  42
0
  0
VERTEX
  8
Обводка_Bottom
  10
-15.0392
  20
54.0652
  42
0
  0
VERTEX
  8
Обводка_Bottom
  10
-14.9408
  20
53.9047
  42
0
  0
VERTEX
  8
Обводка_Bottom
  10
-14.8185
  20
53.7615
  42
0
  0
VERTEX
  8
Обводка_Bottom
  10
-14.6753
  20
53.6392
  42
0
  0
VERTEX
  8
Обводка_Bottom
  10
-14.5148
  20
53.5408
  42
0
  0
VERTEX
  8
Обводка_Bottom
  10
-14.3408
  20
53.4687
  42
0
  0
VERTEX
  8
Обводка_Bottom
  10
-14.1577
  20
53.4248
  42
0
  0
VERTEX
  8
Обводка_Bottom
  10
-13.97
  20
53.41
  42
0
  0
VERTEX
  8
Обводка_Bottom
  10
-8.9599
  20
53.41
  42
0
  0
VERTEX
  8
Обводка_Bottom
  10
-8.9599
  20
55.81
  42
0
  0
VERTEX
  8
Обводка_Bottom
  10
-9.1599
  20
55.81
  42
0
  0
SEQEND
  0
POLYLINE
  8
Обводка_Bottom
  6
CONTINUOUS
  66
1
  70
0
  40
0.9
  41
0.9
  0
VERTEX
  8
Обводка_Bottom
  10
-59.62
  20
12.2308
  42
0
  0
VERTEX
  8
Обводка_Bottom
  10
-59.62
  20
12.63
  42
0
  0
VERTEX
  8
Обводка_Bottom
  10
-57.22
  20
12.63
  42
0
  0
VERTEX
  8
Обводка_Bottom
  10
-57.22
  20
12.23
  42
0
  0
SEQEND
  0
POLYLINE
  8
Обводка_Bottom
  6
CONTINUOUS
  66
1
  70
0
  40
0.9
  41
0.9
  0
VERTEX
  8
Обводка_Bottom
  10
-59.62
  20
10.63
  42
0
  0
VERTEX
  8
Обводка_Bottom
  10
-59.62
  20
10.23
  42
0
  0
VERTEX
  8
Обводка_Bottom
  10
-57.22
  20
10.23
  42
0
  0
VERTEX
  8
Обводка_Bottom
  10
-57.22
  20
10.6292
  42
0
  0
SEQEND
  0
POLYLINE
  8
Обводка_Bottom
  6
CONTINUOUS
  66
1
  70
0
  40
0.9
  41
0.9
  0
VERTEX
  8
Обводка_Bottom
  10
-68.51
  20
45.2108
  42
0
  0
VERTEX
  8
Обводка_Bottom
  10
-68.51
  20
45.61
  42
0
  0
VERTEX
  8
Обводка_Bottom
  10
-67.578
  20
45.61
  42
0
  0
VERTEX
  8
Обводка_Bottom
  10
-67.4577
  20
45.6352
  42
0
  0
VERTEX
  8
Обводка_Bottom
  10
-67.245
  20
45.65
  42
0
  0
VERTEX
  8
Обводка_Bottom
  10
-66.04
  20
45.65
  42
0
  0
VERTEX
  8
Обводка_Bottom
  10
-65.8523
  20
45.6352
  42
0
  0
VERTEX
  8
Обводка_Bottom
  10
-65.6692
  20
45.5913
  42
0
  0
VERTEX
  8
Обводка_Bottom
  10
-65.4952
  20
45.5192
  42
0
  0
VERTEX
  8
Обводка_Bottom
  10
-65.3347
  20
45.4208
  42
0
  0
VERTEX
  8
Обводка_Bottom
  10
-65.1915
  20
45.2985
  42
0
  0
VERTEX
  8
Обводка_Bottom
  10
-65.0692
  20
45.1553
  42
0
  0
VERTEX
  8
Обводка_Bottom
  10
-64.9708
  20
44.9948
  42
0
  0
VERTEX
  8
Обводка_Bottom
  10
-64.8987
  20
44.8208
  42
0
  0
VERTEX
  8
Обводка_Bottom
  10
-64.8548
  20
44.6377
  42
0
  0
VERTEX
  8
Обводка_Bottom
  10
-64.84
  20
44.45
  42
0
  0
VERTEX
  8
Обводка_Bottom
  10
-64.8548
  20
44.2623
  42
0
  0
VERTEX
  8
Обводка_Bottom
  10
-64.8987
  20
44.0792
  42
0
  0
VERTEX
  8
Обводка_Bottom
  10
-64.9708
  20
43.9052
  42
0
  0
VERTEX
  8
Обводка_Bottom
  10
-65.0692
  20
43.7447
  42
0
  0
VERTEX
  8
Обводка_Bottom
  10
-65.1915
  20
43.6015
  42
0
  0
VERTEX
  8
Обводка_Bottom
  10
-65.3347
  20
43.4792
  42
0
  0
VERTEX
  8
Обводка_Bottom
  10
-65.4952
  20
43.3808
  42
0
  0
VERTEX
  8
Обводка_Bottom
  10
-65.6692
  20
43.3087
  42
0
  0
VERTEX
  8
Обводка_Bottom
  10
-65.8523
  20
43.2648
  42
0
  0
VERTEX
  8
Обводка_Bottom
  10
-66.11
  20
43.2498
  42
0
  0
VERTEX
  8
Обводка_Bottom
  10
-66.11
  20
43.21
  42
0
  0
VERTEX
  8
Обводка_Bottom
  10
-68.51
  20
43.21
  42
0
  0
VERTEX
  8
Обводка_Bottom
  10
-68.51
  20
43.61
  42
0
  0
SEQEND
  0
POLYLINE
  8
Обводка_Bottom
  6
CONTINUOUS
  66
1
  70
0
  40
0.9
  41
0.9
  0
VERTEX
  8
Обводка_Bottom
  10
-67.3123
  20
48.11
  42
0
  0
VERTEX
  8
Обводка_Bottom
  10
-68.51
  20
48.11
  42
0
  0
VERTEX
  8
Обводка_Bottom
  10
-68.51
  20
48.0483
  42
0
  0
VERTEX
  8
Обводка_Bottom
  10
-68.8304
  20
48.0159
  42
0
  0
VERTEX
  8
Обводка_Bottom
  10
-69.0109
  20
47.9622
  42
0
  0
VERTEX
  8
Обводка_Bottom
  10
-69.1807
  20
47.881
  42
0
  0
VERTEX
  8
Обводка_Bottom
  10
-69.3358
  20
47.7742
  42
0
  0
VERTEX
  8
Обводка_Bottom
  10
-69.4723
  20
47.6445
  42
0
  0
VERTEX
  8
Обводка_Bottom
  10
-69.5868
  20
47.495
  42
0
  0
VERTEX
  8
Обводка_Bottom
  10
-69.6765
  20
47.3294
  42
0
  0
VERTEX
  8
Обводка_Bottom
  10
-69.7392
  20
47.1518
  42
0
  0
VERTEX
  8
Обводка_Bottom
  10
-69.7733
  20
46.9667
  42
0
  0
VERTEX
  8
Обводка_Bottom
  10
-69.7781
  20
46.7784
  42
0
  0
VERTEX
  8
Обводка_Bottom
  10
-69.7534
  20
46.5917
  42
0
  0
VERTEX
  8
Обводка_Bottom
  10
-69.6997
  20
46.4112
  42
0
  0
VERTEX
  8
Обводка_Bottom
  10
-69.6185
  20
46.2414
  42
0
  0
VERTEX
  8
Обводка_Bottom
  10
-69.5117
  20
46.0863
  42
0
  0
VERTEX
  8
Обводка_Bottom
  10
-69.382
  20
45.9498
  42
0
  0
VERTEX
  8
Обводка_Bottom
  10
-69.2325
  20
45.8353
  42
0
  0
VERTEX
  8
Обводка_Bottom
  10
-69.0669
  20
45.7456
  42
0
  0
VERTEX
  8
Обводка_Bottom
  10
-68.8893
  20
45.6829
  42
0
  0
VERTEX
  8
Обводка_Bottom
  10
-68.7042
  20
45.6488
  42
0
  0
VERTEX
  8
Обводка_Bottom
  10
-68.5159
  20
45.644
  42
0
  0
VERTEX
  8
Обводка_Bottom
  10
-67.278
  20
45.71
  42
0
  0
VERTEX
  8
Обводка_Bottom
  10
-65.1877
  20
45.71
  42
0
  0
VERTEX
  8
Обводка_Bottom
  10
-64.6998
  20
45.2227
  42
0
  0
VERTEX
  8
Обводка_Bottom
  10
-64.7
  20
41.91
  42
0
  0
VERTEX
  8
Обводка_Bottom
  10
-64.6852
  20
41.7223
  42
0
  0
VERTEX
  8
Обводка_Bottom
  10
-64.6413
  20
41.5392
  42
0
  0
VERTEX
  8
Обводка_Bottom
  10
-64.5692
  20
41.3652
  42
0
  0
VERTEX
  8
Обводка_Bottom
  10
-64.4708
  20
41.2047
  42
0
  0
VERTEX
  8
Обводка_Bottom
  10
-64.348
  20
41.061
  42
0
  0
VERTEX
  8
Обводка_Bottom
  10
-59.2686
  20
35.9815
  42
0
  0
VERTEX
  8
Обводка_Bottom
  10
-59.1254
  20
35.8592
  42
0
  0
VERTEX
  8
Обводка_Bottom
  10
-58.9649
  20
35.7609
  42
0
  0
VERTEX
  8
Обводка_Bottom
  10
-58.7909
  20
35.6888
  42
0
  0
VERTEX
  8
Обводка_Bottom
  10
-58.6078
  20
35.6448
  42
0
  0
VERTEX
  8
Обводка_Bottom
  10
-58.4193
  20
35.6301
  42
0
  0
VERTEX
  8
Обводка_Bottom
  10
-43.18
  20
35.63
  42
0
  0
VERTEX
  8
Обводка_Bottom
  10
-42.9923
  20
35.6448
  42
0
  0
VERTEX
  8
Обводка_Bottom
  10
-42.8092
  20
35.6887
  42
0
  0
VERTEX
  8
Обводка_Bottom
  10
-42.6352
  20
35.7608
  42
0
  0
VERTEX
  8
Обводка_Bottom
  10
-42.4747
  20
35.8592
  42
0
  0
VERTEX
  8
Обводка_Bottom
  10
-42.3315
  20
35.9815
  42
0
  0
VERTEX
  8
Обводка_Bottom
  10
-42.2092
  20
36.1247
  42
0
  0
VERTEX
  8
Обводка_Bottom
  10
-42.1108
  20
36.2852
  42
0
  0
VERTEX
  8
Обводка_Bottom
  10
-42.0387
  20
36.4592
  42
0
  0
VERTEX
  8
Обводка_Bottom
  10
-41.9948
  20
36.6423
  42
0
  0
VERTEX
  8
Обводка_Bottom
  10
-41.98
  20
36.83
  42
0
  0
VERTEX
  8
Обводка_Bottom
  10
-41.9948
  20
37.0177
  42
0
  0
VERTEX
  8
Обводка_Bottom
  10
-42.0387
  20
37.2008
  42
0
  0
VERTEX
  8
Обводка_Bottom
  10
-42.1108
  20
37.3748
  42
0
  0
VERTEX
  8
Обводка_Bottom
  10
-42.2092
  20
37.5353
  42
0
  0
VERTEX
  8
Обводка_Bottom
  10
-42.3315
  20
37.6785
  42
0
  0
VERTEX
  8
Обводка_Bottom
  10
-42.4747
  20
37.8008
  42
0
  0
VERTEX
  8
Обводка_Bottom
  10
-42.6352
  20
37.8992
  42
0
  0
VERTEX
  8
Обводка_Bottom
  10
-42.8092
  20
37.9713
  42
0
  0
VERTEX
  8
Обводка_Bottom
  10
-42.9923
  20
38.0152
  42
0
  0
VERTEX
  8
Обводка_Bottom
  10
-43.18
  20
38.03
  42
0
  0
VERTEX
  8
Обводка_Bottom
  10
-57.9233
  20
38.0301
  42
0
  0
VERTEX
  8
Обводка_Bottom
  10
-62.2995
  20
42.4065
  42
0
  0
VERTEX
  8
Обводка_Bottom
  10
-62.3
  20
45.72
  42
0
  0
VERTEX
  8
Обводка_Bottom
  10
-62.3148
  20
45.9077
  42
0
  0
VERTEX
  8
Обводка_Bottom
  10
-62.3587
  20
46.0908
  42
0
  0
VERTEX
  8
Обводка_Bottom
  10
-62.4308
  20
46.2648
  42
0
  0
VERTEX
  8
Обводка_Bottom
  10
-62.5292
  20
46.4253
  42
0
  0
VERTEX
  8
Обводка_Bottom
  10
-62.6515
  20
46.5685
  42
0
  0
VERTEX
  8
Обводка_Bottom
  10
-63.8415
  20
47.7585
  42
0
  0
VERTEX
  8
Обводка_Bottom
  10
-63.9847
  20
47.8808
  42
0
  0
VERTEX
  8
Обводка_Bottom
  10
-64.1452
  20
47.9792
  42
0
  0
VERTEX
  8
Обводка_Bottom
  10
-64.3192
  20
48.0513
  42
0
  0
VERTEX
  8
Обводка_Bottom
  10
-64.5023
  20
48.0952
  42
0
  0
VERTEX
  8
Обводка_Bottom
  10
-64.69
  20
48.11
  42
0
  0
VERTEX
  8
Обводка_Bottom
  10
-67.3091
  20
48.11
  42
0
  0
VERTEX
  8
Обводка_Bottom
  10
-67.3123
  20
48.11
  42
0
  0
SEQEND
  0
POLYLINE
  8
Обводка_Bottom
  6
CONTINUOUS
  66
1
  70
0
  40
0.9
  41
0.9
  0
VERTEX
  8
Обводка_Bottom
  10
-58.6078
  20
55.61
  42
0
  0
VERTEX
  8
Обводка_Bottom
  10
-67.4827
  20
55.6162
  42
0
  0
VERTEX
  8
Обводка_Bottom
  10
-68.5411
  20
55.6506
  42
0
  0
VERTEX
  8
Обводка_Bottom
  10
-68.7292
  20
55.6419
  42
0
  0
VERTEX
  8
Обводка_Bottom
  10
-68.9136
  20
55.6039
  42
0
  0
VERTEX
  8
Обводка_Bottom
  10
-69.0898
  20
55.5376
  42
0
  0
VERTEX
  8
Обводка_Bottom
  10
-69.2535
  20
55.4444
  42
0
  0
VERTEX
  8
Обводка_Bottom
  10
-69.4005
  20
55.3269
  42
0
  0
VERTEX
  8
Обводка_Bottom
  10
-69.5274
  20
55.1877
  42
0
  0
VERTEX
  8
Обводка_Bottom
  10
-69.631
  20
55.0304
  42
0
  0
VERTEX
  8
Обводка_Bottom
  10
-69.7086
  20
54.8589
  42
0
  0
VERTEX
  8
Обводка_Bottom
  10
-69.7585
  20
54.6773
  42
0
  0
VERTEX
  8
Обводка_Bottom
  10
-69.7794
  20
54.4902
  42
0
  0
VERTEX
  8
Обводка_Bottom
  10
-69.7707
  20
54.3021
  42
0
  0
VERTEX
  8
Обводка_Bottom
  10
-69.7327
  20
54.1176
  42
0
  0
VERTEX
  8
Обводка_Bottom
  10
-69.6663
  20
53.9414
  42
0
  0
VERTEX
  8
Обводка_Bottom
  10
-69.5732
  20
53.7778
  42
0
  0
VERTEX
  8
Обводка_Bottom
  10
-69.4556
  20
53.6307
  42
0
  0
VERTEX
  8
Обводка_Bottom
  10
-69.3165
  20
53.5038
  42
0
  0
VERTEX
  8
Обводка_Bottom
  10
-69.1592
  20
53.4003
  42
0
  0
VERTEX
  8
Обводка_Bottom
  10
-68.9877
  20
53.3226
  42
0
  0
VERTEX
  8
Обводка_Bottom
  10
-68.8061
  20
53.2727
  42
0
  0
VERTEX
  8
Обводка_Bottom
  10
-68.51
  20
53.2483
  42
0
  0
VERTEX
  8
Обводка_Bottom
  10
-68.51
  20
53.21
  42
0
  0
VERTEX
  8
Обводка_Bottom
  10
-58.1437
  20
53.21
  42
0
  0
VERTEX
  8
Обводка_Bottom
  10
-57.956
  20
53.2248
  42
0
  0
VERTEX
  8
Обводка_Bottom
  10
-57.7729
  20
53.2687
  42
0
  0
VERTEX
  8
Обводка_Bottom
  10
-57.5983
  20
53.3412
  42
0
  0
VERTEX
  8
Обводка_Bottom
  10
-57.4797
  20
53.4101
  42
0
  0
VERTEX
  8
Обводка_Bottom
  10
-43.18
  20
53.41
  42
0
  0
VERTEX
  8
Обводка_Bottom
  10
-42.9923
  20
53.4248
  42
0
  0
VERTEX
  8
Обводка_Bottom
  10
-42.8092
  20
53.4687
  42
0
  0
VERTEX
  8
Обводка_Bottom
  10
-42.6352
  20
53.5408
  42
0
  0
VERTEX
  8
Обводка_Bottom
  10
-42.4747
  20
53.6392
  42
0
  0
VERTEX
  8
Обводка_Bottom
  10
-42.3315
  20
53.7615
  42
0
  0
VERTEX
  8
Обводка_Bottom
  10
-42.2092
  20
53.9047
  42
0
  0
VERTEX
  8
Обводка_Bottom
  10
-42.1108
  20
54.0652
  42
0
  0
VERTEX
  8
Обводка_Bottom
  10
-42.0387
  20
54.2392
  42
0
  0
VERTEX
  8
Обводка_Bottom
  10
-41.9948
  20
54.4223
  42
0
  0
VERTEX
  8
Обводка_Bottom
  10
-41.98
  20
54.61
  42
0
  0
VERTEX
  8
Обводка_Bottom
  10
-41.9948
  20
54.7977
  42
0
  0
VERTEX
  8
Обводка_Bottom
  10
-42.0387
  20
54.9808
  42
0
  0
VERTEX
  8
Обводка_Bottom
  10
-42.1108
  20
55.1548
  42
0
  0
VERTEX
  8
Обводка_Bottom
  10
-42.2092
  20
55.3153
  42
0
  0
VERTEX
  8
Обводка_Bottom
  10
-42.3315
  20
55.4585
  42
0
  0
VERTEX
  8
Обводка_Bottom
  10
-42.4747
  20
55.5808
  42
0
  0
VERTEX
  8
Обводка_Bottom
  10
-42.6352
  20
55.6792
  42
0
  0
VERTEX
  8
Обводка_Bottom
  10
-42.8092
  20
55.7513
  42
0
  0
VERTEX
  8
Обводка_Bottom
  10
-42.9923
  20
55.7952
  42
0
  0
VERTEX
  8
Обводка_Bottom
  10
-43.18
  20
55.81
  42
0
  0
VERTEX
  8
Обводка_Bottom
  10
-57.9437
  20
55.8101
  42
0
  0
VERTEX
  8
Обводка_Bottom
  10
-58.1314
  20
55.7953
  42
0
  0
VERTEX
  8
Обводка_Bottom
  10
-58.3145
  20
55.7513
  42
0
  0
VERTEX
  8
Обводка_Bottom
  10
-58.4891
  20
55.6789
  42
0
  0
VERTEX
  8
Обводка_Bottom
  10
-58.6078
  20
55.61
  42
0
  0
SEQEND
  0
POLYLINE
  8
Обводка_Bottom
  6
CONTINUOUS
  66
1
  70
0
  40
0.9
  41
0.9
  0
VERTEX
  8
Обводка_Bottom
  10
-67.3139
  20
58.11
  42
0
  0
VERTEX
  8
Обводка_Bottom
  10
-68.51
  20
58.11
  42
0
  0
VERTEX
  8
Обводка_Bottom
  10
-68.51
  20
58.0577
  42
0
  0
VERTEX
  8
Обводка_Bottom
  10
-69.4265
  20
58.0176
  42
0
  0
VERTEX
  8
Обводка_Bottom
  10
-69.6134
  20
57.9945
  42
0
  0
VERTEX
  8
Обводка_Bottom
  10
-69.7944
  20
57.9425
  42
0
  0
VERTEX
  8
Обводка_Bottom
  10
-69.965
  20
57.8628
  42
0
  0
VERTEX
  8
Обводка_Bottom
  10
-70.1211
  20
57.7574
  42
0
  0
VERTEX
  8
Обводка_Bottom
  10
-70.2587
  20
57.6289
  42
0
  0
VERTEX
  8
Обводка_Bottom
  10
-70.3745
  20
57.4805
  42
0
  0
VERTEX
  8
Обводка_Bottom
  10
-70.4657
  20
57.3157
  42
0
  0
VERTEX
  8
Обводка_Bottom
  10
-70.53
  20
57.1388
  42
0
  0
VERTEX
  8
Обводка_Bottom
  10
-70.5659
  20
56.9539
  42
0
  0
VERTEX
  8
Обводка_Bottom
  10
-70.5723
  20
56.7657
  42
0
  0
VERTEX
  8
Обводка_Bottom
  10
-70.5493
  20
56.5788
  42
0
  0
VERTEX
  8
Обводка_Bottom
  10
-70.4973
  20
56.3978
  42
0
  0
VERTEX
  8
Обводка_Bottom
  10
-70.4176
  20
56.2272
  42
0
  0
VERTEX
  8
Обводка_Bottom
  10
-70.3122
  20
56.0712
  42
0
  0
VERTEX
  8
Обводка_Bottom
  10
-70.1837
  20
55.9335
  42
0
  0
VERTEX
  8
Обводка_Bottom
  10
-70.0353
  20
55.8177
  42
0
  0
VERTEX
  8
Обводка_Bottom
  10
-69.8705
  20
55.7265
  42
0
  0
VERTEX
  8
Обводка_Bottom
  10
-69.6935
  20
55.6622
  42
0
  0
VERTEX
  8
Обводка_Bottom
  10
-69.5087
  20
55.6264
  42
0
  0
VERTEX
  8
Обводка_Bottom
  10
-69.3205
  20
55.6199
  42
0
  0
VERTEX
  8
Обводка_Bottom
  10
-67.2834
  20
55.71
  42
0
  0
VERTEX
  8
Обводка_Bottom
  10
-60.0887
  20
55.71
  42
0
  0
VERTEX
  8
Обводка_Bottom
  10
-59.901
  20
55.7248
  42
0
  0
VERTEX
  8
Обводка_Bottom
  10
-59.7179
  20
55.7687
  42
0
  0
VERTEX
  8
Обводка_Bottom
  10
-59.5439
  20
55.8408
  42
0
  0
VERTEX
  8
Обводка_Bottom
  10
-59.3828
  20
55.9397
  42
0
  0
VERTEX
  8
Обводка_Bottom
  10
-59.0507
  20
55.9501
  42
0
  0
VERTEX
  8
Обводка_Bottom
  10
-43.18
  20
55.95
  42
0
  0
VERTEX
  8
Обводка_Bottom
  10
-42.9923
  20
55.9648
  42
0
  0
VERTEX
  8
Обводка_Bottom
  10
-42.8092
  20
56.0087
  42
0
  0
VERTEX
  8
Обводка_Bottom
  10
-42.6352
  20
56.0808
  42
0
  0
VERTEX
  8
Обводка_Bottom
  10
-42.4747
  20
56.1792
  42
0
  0
VERTEX
  8
Обводка_Bottom
  10
-42.3315
  20
56.3015
  42
0
  0
VERTEX
  8
Обводка_Bottom
  10
-42.2092
  20
56.4447
  42
0
  0
VERTEX
  8
Обводка_Bottom
  10
-42.1108
  20
56.6052
  42
0
  0
VERTEX
  8
Обводка_Bottom
  10
-42.0387
  20
56.7792
  42
0
  0
VERTEX
  8
Обводка_Bottom
  10
-41.9948
  20
56.9623
  42
0
  0
VERTEX
  8
Обводка_Bottom
  10
-41.98
  20
57.15
  42
0
  0
VERTEX
  8
Обводка_Bottom
  10
-41.9948
  20
57.3377
  42
0
  0
VERTEX
  8
Обводка_Bottom
  10
-42.0387
  20
57.5208
  42
0
  0
VERTEX
  8
Обводка_Bottom
  10
-42.1108
  20
57.6948
  42
0
  0
VERTEX
  8
Обводка_Bottom
  10
-42.2092
  20
57.8553
  42
0
  0
VERTEX
  8
Обводка_Bottom
  10
-42.3315
  20
57.9985
  42
0
  0
VERTEX
  8
Обводка_Bottom
  10
-42.4747
  20
58.1208
  42
0
  0
VERTEX
  8
Обводка_Bottom
  10
-42.6352
  20
58.2192
  42
0
  0
VERTEX
  8
Обводка_Bottom
  10
-42.8092
  20
58.2913
  42
0
  0
VERTEX
  8
Обводка_Bottom
  10
-42.9923
  20
58.3352
  42
0
  0
VERTEX
  8
Обводка_Bottom
  10
-43.18
  20
58.35
  42
0
  0
VERTEX
  8
Обводка_Bottom
  10
-59.8487
  20
58.3501
  42
0
  0
VERTEX
  8
Обводка_Bottom
  10
-60.0364
  20
58.3353
  42
0
  0
VERTEX
  8
Обводка_Bottom
  10
-60.2195
  20
58.2913
  42
0
  0
VERTEX
  8
Обводка_Bottom
  10
-60.3935
  20
58.2193
  42
0
  0
VERTEX
  8
Обводка_Bottom
  10
-60.5546
  20
58.1204
  42
0
  0
VERTEX
  8
Обводка_Bottom
  10
-60.8893
  20
58.11
  42
0
  0
VERTEX
  8
Обводка_Bottom
  10
-67.3094
  20
58.11
  42
0
  0
VERTEX
  8
Обводка_Bottom
  10
-67.3139
  20
58.11
  42
0
  0
SEQEND
  0
POLYLINE
  8
Обводка_Bottom
  6
CONTINUOUS
  66
1
  70
0
  40
0.9
  41
0.9
  0
VERTEX
  8
Обводка_Bottom
  10
-67.3139
  20
60.61
  42
0
  0
VERTEX
  8
Обводка_Bottom
  10
-68.51
  20
60.61
  42
0
  0
VERTEX
  8
Обводка_Bottom
  10
-68.51
  20
60.5748
  42
0
  0
VERTEX
  8
Обводка_Bottom
  10
-68.8026
  20
60.5517
  42
0
  0
VERTEX
  8
Обводка_Bottom
  10
-68.9843
  20
60.5023
  42
0
  0
VERTEX
  8
Обводка_Bottom
  10
-69.1561
  20
60.4252
  42
0
  0
VERTEX
  8
Обводка_Bottom
  10
-69.3137
  20
60.3221
  42
0
  0
VERTEX
  8
Обводка_Bottom
  10
-69.4532
  20
60.1956
  42
0
  0
VERTEX
  8
Обводка_Bottom
  10
-69.5712
  20
60.0489
  42
0
  0
VERTEX
  8
Обводка_Bottom
  10
-69.6648
  20
59.8855
  42
0
  0
VERTEX
  8
Обводка_Bottom
  10
-69.7317
  20
59.7095
  42
0
  0
VERTEX
  8
Обводка_Bottom
  10
-69.7703
  20
59.5252
  42
0
  0
VERTEX
  8
Обводка_Bottom
  10
-69.7795
  20
59.3371
  42
0
  0
VERTEX
  8
Обводка_Bottom
  10
-69.7592
  20
59.1499
  42
0
  0
VERTEX
  8
Обводка_Bottom
  10
-69.7098
  20
58.9682
  42
0
  0
VERTEX
  8
Обводка_Bottom
  10
-69.6327
  20
58.7964
  42
0
  0
VERTEX
  8
Обводка_Bottom
  10
-69.5296
  20
58.6388
  42
0
  0
VERTEX
  8
Обводка_Bottom
  10
-69.4031
  20
58.4993
  42
0
  0
VERTEX
  8
Обводка_Bottom
  10
-69.2564
  20
58.3813
  42
0
  0
VERTEX
  8
Обводка_Bottom
  10
-69.093
  20
58.2877
  42
0
  0
VERTEX
  8
Обводка_Bottom
  10
-68.917
  20
58.2208
  42
0
  0
VERTEX
  8
Обводка_Bottom
  10
-68.7327
  20
58.1822
  42
0
  0
VERTEX
  8
Обводка_Bottom
  10
-68.5446
  20
58.173
  42
0
  0
VERTEX
  8
Обводка_Bottom
  10
-67.11
  20
58.21
  42
0
  0
VERTEX
  8
Обводка_Bottom
  10
-61.875
  20
58.21
  42
0
  0
VERTEX
  8
Обводка_Bottom
  10
-61.6873
  20
58.2248
  42
0
  0
VERTEX
  8
Обводка_Bottom
  10
-61.5042
  20
58.2687
  42
0
  0
VERTEX
  8
Обводка_Bottom
  10
-61.3302
  20
58.3408
  42
0
  0
VERTEX
  8
Обводка_Bottom
  10
-61.1691
  20
58.4397
  42
0
  0
VERTEX
  8
Обводка_Bottom
  10
-60.995
  20
58.4901
  42
0
  0
VERTEX
  8
Обводка_Bottom
  10
-43.18
  20
58.49
  42
0
  0
VERTEX
  8
Обводка_Bottom
  10
-42.9923
  20
58.5048
  42
0
  0
VERTEX
  8
Обводка_Bottom
  10
-42.8092
  20
58.5487
  42
0
  0
VERTEX
  8
Обводка_Bottom
  10
-42.6352
  20
58.6208
  42
0
  0
VERTEX
  8
Обводка_Bottom
  10
-42.4747
  20
58.7192
  42
0
  0
VERTEX
  8
Обводка_Bottom
  10
-42.3315
  20
58.8415
  42
0
  0
VERTEX
  8
Обводка_Bottom
  10
-42.2092
  20
58.9847
  42
0
  0
VERTEX
  8
Обводка_Bottom
  10
-42.1108
  20
59.1452
  42
0
  0
VERTEX
  8
Обводка_Bottom
  10
-42.0387
  20
59.3192
  42
0
  0
VERTEX
  8
Обводка_Bottom
  10
-41.9948
  20
59.5023
  42
0
  0
VERTEX
  8
Обводка_Bottom
  10
-41.98
  20
59.69
  42
0
  0
VERTEX
  8
Обводка_Bottom
  10
-41.9948
  20
59.8777
  42
0
  0
VERTEX
  8
Обводка_Bottom
  10
-42.0387
  20
60.0608
  42
0
  0
VERTEX
  8
Обводка_Bottom
  10
-42.1108
  20
60.2348
  42
0
  0
VERTEX
  8
Обводка_Bottom
  10
-42.2092
  20
60.3953
  42
0
  0
VERTEX
  8
Обводка_Bottom
  10
-42.3315
  20
60.5385
  42
0
  0
VERTEX
  8
Обводка_Bottom
  10
-42.4747
  20
60.6608
  42
0
  0
VERTEX
  8
Обводка_Bottom
  10
-42.6352
  20
60.7592
  42
0
  0
VERTEX
  8
Обводка_Bottom
  10
-42.8092
  20
60.8313
  42
0
  0
VERTEX
  8
Обводка_Bottom
  10
-42.9923
  20
60.8752
  42
0
  0
VERTEX
  8
Обводка_Bottom
  10
-43.18
  20
60.89
  42
0
  0
VERTEX
  8
Обводка_Bottom
  10
-61.5949
  20
60.8901
  42
0
  0
VERTEX
  8
Обводка_Bottom
  10
-61.7827
  20
60.8753
  42
0
  0
VERTEX
  8
Обводка_Bottom
  10
-61.9658
  20
60.8313
  42
0
  0
VERTEX
  8
Обводка_Bottom
  10
-62.1397
  20
60.7593
  42
0
  0
VERTEX
  8
Обводка_Bottom
  10
-62.3008
  20
60.6604
  42
0
  0
VERTEX
  8
Обводка_Bottom
  10
-62.4691
  20
60.61
  42
0
  0
VERTEX
  8
Обводка_Bottom
  10
-67.3095
  20
60.61
  42
0
  0
VERTEX
  8
Обводка_Bottom
  10
-67.3139
  20
60.61
  42
0
  0
SEQEND
  0
POLYLINE
  8
Обводка_Bottom
  6
CONTINUOUS
  66
1
  70
0
  40
0.9
  41
0.9
  0
VERTEX
  8
Обводка_Bottom
  10
-9.16
  20
32.95
  42
0
  0
VERTEX
  8
Обводка_Bottom
  10
-11.36
  20
32.95
  42
0
  0
VERTEX
  8
Обводка_Bottom
  10
-11.36
  20
28.4368
  42
0
  0
VERTEX
  8
Обводка_Bottom
  10
-11.9272
  20
27.8699
  42
0
  0
VERTEX
  8
Обводка_Bottom
  10
-25.4
  20
27.87
  42
0
  0
VERTEX
  8
Обводка_Bottom
  10
-25.5877
  20
27.8552
  42
0
  0
VERTEX
  8
Обводка_Bottom
  10
-25.7708
  20
27.8113
  42
0
  0
VERTEX
  8
Обводка_Bottom
  10
-25.9448
  20
27.7392
  42
0
  0
VERTEX
  8
Обводка_Bottom
  10
-26.1053
  20
27.6408
  42
0
  0
VERTEX
  8
Обводка_Bottom
  10
-26.2485
  20
27.5185
  42
0
  0
VERTEX
  8
Обводка_Bottom
  10
-26.3708
  20
27.3753
  42
0
  0
VERTEX
  8
Обводка_Bottom
  10
-26.4692
  20
27.2148
  42
0
  0
VERTEX
  8
Обводка_Bottom
  10
-26.5413
  20
27.0408
  42
0
  0
VERTEX
  8
Обводка_Bottom
  10
-26.5852
  20
26.8577
  42
0
  0
VERTEX
  8
Обводка_Bottom
  10
-26.6
  20
26.67
  42
0
  0
VERTEX
  8
Обводка_Bottom
  10
-26.5852
  20
26.4823
  42
0
  0
VERTEX
  8
Обводка_Bottom
  10
-26.5413
  20
26.2992
  42
0
  0
VERTEX
  8
Обводка_Bottom
  10
-26.4692
  20
26.1252
  42
0
  0
VERTEX
  8
Обводка_Bottom
  10
-26.3708
  20
25.9647
  42
0
  0
VERTEX
  8
Обводка_Bottom
  10
-26.2485
  20
25.8215
  42
0
  0
VERTEX
  8
Обводка_Bottom
  10
-26.1053
  20
25.6992
  42
0
  0
VERTEX
  8
Обводка_Bottom
  10
-25.9448
  20
25.6008
  42
0
  0
VERTEX
  8
Обводка_Bottom
  10
-25.7708
  20
25.5287
  42
0
  0
VERTEX
  8
Обводка_Bottom
  10
-25.5877
  20
25.4848
  42
0
  0
VERTEX
  8
Обводка_Bottom
  10
-25.4
  20
25.47
  42
0
  0
VERTEX
  8
Обводка_Bottom
  10
-11.43
  20
25.47
  42
0
  0
VERTEX
  8
Обводка_Bottom
  10
-11.2423
  20
25.4848
  42
0
  0
VERTEX
  8
Обводка_Bottom
  10
-11.0592
  20
25.5287
  42
0
  0
VERTEX
  8
Обводка_Bottom
  10
-10.8852
  20
25.6008
  42
0
  0
VERTEX
  8
Обводка_Bottom
  10
-10.7247
  20
25.6992
  42
0
  0
VERTEX
  8
Обводка_Bottom
  10
-10.5815
  20
25.8215
  42
0
  0
VERTEX
  8
Обводка_Bottom
  10
-9.3115
  20
27.0915
  42
0
  0
VERTEX
  8
Обводка_Bottom
  10
-9.1892
  20
27.2347
  42
0
  0
VERTEX
  8
Обводка_Bottom
  10
-9.0908
  20
27.3952
  42
0
  0
VERTEX
  8
Обводка_Bottom
  10
-9.0187
  20
27.5692
  42
0
  0
VERTEX
  8
Обводка_Bottom
  10
-8.9748
  20
27.7523
  42
0
  0
VERTEX
  8
Обводка_Bottom
  10
-8.96
  20
27.94
  42
0
  0
VERTEX
  8
Обводка_Bottom
  10
-8.96
  20
32.95
  42
0
  0
VERTEX
  8
Обводка_Bottom
  10
-9.16
  20
32.95
  42
0
  0
SEQEND
  0
POLYLINE
  8
Обводка_Bottom
  6
CONTINUOUS
  66
1
  70
0
  40
0.9
  41
0.9
  0
VERTEX
  8
Обводка_Bottom
  10
-6.62
  20
32.95
  42
0
  0
VERTEX
  8
Обводка_Bottom
  10
-8.82
  20
32.95
  42
0
  0
VERTEX
  8
Обводка_Bottom
  10
-8.82
  20
27.1663
  42
0
  0
VERTEX
  8
Обводка_Bottom
  10
-13.1975
  20
22.7895
  42
0
  0
VERTEX
  8
Обводка_Bottom
  10
-26.1722
  20
22.79
  42
0
  0
VERTEX
  8
Обводка_Bottom
  10
-26.7401
  20
23.3572
  42
0
  0
VERTEX
  8
Обводка_Bottom
  10
-26.74
  20
25.4
  42
0
  0
VERTEX
  8
Обводка_Bottom
  10
-26.7548
  20
25.5877
  42
0
  0
VERTEX
  8
Обводка_Bottom
  10
-26.7987
  20
25.7708
  42
0
  0
VERTEX
  8
Обводка_Bottom
  10
-26.8708
  20
25.9448
  42
0
  0
VERTEX
  8
Обводка_Bottom
  10
-26.9692
  20
26.1053
  42
0
  0
VERTEX
  8
Обводка_Bottom
  10
-27.0915
  20
26.2485
  42
0
  0
VERTEX
  8
Обводка_Bottom
  10
-28.3615
  20
27.5185
  42
0
  0
VERTEX
  8
Обводка_Bottom
  10
-28.5047
  20
27.6408
  42
0
  0
VERTEX
  8
Обводка_Bottom
  10
-28.6652
  20
27.7392
  42
0
  0
VERTEX
  8
Обводка_Bottom
  10
-28.8392
  20
27.8113
  42
0
  0
VERTEX
  8
Обводка_Bottom
  10
-29.0223
  20
27.8552
  42
0
  0
VERTEX
  8
Обводка_Bottom
  10
-29.21
  20
27.87
  42
0
  0
VERTEX
  8
Обводка_Bottom
  10
-33.02
  20
27.87
  42
0
  0
VERTEX
  8
Обводка_Bottom
  10
-33.2077
  20
27.8552
  42
0
  0
VERTEX
  8
Обводка_Bottom
  10
-33.3908
  20
27.8113
  42
0
  0
VERTEX
  8
Обводка_Bottom
  10
-33.5648
  20
27.7392
  42
0
  0
VERTEX
  8
Обводка_Bottom
  10
-33.7253
  20
27.6408
  42
0
  0
VERTEX
  8
Обводка_Bottom
  10
-33.8685
  20
27.5185
  42
0
  0
VERTEX
  8
Обводка_Bottom
  10
-33.9908
  20
27.3753
  42
0
  0
VERTEX
  8
Обводка_Bottom
  10
-34.0892
  20
27.2148
  42
0
  0
VERTEX
  8
Обводка_Bottom
  10
-34.1613
  20
27.0408
  42
0
  0
VERTEX
  8
Обводка_Bottom
  10
-34.2052
  20
26.8577
  42
0
  0
VERTEX
  8
Обводка_Bottom
  10
-34.22
  20
26.67
  42
0
  0
VERTEX
  8
Обводка_Bottom
  10
-34.2052
  20
26.4823
  42
0
  0
VERTEX
  8
Обводка_Bottom
  10
-34.1613
  20
26.2992
  42
0
  0
VERTEX
  8
Обводка_Bottom
  10
-34.0892
  20
26.1252
  42
0
  0
VERTEX
  8
Обводка_Bottom
  10
-33.9908
  20
25.9647
  42
0
  0
VERTEX
  8
Обводка_Bottom
  10
-33.8685
  20
25.8215
  42
0
  0
VERTEX
  8
Обводка_Bottom
  10
-33.7253
  20
25.6992
  42
0
  0
VERTEX
  8
Обводка_Bottom
  10
-33.5648
  20
25.6008
  42
0
  0
VERTEX
  8
Обводка_Bottom
  10
-33.3908
  20
25.5287
  42
0
  0
VERTEX
  8
Обводка_Bottom
  10
-33.2077
  20
25.4848
  42
0
  0
VERTEX
  8
Обводка_Bottom
  10
-33.02
  20
25.47
  42
0
  0
VERTEX
  8
Обводка_Bottom
  10
-29.7069
  20
25.47
  42
0
  0
VERTEX
  8
Обводка_Bottom
  10
-29.1399
  20
24.9028
  42
0
  0
VERTEX
  8
Обводка_Bottom
  10
-29.14
  20
22.86
  42
0
  0
VERTEX
  8
Обводка_Bottom
  10
-29.1252
  20
22.6723
  42
0
  0
VERTEX
  8
Обводка_Bottom
  10
-29.0813
  20
22.4892
  42
0
  0
VERTEX
  8
Обводка_Bottom
  10
-29.0092
  20
22.3152
  42
0
  0
VERTEX
  8
Обводка_Bottom
  10
-28.9108
  20
22.1547
  42
0
  0
VERTEX
  8
Обводка_Bottom
  10
-28.788
  20
22.011
  42
0
  0
VERTEX
  8
Обводка_Bottom
  10
-27.5185
  20
20.7415
  42
0
  0
VERTEX
  8
Обводка_Bottom
  10
-27.3753
  20
20.6192
  42
0
  0
VERTEX
  8
Обводка_Bottom
  10
-27.2148
  20
20.5208
  42
0
  0
VERTEX
  8
Обводка_Bottom
  10
-27.0408
  20
20.4487
  42
0
  0
VERTEX
  8
Обводка_Bottom
  10
-26.8577
  20
20.4048
  42
0
  0
VERTEX
  8
Обводка_Bottom
  10
-26.6693
  20
20.3901
  42
0
  0
VERTEX
  8
Обводка_Bottom
  10
-12.7
  20
20.39
  42
0
  0
VERTEX
  8
Обводка_Bottom
  10
-12.5123
  20
20.4048
  42
0
  0
VERTEX
  8
Обводка_Bottom
  10
-12.3292
  20
20.4487
  42
0
  0
VERTEX
  8
Обводка_Bottom
  10
-12.1552
  20
20.5208
  42
0
  0
VERTEX
  8
Обводка_Bottom
  10
-11.9947
  20
20.6192
  42
0
  0
VERTEX
  8
Обводка_Bottom
  10
-11.851
  20
20.742
  42
0
  0
VERTEX
  8
Обводка_Bottom
  10
-6.7715
  20
25.8215
  42
0
  0
VERTEX
  8
Обводка_Bottom
  10
-6.6492
  20
25.9647
  42
0
  0
VERTEX
  8
Обводка_Bottom
  10
-6.5508
  20
26.1252
  42
0
  0
VERTEX
  8
Обводка_Bottom
  10
-6.4787
  20
26.2992
  42
0
  0
VERTEX
  8
Обводка_Bottom
  10
-6.4348
  20
26.4823
  42
0
  0
VERTEX
  8
Обводка_Bottom
  10
-6.4201
  20
26.6707
  42
0
  0
VERTEX
  8
Обводка_Bottom
  10
-6.42
  20
32.95
  42
0
  0
VERTEX
  8
Обводка_Bottom
  10
-6.62
  20
32.95
  42
0
  0
SEQEND
  0
POLYLINE
  8
Обводка_Bottom
  6
CONTINUOUS
  66
1
  70
0
  40
0.9
  41
0.9
  0
VERTEX
  8
Обводка_Bottom
  10
-9.16
  20
35.49
  42
0
  0
VERTEX
  8
Обводка_Bottom
  10
-12.7
  20
35.49
  42
0
  0
VERTEX
  8
Обводка_Bottom
  10
-12.8877
  20
35.4752
  42
0
  0
VERTEX
  8
Обводка_Bottom
  10
-13.0708
  20
35.4313
  42
0
  0
VERTEX
  8
Обводка_Bottom
  10
-13.2448
  20
35.3592
  42
0
  0
VERTEX
  8
Обводка_Bottom
  10
-13.4053
  20
35.2608
  42
0
  0
VERTEX
  8
Обводка_Bottom
  10
-13.5485
  20
35.1385
  42
0
  0
VERTEX
  8
Обводка_Bottom
  10
-13.6708
  20
34.9953
  42
0
  0
VERTEX
  8
Обводка_Bottom
  10
-13.7692
  20
34.8348
  42
0
  0
VERTEX
  8
Обводка_Bottom
  10
-13.8413
  20
34.6608
  42
0
  0
VERTEX
  8
Обводка_Bottom
  10
-13.8852
  20
34.4777
  42
0
  0
VERTEX
  8
Обводка_Bottom
  10
-13.8999
  20
34.2893
  42
0
  0
VERTEX
  8
Обводка_Bottom
  10
-13.9
  20
30.4095
  42
0
  0
VERTEX
  8
Обводка_Bottom
  10
-25.4
  20
30.41
  42
0
  0
VERTEX
  8
Обводка_Bottom
  10
-25.5877
  20
30.3952
  42
0
  0
VERTEX
  8
Обводка_Bottom
  10
-25.7708
  20
30.3513
  42
0
  0
VERTEX
  8
Обводка_Bottom
  10
-25.9448
  20
30.2792
  42
0
  0
VERTEX
  8
Обводка_Bottom
  10
-26.1053
  20
30.1808
  42
0
  0
VERTEX
  8
Обводка_Bottom
  10
-26.2485
  20
30.0585
  42
0
  0
VERTEX
  8
Обводка_Bottom
  10
-26.3708
  20
29.9153
  42
0
  0
VERTEX
  8
Обводка_Bottom
  10
-26.4692
  20
29.7548
  42
0
  0
VERTEX
  8
Обводка_Bottom
  10
-26.5413
  20
29.5808
  42
0
  0
VERTEX
  8
Обводка_Bottom
  10
-26.5852
  20
29.3977
  42
0
  0
VERTEX
  8
Обводка_Bottom
  10
-26.6
  20
29.21
  42
0
  0
VERTEX
  8
Обводка_Bottom
  10
-26.5852
  20
29.0223
  42
0
  0
VERTEX
  8
Обводка_Bottom
  10
-26.5413
  20
28.8392
  42
0
  0
VERTEX
  8
Обводка_Bottom
  10
-26.4692
  20
28.6652
  42
0
  0
VERTEX
  8
Обводка_Bottom
  10
-26.3708
  20
28.5047
  42
0
  0
VERTEX
  8
Обводка_Bottom
  10
-26.2485
  20
28.3615
  42
0
  0
VERTEX
  8
Обводка_Bottom
  10
-26.1053
  20
28.2392
  42
0
  0
VERTEX
  8
Обводка_Bottom
  10
-25.9448
  20
28.1408
  42
0
  0
VERTEX
  8
Обводка_Bottom
  10
-25.7708
  20
28.0687
  42
0
  0
VERTEX
  8
Обводка_Bottom
  10
-25.5877
  20
28.0248
  42
0
  0
VERTEX
  8
Обводка_Bottom
  10
-25.4
  20
28.01
  42
0
  0
VERTEX
  8
Обводка_Bottom
  10
-12.7
  20
28.01
  42
0
  0
VERTEX
  8
Обводка_Bottom
  10
-12.5123
  20
28.0248
  42
0
  0
VERTEX
  8
Обводка_Bottom
  10
-12.3292
  20
28.0687
  42
0
  0
VERTEX
  8
Обводка_Bottom
  10
-12.1552
  20
28.1408
  42
0
  0
VERTEX
  8
Обводка_Bottom
  10
-11.9947
  20
28.2392
  42
0
  0
VERTEX
  8
Обводка_Bottom
  10
-11.8515
  20
28.3615
  42
0
  0
VERTEX
  8
Обводка_Bottom
  10
-11.7292
  20
28.5047
  42
0
  0
VERTEX
  8
Обводка_Bottom
  10
-11.6308
  20
28.6652
  42
0
  0
VERTEX
  8
Обводка_Bottom
  10
-11.5587
  20
28.8392
  42
0
  0
VERTEX
  8
Обводка_Bottom
  10
-11.5148
  20
29.0223
  42
0
  0
VERTEX
  8
Обводка_Bottom
  10
-11.5
  20
29.21
  42
0
  0
VERTEX
  8
Обводка_Bottom
  10
-11.5
  20
33.0905
  42
0
  0
VERTEX
  8
Обводка_Bottom
  10
-8.96
  20
33.09
  42
0
  0
VERTEX
  8
Обводка_Bottom
  10
-8.96
  20
35.49
  42
0
  0
VERTEX
  8
Обводка_Bottom
  10
-9.16
  20
35.49
  42
0
  0
SEQEND
  0
POLYLINE
  8
Обводка_Bottom
  6
CONTINUOUS
  66
1
  70
0
  40
0.9
  41
0.9
  0
VERTEX
  8
Обводка_Bottom
  10
-59.62
  20
22.9308
  42
0
  0
VERTEX
  8
Обводка_Bottom
  10
-57.15
  20
22.93
  42
0
  0
VERTEX
  8
Обводка_Bottom
  10
-56.9623
  20
22.9448
  42
0
  0
VERTEX
  8
Обводка_Bottom
  10
-56.7792
  20
22.9887
  42
0
  0
VERTEX
  8
Обводка_Bottom
  10
-56.6052
  20
23.0608
  42
0
  0
VERTEX
  8
Обводка_Bottom
  10
-56.4447
  20
23.1592
  42
0
  0
VERTEX
  8
Обводка_Bottom
  10
-56.3015
  20
23.2815
  42
0
  0
VERTEX
  8
Обводка_Bottom
  10
-56.1792
  20
23.4247
  42
0
  0
VERTEX
  8
Обводка_Bottom
  10
-56.0808
  20
23.5852
  42
0
  0
VERTEX
  8
Обводка_Bottom
  10
-56.0087
  20
23.7592
  42
0
  0
VERTEX
  8
Обводка_Bottom
  10
-55.9648
  20
23.9423
  42
0
  0
VERTEX
  8
Обводка_Bottom
  10
-55.95
  20
24.13
  42
0
  0
VERTEX
  8
Обводка_Bottom
  10
-55.9648
  20
24.3177
  42
0
  0
VERTEX
  8
Обводка_Bottom
  10
-56.0087
  20
24.5008
  42
0
  0
VERTEX
  8
Обводка_Bottom
  10
-56.0808
  20
24.6748
  42
0
  0
VERTEX
  8
Обводка_Bottom
  10
-56.1181
  20
24.7356
  42
0
  0
VERTEX
  8
Обводка_Bottom
  10
-52.8424
  20
28.0105
  42
0
  0
VERTEX
  8
Обводка_Bottom
  10
-43.18
  20
28.01
  42
0
  0
VERTEX
  8
Обводка_Bottom
  10
-42.9923
  20
28.0248
  42
0
  0
VERTEX
  8
Обводка_Bottom
  10
-42.8092
  20
28.0687
  42
0
  0
VERTEX
  8
Обводка_Bottom
  10
-42.6352
  20
28.1408
  42
0
  0
VERTEX
  8
Обводка_Bottom
  10
-42.4747
  20
28.2392
  42
0
  0
VERTEX
  8
Обводка_Bottom
  10
-42.3315
  20
28.3615
  42
0
  0
VERTEX
  8
Обводка_Bottom
  10
-42.2092
  20
28.5047
  42
0
  0
VERTEX
  8
Обводка_Bottom
  10
-42.1108
  20
28.6652
  42
0
  0
VERTEX
  8
Обводка_Bottom
  10
-42.0387
  20
28.8392
  42
0
  0
VERTEX
  8
Обводка_Bottom
  10
-41.9948
  20
29.0223
  42
0
  0
VERTEX
  8
Обводка_Bottom
  10
-41.98
  20
29.21
  42
0
  0
VERTEX
  8
Обводка_Bottom
  10
-41.9948
  20
29.3977
  42
0
  0
VERTEX
  8
Обводка_Bottom
  10
-42.0387
  20
29.5808
  42
0
  0
VERTEX
  8
Обводка_Bottom
  10
-42.1108
  20
29.7548
  42
0
  0
VERTEX
  8
Обводка_Bottom
  10
-42.2092
  20
29.9153
  42
0
  0
VERTEX
  8
Обводка_Bottom
  10
-42.3315
  20
30.0585
  42
0
  0
VERTEX
  8
Обводка_Bottom
  10
-42.4747
  20
30.1808
  42
0
  0
VERTEX
  8
Обводка_Bottom
  10
-42.6352
  20
30.2792
  42
0
  0
VERTEX
  8
Обводка_Bottom
  10
-42.8092
  20
30.3513
  42
0
  0
VERTEX
  8
Обводка_Bottom
  10
-42.9923
  20
30.3952
  42
0
  0
VERTEX
  8
Обводка_Bottom
  10
-43.18
  20
30.41
  42
0
  0
VERTEX
  8
Обводка_Bottom
  10
-53.3399
  20
30.4101
  42
0
  0
VERTEX
  8
Обводка_Bottom
  10
-53.5277
  20
30.3953
  42
0
  0
VERTEX
  8
Обводка_Bottom
  10
-53.7108
  20
30.3513
  42
0
  0
VERTEX
  8
Обводка_Bottom
  10
-53.8847
  20
30.2793
  42
0
  0
VERTEX
  8
Обводка_Bottom
  10
-54.0453
  20
30.1809
  42
0
  0
VERTEX
  8
Обводка_Bottom
  10
-54.1885
  20
30.0586
  42
0
  0
VERTEX
  8
Обводка_Bottom
  10
-58.9175
  20
25.3296
  42
0
  0
VERTEX
  8
Обводка_Bottom
  10
-63.5
  20
25.33
  42
0
  0
VERTEX
  8
Обводка_Bottom
  10
-63.6877
  20
25.3152
  42
0
  0
VERTEX
  8
Обводка_Bottom
  10
-63.8708
  20
25.2713
  42
0
  0
VERTEX
  8
Обводка_Bottom
  10
-64.0448
  20
25.1992
  42
0
  0
VERTEX
  8
Обводка_Bottom
  10
-64.2053
  20
25.1008
  42
0
  0
VERTEX
  8
Обводка_Bottom
  10
-64.3485
  20
24.9785
  42
0
  0
VERTEX
  8
Обводка_Bottom
  10
-64.4708
  20
24.8353
  42
0
  0
VERTEX
  8
Обводка_Bottom
  10
-64.5692
  20
24.6748
  42
0
  0
VERTEX
  8
Обводка_Bottom
  10
-64.6413
  20
24.5008
  42
0
  0
VERTEX
  8
Обводка_Bottom
  10
-64.6852
  20
24.3177
  42
0
  0
VERTEX
  8
Обводка_Bottom
  10
-64.7
  20
24.13
  42
0
  0
VERTEX
  8
Обводка_Bottom
  10
-64.6852
  20
23.9423
  42
0
  0
VERTEX
  8
Обводка_Bottom
  10
-64.6413
  20
23.7592
  42
0
  0
VERTEX
  8
Обводка_Bottom
  10
-64.5692
  20
23.5852
  42
0
  0
VERTEX
  8
Обводка_Bottom
  10
-64.4708
  20
23.4247
  42
0
  0
VERTEX
  8
Обводка_Bottom
  10
-64.3485
  20
23.2815
  42
0
  0
VERTEX
  8
Обводка_Bottom
  10
-64.2053
  20
23.1592
  42
0
  0
VERTEX
  8
Обводка_Bottom
  10
-64.0448
  20
23.0608
  42
0
  0
VERTEX
  8
Обводка_Bottom
  10
-63.8708
  20
22.9887
  42
0
  0
VERTEX
  8
Обводка_Bottom
  10
-63.6877
  20
22.9448
  42
0
  0
VERTEX
  8
Обводка_Bottom
  10
-63.5
  20
22.93
  42
0
  0
VERTEX
  8
Обводка_Bottom
  10
-59.62
  20
22.93
  42
0
  0
VERTEX
  8
Обводка_Bottom
  10
-59.62
  20
22.9308
  42
0
  0
SEQEND
  0
POLYLINE
  8
Обводка_Bottom
  6
CONTINUOUS
  66
1
  70
0
  40
0.9
  41
0.9
  0
VERTEX
  8
Обводка_Bottom
  10
-62.2479
  20
30.33
  42
0
  0
VERTEX
  8
Обводка_Bottom
  10
-63.4299
  20
30.33
  42
0
  0
VERTEX
  8
Обводка_Bottom
  10
-63.4299
  20
30.2573
  42
0
  0
VERTEX
  8
Обводка_Bottom
  10
-63.5743
  20
30.2489
  42
0
  0
VERTEX
  8
Обводка_Bottom
  10
-63.7607
  20
30.2226
  42
0
  0
VERTEX
  8
Обводка_Bottom
  10
-63.9408
  20
30.1674
  42
0
  0
VERTEX
  8
Обводка_Bottom
  10
-64.1099
  20
30.0847
  42
0
  0
VERTEX
  8
Обводка_Bottom
  10
-64.2641
  20
29.9765
  42
0
  0
VERTEX
  8
Обводка_Bottom
  10
-64.3994
  20
29.8456
  42
0
  0
VERTEX
  8
Обводка_Bottom
  10
-64.5126
  20
29.6951
  42
0
  0
VERTEX
  8
Обводка_Bottom
  10
-64.6009
  20
29.5288
  42
0
  0
VERTEX
  8
Обводка_Bottom
  10
-64.662
  20
29.3507
  42
0
  0
VERTEX
  8
Обводка_Bottom
  10
-64.6946
  20
29.1652
  42
0
  0
VERTEX
  8
Обводка_Bottom
  10
-64.6977
  20
28.977
  42
0
  0
VERTEX
  8
Обводка_Bottom
  10
-64.6713
  20
28.7905
  42
0
  0
VERTEX
  8
Обводка_Bottom
  10
-64.6161
  20
28.6105
  42
0
  0
VERTEX
  8
Обводка_Bottom
  10
-64.5334
  20
28.4413
  42
0
  0
VERTEX
  8
Обводка_Bottom
  10
-64.4253
  20
28.2872
  42
0
  0
VERTEX
  8
Обводка_Bottom
  10
-64.2944
  20
28.1518
  42
0
  0
VERTEX
  8
Обводка_Bottom
  10
-64.1439
  20
28.0386
  42
0
  0
VERTEX
  8
Обводка_Bottom
  10
-63.9776
  20
27.9504
  42
0
  0
VERTEX
  8
Обводка_Bottom
  10
-63.7995
  20
27.8892
  42
0
  0
VERTEX
  8
Обводка_Bottom
  10
-63.614
  20
27.8567
  42
0
  0
VERTEX
  8
Обводка_Bottom
  10
-63.4257
  20
27.8535
  42
0
  0
VERTEX
  8
Обводка_Bottom
  10
-62.1926
  20
27.93
  42
0
  0
VERTEX
  8
Обводка_Bottom
  10
-61.0299
  20
27.93
  42
0
  0
VERTEX
  8
Обводка_Bottom
  10
-61.0299
  20
27.9636
  42
0
  0
VERTEX
  8
Обводка_Bottom
  10
-59.3376
  20
28.0134
  42
0
  0
VERTEX
  8
Обводка_Bottom
  10
-59.1504
  20
28.0336
  42
0
  0
VERTEX
  8
Обводка_Bottom
  10
-58.9687
  20
28.0828
  42
0
  0
VERTEX
  8
Обводка_Bottom
  10
-58.7969
  20
28.1599
  42
0
  0
VERTEX
  8
Обводка_Bottom
  10
-58.6392
  20
28.2629
  42
0
  0
VERTEX
  8
Обводка_Bottom
  10
-58.4997
  20
28.3893
  42
0
  0
VERTEX
  8
Обводка_Bottom
  10
-58.3816
  20
28.536
  42
0
  0
VERTEX
  8
Обводка_Bottom
  10
-58.2879
  20
28.6993
  42
0
  0
VERTEX
  8
Обводка_Bottom
  10
-58.2209
  20
28.8753
  42
0
  0
VERTEX
  8
Обводка_Bottom
  10
-58.1823
  20
29.0596
  42
0
  0
VERTEX
  8
Обводка_Bottom
  10
-58.1729
  20
29.2477
  42
0
  0
VERTEX
  8
Обводка_Bottom
  10
-58.1931
  20
29.4349
  42
0
  0
VERTEX
  8
Обводка_Bottom
  10
-58.2424
  20
29.6166
  42
0
  0
VERTEX
  8
Обводка_Bottom
  10
-58.3195
  20
29.7884
  42
0
  0
VERTEX
  8
Обводка_Bottom
  10
-58.4225
  20
29.9461
  42
0
  0
VERTEX
  8
Обводка_Bottom
  10
-58.5489
  20
30.0856
  42
0
  0
VERTEX
  8
Обводка_Bottom
  10
-58.6955
  20
30.2037
  42
0
  0
VERTEX
  8
Обводка_Bottom
  10
-58.8589
  20
30.2974
  42
0
  0
VERTEX
  8
Обводка_Bottom
  10
-59.0349
  20
30.3644
  42
0
  0
VERTEX
  8
Обводка_Bottom
  10
-59.2191
  20
30.403
  42
0
  0
VERTEX
  8
Обводка_Bottom
  10
-59.4072
  20
30.4124
  42
0
  0
VERTEX
  8
Обводка_Bottom
  10
-62.2475
  20
30.33
  42
0
  0
VERTEX
  8
Обводка_Bottom
  10
-62.2479
  20
30.33
  42
0
  0
SEQEND
  0
POLYLINE
  8
Обводка_Bottom
  6
CONTINUOUS
  66
1
  70
0
  40
0.9
  41
0.9
  0
VERTEX
  8
Обводка_Bottom
  10
-59.7367
  20
32.83
  42
0
  0
VERTEX
  8
Обводка_Bottom
  10
-63.4299
  20
32.83
  42
0
  0
VERTEX
  8
Обводка_Bottom
  10
-63.4299
  20
32.7886
  42
0
  0
VERTEX
  8
Обводка_Bottom
  10
-63.5702
  20
32.7692
  42
0
  0
VERTEX
  8
Обводка_Bottom
  10
-63.7516
  20
32.7189
  42
0
  0
VERTEX
  8
Обводка_Bottom
  10
-63.923
  20
32.6408
  42
0
  0
VERTEX
  8
Обводка_Bottom
  10
-64.08
  20
32.5369
  42
0
  0
VERTEX
  8
Обводка_Bottom
  10
-64.2189
  20
32.4097
  42
0
  0
VERTEX
  8
Обводка_Bottom
  10
-64.3361
  20
32.2623
  42
0
  0
VERTEX
  8
Обводка_Bottom
  10
-64.4288
  20
32.0984
  42
0
  0
VERTEX
  8
Обводка_Bottom
  10
-64.4948
  20
31.922
  42
0
  0
VERTEX
  8
Обводка_Bottom
  10
-64.5323
  20
31.7375
  42
0
  0
VERTEX
  8
Обводка_Bottom
  10
-64.5405
  20
31.5494
  42
0
  0
VERTEX
  8
Обводка_Bottom
  10
-64.5192
  20
31.3623
  42
0
  0
VERTEX
  8
Обводка_Bottom
  10
-64.4689
  20
31.1809
  42
0
  0
VERTEX
  8
Обводка_Bottom
  10
-64.3908
  20
31.0095
  42
0
  0
VERTEX
  8
Обводка_Bottom
  10
-64.2869
  20
30.8525
  42
0
  0
VERTEX
  8
Обводка_Bottom
  10
-64.1597
  20
30.7136
  42
0
  0
VERTEX
  8
Обводка_Bottom
  10
-64.0123
  20
30.5964
  42
0
  0
VERTEX
  8
Обводка_Bottom
  10
-63.8485
  20
30.5037
  42
0
  0
VERTEX
  8
Обводка_Bottom
  10
-63.6721
  20
30.4377
  42
0
  0
VERTEX
  8
Обводка_Bottom
  10
-63.4876
  20
30.4002
  42
0
  0
VERTEX
  8
Обводка_Bottom
  10
-63.2994
  20
30.392
  42
0
  0
VERTEX
  8
Обводка_Bottom
  10
-62.023
  20
30.43
  42
0
  0
VERTEX
  8
Обводка_Bottom
  10
-59.3338
  20
30.43
  42
0
  0
VERTEX
  8
Обводка_Bottom
  10
-59.146
  20
30.4448
  42
0
  0
VERTEX
  8
Обводка_Bottom
  10
-58.9623
  20
30.489
  42
0
  0
VERTEX
  8
Обводка_Bottom
  10
-58.8112
  20
30.5501
  42
0
  0
VERTEX
  8
Обводка_Bottom
  10
-43.18
  20
30.55
  42
0
  0
VERTEX
  8
Обводка_Bottom
  10
-42.9923
  20
30.5648
  42
0
  0
VERTEX
  8
Обводка_Bottom
  10
-42.8092
  20
30.6087
  42
0
  0
VERTEX
  8
Обводка_Bottom
  10
-42.6352
  20
30.6808
  42
0
  0
VERTEX
  8
Обводка_Bottom
  10
-42.4747
  20
30.7792
  42
0
  0
VERTEX
  8
Обводка_Bottom
  10
-42.3315
  20
30.9015
  42
0
  0
VERTEX
  8
Обводка_Bottom
  10
-42.2092
  20
31.0447
  42
0
  0
VERTEX
  8
Обводка_Bottom
  10
-42.1108
  20
31.2052
  42
0
  0
VERTEX
  8
Обводка_Bottom
  10
-42.0387
  20
31.3792
  42
0
  0
VERTEX
  8
Обводка_Bottom
  10
-41.9948
  20
31.5623
  42
0
  0
VERTEX
  8
Обводка_Bottom
  10
-41.98
  20
31.75
  42
0
  0
VERTEX
  8
Обводка_Bottom
  10
-41.9948
  20
31.9377
  42
0
  0
VERTEX
  8
Обводка_Bottom
  10
-42.0387
  20
32.1208
  42
0
  0
VERTEX
  8
Обводка_Bottom
  10
-42.1108
  20
32.2948
  42
0
  0
VERTEX
  8
Обводка_Bottom
  10
-42.2092
  20
32.4553
  42
0
  0
VERTEX
  8
Обводка_Bottom
  10
-42.3315
  20
32.5985
  42
0
  0
VERTEX
  8
Обводка_Bottom
  10
-42.4747
  20
32.7208
  42
0
  0
VERTEX
  8
Обводка_Bottom
  10
-42.6352
  20
32.8192
  42
0
  0
VERTEX
  8
Обводка_Bottom
  10
-42.8092
  20
32.8913
  42
0
  0
VERTEX
  8
Обводка_Bottom
  10
-42.9923
  20
32.9352
  42
0
  0
VERTEX
  8
Обводка_Bottom
  10
-43.18
  20
32.95
  42
0
  0
VERTEX
  8
Обводка_Bottom
  10
-59.2135
  20
32.9501
  42
0
  0
VERTEX
  8
Обводка_Bottom
  10
-59.4012
  20
32.9353
  42
0
  0
VERTEX
  8
Обводка_Bottom
  10
-59.585
  20
32.8911
  42
0
  0
VERTEX
  8
Обводка_Bottom
  10
-59.7367
  20
32.83
  42
0
  0
SEQEND
  0
POLYLINE
  8
Обводка_Bottom
  6
CONTINUOUS
  66
1
  70
0
  40
0.9
  41
0.9
  0
VERTEX
  8
Обводка_Bottom
  10
-62.0705
  20
35.49
  42
0
  0
VERTEX
  8
Обводка_Bottom
  10
-43.18
  20
35.49
  42
0
  0
VERTEX
  8
Обводка_Bottom
  10
-42.9923
  20
35.4752
  42
0
  0
VERTEX
  8
Обводка_Bottom
  10
-42.8092
  20
35.4313
  42
0
  0
VERTEX
  8
Обводка_Bottom
  10
-42.6352
  20
35.3592
  42
0
  0
VERTEX
  8
Обводка_Bottom
  10
-42.4747
  20
35.2608
  42
0
  0
VERTEX
  8
Обводка_Bottom
  10
-42.3315
  20
35.1385
  42
0
  0
VERTEX
  8
Обводка_Bottom
  10
-42.2092
  20
34.9953
  42
0
  0
VERTEX
  8
Обводка_Bottom
  10
-42.1108
  20
34.8348
  42
0
  0
VERTEX
  8
Обводка_Bottom
  10
-42.0387
  20
34.6608
  42
0
  0
VERTEX
  8
Обводка_Bottom
  10
-41.9948
  20
34.4777
  42
0
  0
VERTEX
  8
Обводка_Bottom
  10
-41.98
  20
34.29
  42
0
  0
VERTEX
  8
Обводка_Bottom
  10
-41.9948
  20
34.1023
  42
0
  0
VERTEX
  8
Обводка_Bottom
  10
-42.0387
  20
33.9192
  42
0
  0
VERTEX
  8
Обводка_Bottom
  10
-42.1108
  20
33.7452
  42
0
  0
VERTEX
  8
Обводка_Bottom
  10
-42.2092
  20
33.5847
  42
0
  0
VERTEX
  8
Обводка_Bottom
  10
-42.3315
  20
33.4415
  42
0
  0
VERTEX
  8
Обводка_Bottom
  10
-42.4747
  20
33.3192
  42
0
  0
VERTEX
  8
Обводка_Bottom
  10
-42.6352
  20
33.2208
  42
0
  0
VERTEX
  8
Обводка_Bottom
  10
-42.8092
  20
33.1487
  42
0
  0
VERTEX
  8
Обводка_Bottom
  10
-42.9923
  20
33.1048
  42
0
  0
VERTEX
  8
Обводка_Bottom
  10
-43.2005
  20
33.09
  42
0
  0
VERTEX
  8
Обводка_Bottom
  10
-61.0298
  20
33.0902
  42
0
  0
VERTEX
  8
Обводка_Bottom
  10
-61.0298
  20
32.93
  42
0
  0
VERTEX
  8
Обводка_Bottom
  10
-63.4298
  20
32.93
  42
0
  0
VERTEX
  8
Обводка_Bottom
  10
-63.4299
  20
33.09
  42
0
  0
VERTEX
  8
Обводка_Bottom
  10
-63.6877
  20
33.1048
  42
0
  0
VERTEX
  8
Обводка_Bottom
  10
-63.8708
  20
33.1487
  42
0
  0
VERTEX
  8
Обводка_Bottom
  10
-64.0448
  20
33.2208
  42
0
  0
VERTEX
  8
Обводка_Bottom
  10
-64.2053
  20
33.3192
  42
0
  0
VERTEX
  8
Обводка_Bottom
  10
-64.3485
  20
33.4415
  42
0
  0
VERTEX
  8
Обводка_Bottom
  10
-64.4708
  20
33.5847
  42
0
  0
VERTEX
  8
Обводка_Bottom
  10
-64.5692
  20
33.7452
  42
0
  0
VERTEX
  8
Обводка_Bottom
  10
-64.6413
  20
33.9192
  42
0
  0
VERTEX
  8
Обводка_Bottom
  10
-64.6852
  20
34.1023
  42
0
  0
VERTEX
  8
Обводка_Bottom
  10
-64.7
  20
34.29
  42
0
  0
VERTEX
  8
Обводка_Bottom
  10
-64.6852
  20
34.4777
  42
0
  0
VERTEX
  8
Обводка_Bottom
  10
-64.6413
  20
34.6608
  42
0
  0
VERTEX
  8
Обводка_Bottom
  10
-64.5692
  20
34.8348
  42
0
  0
VERTEX
  8
Обводка_Bottom
  10
-64.4708
  20
34.9953
  42
0
  0
VERTEX
  8
Обводка_Bottom
  10
-64.3485
  20
35.1385
  42
0
  0
VERTEX
  8
Обводка_Bottom
  10
-64.2053
  20
35.2608
  42
0
  0
VERTEX
  8
Обводка_Bottom
  10
-64.0448
  20
35.3592
  42
0
  0
VERTEX
  8
Обводка_Bottom
  10
-63.8708
  20
35.4313
  42
0
  0
VERTEX
  8
Обводка_Bottom
  10
-63.6877
  20
35.4752
  42
0
  0
VERTEX
  8
Обводка_Bottom
  10
-63.3748
  20
35.49
  42
0
  0
VERTEX
  8
Обводка_Bottom
  10
-62.3891
  20
35.4899
  42
0
  0
SEQEND
  0
POLYLINE
  8
Обводка_Bottom
  6
CONTINUOUS
  66
1
  70
0
  40
0.9
  41
0.9
  0
VERTEX
  8
Обводка_Bottom
  10
-11.3593
  20
48.33
  42
0
  0
VERTEX
  8
Обводка_Bottom
  10
-21.59
  20
48.33
  42
0
  0
VERTEX
  8
Обводка_Bottom
  10
-21.7777
  20
48.3448
  42
0
  0
VERTEX
  8
Обводка_Bottom
  10
-21.9608
  20
48.3887
  42
0
  0
VERTEX
  8
Обводка_Bottom
  10
-22.1348
  20
48.4608
  42
0
  0
VERTEX
  8
Обводка_Bottom
  10
-22.2953
  20
48.5592
  42
0
  0
VERTEX
  8
Обводка_Bottom
  10
-22.4385
  20
48.6815
  42
0
  0
VERTEX
  8
Обводка_Bottom
  10
-24.6268
  20
50.87
  42
0
  0
VERTEX
  8
Обводка_Bottom
  10
-29.21
  20
50.87
  42
0
  0
VERTEX
  8
Обводка_Bottom
  10
-29.3977
  20
50.8848
  42
0
  0
VERTEX
  8
Обводка_Bottom
  10
-29.5808
  20
50.9287
  42
0
  0
VERTEX
  8
Обводка_Bottom
  10
-29.7548
  20
51.0008
  42
0
  0
VERTEX
  8
Обводка_Bottom
  10
-29.9153
  20
51.0992
  42
0
  0
VERTEX
  8
Обводка_Bottom
  10
-30.0585
  20
51.2215
  42
0
  0
VERTEX
  8
Обводка_Bottom
  10
-30.1808
  20
51.3647
  42
0
  0
VERTEX
  8
Обводка_Bottom
  10
-30.2792
  20
51.5252
  42
0
  0
VERTEX
  8
Обводка_Bottom
  10
-30.3513
  20
51.6992
  42
0
  0
VERTEX
  8
Обводка_Bottom
  10
-30.3952
  20
51.8823
  42
0
  0
VERTEX
  8
Обводка_Bottom
  10
-30.41
  20
52.07
  42
0
  0
VERTEX
  8
Обводка_Bottom
  10
-30.3952
  20
52.2577
  42
0
  0
VERTEX
  8
Обводка_Bottom
  10
-30.3513
  20
52.4408
  42
0
  0
VERTEX
  8
Обводка_Bottom
  10
-30.2792
  20
52.6148
  42
0
  0
VERTEX
  8
Обводка_Bottom
  10
-30.1808
  20
52.7753
  42
0
  0
VERTEX
  8
Обводка_Bottom
  10
-30.0585
  20
52.9185
  42
0
  0
VERTEX
  8
Обводка_Bottom
  10
-29.9153
  20
53.0408
  42
0
  0
VERTEX
  8
Обводка_Bottom
  10
-29.7548
  20
53.1392
  42
0
  0
VERTEX
  8
Обводка_Bottom
  10
-29.5808
  20
53.2113
  42
0
  0
VERTEX
  8
Обводка_Bottom
  10
-29.3977
  20
53.2552
  42
0
  0
VERTEX
  8
Обводка_Bottom
  10
-29.21
  20
53.27
  42
0
  0
VERTEX
  8
Обводка_Bottom
  10
-24.13
  20
53.27
  42
0
  0
VERTEX
  8
Обводка_Bottom
  10
-23.9423
  20
53.2552
  42
0
  0
VERTEX
  8
Обводка_Bottom
  10
-23.7592
  20
53.2113
  42
0
  0
VERTEX
  8
Обводка_Bottom
  10
-23.5852
  20
53.1392
  42
0
  0
VERTEX
  8
Обводка_Bottom
  10
-23.4247
  20
53.0408
  42
0
  0
VERTEX
  8
Обводка_Bottom
  10
-23.2809
  20
52.918
  42
0
  0
VERTEX
  8
Обводка_Bottom
  10
-21.0922
  20
50.73
  42
0
  0
VERTEX
  8
Обводка_Bottom
  10
-8.96
  20
50.73
  42
0
  0
VERTEX
  8
Обводка_Bottom
  10
-8.96
  20
48.33
  42
0
  0
VERTEX
  8
Обводка_Bottom
  10
-11.36
  20
48.3308
  42
0
  0
VERTEX
  8
Обводка_Bottom
  10
-11.3593
  20
48.33
  42
0
  0
SEQEND
  0
POLYLINE
  8
Обводка_Bottom
  6
CONTINUOUS
  66
1
  70
0
  40
0.9
  41
0.9
  0
VERTEX
  8
Обводка_Bottom
  10
-44.871
  20
26.248
  42
0
  0
VERTEX
  8
Обводка_Bottom
  10
-44.7492
  20
26.1053
  42
0
  0
VERTEX
  8
Обводка_Bottom
  10
-44.6508
  20
25.9448
  42
0
  0
VERTEX
  8
Обводка_Bottom
  10
-44.5787
  20
25.7708
  42
0
  0
VERTEX
  8
Обводка_Bottom
  10
-44.5348
  20
25.5877
  42
0
  0
VERTEX
  8
Обводка_Bottom
  10
-44.5194
  20
25.3225
  42
0
  0
VERTEX
  8
Обводка_Bottom
  10
-41.84
  20
25.3098
  42
0
  0
VERTEX
  8
Обводка_Bottom
  10
-41.8401
  20
43.2501
  42
0
  0
VERTEX
  8
Обводка_Bottom
  10
-46.0035
  20
43.2501
  42
0
  0
VERTEX
  8
Обводка_Bottom
  10
-45.998
  20
45.6501
  42
0
  0
VERTEX
  8
Обводка_Bottom
  10
-41.84
  20
45.6549
  42
0
  0
VERTEX
  8
Обводка_Bottom
  10
-41.8252
  20
45.9077
  42
0
  0
VERTEX
  8
Обводка_Bottom
  10
-41.7813
  20
46.0908
  42
0
  0
VERTEX
  8
Обводка_Bottom
  10
-41.7092
  20
46.2648
  42
0
  0
VERTEX
  8
Обводка_Bottom
  10
-41.6108
  20
46.4253
  42
0
  0
VERTEX
  8
Обводка_Bottom
  10
-41.4769
  20
46.5802
  42
0
  0
VERTEX
  8
Обводка_Bottom
  10
-40.57
  20
47.4869
  42
0
  0
VERTEX
  8
Обводка_Bottom
  10
-40.57
  20
49.53
  42
0
  0
VERTEX
  8
Обводка_Bottom
  10
-40.5552
  20
49.7177
  42
0
  0
VERTEX
  8
Обводка_Bottom
  10
-40.5113
  20
49.9008
  42
0
  0
VERTEX
  8
Обводка_Bottom
  10
-40.4392
  20
50.0748
  42
0
  0
VERTEX
  8
Обводка_Bottom
  10
-40.3408
  20
50.2353
  42
0
  0
VERTEX
  8
Обводка_Bottom
  10
-40.2185
  20
50.3785
  42
0
  0
VERTEX
  8
Обводка_Bottom
  10
-40.0753
  20
50.5008
  42
0
  0
VERTEX
  8
Обводка_Bottom
  10
-39.9148
  20
50.5992
  42
0
  0
VERTEX
  8
Обводка_Bottom
  10
-39.7408
  20
50.6713
  42
0
  0
VERTEX
  8
Обводка_Bottom
  10
-39.5577
  20
50.7152
  42
0
  0
VERTEX
  8
Обводка_Bottom
  10
-39.3101
  20
50.73
  42
0
  0
VERTEX
  8
Обводка_Bottom
  10
-25.4
  20
50.73
  42
0
  0
VERTEX
  8
Обводка_Bottom
  10
-25.2123
  20
50.7152
  42
0
  0
VERTEX
  8
Обводка_Bottom
  10
-25.0292
  20
50.6713
  42
0
  0
VERTEX
  8
Обводка_Bottom
  10
-24.8552
  20
50.5992
  42
0
  0
VERTEX
  8
Обводка_Bottom
  10
-24.6947
  20
50.5008
  42
0
  0
VERTEX
  8
Обводка_Bottom
  10
-24.5515
  20
50.3785
  42
0
  0
VERTEX
  8
Обводка_Bottom
  10
-22.3635
  20
48.19
  42
0
  0
VERTEX
  8
Обводка_Bottom
  10
-8.82
  20
48.1899
  42
0
  0
VERTEX
  8
Обводка_Bottom
  10
-8.82
  20
50.7299
  42
0
  0
VERTEX
  8
Обводка_Bottom
  10
-6.28
  20
50.7293
  42
0
  0
VERTEX
  8
Обводка_Bottom
  10
-6.2799
  20
63.0028
  42
0
  0
VERTEX
  8
Обводка_Bottom
  10
-6.8466
  20
63.57
  42
0
  0
VERTEX
  8
Обводка_Bottom
  10
-26.76
  20
63.57
  42
0
  0
VERTEX
  8
Обводка_Bottom
  10
-26.9477
  20
63.5848
  42
0
  0
VERTEX
  8
Обводка_Bottom
  10
-27.1308
  20
63.6287
  42
0
  0
VERTEX
  8
Обводка_Bottom
  10
-27.3048
  20
63.7008
  42
0
  0
VERTEX
  8
Обводка_Bottom
  10
-27.4653
  20
63.7992
  42
0
  0
VERTEX
  8
Обводка_Bottom
  10
-27.6085
  20
63.9215
  42
0
  0
VERTEX
  8
Обводка_Bottom
  10
-27.7308
  20
64.0647
  42
0
  0
VERTEX
  8
Обводка_Bottom
  10
-27.8292
  20
64.2252
  42
0
  0
VERTEX
  8
Обводка_Bottom
  10
-27.9013
  20
64.3992
  42
0
  0
VERTEX
  8
Обводка_Bottom
  10
-27.9452
  20
64.5823
  42
0
  0
VERTEX
  8
Обводка_Bottom
  10
-27.96
  20
64.8327
  42
0
  0
VERTEX
  8
Обводка_Bottom
  10
-27.96
  20
71.635
  42
0
  0
VERTEX
  8
Обводка_Bottom
  10
-27.8959
  20
71.6349
  42
0
  0
VERTEX
  8
Обводка_Bottom
  10
-27.8682
  20
72.1384
  42
0
  0
VERTEX
  8
Обводка_Bottom
  10
-27.8431
  20
72.325
  42
0
  0
VERTEX
  8
Обводка_Bottom
  10
-27.7892
  20
72.5054
  42
0
  0
VERTEX
  8
Обводка_Bottom
  10
-27.7077
  20
72.6751
  42
0
  0
VERTEX
  8
Обводка_Bottom
  10
-27.6006
  20
72.8301
  42
0
  0
VERTEX
  8
Обводка_Bottom
  10
-27.4707
  20
72.9663
  42
0
  0
VERTEX
  8
Обводка_Bottom
  10
-27.321
  20
73.0806
  42
0
  0
VERTEX
  8
Обводка_Bottom
  10
-27.1553
  20
73.17
  42
0
  0
VERTEX
  8
Обводка_Bottom
  10
-26.9776
  20
73.2324
  42
0
  0
VERTEX
  8
Обводка_Bottom
  10
-26.7924
  20
73.2662
  42
0
  0
VERTEX
  8
Обводка_Bottom
  10
-26.6041
  20
73.2707
  42
0
  0
VERTEX
  8
Обводка_Bottom
  10
-26.4175
  20
73.2456
  42
0
  0
VERTEX
  8
Обводка_Bottom
  10
-26.2371
  20
73.1917
  42
0
  0
VERTEX
  8
Обводка_Bottom
  10
-26.0674
  20
73.1102
  42
0
  0
VERTEX
  8
Обводка_Bottom
  10
-25.9124
  20
73.0031
  42
0
  0
VERTEX
  8
Обводка_Bottom
  10
-25.7762
  20
72.8732
  42
0
  0
VERTEX
  8
Обводка_Bottom
  10
-25.6619
  20
72.7235
  42
0
  0
VERTEX
  8
Обводка_Bottom
  10
-25.5725
  20
72.5578
  42
0
  0
VERTEX
  8
Обводка_Bottom
  10
-25.5101
  20
72.3801
  42
0
  0
VERTEX
  8
Обводка_Bottom
  10
-25.4763
  20
72.1949
  42
0
  0
VERTEX
  8
Обводка_Bottom
  10
-25.4737
  20
71.9717
  42
0
  0
VERTEX
  8
Обводка_Bottom
  10
-25.56
  20
70.3723
  42
0
  0
VERTEX
  8
Обводка_Bottom
  10
-25.5603
  20
65.97
  42
0
  0
VERTEX
  8
Обводка_Bottom
  10
-6.35
  20
65.97
  42
0
  0
VERTEX
  8
Обводка_Bottom
  10
-6.1623
  20
65.9552
  42
0
  0
VERTEX
  8
Обводка_Bottom
  10
-5.9792
  20
65.9113
  42
0
  0
VERTEX
  8
Обводка_Bottom
  10
-5.8052
  20
65.8392
  42
0
  0
VERTEX
  8
Обводка_Bottom
  10
-5.6447
  20
65.7408
  42
0
  0
VERTEX
  8
Обводка_Bottom
  10
-5.4898
  20
65.6069
  42
0
  0
VERTEX
  8
Обводка_Bottom
  10
-4.2315
  20
64.3485
  42
0
  0
VERTEX
  8
Обводка_Bottom
  10
-4.1092
  20
64.2053
  42
0
  0
VERTEX
  8
Обводка_Bottom
  10
-4.0108
  20
64.0448
  42
0
  0
VERTEX
  8
Обводка_Bottom
  10
-3.9387
  20
63.8708
  42
0
  0
VERTEX
  8
Обводка_Bottom
  10
-3.8948
  20
63.6877
  42
0
  0
VERTEX
  8
Обводка_Bottom
  10
-3.88
  20
63.4967
  42
0
  0
VERTEX
  8
Обводка_Bottom
  10
-3.88
  20
49.5299
  42
0
  0
VERTEX
  8
Обводка_Bottom
  10
-3.8948
  20
49.3422
  42
0
  0
VERTEX
  8
Обводка_Bottom
  10
-3.9387
  20
49.1591
  42
0
  0
VERTEX
  8
Обводка_Bottom
  10
-4.0108
  20
48.9851
  42
0
  0
VERTEX
  8
Обводка_Bottom
  10
-4.1092
  20
48.8246
  42
0
  0
VERTEX
  8
Обводка_Bottom
  10
-4.2315
  20
48.6814
  42
0
  0
VERTEX
  8
Обводка_Bottom
  10
-4.3747
  20
48.5591
  42
0
  0
VERTEX
  8
Обводка_Bottom
  10
-4.5352
  20
48.4607
  42
0
  0
VERTEX
  8
Обводка_Bottom
  10
-4.7092
  20
48.3887
  42
0
  0
VERTEX
  8
Обводка_Bottom
  10
-4.8923
  20
48.3447
  42
0
  0
VERTEX
  8
Обводка_Bottom
  10
-5.08
  20
48.3299
  42
0
  0
VERTEX
  8
Обводка_Bottom
  10
-6.42
  20
48.33
  42
0
  0
VERTEX
  8
Обводка_Bottom
  10
-6.42
  20
46.99
  42
0
  0
VERTEX
  8
Обводка_Bottom
  10
-6.4348
  20
46.8023
  42
0
  0
VERTEX
  8
Обводка_Bottom
  10
-6.4787
  20
46.6192
  42
0
  0
VERTEX
  8
Обводка_Bottom
  10
-6.5508
  20
46.4452
  42
0
  0
VERTEX
  8
Обводка_Bottom
  10
-6.6492
  20
46.2847
  42
0
  0
VERTEX
  8
Обводка_Bottom
  10
-6.7715
  20
46.1415
  42
0
  0
VERTEX
  8
Обводка_Bottom
  10
-6.9147
  20
46.0192
  42
0
  0
VERTEX
  8
Обводка_Bottom
  10
-7.0752
  20
45.9208
  42
0
  0
VERTEX
  8
Обводка_Bottom
  10
-7.2492
  20
45.8487
  42
0
  0
VERTEX
  8
Обводка_Bottom
  10
-7.4323
  20
45.8048
  42
0
  0
VERTEX
  8
Обводка_Bottom
  10
-7.6595
  20
45.79
  42
0
  0
VERTEX
  8
Обводка_Bottom
  10
-22.86
  20
45.79
  42
0
  0
VERTEX
  8
Обводка_Bottom
  10
-23.0477
  20
45.8048
  42
0
  0
VERTEX
  8
Обводка_Bottom
  10
-23.2308
  20
45.8487
  42
0
  0
VERTEX
  8
Обводка_Bottom
  10
-23.4048
  20
45.9208
  42
0
  0
VERTEX
  8
Обводка_Bottom
  10
-23.5653
  20
46.0192
  42
0
  0
VERTEX
  8
Обводка_Bottom
  10
-23.7091
  20
46.142
  42
0
  0
VERTEX
  8
Обводка_Bottom
  10
-25.4003
  20
47.8333
  42
0
  0
VERTEX
  8
Обводка_Bottom
  10
-25.5287
  20
47.8892
  42
0
  0
VERTEX
  8
Обводка_Bottom
  10
-25.6008
  20
47.7152
  42
0
  0
VERTEX
  8
Обводка_Bottom
  10
-25.6992
  20
47.5547
  42
0
  0
VERTEX
  8
Обводка_Bottom
  10
-25.8215
  20
47.4115
  42
0
  0
VERTEX
  8
Обводка_Bottom
  10
-25.961
  20
47.2785
  42
0
  0
VERTEX
  8
Обводка_Bottom
  10
-26.005
  20
47.0954
  42
0
  0
VERTEX
  8
Обводка_Bottom
  10
-26.0771
  20
46.9214
  42
0
  0
VERTEX
  8
Обводка_Bottom
  10
-26.1754
  20
46.7609
  42
0
  0
VERTEX
  8
Обводка_Bottom
  10
-26.3484
  20
46.567
  42
0
  0
VERTEX
  8
Обводка_Bottom
  10
-29.314
  20
43.6015
  42
0
  0
VERTEX
  8
Обводка_Bottom
  10
-29.4572
  20
43.4792
  42
0
  0
VERTEX
  8
Обводка_Bottom
  10
-29.6177
  20
43.3808
  42
0
  0
VERTEX
  8
Обводка_Bottom
  10
-29.7917
  20
43.3087
  42
0
  0
VERTEX
  8
Обводка_Bottom
  10
-29.9748
  20
43.2648
  42
0
  0
VERTEX
  8
Обводка_Bottom
  10
-30.1625
  20
43.25
  42
0
  0
VERTEX
  8
Обводка_Bottom
  10
-32.95
  20
43.25
  42
0
  0
VERTEX
  8
Обводка_Bottom
  10
-32.9502
  20
45.79
  42
0
  0
VERTEX
  8
Обводка_Bottom
  10
-38.8728
  20
45.7901
  42
0
  0
VERTEX
  8
Обводка_Bottom
  10
-39.44
  20
45.2225
  42
0
  0
VERTEX
  8
Обводка_Bottom
  10
-39.4394
  20
25.31
  42
0
  0
VERTEX
  8
Обводка_Bottom
  10
-36.81
  20
25.31
  42
0
  0
VERTEX
  8
Обводка_Bottom
  10
-36.6223
  20
25.2952
  42
0
  0
VERTEX
  8
Обводка_Bottom
  10
-36.4392
  20
25.2513
  42
0
  0
VERTEX
  8
Обводка_Bottom
  10
-36.2652
  20
25.1792
  42
0
  0
VERTEX
  8
Обводка_Bottom
  10
-36.1047
  20
25.0808
  42
0
  0
VERTEX
  8
Обводка_Bottom
  10
-35.8619
  20
24.859
  42
0
  0
VERTEX
  8
Обводка_Bottom
  10
-25.8216
  20
14.8186
  42
0
  0
VERTEX
  8
Обводка_Bottom
  10
-25.6993
  20
14.6754
  42
0
  0
VERTEX
  8
Обводка_Bottom
  10
-25.6009
  20
14.5149
  42
0
  0
VERTEX
  8
Обводка_Bottom
  10
-25.5288
  20
14.3409
  42
0
  0
VERTEX
  8
Обводка_Bottom
  10
-25.4849
  20
14.1578
  42
0
  0
VERTEX
  8
Обводка_Bottom
  10
-25.4701
  20
13.9161
  42
0
  0
VERTEX
  8
Обводка_Bottom
  10
-25.4704
  20
7.875
  42
0
  0
VERTEX
  8
Обводка_Bottom
  10
-25.1856
  20
7.8663
  42
0
  0
VERTEX
  8
Обводка_Bottom
  10
-25.0787
  20
7.8407
  42
0
  0
VERTEX
  8
Обводка_Bottom
  10
-24.9773
  20
7.7986
  42
0
  0
VERTEX
  8
Обводка_Bottom
  10
-24.8836
  20
7.7412
  42
0
  0
VERTEX
  8
Обводка_Bottom
  10
-24.8001
  20
7.6699
  42
0
  0
VERTEX
  8
Обводка_Bottom
  10
-24.7288
  20
7.5864
  42
0
  0
VERTEX
  8
Обводка_Bottom
  10
-24.6714
  20
7.4927
  42
0
  0
VERTEX
  8
Обводка_Bottom
  10
-24.6293
  20
7.3912
  42
0
  0
VERTEX
  8
Обводка_Bottom
  10
-24.6037
  20
7.2844
  42
0
  0
VERTEX
  8
Обводка_Bottom
  10
-24.5951
  20
7.0287
  42
0
  0
VERTEX
  8
Обводка_Bottom
  10
-24.5951
  20
5.8649
  42
0
  0
VERTEX
  8
Обводка_Bottom
  10
-24.6038
  20
5.7554
  42
0
  0
VERTEX
  8
Обводка_Bottom
  10
-24.6294
  20
5.6486
  42
0
  0
VERTEX
  8
Обводка_Bottom
  10
-24.6714
  20
5.5471
  42
0
  0
VERTEX
  8
Обводка_Bottom
  10
-24.7288
  20
5.4535
  42
0
  0
VERTEX
  8
Обводка_Bottom
  10
-24.8002
  20
5.37
  42
0
  0
VERTEX
  8
Обводка_Bottom
  10
-24.8837
  20
5.2986
  42
0
  0
VERTEX
  8
Обводка_Bottom
  10
-24.9774
  20
5.2412
  42
0
  0
VERTEX
  8
Обводка_Bottom
  10
-25.0788
  20
5.1992
  42
0
  0
VERTEX
  8
Обводка_Bottom
  10
-25.1857
  20
5.1736
  42
0
  0
VERTEX
  8
Обводка_Bottom
  10
-25.4487
  20
5.165
  42
0
  0
VERTEX
  8
Обводка_Bottom
  10
-26.2487
  20
5.165
  42
0
  0
SEQEND
  0
POLYLINE
  8
Обводка_Bottom
  6
CONTINUOUS
  66
1
  70
0
  40
0.9
  41
0.9
  0
VERTEX
  8
Обводка_Bottom
  10
-46.0035
  20
61.0637
  42
0
  0
VERTEX
  8
Обводка_Bottom
  10
-46.0035
  20
61.0301
  42
0
  0
VERTEX
  8
Обводка_Bottom
  10
-43.18
  20
61.03
  42
0
  0
VERTEX
  8
Обводка_Bottom
  10
-42.9923
  20
61.0448
  42
0
  0
VERTEX
  8
Обводка_Bottom
  10
-42.8092
  20
61.0887
  42
0
  0
VERTEX
  8
Обводка_Bottom
  10
-42.6352
  20
61.1608
  42
0
  0
VERTEX
  8
Обводка_Bottom
  10
-42.4747
  20
61.2592
  42
0
  0
VERTEX
  8
Обводка_Bottom
  10
-42.3315
  20
61.3815
  42
0
  0
VERTEX
  8
Обводка_Bottom
  10
-42.2092
  20
61.5247
  42
0
  0
VERTEX
  8
Обводка_Bottom
  10
-42.1108
  20
61.6852
  42
0
  0
VERTEX
  8
Обводка_Bottom
  10
-42.0387
  20
61.8592
  42
0
  0
VERTEX
  8
Обводка_Bottom
  10
-41.9948
  20
62.0423
  42
0
  0
VERTEX
  8
Обводка_Bottom
  10
-41.98
  20
62.23
  42
0
  0
VERTEX
  8
Обводка_Bottom
  10
-41.9948
  20
62.4177
  42
0
  0
VERTEX
  8
Обводка_Bottom
  10
-42.0387
  20
62.6008
  42
0
  0
VERTEX
  8
Обводка_Bottom
  10
-42.1108
  20
62.7748
  42
0
  0
VERTEX
  8
Обводка_Bottom
  10
-42.2092
  20
62.9353
  42
0
  0
VERTEX
  8
Обводка_Bottom
  10
-42.3315
  20
63.0785
  42
0
  0
VERTEX
  8
Обводка_Bottom
  10
-42.4747
  20
63.2008
  42
0
  0
VERTEX
  8
Обводка_Bottom
  10
-42.6352
  20
63.2992
  42
0
  0
VERTEX
  8
Обводка_Bottom
  10
-42.8092
  20
63.3713
  42
0
  0
VERTEX
  8
Обводка_Bottom
  10
-42.9923
  20
63.4152
  42
0
  0
VERTEX
  8
Обводка_Bottom
  10
-43.18
  20
63.43
  42
0
  0
VERTEX
  8
Обводка_Bottom
  10
-45.2227
  20
63.4301
  42
0
  0
VERTEX
  8
Обводка_Bottom
  10
-45.56
  20
63.7671
  42
0
  0
VERTEX
  8
Обводка_Bottom
  10
-45.56
  20
71.635
  42
0
  0
VERTEX
  8
Обводка_Bottom
  10
-45.6108
  20
71.635
  42
0
  0
VERTEX
  8
Обводка_Bottom
  10
-45.6324
  20
72.1247
  42
0
  0
VERTEX
  8
Обводка_Bottom
  10
-45.6553
  20
72.3116
  42
0
  0
VERTEX
  8
Обводка_Bottom
  10
-45.7072
  20
72.4926
  42
0
  0
VERTEX
  8
Обводка_Bottom
  10
-45.7867
  20
72.6632
  42
0
  0
VERTEX
  8
Обводка_Bottom
  10
-45.892
  20
72.8194
  42
0
  0
VERTEX
  8
Обводка_Bottom
  10
-46.0204
  20
72.9571
  42
0
  0
VERTEX
  8
Обводка_Bottom
  10
-46.1687
  20
73.0731
  42
0
  0
VERTEX
  8
Обводка_Bottom
  10
-46.3334
  20
73.1644
  42
0
  0
VERTEX
  8
Обводка_Bottom
  10
-46.5104
  20
73.2288
  42
0
  0
VERTEX
  8
Обводка_Bottom
  10
-46.6952
  20
73.2648
  42
0
  0
VERTEX
  8
Обводка_Bottom
  10
-46.8834
  20
73.2714
  42
0
  0
VERTEX
  8
Обводка_Bottom
  10
-47.0703
  20
73.2484
  42
0
  0
VERTEX
  8
Обводка_Bottom
  10
-47.2513
  20
73.1966
  42
0
  0
VERTEX
  8
Обводка_Bottom
  10
-47.422
  20
73.117
  42
0
  0
VERTEX
  8
Обводка_Bottom
  10
-47.5781
  20
73.0117
  42
0
  0
VERTEX
  8
Обводка_Bottom
  10
-47.7158
  20
72.8834
  42
0
  0
VERTEX
  8
Обводка_Bottom
  10
-47.8318
  20
72.735
  42
0
  0
VERTEX
  8
Обводка_Bottom
  10
-47.9231
  20
72.5703
  42
0
  0
VERTEX
  8
Обводка_Bottom
  10
-47.9875
  20
72.3934
  42
0
  0
VERTEX
  8
Обводка_Bottom
  10
-48.0235
  20
72.2085
  42
0
  0
VERTEX
  8
Обводка_Bottom
  10
-48.0301
  20
72.0203
  42
0
  0
VERTEX
  8
Обводка_Bottom
  10
-47.96
  20
70.4092
  42
0
  0
VERTEX
  8
Обводка_Bottom
  10
-47.96
  20
63.27
  42
0
  0
VERTEX
  8
Обводка_Bottom
  10
-47.9452
  20
63.0823
  42
0
  0
VERTEX
  8
Обводка_Bottom
  10
-47.9013
  20
62.8992
  42
0
  0
VERTEX
  8
Обводка_Bottom
  10
-47.8292
  20
62.7252
  42
0
  0
VERTEX
  8
Обводка_Bottom
  10
-47.7308
  20
62.5647
  42
0
  0
VERTEX
  8
Обводка_Bottom
  10
-47.608
  20
62.421
  42
0
  0
VERTEX
  8
Обводка_Bottom
  10
-46.5686
  20
61.3815
  42
0
  0
VERTEX
  8
Обводка_Bottom
  10
-46.4254
  20
61.2592
  42
0
  0
VERTEX
  8
Обводка_Bottom
  10
-46.2649
  20
61.1609
  42
0
  0
VERTEX
  8
Обводка_Bottom
  10
-46.0902
  20
61.0886
  42
0
  0
VERTEX
  8
Обводка_Bottom
  10
-46.0035
  20
61.0637
  42
0
  0
SEQEND
  0
POLYLINE
  8
Обводка_Bottom
  6
CONTINUOUS
  66
1
  70
0
  40
0.9
  41
0.9
  0
VERTEX
  8
Обводка_Bottom
  10
-35.8665
  20
63.4301
  42
0
  0
VERTEX
  8
Обводка_Bottom
  10
-39.0324
  20
63.4301
  42
0
  0
VERTEX
  8
Обводка_Bottom
  10
-43.0604
  20
67.4587
  42
0
  0
VERTEX
  8
Обводка_Bottom
  10
-43.06
  20
71.635
  42
0
  0
VERTEX
  8
Обводка_Bottom
  10
-43.0912
  20
71.6397
  42
0
  0
VERTEX
  8
Обводка_Bottom
  10
-43.0912
  20
72.0725
  42
0
  0
VERTEX
  8
Обводка_Bottom
  10
-43.106
  20
72.2602
  42
0
  0
VERTEX
  8
Обводка_Bottom
  10
-43.15
  20
72.4433
  42
0
  0
VERTEX
  8
Обводка_Bottom
  10
-43.222
  20
72.6173
  42
0
  0
VERTEX
  8
Обводка_Bottom
  10
-43.3204
  20
72.7778
  42
0
  0
VERTEX
  8
Обводка_Bottom
  10
-43.4427
  20
72.921
  42
0
  0
VERTEX
  8
Обводка_Bottom
  10
-43.5859
  20
73.0433
  42
0
  0
VERTEX
  8
Обводка_Bottom
  10
-43.7464
  20
73.1417
  42
0
  0
VERTEX
  8
Обводка_Bottom
  10
-43.9204
  20
73.2138
  42
0
  0
VERTEX
  8
Обводка_Bottom
  10
-44.1035
  20
73.2577
  42
0
  0
VERTEX
  8
Обводка_Bottom
  10
-44.2912
  20
73.2725
  42
0
  0
VERTEX
  8
Обводка_Bottom
  10
-44.479
  20
73.2577
  42
0
  0
VERTEX
  8
Обводка_Bottom
  10
-44.6621
  20
73.2138
  42
0
  0
VERTEX
  8
Обводка_Bottom
  10
-44.836
  20
73.1417
  42
0
  0
VERTEX
  8
Обводка_Bottom
  10
-44.9966
  20
73.0433
  42
0
  0
VERTEX
  8
Обводка_Bottom
  10
-45.1398
  20
72.921
  42
0
  0
VERTEX
  8
Обводка_Bottom
  10
-45.2621
  20
72.7778
  42
0
  0
VERTEX
  8
Обводка_Bottom
  10
-45.3604
  20
72.6173
  42
0
  0
VERTEX
  8
Обводка_Bottom
  10
-45.4325
  20
72.4433
  42
0
  0
VERTEX
  8
Обводка_Bottom
  10
-45.4765
  20
72.2602
  42
0
  0
VERTEX
  8
Обводка_Bottom
  10
-45.4912
  20
72.0725
  42
0
  0
VERTEX
  8
Обводка_Bottom
  10
-45.4912
  20
70.435
  42
0
  0
VERTEX
  8
Обводка_Bottom
  10
-45.46
  20
70.035
  42
0
  0
VERTEX
  8
Обводка_Bottom
  10
-45.46
  20
66.9612
  42
0
  0
VERTEX
  8
Обводка_Bottom
  10
-45.4452
  20
66.7735
  42
0
  0
VERTEX
  8
Обводка_Bottom
  10
-45.4013
  20
66.5904
  42
0
  0
VERTEX
  8
Обводка_Bottom
  10
-45.3292
  20
66.4164
  42
0
  0
VERTEX
  8
Обводка_Bottom
  10
-45.2308
  20
66.2559
  42
0
  0
VERTEX
  8
Обводка_Bottom
  10
-45.108
  20
66.1122
  42
0
  0
VERTEX
  8
Обводка_Bottom
  10
-40.3774
  20
61.3815
  42
0
  0
VERTEX
  8
Обводка_Bottom
  10
-40.2342
  20
61.2592
  42
0
  0
VERTEX
  8
Обводка_Bottom
  10
-40.0736
  20
61.1609
  42
0
  0
VERTEX
  8
Обводка_Bottom
  10
-39.8997
  20
61.0888
  42
0
  0
VERTEX
  8
Обводка_Bottom
  10
-39.7166
  20
61.0448
  42
0
  0
VERTEX
  8
Обводка_Bottom
  10
-39.5281
  20
61.0301
  42
0
  0
VERTEX
  8
Обводка_Bottom
  10
-35.56
  20
61.03
  42
0
  0
VERTEX
  8
Обводка_Bottom
  10
-35.3723
  20
61.0448
  42
0
  0
VERTEX
  8
Обводка_Bottom
  10
-35.1892
  20
61.0887
  42
0
  0
VERTEX
  8
Обводка_Bottom
  10
-35.0152
  20
61.1608
  42
0
  0
VERTEX
  8
Обводка_Bottom
  10
-34.8547
  20
61.2592
  42
0
  0
VERTEX
  8
Обводка_Bottom
  10
-34.7115
  20
61.3815
  42
0
  0
VERTEX
  8
Обводка_Bottom
  10
-34.5892
  20
61.5247
  42
0
  0
VERTEX
  8
Обводка_Bottom
  10
-34.4908
  20
61.6852
  42
0
  0
VERTEX
  8
Обводка_Bottom
  10
-34.4187
  20
61.8592
  42
0
  0
VERTEX
  8
Обводка_Bottom
  10
-34.3748
  20
62.0423
  42
0
  0
VERTEX
  8
Обводка_Bottom
  10
-34.36
  20
62.23
  42
0
  0
VERTEX
  8
Обводка_Bottom
  10
-34.3748
  20
62.4177
  42
0
  0
VERTEX
  8
Обводка_Bottom
  10
-34.4187
  20
62.6008
  42
0
  0
VERTEX
  8
Обводка_Bottom
  10
-34.4908
  20
62.7748
  42
0
  0
VERTEX
  8
Обводка_Bottom
  10
-34.5892
  20
62.9353
  42
0
  0
VERTEX
  8
Обводка_Bottom
  10
-34.7115
  20
63.0785
  42
0
  0
VERTEX
  8
Обводка_Bottom
  10
-34.8547
  20
63.2008
  42
0
  0
VERTEX
  8
Обводка_Bottom
  10
-35.0152
  20
63.2992
  42
0
  0
VERTEX
  8
Обводка_Bottom
  10
-35.1892
  20
63.3713
  42
0
  0
VERTEX
  8
Обводка_Bottom
  10
-35.3723
  20
63.4152
  42
0
  0
VERTEX
  8
Обводка_Bottom
  10
-35.6665
  20
63.4301
  42
0
  0
VERTEX
  8
Обводка_Bottom
  10
-35.8665
  20
63.4301
  42
0
  0
SEQEND
  0
POLYLINE
  8
Обводка_Bottom
  6
CONTINUOUS
  66
1
  70
0
  40
0.9
  41
0.9
  0
VERTEX
  8
Обводка_Bottom
  10
-26.6704
  20
60.8899
  42
0
  0
VERTEX
  8
Обводка_Bottom
  10
-8.9598
  20
60.89
  42
0
  0
VERTEX
  8
Обводка_Bottom
  10
-8.9598
  20
58.49
  42
0
  0
VERTEX
  8
Обводка_Bottom
  10
-28.7135
  20
58.4894
  42
0
  0
VERTEX
  8
Обводка_Bottom
  10
-33.4414
  20
53.7615
  42
0
  0
VERTEX
  8
Обводка_Bottom
  10
-33.5846
  20
53.6392
  42
0
  0
VERTEX
  8
Обводка_Bottom
  10
-33.7451
  20
53.5409
  42
0
  0
VERTEX
  8
Обводка_Bottom
  10
-33.9191
  20
53.4688
  42
0
  0
VERTEX
  8
Обводка_Bottom
  10
-34.1022
  20
53.4248
  42
0
  0
VERTEX
  8
Обводка_Bottom
  10
-34.2899
  20
53.4101
  42
0
  0
VERTEX
  8
Обводка_Bottom
  10
-38.0999
  20
53.41
  42
0
  0
VERTEX
  8
Обводка_Bottom
  10
-38.2877
  20
53.4248
  42
0
  0
VERTEX
  8
Обводка_Bottom
  10
-38.4708
  20
53.4687
  42
0
  0
VERTEX
  8
Обводка_Bottom
  10
-38.6447
  20
53.5408
  42
0
  0
VERTEX
  8
Обводка_Bottom
  10
-38.8053
  20
53.6391
  42
0
  0
VERTEX
  8
Обводка_Bottom
  10
-38.9485
  20
53.7614
  42
0
  0
VERTEX
  8
Обводка_Bottom
  10
-39.0708
  20
53.9046
  42
0
  0
VERTEX
  8
Обводка_Bottom
  10
-39.1692
  20
54.0652
  42
0
  0
VERTEX
  8
Обводка_Bottom
  10
-39.2413
  20
54.2391
  42
0
  0
VERTEX
  8
Обводка_Bottom
  10
-39.2852
  20
54.4222
  42
0
  0
VERTEX
  8
Обводка_Bottom
  10
-39.3
  20
54.6099
  42
0
  0
VERTEX
  8
Обводка_Bottom
  10
-39.2852
  20
54.7977
  42
0
  0
VERTEX
  8
Обводка_Bottom
  10
-39.2413
  20
54.9808
  42
0
  0
VERTEX
  8
Обводка_Bottom
  10
-39.1692
  20
55.1547
  42
0
  0
VERTEX
  8
Обводка_Bottom
  10
-39.0709
  20
55.3153
  42
0
  0
VERTEX
  8
Обводка_Bottom
  10
-38.9486
  20
55.4585
  42
0
  0
VERTEX
  8
Обводка_Bottom
  10
-38.8054
  20
55.5808
  42
0
  0
VERTEX
  8
Обводка_Bottom
  10
-38.6448
  20
55.6792
  42
0
  0
VERTEX
  8
Обводка_Bottom
  10
-38.4709
  20
55.7513
  42
0
  0
VERTEX
  8
Обводка_Bottom
  10
-38.2878
  20
55.7952
  42
0
  0
VERTEX
  8
Обводка_Bottom
  10
-38.0665
  20
55.8101
  42
0
  0
VERTEX
  8
Обводка_Bottom
  10
-34.7864
  20
55.8106
  42
0
  0
VERTEX
  8
Обводка_Bottom
  10
-30.0585
  20
60.5385
  42
0
  0
VERTEX
  8
Обводка_Bottom
  10
-29.9153
  20
60.6608
  42
0
  0
VERTEX
  8
Обводка_Bottom
  10
-29.7548
  20
60.7592
  42
0
  0
VERTEX
  8
Обводка_Bottom
  10
-29.5808
  20
60.8313
  42
0
  0
VERTEX
  8
Обводка_Bottom
  10
-29.3977
  20
60.8752
  42
0
  0
VERTEX
  8
Обводка_Bottom
  10
-29.2094
  20
60.89
  42
0
  0
VERTEX
  8
Обводка_Bottom
  10
-25.4697
  20
60.8892
  42
0
  0
SEQEND
  0
POLYLINE
  8
Обводка_Bottom
  6
CONTINUOUS
  66
1
  70
0
  40
0.9
  41
0.9
  0
VERTEX
  8
Обводка_Bottom
  10
-35.8665
  20
45.6501
  42
0
  0
VERTEX
  8
Обводка_Bottom
  10
-38.1
  20
45.65
  42
0
  0
VERTEX
  8
Обводка_Bottom
  10
-38.2877
  20
45.6352
  42
0
  0
VERTEX
  8
Обводка_Bottom
  10
-38.4708
  20
45.5913
  42
0
  0
VERTEX
  8
Обводка_Bottom
  10
-38.6448
  20
45.5192
  42
0
  0
VERTEX
  8
Обводка_Bottom
  10
-38.8053
  20
45.4208
  42
0
  0
VERTEX
  8
Обводка_Bottom
  10
-38.9485
  20
45.2985
  42
0
  0
VERTEX
  8
Обводка_Bottom
  10
-39.0708
  20
45.1553
  42
0
  0
VERTEX
  8
Обводка_Bottom
  10
-39.1692
  20
44.9948
  42
0
  0
VERTEX
  8
Обводка_Bottom
  10
-39.2413
  20
44.8208
  42
0
  0
VERTEX
  8
Обводка_Bottom
  10
-39.2852
  20
44.6377
  42
0
  0
VERTEX
  8
Обводка_Bottom
  10
-39.3
  20
44.45
  42
0
  0
VERTEX
  8
Обводка_Bottom
  10
-39.2852
  20
44.2623
  42
0
  0
VERTEX
  8
Обводка_Bottom
  10
-39.2413
  20
44.0792
  42
0
  0
VERTEX
  8
Обводка_Bottom
  10
-39.1692
  20
43.9052
  42
0
  0
VERTEX
  8
Обводка_Bottom
  10
-39.0708
  20
43.7447
  42
0
  0
VERTEX
  8
Обводка_Bottom
  10
-38.9485
  20
43.6015
  42
0
  0
VERTEX
  8
Обводка_Bottom
  10
-38.8053
  20
43.4792
  42
0
  0
VERTEX
  8
Обводка_Bottom
  10
-38.6448
  20
43.3808
  42
0
  0
VERTEX
  8
Обводка_Bottom
  10
-38.4708
  20
43.3087
  42
0
  0
VERTEX
  8
Обводка_Bottom
  10
-38.2877
  20
43.2648
  42
0
  0
VERTEX
  8
Обводка_Bottom
  10
-38.1
  20
43.25
  42
0
  0
VERTEX
  8
Обводка_Bottom
  10
-34.29
  20
43.25
  42
0
  0
VERTEX
  8
Обводка_Bottom
  10
-34.1023
  20
43.2648
  42
0
  0
VERTEX
  8
Обводка_Bottom
  10
-33.9192
  20
43.3087
  42
0
  0
VERTEX
  8
Обводка_Bottom
  10
-33.7452
  20
43.3808
  42
0
  0
VERTEX
  8
Обводка_Bottom
  10
-33.5847
  20
43.4792
  42
0
  0
VERTEX
  8
Обводка_Bottom
  10
-33.4415
  20
43.6015
  42
0
  0
VERTEX
  8
Обводка_Bottom
  10
-33.3192
  20
43.7447
  42
0
  0
VERTEX
  8
Обводка_Bottom
  10
-33.2208
  20
43.9052
  42
0
  0
VERTEX
  8
Обводка_Bottom
  10
-33.1487
  20
44.0792
  42
0
  0
VERTEX
  8
Обводка_Bottom
  10
-33.1048
  20
44.2623
  42
0
  0
VERTEX
  8
Обводка_Bottom
  10
-33.09
  20
44.45
  42
0
  0
VERTEX
  8
Обводка_Bottom
  10
-33.1048
  20
44.6377
  42
0
  0
VERTEX
  8
Обводка_Bottom
  10
-33.1487
  20
44.8208
  42
0
  0
VERTEX
  8
Обводка_Bottom
  10
-33.2208
  20
44.9948
  42
0
  0
VERTEX
  8
Обводка_Bottom
  10
-33.3192
  20
45.1553
  42
0
  0
VERTEX
  8
Обводка_Bottom
  10
-33.4415
  20
45.2985
  42
0
  0
VERTEX
  8
Обводка_Bottom
  10
-33.5847
  20
45.4208
  42
0
  0
VERTEX
  8
Обводка_Bottom
  10
-33.7452
  20
45.5192
  42
0
  0
VERTEX
  8
Обводка_Bottom
  10
-33.9192
  20
45.5913
  42
0
  0
VERTEX
  8
Обводка_Bottom
  10
-34.1023
  20
45.6352
  42
0
  0
VERTEX
  8
Обводка_Bottom
  10
-34.29
  20
45.65
  42
0
  0
VERTEX
  8
Обводка_Bottom
  10
-35.8665
  20
45.6501
  42
0
  0
SEQEND
  0
POLYLINE
  8
Обводка_Bottom
  6
CONTINUOUS
  66
1
  70
0
  40
0.9
  41
0.9
  0
VERTEX
  8
Обводка_Bottom
  10
-37.0095
  20
38.0301
  42
0
  0
VERTEX
  8
Обводка_Bottom
  10
-38.1001
  20
38.03
  42
0
  0
VERTEX
  8
Обводка_Bottom
  10
-38.2878
  20
38.0152
  42
0
  0
VERTEX
  8
Обводка_Bottom
  10
-38.4709
  20
37.9712
  42
0
  0
VERTEX
  8
Обводка_Bottom
  10
-38.6448
  20
37.8992
  42
0
  0
VERTEX
  8
Обводка_Bottom
  10
-38.8054
  20
37.8008
  42
0
  0
VERTEX
  8
Обводка_Bottom
  10
-38.9486
  20
37.6785
  42
0
  0
VERTEX
  8
Обводка_Bottom
  10
-39.0709
  20
37.5353
  42
0
  0
VERTEX
  8
Обводка_Bottom
  10
-39.1692
  20
37.3747
  42
0
  0
VERTEX
  8
Обводка_Bottom
  10
-39.2413
  20
37.2008
  42
0
  0
VERTEX
  8
Обводка_Bottom
  10
-39.2852
  20
37.0177
  42
0
  0
VERTEX
  8
Обводка_Bottom
  10
-39.3
  20
36.8299
  42
0
  0
VERTEX
  8
Обводка_Bottom
  10
-39.2852
  20
36.6422
  42
0
  0
VERTEX
  8
Обводка_Bottom
  10
-39.2412
  20
36.4591
  42
0
  0
VERTEX
  8
Обводка_Bottom
  10
-39.1692
  20
36.2852
  42
0
  0
VERTEX
  8
Обводка_Bottom
  10
-39.0708
  20
36.1246
  42
0
  0
VERTEX
  8
Обводка_Bottom
  10
-38.9485
  20
35.9814
  42
0
  0
VERTEX
  8
Обводка_Bottom
  10
-38.8053
  20
35.8591
  42
0
  0
VERTEX
  8
Обводка_Bottom
  10
-38.6447
  20
35.7608
  42
0
  0
VERTEX
  8
Обводка_Bottom
  10
-38.4708
  20
35.6887
  42
0
  0
VERTEX
  8
Обводка_Bottom
  10
-38.2877
  20
35.6448
  42
0
  0
VERTEX
  8
Обводка_Bottom
  10
-38.0999
  20
35.63
  42
0
  0
VERTEX
  8
Обводка_Bottom
  10
-30.48
  20
35.63
  42
0
  0
VERTEX
  8
Обводка_Bottom
  10
-30.2923
  20
35.6448
  42
0
  0
VERTEX
  8
Обводка_Bottom
  10
-30.1092
  20
35.6887
  42
0
  0
VERTEX
  8
Обводка_Bottom
  10
-29.9352
  20
35.7608
  42
0
  0
VERTEX
  8
Обводка_Bottom
  10
-29.7747
  20
35.8592
  42
0
  0
VERTEX
  8
Обводка_Bottom
  10
-29.6315
  20
35.9815
  42
0
  0
VERTEX
  8
Обводка_Bottom
  10
-29.5092
  20
36.1246
  42
0
  0
VERTEX
  8
Обводка_Bottom
  10
-29.4108
  20
36.2852
  42
0
  0
VERTEX
  8
Обводка_Bottom
  10
-29.3387
  20
36.4592
  42
0
  0
VERTEX
  8
Обводка_Bottom
  10
-29.2948
  20
36.6423
  42
0
  0
VERTEX
  8
Обводка_Bottom
  10
-29.28
  20
36.83
  42
0
  0
VERTEX
  8
Обводка_Bottom
  10
-29.2948
  20
37.0177
  42
0
  0
VERTEX
  8
Обводка_Bottom
  10
-29.3387
  20
37.2008
  42
0
  0
VERTEX
  8
Обводка_Bottom
  10
-29.4108
  20
37.3748
  42
0
  0
VERTEX
  8
Обводка_Bottom
  10
-29.5092
  20
37.5353
  42
0
  0
VERTEX
  8
Обводка_Bottom
  10
-29.6315
  20
37.6785
  42
0
  0
VERTEX
  8
Обводка_Bottom
  10
-29.7746
  20
37.8008
  42
0
  0
VERTEX
  8
Обводка_Bottom
  10
-29.9352
  20
37.8992
  42
0
  0
VERTEX
  8
Обводка_Bottom
  10
-30.1092
  20
37.9713
  42
0
  0
VERTEX
  8
Обводка_Bottom
  10
-30.2923
  20
38.0152
  42
0
  0
VERTEX
  8
Обводка_Bottom
  10
-30.48
  20
38.03
  42
0
  0
VERTEX
  8
Обводка_Bottom
  10
-37.0119
  20
38.0301
  42
0
  0
VERTEX
  8
Обводка_Bottom
  10
-37.0095
  20
38.0301
  42
0
  0
SEQEND
  0
POLYLINE
  8
Обводка_Bottom
  6
CONTINUOUS
  66
1
  70
0
  40
0.9
  41
0.9
  0
VERTEX
  8
Обводка_Bottom
  10
-37.0173
  20
32.9501
  42
0
  0
VERTEX
  8
Обводка_Bottom
  10
-38.1001
  20
32.95
  42
0
  0
VERTEX
  8
Обводка_Bottom
  10
-38.2878
  20
32.9352
  42
0
  0
VERTEX
  8
Обводка_Bottom
  10
-38.4709
  20
32.8912
  42
0
  0
VERTEX
  8
Обводка_Bottom
  10
-38.6448
  20
32.8192
  42
0
  0
VERTEX
  8
Обводка_Bottom
  10
-38.8054
  20
32.7208
  42
0
  0
VERTEX
  8
Обводка_Bottom
  10
-38.9486
  20
32.5985
  42
0
  0
VERTEX
  8
Обводка_Bottom
  10
-39.0709
  20
32.4553
  42
0
  0
VERTEX
  8
Обводка_Bottom
  10
-39.1692
  20
32.2947
  42
0
  0
VERTEX
  8
Обводка_Bottom
  10
-39.2413
  20
32.1208
  42
0
  0
VERTEX
  8
Обводка_Bottom
  10
-39.2852
  20
31.9377
  42
0
  0
VERTEX
  8
Обводка_Bottom
  10
-39.3
  20
31.7499
  42
0
  0
VERTEX
  8
Обводка_Bottom
  10
-39.2852
  20
31.5622
  42
0
  0
VERTEX
  8
Обводка_Bottom
  10
-39.2412
  20
31.3791
  42
0
  0
VERTEX
  8
Обводка_Bottom
  10
-39.1692
  20
31.2052
  42
0
  0
VERTEX
  8
Обводка_Bottom
  10
-39.0708
  20
31.0446
  42
0
  0
VERTEX
  8
Обводка_Bottom
  10
-38.9485
  20
30.9014
  42
0
  0
VERTEX
  8
Обводка_Bottom
  10
-38.8053
  20
30.7791
  42
0
  0
VERTEX
  8
Обводка_Bottom
  10
-38.6447
  20
30.6808
  42
0
  0
VERTEX
  8
Обводка_Bottom
  10
-38.4708
  20
30.6087
  42
0
  0
VERTEX
  8
Обводка_Bottom
  10
-38.2877
  20
30.5648
  42
0
  0
VERTEX
  8
Обводка_Bottom
  10
-38.0999
  20
30.55
  42
0
  0
VERTEX
  8
Обводка_Bottom
  10
-30.48
  20
30.55
  42
0
  0
VERTEX
  8
Обводка_Bottom
  10
-30.2923
  20
30.5648
  42
0
  0
VERTEX
  8
Обводка_Bottom
  10
-30.1092
  20
30.6087
  42
0
  0
VERTEX
  8
Обводка_Bottom
  10
-29.9352
  20
30.6808
  42
0
  0
VERTEX
  8
Обводка_Bottom
  10
-29.7747
  20
30.7792
  42
0
  0
VERTEX
  8
Обводка_Bottom
  10
-29.6315
  20
30.9015
  42
0
  0
VERTEX
  8
Обводка_Bottom
  10
-29.5092
  20
31.0446
  42
0
  0
VERTEX
  8
Обводка_Bottom
  10
-29.4108
  20
31.2052
  42
0
  0
VERTEX
  8
Обводка_Bottom
  10
-29.3387
  20
31.3792
  42
0
  0
VERTEX
  8
Обводка_Bottom
  10
-29.2948
  20
31.5623
  42
0
  0
VERTEX
  8
Обводка_Bottom
  10
-29.28
  20
31.75
  42
0
  0
VERTEX
  8
Обводка_Bottom
  10
-29.2948
  20
31.9377
  42
0
  0
VERTEX
  8
Обводка_Bottom
  10
-29.3387
  20
32.1208
  42
0
  0
VERTEX
  8
Обводка_Bottom
  10
-29.4108
  20
32.2948
  42
0
  0
VERTEX
  8
Обводка_Bottom
  10
-29.5092
  20
32.4553
  42
0
  0
VERTEX
  8
Обводка_Bottom
  10
-29.6315
  20
32.5985
  42
0
  0
VERTEX
  8
Обводка_Bottom
  10
-29.7746
  20
32.7208
  42
0
  0
VERTEX
  8
Обводка_Bottom
  10
-29.9352
  20
32.8192
  42
0
  0
VERTEX
  8
Обводка_Bottom
  10
-30.1092
  20
32.8913
  42
0
  0
VERTEX
  8
Обводка_Bottom
  10
-30.2923
  20
32.9352
  42
0
  0
VERTEX
  8
Обводка_Bottom
  10
-30.48
  20
32.95
  42
0
  0
VERTEX
  8
Обводка_Bottom
  10
-37.0183
  20
32.9501
  42
0
  0
VERTEX
  8
Обводка_Bottom
  10
-37.0173
  20
32.9501
  42
0
  0
SEQEND
  0
POLYLINE
  8
Обводка_Bottom
  6
CONTINUOUS
  66
1
  70
0
  40
0.9
  41
0.9
  0
VERTEX
  8
Обводка_Bottom
  10
-31.7493
  20
28.0101
  42
0
  0
VERTEX
  8
Обводка_Bottom
  10
-38.0999
  20
28.01
  42
0
  0
VERTEX
  8
Обводка_Bottom
  10
-38.2877
  20
28.0248
  42
0
  0
VERTEX
  8
Обводка_Bottom
  10
-38.4708
  20
28.0687
  42
0
  0
VERTEX
  8
Обводка_Bottom
  10
-38.6447
  20
28.1408
  42
0
  0
VERTEX
  8
Обводка_Bottom
  10
-38.8053
  20
28.2391
  42
0
  0
VERTEX
  8
Обводка_Bottom
  10
-38.9485
  20
28.3614
  42
0
  0
VERTEX
  8
Обводка_Bottom
  10
-39.0708
  20
28.5046
  42
0
  0
VERTEX
  8
Обводка_Bottom
  10
-39.1692
  20
28.6652
  42
0
  0
VERTEX
  8
Обводка_Bottom
  10
-39.2413
  20
28.8391
  42
0
  0
VERTEX
  8
Обводка_Bottom
  10
-39.2852
  20
29.0222
  42
0
  0
VERTEX
  8
Обводка_Bottom
  10
-39.3
  20
29.2099
  42
0
  0
VERTEX
  8
Обводка_Bottom
  10
-39.2852
  20
29.3977
  42
0
  0
VERTEX
  8
Обводка_Bottom
  10
-39.2413
  20
29.5808
  42
0
  0
VERTEX
  8
Обводка_Bottom
  10
-39.1692
  20
29.7547
  42
0
  0
VERTEX
  8
Обводка_Bottom
  10
-39.0709
  20
29.9153
  42
0
  0
VERTEX
  8
Обводка_Bottom
  10
-38.9486
  20
30.0585
  42
0
  0
VERTEX
  8
Обводка_Bottom
  10
-38.8054
  20
30.1808
  42
0
  0
VERTEX
  8
Обводка_Bottom
  10
-38.6448
  20
30.2792
  42
0
  0
VERTEX
  8
Обводка_Bottom
  10
-38.4709
  20
30.3513
  42
0
  0
VERTEX
  8
Обводка_Bottom
  10
-38.2878
  20
30.3952
  42
0
  0
VERTEX
  8
Обводка_Bottom
  10
-38.0665
  20
30.4101
  42
0
  0
VERTEX
  8
Обводка_Bottom
  10
-30.48
  20
30.41
  42
0
  0
VERTEX
  8
Обводка_Bottom
  10
-30.2923
  20
30.3952
  42
0
  0
VERTEX
  8
Обводка_Bottom
  10
-30.1092
  20
30.3513
  42
0
  0
VERTEX
  8
Обводка_Bottom
  10
-29.9352
  20
30.2792
  42
0
  0
VERTEX
  8
Обводка_Bottom
  10
-29.7746
  20
30.1808
  42
0
  0
VERTEX
  8
Обводка_Bottom
  10
-29.6315
  20
30.0585
  42
0
  0
VERTEX
  8
Обводка_Bottom
  10
-29.5092
  20
29.9153
  42
0
  0
VERTEX
  8
Обводка_Bottom
  10
-29.4108
  20
29.7548
  42
0
  0
VERTEX
  8
Обводка_Bottom
  10
-29.3387
  20
29.5808
  42
0
  0
VERTEX
  8
Обводка_Bottom
  10
-29.2948
  20
29.3977
  42
0
  0
VERTEX
  8
Обводка_Bottom
  10
-29.28
  20
29.21
  42
0
  0
VERTEX
  8
Обводка_Bottom
  10
-29.2948
  20
29.0223
  42
0
  0
VERTEX
  8
Обводка_Bottom
  10
-29.3387
  20
28.8392
  42
0
  0
VERTEX
  8
Обводка_Bottom
  10
-29.4108
  20
28.6652
  42
0
  0
VERTEX
  8
Обводка_Bottom
  10
-29.5092
  20
28.5046
  42
0
  0
VERTEX
  8
Обводка_Bottom
  10
-29.6315
  20
28.3615
  42
0
  0
VERTEX
  8
Обводка_Bottom
  10
-29.7747
  20
28.2392
  42
0
  0
VERTEX
  8
Обводка_Bottom
  10
-29.9352
  20
28.1408
  42
0
  0
VERTEX
  8
Обводка_Bottom
  10
-30.1092
  20
28.0687
  42
0
  0
VERTEX
  8
Обводка_Bottom
  10
-30.2923
  20
28.0248
  42
0
  0
VERTEX
  8
Обводка_Bottom
  10
-30.5914
  20
28.01
  42
0
  0
VERTEX
  8
Обводка_Bottom
  10
-31.7477
  20
28.01
  42
0
  0
VERTEX
  8
Обводка_Bottom
  10
-31.7493
  20
28.0101
  42
0
  0
SEQEND
  0
POLYLINE
  8
Обводка_Bottom
  6
CONTINUOUS
  66
1
  70
0
  40
0.9
  41
0.9
  0
VERTEX
  8
Обводка_Bottom
  10
-23.5011
  20
11.5575
  42
0
  0
VERTEX
  8
Обводка_Bottom
  10
-23.5586
  20
11.4634
  42
0
  0
VERTEX
  8
Обводка_Bottom
  10
-23.63
  20
11.3799
  42
0
  0
VERTEX
  8
Обводка_Bottom
  10
-23.7135
  20
11.3086
  42
0
  0
VERTEX
  8
Обводка_Bottom
  10
-23.8071
  20
11.2512
  42
0
  0
VERTEX
  8
Обводка_Bottom
  10
-23.9086
  20
11.2092
  42
0
  0
VERTEX
  8
Обводка_Bottom
  10
-24.0154
  20
11.1835
  42
0
  0
VERTEX
  8
Обводка_Bottom
  10
-24.1699
  20
11.1749
  42
0
  0
VERTEX
  8
Обводка_Bottom
  10
-24.6149
  20
11.1749
  42
0
  0
VERTEX
  8
Обводка_Bottom
  10
-24.7244
  20
11.1835
  42
0
  0
VERTEX
  8
Обводка_Bottom
  10
-24.8313
  20
11.2092
  42
0
  0
VERTEX
  8
Обводка_Bottom
  10
-24.9327
  20
11.2512
  42
0
  0
VERTEX
  8
Обводка_Bottom
  10
-25.0264
  20
11.3086
  42
0
  0
VERTEX
  8
Обводка_Bottom
  10
-25.1099
  20
11.38
  42
0
  0
VERTEX
  8
Обводка_Bottom
  10
-25.1812
  20
11.4635
  42
0
  0
VERTEX
  8
Обводка_Bottom
  10
-25.2386
  20
11.5572
  42
0
  0
VERTEX
  8
Обводка_Bottom
  10
-25.2807
  20
11.6586
  42
0
  0
SEQEND
  0
POLYLINE
  8
Обводка_Bottom
  6
CONTINUOUS
  66
1
  70
0
  40
0.9
  41
0.9
  0
VERTEX
  8
Обводка_Bottom
  10
-50.46
  20
70.3936
  42
0
  0
VERTEX
  8
Обводка_Bottom
  10
-50.46
  20
69.235
  42
0
  0
VERTEX
  8
Обводка_Bottom
  10
-50.4186
  20
69.235
  42
0
  0
VERTEX
  8
Обводка_Bottom
  10
-50.4118
  20
69.0149
  42
0
  0
VERTEX
  8
Обводка_Bottom
  10
-50.3906
  20
68.8278
  42
0
  0
VERTEX
  8
Обводка_Bottom
  10
-50.3403
  20
68.6463
  42
0
  0
VERTEX
  8
Обводка_Bottom
  10
-50.2623
  20
68.475
  42
0
  0
VERTEX
  8
Обводка_Bottom
  10
-50.1585
  20
68.3179
  42
0
  0
VERTEX
  8
Обводка_Bottom
  10
-50.0313
  20
68.179
  42
0
  0
VERTEX
  8
Обводка_Bottom
  10
-49.884
  20
68.0617
  42
0
  0
VERTEX
  8
Обводка_Bottom
  10
-49.7202
  20
67.9689
  42
0
  0
VERTEX
  8
Обводка_Bottom
  10
-49.5438
  20
67.9029
  42
0
  0
VERTEX
  8
Обводка_Bottom
  10
-49.3593
  20
67.8652
  42
0
  0
VERTEX
  8
Обводка_Bottom
  10
-49.1712
  20
67.8569
  42
0
  0
VERTEX
  8
Обводка_Bottom
  10
-48.9841
  20
67.8782
  42
0
  0
VERTEX
  8
Обводка_Bottom
  10
-48.8026
  20
67.9284
  42
0
  0
VERTEX
  8
Обводка_Bottom
  10
-48.6312
  20
68.0064
  42
0
  0
VERTEX
  8
Обводка_Bottom
  10
-48.4741
  20
68.1103
  42
0
  0
VERTEX
  8
Обводка_Bottom
  10
-48.3353
  20
68.2374
  42
0
  0
VERTEX
  8
Обводка_Bottom
  10
-48.218
  20
68.3847
  42
0
  0
VERTEX
  8
Обводка_Bottom
  10
-48.1252
  20
68.5486
  42
0
  0
VERTEX
  8
Обводка_Bottom
  10
-48.0591
  20
68.7249
  42
0
  0
VERTEX
  8
Обводка_Bottom
  10
-48.0215
  20
68.9094
  42
0
  0
VERTEX
  8
Обводка_Bottom
  10
-48.0132
  20
69.0976
  42
0
  0
VERTEX
  8
Обводка_Bottom
  10
-48.06
  20
70.635
  42
0
  0
VERTEX
  8
Обводка_Bottom
  10
-48.06
  20
71.635
  42
0
  0
VERTEX
  8
Обводка_Bottom
  10
-48.1389
  20
71.635
  42
0
  0
VERTEX
  8
Обводка_Bottom
  10
-48.174
  20
72.1538
  42
0
  0
VERTEX
  8
Обводка_Bottom
  10
-48.2015
  20
72.3401
  42
0
  0
VERTEX
  8
Обводка_Bottom
  10
-48.2577
  20
72.5198
  42
0
  0
VERTEX
  8
Обводка_Bottom
  10
-48.3414
  20
72.6885
  42
0
  0
VERTEX
  8
Обводка_Bottom
  10
-48.4504
  20
72.842
  42
0
  0
VERTEX
  8
Обводка_Bottom
  10
-48.5822
  20
72.9766
  42
0
  0
VERTEX
  8
Обводка_Bottom
  10
-48.7333
  20
73.0889
  42
0
  0
VERTEX
  8
Обводка_Bottom
  10
-48.9002
  20
73.1762
  42
0
  0
VERTEX
  8
Обводка_Bottom
  10
-49.0786
  20
73.2363
  42
0
  0
VERTEX
  8
Обводка_Bottom
  10
-49.2643
  20
73.2677
  42
0
  0
VERTEX
  8
Обводка_Bottom
  10
-49.4526
  20
73.2697
  42
0
  0
VERTEX
  8
Обводка_Bottom
  10
-49.6388
  20
73.2423
  42
0
  0
VERTEX
  8
Обводка_Bottom
  10
-49.8185
  20
73.186
  42
0
  0
VERTEX
  8
Обводка_Bottom
  10
-49.9872
  20
73.1023
  42
0
  0
VERTEX
  8
Обводка_Bottom
  10
-50.1408
  20
72.9933
  42
0
  0
VERTEX
  8
Обводка_Bottom
  10
-50.2753
  20
72.8616
  42
0
  0
VERTEX
  8
Обводка_Bottom
  10
-50.3876
  20
72.7104
  42
0
  0
VERTEX
  8
Обводка_Bottom
  10
-50.4749
  20
72.5436
  42
0
  0
VERTEX
  8
Обводка_Bottom
  10
-50.535
  20
72.3651
  42
0
  0
VERTEX
  8
Обводка_Bottom
  10
-50.5665
  20
72.1795
  42
0
  0
VERTEX
  8
Обводка_Bottom
  10
-50.5685
  20
71.9912
  42
0
  0
VERTEX
  8
Обводка_Bottom
  10
-50.46
  20
70.3936
  42
0
  0
SEQEND
  0
POLYLINE
  8
Обводка_Bottom
  6
CONTINUOUS
  66
1
  70
0
  40
0.9
  41
0.9
  0
VERTEX
  8
Обводка_Bottom
  10
-40.4108
  20
71.635
  42
0
  0
VERTEX
  8
Обводка_Bottom
  10
-40.46
  20
71.635
  42
0
  0
VERTEX
  8
Обводка_Bottom
  10
-40.46
  20
69.235
  42
0
  0
VERTEX
  8
Обводка_Bottom
  10
-40.4108
  20
69.235
  42
0
  0
VERTEX
  8
Обводка_Bottom
  10
-40.4112
  20
68.8975
  42
0
  0
VERTEX
  8
Обводка_Bottom
  10
-40.3965
  20
68.7098
  42
0
  0
VERTEX
  8
Обводка_Bottom
  10
-40.3525
  20
68.5267
  42
0
  0
VERTEX
  8
Обводка_Bottom
  10
-40.2804
  20
68.3527
  42
0
  0
VERTEX
  8
Обводка_Bottom
  10
-40.1821
  20
68.1922
  42
0
  0
VERTEX
  8
Обводка_Bottom
  10
-40.0598
  20
68.049
  42
0
  0
VERTEX
  8
Обводка_Bottom
  10
-39.9166
  20
67.9267
  42
0
  0
VERTEX
  8
Обводка_Bottom
  10
-39.756
  20
67.8283
  42
0
  0
VERTEX
  8
Обводка_Bottom
  10
-39.5821
  20
67.7562
  42
0
  0
VERTEX
  8
Обводка_Bottom
  10
-39.399
  20
67.7123
  42
0
  0
VERTEX
  8
Обводка_Bottom
  10
-39.2112
  20
67.6975
  42
0
  0
VERTEX
  8
Обводка_Bottom
  10
-39.0235
  20
67.7123
  42
0
  0
VERTEX
  8
Обводка_Bottom
  10
-38.8404
  20
67.7562
  42
0
  0
VERTEX
  8
Обводка_Bottom
  10
-38.6664
  20
67.8283
  42
0
  0
VERTEX
  8
Обводка_Bottom
  10
-38.5059
  20
67.9267
  42
0
  0
VERTEX
  8
Обводка_Bottom
  10
-38.3627
  20
68.049
  42
0
  0
VERTEX
  8
Обводка_Bottom
  10
-38.2404
  20
68.1922
  42
0
  0
VERTEX
  8
Обводка_Bottom
  10
-38.142
  20
68.3527
  42
0
  0
VERTEX
  8
Обводка_Bottom
  10
-38.07
  20
68.5267
  42
0
  0
VERTEX
  8
Обводка_Bottom
  10
-38.026
  20
68.7098
  42
0
  0
VERTEX
  8
Обводка_Bottom
  10
-38.0112
  20
68.8975
  42
0
  0
VERTEX
  8
Обводка_Bottom
  10
-38.0112
  20
72.0725
  42
0
  0
VERTEX
  8
Обводка_Bottom
  10
-38.026
  20
72.2602
  42
0
  0
VERTEX
  8
Обводка_Bottom
  10
-38.07
  20
72.4433
  42
0
  0
VERTEX
  8
Обводка_Bottom
  10
-38.142
  20
72.6173
  42
0
  0
VERTEX
  8
Обводка_Bottom
  10
-38.2404
  20
72.7778
  42
0
  0
VERTEX
  8
Обводка_Bottom
  10
-38.3627
  20
72.921
  42
0
  0
VERTEX
  8
Обводка_Bottom
  10
-38.5059
  20
73.0433
  42
0
  0
VERTEX
  8
Обводка_Bottom
  10
-38.6664
  20
73.1417
  42
0
  0
VERTEX
  8
Обводка_Bottom
  10
-38.8404
  20
73.2138
  42
0
  0
VERTEX
  8
Обводка_Bottom
  10
-39.0235
  20
73.2577
  42
0
  0
VERTEX
  8
Обводка_Bottom
  10
-39.2112
  20
73.2725
  42
0
  0
VERTEX
  8
Обводка_Bottom
  10
-39.399
  20
73.2577
  42
0
  0
VERTEX
  8
Обводка_Bottom
  10
-39.5821
  20
73.2138
  42
0
  0
VERTEX
  8
Обводка_Bottom
  10
-39.756
  20
73.1417
  42
0
  0
VERTEX
  8
Обводка_Bottom
  10
-39.9166
  20
73.0433
  42
0
  0
VERTEX
  8
Обводка_Bottom
  10
-40.0598
  20
72.921
  42
0
  0
VERTEX
  8
Обводка_Bottom
  10
-40.1821
  20
72.7778
  42
0
  0
VERTEX
  8
Обводка_Bottom
  10
-40.2804
  20
72.6173
  42
0
  0
VERTEX
  8
Обводка_Bottom
  10
-40.3525
  20
72.4433
  42
0
  0
VERTEX
  8
Обводка_Bottom
  10
-40.3965
  20
72.2602
  42
0
  0
VERTEX
  8
Обводка_Bottom
  10
-40.4112
  20
72.0725
  42
0
  0
VERTEX
  8
Обводка_Bottom
  10
-40.4112
  20
71.6342
  42
0
  0
VERTEX
  8
Обводка_Bottom
  10
-40.4108
  20
71.635
  42
0
  0
SEQEND
  0
POLYLINE
  8
Обводка_Bottom
  6
CONTINUOUS
  66
1
  70
0
  40
0.9
  41
0.9
  0
VERTEX
  8
Обводка_Bottom
  10
-28.4592
  20
71.635
  42
0
  0
VERTEX
  8
Обводка_Bottom
  10
-28.06
  20
71.635
  42
0
  0
VERTEX
  8
Обводка_Bottom
  10
-28.06
  20
70.728
  42
0
  0
VERTEX
  8
Обводка_Bottom
  10
-28.0248
  20
70.5727
  42
0
  0
VERTEX
  8
Обводка_Bottom
  10
-28.01
  20
70.3025
  42
0
  0
VERTEX
  8
Обводка_Bottom
  10
-28.0101
  20
63.9972
  42
0
  0
VERTEX
  8
Обводка_Bottom
  10
-27.443
  20
63.43
  42
0
  0
VERTEX
  8
Обводка_Bottom
  10
-7.6198
  20
63.43
  42
0
  0
VERTEX
  8
Обводка_Bottom
  10
-7.4321
  20
63.4152
  42
0
  0
VERTEX
  8
Обводка_Bottom
  10
-7.249
  20
63.3713
  42
0
  0
VERTEX
  8
Обводка_Bottom
  10
-7.075
  20
63.2992
  42
0
  0
VERTEX
  8
Обводка_Bottom
  10
-6.9145
  20
63.2008
  42
0
  0
VERTEX
  8
Обводка_Bottom
  10
-6.7713
  20
63.0785
  42
0
  0
VERTEX
  8
Обводка_Bottom
  10
-6.649
  20
62.9354
  42
0
  0
VERTEX
  8
Обводка_Bottom
  10
-6.5506
  20
62.7748
  42
0
  0
VERTEX
  8
Обводка_Bottom
  10
-6.4785
  20
62.6008
  42
0
  0
VERTEX
  8
Обводка_Bottom
  10
-6.4346
  20
62.4177
  42
0
  0
VERTEX
  8
Обводка_Bottom
  10
-6.4198
  20
62.23
  42
0
  0
VERTEX
  8
Обводка_Bottom
  10
-6.42
  20
50.8699
  42
0
  0
VERTEX
  8
Обводка_Bottom
  10
-8.82
  20
50.8699
  42
0
  0
VERTEX
  8
Обводка_Bottom
  10
-8.8204
  20
61.03
  42
0
  0
VERTEX
  8
Обводка_Bottom
  10
-27.94
  20
61.03
  42
0
  0
VERTEX
  8
Обводка_Bottom
  10
-28.1277
  20
61.0448
  42
0
  0
VERTEX
  8
Обводка_Bottom
  10
-28.3108
  20
61.0887
  42
0
  0
VERTEX
  8
Обводка_Bottom
  10
-28.4848
  20
61.1608
  42
0
  0
VERTEX
  8
Обводка_Bottom
  10
-28.6454
  20
61.2592
  42
0
  0
VERTEX
  8
Обводка_Bottom
  10
-28.8002
  20
61.3931
  42
0
  0
VERTEX
  8
Обводка_Bottom
  10
-30.0585
  20
62.6515
  42
0
  0
VERTEX
  8
Обводка_Bottom
  10
-30.1808
  20
62.7947
  42
0
  0
VERTEX
  8
Обводка_Bottom
  10
-30.2792
  20
62.9552
  42
0
  0
VERTEX
  8
Обводка_Bottom
  10
-30.3513
  20
63.1292
  42
0
  0
VERTEX
  8
Обводка_Bottom
  10
-30.3952
  20
63.3123
  42
0
  0
VERTEX
  8
Обводка_Bottom
  10
-30.41
  20
63.5825
  42
0
  0
VERTEX
  8
Обводка_Bottom
  10
-30.4099
  20
69.235
  42
0
  0
VERTEX
  8
Обводка_Bottom
  10
-30.55
  20
69.2356
  42
0
  0
VERTEX
  8
Обводка_Bottom
  10
-30.55
  20
68.58
  42
0
  0
VERTEX
  8
Обводка_Bottom
  10
-30.5648
  20
68.3923
  42
0
  0
VERTEX
  8
Обводка_Bottom
  10
-30.6087
  20
68.2092
  42
0
  0
VERTEX
  8
Обводка_Bottom
  10
-30.6808
  20
68.0352
  42
0
  0
VERTEX
  8
Обводка_Bottom
  10
-30.7792
  20
67.8747
  42
0
  0
VERTEX
  8
Обводка_Bottom
  10
-30.9015
  20
67.7315
  42
0
  0
VERTEX
  8
Обводка_Bottom
  10
-31.0447
  20
67.6092
  42
0
  0
VERTEX
  8
Обводка_Bottom
  10
-31.2052
  20
67.5108
  42
0
  0
VERTEX
  8
Обводка_Bottom
  10
-31.3792
  20
67.4387
  42
0
  0
VERTEX
  8
Обводка_Bottom
  10
-31.5623
  20
67.3948
  42
0
  0
VERTEX
  8
Обводка_Bottom
  10
-31.75
  20
67.38
  42
0
  0
VERTEX
  8
Обводка_Bottom
  10
-31.9377
  20
67.3948
  42
0
  0
VERTEX
  8
Обводка_Bottom
  10
-32.1208
  20
67.4387
  42
0
  0
VERTEX
  8
Обводка_Bottom
  10
-32.2948
  20
67.5108
  42
0
  0
VERTEX
  8
Обводка_Bottom
  10
-32.4553
  20
67.6092
  42
0
  0
VERTEX
  8
Обводка_Bottom
  10
-32.5985
  20
67.7315
  42
0
  0
VERTEX
  8
Обводка_Bottom
  10
-32.7208
  20
67.8747
  42
0
  0
VERTEX
  8
Обводка_Bottom
  10
-32.8192
  20
68.0352
  42
0
  0
VERTEX
  8
Обводка_Bottom
  10
-32.8913
  20
68.2092
  42
0
  0
VERTEX
  8
Обводка_Bottom
  10
-32.9352
  20
68.3923
  42
0
  0
VERTEX
  8
Обводка_Bottom
  10
-32.95
  20
68.6405
  42
0
  0
VERTEX
  8
Обводка_Bottom
  10
-32.9498
  20
69.235
  42
0
  0
VERTEX
  8
Обводка_Bottom
  10
-33.09
  20
69.2352
  42
0
  0
VERTEX
  8
Обводка_Bottom
  10
-33.0906
  20
68.5423
  42
0
  0
VERTEX
  8
Обводка_Bottom
  10
-33.1113
  20
68.3551
  42
0
  0
VERTEX
  8
Обводка_Bottom
  10
-33.1609
  20
68.1735
  42
0
  0
VERTEX
  8
Обводка_Bottom
  10
-33.2384
  20
68.0019
  42
0
  0
VERTEX
  8
Обводка_Bottom
  10
-33.3418
  20
67.8445
  42
0
  0
VERTEX
  8
Обводка_Bottom
  10
-33.4685
  20
67.7052
  42
0
  0
VERTEX
  8
Обводка_Bottom
  10
-33.6155
  20
67.5875
  42
0
  0
VERTEX
  8
Обводка_Bottom
  10
-33.7791
  20
67.4942
  42
0
  0
VERTEX
  8
Обводка_Bottom
  10
-33.9552
  20
67.4276
  42
0
  0
VERTEX
  8
Обводка_Bottom
  10
-34.1396
  20
67.3895
  42
0
  0
VERTEX
  8
Обводка_Bottom
  10
-34.3277
  20
67.3806
  42
0
  0
VERTEX
  8
Обводка_Bottom
  10
-34.5149
  20
67.4013
  42
0
  0
VERTEX
  8
Обводка_Bottom
  10
-34.6965
  20
67.4509
  42
0
  0
VERTEX
  8
Обводка_Bottom
  10
-34.8681
  20
67.5284
  42
0
  0
VERTEX
  8
Обводка_Bottom
  10
-35.0255
  20
67.6318
  42
0
  0
VERTEX
  8
Обводка_Bottom
  10
-35.1648
  20
67.7585
  42
0
  0
VERTEX
  8
Обводка_Bottom
  10
-35.2825
  20
67.9055
  42
0
  0
VERTEX
  8
Обводка_Bottom
  10
-35.3758
  20
68.0691
  42
0
  0
VERTEX
  8
Обводка_Bottom
  10
-35.4611
  20
68.3182
  42
0
  0
VERTEX
  8
Обводка_Bottom
  10
-35.4891
  20
68.5329
  42
0
  0
VERTEX
  8
Обводка_Bottom
  10
-35.5121
  20
68.4281
  42
0
  0
VERTEX
  8
Обводка_Bottom
  10
-35.575
  20
68.2506
  42
0
  0
VERTEX
  8
Обводка_Bottom
  10
-35.6649
  20
68.0851
  42
0
  0
VERTEX
  8
Обводка_Bottom
  10
-35.7795
  20
67.9357
  42
0
  0
VERTEX
  8
Обводка_Bottom
  10
-35.9161
  20
67.8061
  42
0
  0
VERTEX
  8
Обводка_Bottom
  10
-36.0713
  20
67.6995
  42
0
  0
VERTEX
  8
Обводка_Bottom
  10
-36.2413
  20
67.6184
  42
0
  0
VERTEX
  8
Обводка_Bottom
  10
-36.4218
  20
67.5649
  42
0
  0
VERTEX
  8
Обводка_Bottom
  10
-36.6085
  20
67.5404
  42
0
  0
VERTEX
  8
Обводка_Bottom
  10
-36.7968
  20
67.5453
  42
0
  0
VERTEX
  8
Обводка_Bottom
  10
-36.9819
  20
67.5796
  42
0
  0
VERTEX
  8
Обводка_Bottom
  10
-37.1594
  20
67.6425
  42
0
  0
VERTEX
  8
Обводка_Bottom
  10
-37.3249
  20
67.7324
  42
0
  0
VERTEX
  8
Обводка_Bottom
  10
-37.4743
  20
67.847
  42
0
  0
VERTEX
  8
Обводка_Bottom
  10
-37.6039
  20
67.9836
  42
0
  0
VERTEX
  8
Обводка_Bottom
  10
-37.7105
  20
68.1388
  42
0
  0
VERTEX
  8
Обводка_Bottom
  10
-37.7916
  20
68.3088
  42
0
  0
VERTEX
  8
Обводка_Bottom
  10
-37.845
  20
68.4893
  42
0
  0
VERTEX
  8
Обводка_Bottom
  10
-37.8741
  20
68.7622
  42
0
  0
VERTEX
  8
Обводка_Bottom
  10
-37.8983
  20
69.235
  42
0
  0
VERTEX
  8
Обводка_Bottom
  10
-37.96
  20
69.235
  42
0
  0
VERTEX
  8
Обводка_Bottom
  10
-37.96
  20
71.635
  42
0
  0
VERTEX
  8
Обводка_Bottom
  10
-37.56
  20
71.635
  42
0
  0
SEQEND
  0
POLYLINE
  8
Обводка_Bottom
  6
CONTINUOUS
  66
1
  70
0
  40
0.9
  41
0.9
  0
VERTEX
  8
Обводка_Bottom
  10
-40.64
  20
14.485
  42
0
  0
VERTEX
  8
Обводка_Bottom
  10
-42.84
  20
14.485
  42
0
  0
VERTEX
  8
Обводка_Bottom
  10
-42.84
  20
12.085
  42
0
  0
VERTEX
  8
Обводка_Bottom
  10
-40.44
  20
12.085
  42
0
  0
VERTEX
  8
Обводка_Bottom
  10
-40.44
  20
14.485
  42
0
  0
VERTEX
  8
Обводка_Bottom
  10
-40.64
  20
14.485
  42
0
  0
SEQEND
  0
POLYLINE
  8
Обводка_Bottom
  6
CONTINUOUS
  66
1
  70
0
  40
0.9
  41
0.9
  0
VERTEX
  8
Обводка_Bottom
  10
-38.14
  20
14.485
  42
0
  0
VERTEX
  8
Обводка_Bottom
  10
-40.34
  20
14.485
  42
0
  0
VERTEX
  8
Обводка_Bottom
  10
-40.34
  20
12.085
  42
0
  0
VERTEX
  8
Обводка_Bottom
  10
-37.94
  20
12.085
  42
0
  0
VERTEX
  8
Обводка_Bottom
  10
-37.94
  20
14.485
  42
0
  0
VERTEX
  8
Обводка_Bottom
  10
-38.14
  20
14.485
  42
0
  0
SEQEND
  0
POLYLINE
  8
Обводка_Bottom
  6
CONTINUOUS
  66
1
  70
0
  40
0.9
  41
0.9
  0
VERTEX
  8
Обводка_Bottom
  10
-35.64
  20
14.485
  42
0
  0
VERTEX
  8
Обводка_Bottom
  10
-37.84
  20
14.485
  42
0
  0
VERTEX
  8
Обводка_Bottom
  10
-37.84
  20
12.085
  42
0
  0
VERTEX
  8
Обводка_Bottom
  10
-35.44
  20
12.085
  42
0
  0
VERTEX
  8
Обводка_Bottom
  10
-35.44
  20
14.485
  42
0
  0
VERTEX
  8
Обводка_Bottom
  10
-35.64
  20
14.485
  42
0
  0
SEQEND
  0
POLYLINE
  8
Обводка_Bottom
  6
CONTINUOUS
  66
1
  70
0
  40
0.9
  41
0.9
  0
VERTEX
  8
Обводка_Bottom
  10
-33.14
  20
14.485
  42
0
  0
VERTEX
  8
Обводка_Bottom
  10
-35.34
  20
14.485
  42
0
  0
VERTEX
  8
Обводка_Bottom
  10
-35.34
  20
12.085
  42
0
  0
VERTEX
  8
Обводка_Bottom
  10
-32.94
  20
12.085
  42
0
  0
VERTEX
  8
Обводка_Bottom
  10
-32.94
  20
14.485
  42
0
  0
VERTEX
  8
Обводка_Bottom
  10
-33.14
  20
14.485
  42
0
  0
SEQEND
  0
POLYLINE
  8
Обводка_Bottom
  6
CONTINUOUS
  66
1
  70
0
  40
0.9
  41
0.9
  0
VERTEX
  8
Обводка_Bottom
  10
-46.5685
  20
26.2485
  42
0
  0
VERTEX
  8
Обводка_Bottom
  10
-46.6908
  20
26.1053
  42
0
  0
VERTEX
  8
Обводка_Bottom
  10
-46.7892
  20
25.9448
  42
0
  0
VERTEX
  8
Обводка_Bottom
  10
-46.8613
  20
25.7708
  42
0
  0
VERTEX
  8
Обводка_Bottom
  10
-46.9052
  20
25.5877
  42
0
  0
VERTEX
  8
Обводка_Bottom
  10
-46.92
  20
25.3297
  42
0
  0
VERTEX
  8
Обводка_Bottom
  10
-47.1777
  20
25.3152
  42
0
  0
VERTEX
  8
Обводка_Bottom
  10
-47.3608
  20
25.2713
  42
0
  0
VERTEX
  8
Обводка_Bottom
  10
-47.5348
  20
25.1992
  42
0
  0
VERTEX
  8
Обводка_Bottom
  10
-47.6953
  20
25.1008
  42
0
  0
VERTEX
  8
Обводка_Bottom
  10
-47.8385
  20
24.9785
  42
0
  0
VERTEX
  8
Обводка_Bottom
  10
-47.9608
  20
24.8353
  42
0
  0
VERTEX
  8
Обводка_Bottom
  10
-48.0592
  20
24.6748
  42
0
  0
VERTEX
  8
Обводка_Bottom
  10
-48.1313
  20
24.5008
  42
0
  0
VERTEX
  8
Обводка_Bottom
  10
-48.1752
  20
24.3177
  42
0
  0
VERTEX
  8
Обводка_Bottom
  10
-48.19
  20
24.13
  42
0
  0
VERTEX
  8
Обводка_Bottom
  10
-48.1752
  20
23.9423
  42
0
  0
VERTEX
  8
Обводка_Bottom
  10
-48.1313
  20
23.7592
  42
0
  0
VERTEX
  8
Обводка_Bottom
  10
-48.0592
  20
23.5852
  42
0
  0
VERTEX
  8
Обводка_Bottom
  10
-47.9608
  20
23.4247
  42
0
  0
VERTEX
  8
Обводка_Bottom
  10
-47.8385
  20
23.2815
  42
0
  0
VERTEX
  8
Обводка_Bottom
  10
-47.6953
  20
23.1592
  42
0
  0
VERTEX
  8
Обводка_Bottom
  10
-47.5348
  20
23.0608
  42
0
  0
VERTEX
  8
Обводка_Bottom
  10
-47.3608
  20
22.9887
  42
0
  0
VERTEX
  8
Обводка_Bottom
  10
-47.3049
  20
22.9722
  42
0
  0
VERTEX
  8
Обводка_Bottom
  10
-47.4872
  20
22.7899
  42
0
  0
VERTEX
  8
Обводка_Bottom
  10
-65.5423
  20
22.79
  42
0
  0
VERTEX
  8
Обводка_Bottom
  10
-66.1101
  20
23.3572
  42
0
  0
VERTEX
  8
Обводка_Bottom
  10
-66.1107
  20
25.43
  42
0
  0
VERTEX
  8
Обводка_Bottom
  10
-61.0299
  20
25.43
  42
0
  0
VERTEX
  8
Обводка_Bottom
  10
-61.0299
  20
25.4495
  42
0
  0
VERTEX
  8
Обводка_Bottom
  10
-59.8286
  20
25.4702
  42
0
  0
VERTEX
  8
Обводка_Bottom
  10
-59.6411
  20
25.4881
  42
0
  0
VERTEX
  8
Обводка_Bottom
  10
-59.4588
  20
25.5351
  42
0
  0
VERTEX
  8
Обводка_Bottom
  10
-59.2861
  20
25.6101
  42
0
  0
VERTEX
  8
Обводка_Bottom
  10
-59.1272
  20
25.7112
  42
0
  0
VERTEX
  8
Обводка_Bottom
  10
-58.9861
  20
25.8358
  42
0
  0
VERTEX
  8
Обводка_Bottom
  10
-58.8662
  20
25.9811
  42
0
  0
VERTEX
  8
Обводка_Bottom
  10
-58.7705
  20
26.1432
  42
0
  0
VERTEX
  8
Обводка_Bottom
  10
-58.7014
  20
26.3184
  42
0
  0
VERTEX
  8
Обводка_Bottom
  10
-58.6605
  20
26.5022
  42
0
  0
VERTEX
  8
Обводка_Bottom
  10
-58.6489
  20
26.6902
  42
0
  0
VERTEX
  8
Обводка_Bottom
  10
-58.6668
  20
26.8776
  42
0
  0
VERTEX
  8
Обводка_Bottom
  10
-58.7139
  20
27.0599
  42
0
  0
VERTEX
  8
Обводка_Bottom
  10
-58.7888
  20
27.2327
  42
0
  0
VERTEX
  8
Обводка_Bottom
  10
-58.8899
  20
27.3915
  42
0
  0
VERTEX
  8
Обводка_Bottom
  10
-59.0146
  20
27.5327
  42
0
  0
VERTEX
  8
Обводка_Bottom
  10
-59.1598
  20
27.6525
  42
0
  0
VERTEX
  8
Обводка_Bottom
  10
-59.322
  20
27.7482
  42
0
  0
VERTEX
  8
Обводка_Bottom
  10
-59.4971
  20
27.8173
  42
0
  0
VERTEX
  8
Обводка_Bottom
  10
-59.6809
  20
27.8582
  42
0
  0
VERTEX
  8
Обводка_Bottom
  10
-59.8689
  20
27.8698
  42
0
  0
VERTEX
  8
Обводка_Bottom
  10
-62.6253
  20
27.83
  42
0
  0
VERTEX
  8
Обводка_Bottom
  10
-66.11
  20
27.8311
  42
0
  0
VERTEX
  8
Обводка_Bottom
  10
-66.11
  20
43.11
  42
0
  0
VERTEX
  8
Обводка_Bottom
  10
-68.51
  20
43.11
  42
0
  0
VERTEX
  8
Обводка_Bottom
  10
-68.51
  20
22.86
  42
0
  0
VERTEX
  8
Обводка_Bottom
  10
-68.4952
  20
22.6723
  42
0
  0
VERTEX
  8
Обводка_Bottom
  10
-68.4513
  20
22.4892
  42
0
  0
VERTEX
  8
Обводка_Bottom
  10
-68.3792
  20
22.3152
  42
0
  0
VERTEX
  8
Обводка_Bottom
  10
-68.2808
  20
22.1547
  42
0
  0
VERTEX
  8
Обводка_Bottom
  10
-68.158
  20
22.011
  42
0
  0
VERTEX
  8
Обводка_Bottom
  10
-66.8885
  20
20.7415
  42
0
  0
VERTEX
  8
Обводка_Bottom
  10
-66.7453
  20
20.6192
  42
0
  0
VERTEX
  8
Обводка_Bottom
  10
-66.5848
  20
20.5208
  42
0
  0
VERTEX
  8
Обводка_Bottom
  10
-66.4108
  20
20.4487
  42
0
  0
VERTEX
  8
Обводка_Bottom
  10
-66.2277
  20
20.4048
  42
0
  0
VERTEX
  8
Обводка_Bottom
  10
-66.0393
  20
20.3901
  42
0
  0
VERTEX
  8
Обводка_Bottom
  10
-46.99
  20
20.39
  42
0
  0
VERTEX
  8
Обводка_Bottom
  10
-46.8023
  20
20.4048
  42
0
  0
VERTEX
  8
Обводка_Bottom
  10
-46.6192
  20
20.4487
  42
0
  0
VERTEX
  8
Обводка_Bottom
  10
-46.4452
  20
20.5208
  42
0
  0
VERTEX
  8
Обводка_Bottom
  10
-46.2847
  20
20.6192
  42
0
  0
VERTEX
  8
Обводка_Bottom
  10
-46.141
  20
20.742
  42
0
  0
VERTEX
  8
Обводка_Bottom
  10
-44.8715
  20
22.0115
  42
0
  0
VERTEX
  8
Обводка_Bottom
  10
-44.7492
  20
22.1547
  42
0
  0
VERTEX
  8
Обводка_Bottom
  10
-44.6508
  20
22.3152
  42
0
  0
VERTEX
  8
Обводка_Bottom
  10
-44.5787
  20
22.4892
  42
0
  0
VERTEX
  8
Обводка_Bottom
  10
-44.5348
  20
22.6723
  42
0
  0
VERTEX
  8
Обводка_Bottom
  10
-44.52
  20
22.9219
  42
0
  0
VERTEX
  8
Обводка_Bottom
  10
-43.745
  20
22.917
  42
0
  0
VERTEX
  8
Обводка_Bottom
  10
-43.745
  20
22.91
  42
0
  0
VERTEX
  8
Обводка_Bottom
  10
-37.3077
  20
22.91
  42
0
  0
VERTEX
  8
Обводка_Bottom
  10
-27.8696
  20
13.4725
  42
0
  0
VERTEX
  8
Обводка_Bottom
  10
-27.8701
  20
7.8748
  42
0
  0
VERTEX
  8
Обводка_Bottom
  10
-28.1546
  20
7.8664
  42
0
  0
VERTEX
  8
Обводка_Bottom
  10
-28.2614
  20
7.8408
  42
0
  0
VERTEX
  8
Обводка_Bottom
  10
-28.3629
  20
7.7988
  42
0
  0
VERTEX
  8
Обводка_Bottom
  10
-28.4565
  20
7.7414
  42
0
  0
VERTEX
  8
Обводка_Bottom
  10
-28.54
  20
7.67
  42
0
  0
VERTEX
  8
Обводка_Bottom
  10
-28.6114
  20
7.5865
  42
0
  0
VERTEX
  8
Обводка_Bottom
  10
-28.6688
  20
7.4929
  42
0
  0
VERTEX
  8
Обводка_Bottom
  10
-28.7108
  20
7.3914
  42
0
  0
VERTEX
  8
Обводка_Bottom
  10
-28.7365
  20
7.2846
  42
0
  0
VERTEX
  8
Обводка_Bottom
  10
-28.7451
  20
7.0113
  42
0
  0
VERTEX
  8
Обводка_Bottom
  10
-28.7451
  20
5.8651
  42
0
  0
VERTEX
  8
Обводка_Bottom
  10
-28.7365
  20
5.7556
  42
0
  0
VERTEX
  8
Обводка_Bottom
  10
-28.7109
  20
5.6488
  42
0
  0
VERTEX
  8
Обводка_Bottom
  10
-28.6689
  20
5.5473
  42
0
  0
VERTEX
  8
Обводка_Bottom
  10
-28.6115
  20
5.4536
  42
0
  0
VERTEX
  8
Обводка_Bottom
  10
-28.5401
  20
5.3701
  42
0
  0
VERTEX
  8
Обводка_Bottom
  10
-28.4566
  20
5.2988
  42
0
  0
VERTEX
  8
Обводка_Bottom
  10
-28.363
  20
5.2414
  42
0
  0
VERTEX
  8
Обводка_Bottom
  10
-28.2615
  20
5.1993
  42
0
  0
VERTEX
  8
Обводка_Bottom
  10
-28.1547
  20
5.1737
  42
0
  0
VERTEX
  8
Обводка_Bottom
  10
-27.8487
  20
5.165
  42
0
  0
VERTEX
  8
Обводка_Bottom
  10
-27.2495
  20
5.165
  42
0
  0
SEQEND
  0
POLYLINE
  8
Обводка_Bottom
  6
CONTINUOUS
  66
1
  70
0
  40
0.9
  41
0.9
  0
VERTEX
  8
Обводка_Bottom
  10
-25.3297
  20
38.17
  42
0
  0
VERTEX
  8
Обводка_Bottom
  10
-25.5877
  20
38.1848
  42
0
  0
VERTEX
  8
Обводка_Bottom
  10
-25.7708
  20
38.2287
  42
0
  0
VERTEX
  8
Обводка_Bottom
  10
-25.9448
  20
38.3008
  42
0
  0
VERTEX
  8
Обводка_Bottom
  10
-26.1053
  20
38.3992
  42
0
  0
VERTEX
  8
Обводка_Bottom
  10
-26.2485
  20
38.5215
  42
0
  0
VERTEX
  8
Обводка_Bottom
  10
-26.3708
  20
38.6647
  42
0
  0
VERTEX
  8
Обводка_Bottom
  10
-26.4692
  20
38.8252
  42
0
  0
VERTEX
  8
Обводка_Bottom
  10
-26.5413
  20
38.9992
  42
0
  0
VERTEX
  8
Обводка_Bottom
  10
-26.5852
  20
39.1823
  42
0
  0
VERTEX
  8
Обводка_Bottom
  10
-26.6
  20
39.37
  42
0
  0
VERTEX
  8
Обводка_Bottom
  10
-26.5852
  20
39.5577
  42
0
  0
VERTEX
  8
Обводка_Bottom
  10
-26.5413
  20
39.7408
  42
0
  0
VERTEX
  8
Обводка_Bottom
  10
-26.4692
  20
39.9148
  42
0
  0
VERTEX
  8
Обводка_Bottom
  10
-26.3708
  20
40.0753
  42
0
  0
VERTEX
  8
Обводка_Bottom
  10
-26.2485
  20
40.2185
  42
0
  0
VERTEX
  8
Обводка_Bottom
  10
-26.1053
  20
40.3408
  42
0
  0
VERTEX
  8
Обводка_Bottom
  10
-25.9448
  20
40.4392
  42
0
  0
VERTEX
  8
Обводка_Bottom
  10
-25.7708
  20
40.5113
  42
0
  0
VERTEX
  8
Обводка_Bottom
  10
-25.5877
  20
40.5552
  42
0
  0
VERTEX
  8
Обводка_Bottom
  10
-25.3417
  20
40.57
  42
0
  0
VERTEX
  8
Обводка_Bottom
  10
-8.96
  20
40.57
  42
0
  0
VERTEX
  8
Обводка_Bottom
  10
-8.96
  20
38.17
  42
0
  0
VERTEX
  8
Обводка_Bottom
  10
-25.33
  20
38.1708
  42
0
  0
VERTEX
  8
Обводка_Bottom
  10
-25.3297
  20
38.17
  42
0
  0
SEQEND
  0
POLYLINE
  8
Обводка_Bottom
  6
CONTINUOUS
  66
1
  70
0
  40
0.9
  41
0.9
  0
VERTEX
  8
Обводка_Bottom
  10
-25.3297
  20
35.63
  42
0
  0
VERTEX
  8
Обводка_Bottom
  10
-25.5877
  20
35.6448
  42
0
  0
VERTEX
  8
Обводка_Bottom
  10
-25.7708
  20
35.6887
  42
0
  0
VERTEX
  8
Обводка_Bottom
  10
-25.9448
  20
35.7608
  42
0
  0
VERTEX
  8
Обводка_Bottom
  10
-26.1053
  20
35.8592
  42
0
  0
VERTEX
  8
Обводка_Bottom
  10
-26.2485
  20
35.9815
  42
0
  0
VERTEX
  8
Обводка_Bottom
  10
-26.3708
  20
36.1247
  42
0
  0
VERTEX
  8
Обводка_Bottom
  10
-26.4692
  20
36.2852
  42
0
  0
VERTEX
  8
Обводка_Bottom
  10
-26.5413
  20
36.4592
  42
0
  0
VERTEX
  8
Обводка_Bottom
  10
-26.5852
  20
36.6423
  42
0
  0
VERTEX
  8
Обводка_Bottom
  10
-26.6
  20
36.83
  42
0
  0
VERTEX
  8
Обводка_Bottom
  10
-26.5852
  20
37.0177
  42
0
  0
VERTEX
  8
Обводка_Bottom
  10
-26.5413
  20
37.2008
  42
0
  0
VERTEX
  8
Обводка_Bottom
  10
-26.4692
  20
37.3748
  42
0
  0
VERTEX
  8
Обводка_Bottom
  10
-26.3708
  20
37.5353
  42
0
  0
VERTEX
  8
Обводка_Bottom
  10
-26.2485
  20
37.6785
  42
0
  0
VERTEX
  8
Обводка_Bottom
  10
-26.1053
  20
37.8008
  42
0
  0
VERTEX
  8
Обводка_Bottom
  10
-25.9448
  20
37.8992
  42
0
  0
VERTEX
  8
Обводка_Bottom
  10
-25.7708
  20
37.9713
  42
0
  0
VERTEX
  8
Обводка_Bottom
  10
-25.5877
  20
38.0152
  42
0
  0
VERTEX
  8
Обводка_Bottom
  10
-25.3417
  20
38.03
  42
0
  0
VERTEX
  8
Обводка_Bottom
  10
-8.96
  20
38.03
  42
0
  0
VERTEX
  8
Обводка_Bottom
  10
-8.96
  20
35.63
  42
0
  0
VERTEX
  8
Обводка_Bottom
  10
-25.33
  20
35.6308
  42
0
  0
VERTEX
  8
Обводка_Bottom
  10
-25.3297
  20
35.63
  42
0
  0
SEQEND
  0
POLYLINE
  8
Обводка_Bottom
  6
CONTINUOUS
  66
1
  70
0
  40
0.9
  41
0.9
  0
VERTEX
  8
Обводка_Bottom
  10
-25.3297
  20
33.09
  42
0
  0
VERTEX
  8
Обводка_Bottom
  10
-25.5877
  20
33.1048
  42
0
  0
VERTEX
  8
Обводка_Bottom
  10
-25.7708
  20
33.1487
  42
0
  0
VERTEX
  8
Обводка_Bottom
  10
-25.9448
  20
33.2208
  42
0
  0
VERTEX
  8
Обводка_Bottom
  10
-26.1053
  20
33.3192
  42
0
  0
VERTEX
  8
Обводка_Bottom
  10
-26.2485
  20
33.4415
  42
0
  0
VERTEX
  8
Обводка_Bottom
  10
-26.3708
  20
33.5847
  42
0
  0
VERTEX
  8
Обводка_Bottom
  10
-26.4692
  20
33.7452
  42
0
  0
VERTEX
  8
Обводка_Bottom
  10
-26.5413
  20
33.9192
  42
0
  0
VERTEX
  8
Обводка_Bottom
  10
-26.5852
  20
34.1023
  42
0
  0
VERTEX
  8
Обводка_Bottom
  10
-26.6
  20
34.29
  42
0
  0
VERTEX
  8
Обводка_Bottom
  10
-26.5852
  20
34.4777
  42
0
  0
VERTEX
  8
Обводка_Bottom
  10
-26.5413
  20
34.6608
  42
0
  0
VERTEX
  8
Обводка_Bottom
  10
-26.4692
  20
34.8348
  42
0
  0
VERTEX
  8
Обводка_Bottom
  10
-26.3708
  20
34.9953
  42
0
  0
VERTEX
  8
Обводка_Bottom
  10
-26.2485
  20
35.1385
  42
0
  0
VERTEX
  8
Обводка_Bottom
  10
-26.1053
  20
35.2608
  42
0
  0
VERTEX
  8
Обводка_Bottom
  10
-25.9448
  20
35.3592
  42
0
  0
VERTEX
  8
Обводка_Bottom
  10
-25.7708
  20
35.4313
  42
0
  0
VERTEX
  8
Обводка_Bottom
  10
-25.5877
  20
35.4752
  42
0
  0
VERTEX
  8
Обводка_Bottom
  10
-25.3417
  20
35.49
  42
0
  0
VERTEX
  8
Обводка_Bottom
  10
-16.51
  20
35.49
  42
0
  0
VERTEX
  8
Обводка_Bottom
  10
-16.3223
  20
35.4752
  42
0
  0
VERTEX
  8
Обводка_Bottom
  10
-16.1392
  20
35.4313
  42
0
  0
VERTEX
  8
Обводка_Bottom
  10
-15.9652
  20
35.3592
  42
0
  0
VERTEX
  8
Обводка_Bottom
  10
-15.8047
  20
35.2608
  42
0
  0
VERTEX
  8
Обводка_Bottom
  10
-15.6497
  20
35.1268
  42
0
  0
VERTEX
  8
Обводка_Bottom
  10
-14.3913
  20
33.8684
  42
0
  0
VERTEX
  8
Обводка_Bottom
  10
-14.269
  20
33.7252
  42
0
  0
VERTEX
  8
Обводка_Bottom
  10
-14.1706
  20
33.5646
  42
0
  0
VERTEX
  8
Обводка_Bottom
  10
-14.0986
  20
33.3907
  42
0
  0
VERTEX
  8
Обводка_Bottom
  10
-14.0546
  20
33.2076
  42
0
  0
VERTEX
  8
Обводка_Bottom
  10
-14.0398
  20
33.0192
  42
0
  0
VERTEX
  8
Обводка_Bottom
  10
-14.0399
  20
30.49
  42
0
  0
VERTEX
  8
Обводка_Bottom
  10
-16.4399
  20
30.49
  42
0
  0
VERTEX
  8
Обводка_Bottom
  10
-16.4399
  20
32.5228
  42
0
  0
VERTEX
  8
Обводка_Bottom
  10
-17.0068
  20
33.09
  42
0
  0
VERTEX
  8
Обводка_Bottom
  10
-25.33
  20
33.0908
  42
0
  0
VERTEX
  8
Обводка_Bottom
  10
-25.3297
  20
33.09
  42
0
  0
SEQEND
  0
POLYLINE
  8
Обводка_Bottom
  6
CONTINUOUS
  66
1
  70
0
  40
0.9
  41
0.9
  0
VERTEX
  8
Обводка_Bottom
  10
-44.008
  20
18.2742
  42
0
  0
VERTEX
  8
Обводка_Bottom
  10
-44.1555
  20
18.3925
  42
0
  0
VERTEX
  8
Обводка_Bottom
  10
-44.3191
  20
18.4858
  42
0
  0
VERTEX
  8
Обводка_Bottom
  10
-44.4952
  20
18.5524
  42
0
  0
VERTEX
  8
Обводка_Bottom
  10
-44.6796
  20
18.5905
  42
0
  0
VERTEX
  8
Обводка_Bottom
  10
-44.8677
  20
18.5994
  42
0
  0
VERTEX
  8
Обводка_Bottom
  10
-45.0549
  20
18.5787
  42
0
  0
VERTEX
  8
Обводка_Bottom
  10
-45.2365
  20
18.5291
  42
0
  0
VERTEX
  8
Обводка_Bottom
  10
-45.4081
  20
18.4516
  42
0
  0
VERTEX
  8
Обводка_Bottom
  10
-45.5655
  20
18.3482
  42
0
  0
VERTEX
  8
Обводка_Bottom
  10
-45.7048
  20
18.2215
  42
0
  0
VERTEX
  8
Обводка_Bottom
  10
-45.8225
  20
18.0745
  42
0
  0
VERTEX
  8
Обводка_Bottom
  10
-45.9158
  20
17.9109
  42
0
  0
VERTEX
  8
Обводка_Bottom
  10
-45.9886
  20
17.7099
  42
0
  0
VERTEX
  8
Обводка_Bottom
  10
-46.03
  20
17.7099
  42
0
  0
VERTEX
  8
Обводка_Bottom
  10
-46.03
  20
15.3099
  42
0
  0
VERTEX
  8
Обводка_Bottom
  10
-43.63
  20
15.3099
  42
0
  0
VERTEX
  8
Обводка_Bottom
  10
-43.6302
  20
15.33
  42
0
  0
VERTEX
  8
Обводка_Bottom
  10
-33.1064
  20
15.33
  42
0
  0
VERTEX
  8
Обводка_Bottom
  10
-29.9149
  20
12.1386
  42
0
  0
VERTEX
  8
Обводка_Bottom
  10
-29.9063
  20
11.7656
  42
0
  0
VERTEX
  8
Обводка_Bottom
  10
-29.8807
  20
11.6588
  42
0
  0
VERTEX
  8
Обводка_Bottom
  10
-29.8386
  20
11.5573
  42
0
  0
VERTEX
  8
Обводка_Bottom
  10
-29.7812
  20
11.4637
  42
0
  0
VERTEX
  8
Обводка_Bottom
  10
-29.7099
  20
11.3801
  42
0
  0
VERTEX
  8
Обводка_Bottom
  10
-29.6264
  20
11.3088
  42
0
  0
VERTEX
  8
Обводка_Bottom
  10
-29.5327
  20
11.2514
  42
0
  0
VERTEX
  8
Обводка_Bottom
  10
-29.4313
  20
11.2094
  42
0
  0
VERTEX
  8
Обводка_Bottom
  10
-29.3244
  20
11.1837
  42
0
  0
VERTEX
  8
Обводка_Bottom
  10
-28.9699
  20
11.1751
  42
0
  0
VERTEX
  8
Обводка_Bottom
  10
-28.6154
  20
11.1837
  42
0
  0
VERTEX
  8
Обводка_Bottom
  10
-28.5086
  20
11.2093
  42
0
  0
VERTEX
  8
Обводка_Bottom
  10
-28.4071
  20
11.2514
  42
0
  0
VERTEX
  8
Обводка_Bottom
  10
-28.3135
  20
11.3087
  42
0
  0
VERTEX
  8
Обводка_Bottom
  10
-28.23
  20
11.3801
  42
0
  0
VERTEX
  8
Обводка_Bottom
  10
-28.1586
  20
11.4636
  42
0
  0
VERTEX
  8
Обводка_Bottom
  10
-28.1012
  20
11.5573
  42
0
  0
VERTEX
  8
Обводка_Bottom
  10
-28.0592
  20
11.6587
  42
0
  0
VERTEX
  8
Обводка_Bottom
  10
-28.0335
  20
11.7655
  42
0
  0
VERTEX
  8
Обводка_Bottom
  10
-28.0249
  20
12.0388
  42
0
  0
VERTEX
  8
Обводка_Bottom
  10
-28.0249
  20
13.1851
  42
0
  0
VERTEX
  8
Обводка_Bottom
  10
-28.0335
  20
13.2946
  42
0
  0
VERTEX
  8
Обводка_Bottom
  10
-28.0591
  20
13.4014
  42
0
  0
VERTEX
  8
Обводка_Bottom
  10
-28.1011
  20
13.5028
  42
0
  0
VERTEX
  8
Обводка_Bottom
  10
-28.1585
  20
13.5965
  42
0
  0
VERTEX
  8
Обводка_Bottom
  10
-28.2299
  20
13.68
  42
0
  0
VERTEX
  8
Обводка_Bottom
  10
-28.3134
  20
13.7514
  42
0
  0
VERTEX
  8
Обводка_Bottom
  10
-28.407
  20
13.8088
  42
0
  0
VERTEX
  8
Обводка_Bottom
  10
-28.5085
  20
13.8508
  42
0
  0
VERTEX
  8
Обводка_Bottom
  10
-28.6153
  20
13.8765
  42
0
  0
VERTEX
  8
Обводка_Bottom
  10
-28.9878
  20
13.8851
  42
0
  0
VERTEX
  8
Обводка_Bottom
  10
-31.7784
  20
16.6751
  42
0
  0
VERTEX
  8
Обводка_Bottom
  10
-31.8285
  20
16.9008
  42
0
  0
VERTEX
  8
Обводка_Bottom
  10
-31.9006
  20
17.0748
  42
0
  0
VERTEX
  8
Обводка_Bottom
  10
-31.999
  20
17.2353
  42
0
  0
VERTEX
  8
Обводка_Bottom
  10
-32.1213
  20
17.3785
  42
0
  0
VERTEX
  8
Обводка_Bottom
  10
-32.2645
  20
17.5008
  42
0
  0
VERTEX
  8
Обводка_Bottom
  10
-32.425
  20
17.5992
  42
0
  0
VERTEX
  8
Обводка_Bottom
  10
-32.599
  20
17.6713
  42
0
  0
VERTEX
  8
Обводка_Bottom
  10
-32.7821
  20
17.7152
  42
0
  0
VERTEX
  8
Обводка_Bottom
  10
-32.9698
  20
17.73
  42
0
  0
VERTEX
  8
Обводка_Bottom
  10
-43.4633
  20
17.73
  42
0
  0
VERTEX
  8
Обводка_Bottom
  10
-43.5629
  20
17.83
  42
0
  0
VERTEX
  8
Обводка_Bottom
  10
-41.345
  20
17.83
  42
0
  0
VERTEX
  8
Обводка_Bottom
  10
-41.345
  20
22.81
  42
0
  0
VERTEX
  8
Обводка_Bottom
  10
-43.745
  20
22.81
  42
0
  0
VERTEX
  8
Обводка_Bottom
  10
-43.745
  20
18.012
  42
0
  0
VERTEX
  8
Обводка_Bottom
  10
-44.008
  20
18.2742
  42
0
  0
SEQEND
  0
POLYLINE
  8
Обводка_Bottom
  6
CONTINUOUS
  66
1
  70
0
  40
0.9
  41
0.9
  0
VERTEX
  8
Обводка_Bottom
  10
-40.5513
  20
70.4343
  42
0
  0
VERTEX
  8
Обводка_Bottom
  10
-40.5512
  20
72.0725
  42
0
  0
VERTEX
  8
Обводка_Bottom
  10
-40.566
  20
72.2602
  42
0
  0
VERTEX
  8
Обводка_Bottom
  10
-40.61
  20
72.4433
  42
0
  0
VERTEX
  8
Обводка_Bottom
  10
-40.682
  20
72.6173
  42
0
  0
VERTEX
  8
Обводка_Bottom
  10
-40.7804
  20
72.7778
  42
0
  0
VERTEX
  8
Обводка_Bottom
  10
-40.9027
  20
72.921
  42
0
  0
VERTEX
  8
Обводка_Bottom
  10
-41.0459
  20
73.0433
  42
0
  0
VERTEX
  8
Обводка_Bottom
  10
-41.2064
  20
73.1417
  42
0
  0
VERTEX
  8
Обводка_Bottom
  10
-41.3804
  20
73.2138
  42
0
  0
VERTEX
  8
Обводка_Bottom
  10
-41.5635
  20
73.2577
  42
0
  0
VERTEX
  8
Обводка_Bottom
  10
-41.7512
  20
73.2725
  42
0
  0
VERTEX
  8
Обводка_Bottom
  10
-41.939
  20
73.2577
  42
0
  0
VERTEX
  8
Обводка_Bottom
  10
-42.1221
  20
73.2138
  42
0
  0
VERTEX
  8
Обводка_Bottom
  10
-42.296
  20
73.1417
  42
0
  0
VERTEX
  8
Обводка_Bottom
  10
-42.4566
  20
73.0433
  42
0
  0
VERTEX
  8
Обводка_Bottom
  10
-42.5998
  20
72.921
  42
0
  0
VERTEX
  8
Обводка_Bottom
  10
-42.7221
  20
72.7778
  42
0
  0
VERTEX
  8
Обводка_Bottom
  10
-42.8204
  20
72.6173
  42
0
  0
VERTEX
  8
Обводка_Bottom
  10
-42.8925
  20
72.4433
  42
0
  0
VERTEX
  8
Обводка_Bottom
  10
-42.9365
  20
72.2602
  42
0
  0
VERTEX
  8
Обводка_Bottom
  10
-42.9512
  20
72.0725
  42
0
  0
VERTEX
  8
Обводка_Bottom
  10
-42.9514
  20
71.635
  42
0
  0
VERTEX
  8
Обводка_Bottom
  10
-42.96
  20
71.635
  42
0
  0
VERTEX
  8
Обводка_Bottom
  10
-42.96
  20
68.0002
  42
0
  0
VERTEX
  8
Обводка_Bottom
  10
-42.9452
  20
67.8124
  42
0
  0
VERTEX
  8
Обводка_Bottom
  10
-42.9013
  20
67.6293
  42
0
  0
VERTEX
  8
Обводка_Bottom
  10
-42.8292
  20
67.4554
  42
0
  0
VERTEX
  8
Обводка_Bottom
  10
-42.7308
  20
67.2948
  42
0
  0
VERTEX
  8
Обводка_Bottom
  10
-42.6085
  20
67.1516
  42
0
  0
VERTEX
  8
Обводка_Bottom
  10
-39.3784
  20
63.9215
  42
0
  0
VERTEX
  8
Обводка_Bottom
  10
-39.2352
  20
63.7992
  42
0
  0
VERTEX
  8
Обводка_Bottom
  10
-39.0746
  20
63.7008
  42
0
  0
VERTEX
  8
Обводка_Bottom
  10
-38.9007
  20
63.6287
  42
0
  0
VERTEX
  8
Обводка_Bottom
  10
-38.7176
  20
63.5848
  42
0
  0
VERTEX
  8
Обводка_Bottom
  10
-38.5298
  20
63.57
  42
0
  0
VERTEX
  8
Обводка_Bottom
  10
-34.7863
  20
63.57
  42
0
  0
VERTEX
  8
Обводка_Bottom
  10
-34.2199
  20
63.0028
  42
0
  0
VERTEX
  8
Обводка_Bottom
  10
-34.22
  20
60.1868
  42
0
  0
VERTEX
  8
Обводка_Bottom
  10
-35.6665
  20
58.7408
  42
0
  0
VERTEX
  8
Обводка_Bottom
  10
-35.6665
  20
60.8901
  42
0
  0
VERTEX
  8
Обводка_Bottom
  10
-38.1
  20
60.89
  42
0
  0
VERTEX
  8
Обводка_Bottom
  10
-38.2877
  20
60.8752
  42
0
  0
VERTEX
  8
Обводка_Bottom
  10
-38.4708
  20
60.8313
  42
0
  0
VERTEX
  8
Обводка_Bottom
  10
-38.6448
  20
60.7592
  42
0
  0
VERTEX
  8
Обводка_Bottom
  10
-38.8053
  20
60.6608
  42
0
  0
VERTEX
  8
Обводка_Bottom
  10
-38.9485
  20
60.5385
  42
0
  0
VERTEX
  8
Обводка_Bottom
  10
-39.0708
  20
60.3953
  42
0
  0
VERTEX
  8
Обводка_Bottom
  10
-39.1692
  20
60.2348
  42
0
  0
VERTEX
  8
Обводка_Bottom
  10
-39.2413
  20
60.0608
  42
0
  0
VERTEX
  8
Обводка_Bottom
  10
-39.2852
  20
59.8777
  42
0
  0
VERTEX
  8
Обводка_Bottom
  10
-39.3
  20
59.69
  42
0
  0
VERTEX
  8
Обводка_Bottom
  10
-39.2852
  20
59.5023
  42
0
  0
VERTEX
  8
Обводка_Bottom
  10
-39.2413
  20
59.3192
  42
0
  0
VERTEX
  8
Обводка_Bottom
  10
-39.1692
  20
59.1452
  42
0
  0
VERTEX
  8
Обводка_Bottom
  10
-39.0708
  20
58.9847
  42
0
  0
VERTEX
  8
Обводка_Bottom
  10
-38.9485
  20
58.8415
  42
0
  0
VERTEX
  8
Обводка_Bottom
  10
-38.8053
  20
58.7192
  42
0
  0
VERTEX
  8
Обводка_Bottom
  10
-38.6448
  20
58.6208
  42
0
  0
VERTEX
  8
Обводка_Bottom
  10
-38.4708
  20
58.5487
  42
0
  0
VERTEX
  8
Обводка_Bottom
  10
-38.2877
  20
58.5048
  42
0
  0
VERTEX
  8
Обводка_Bottom
  10
-38.1
  20
58.49
  42
0
  0
VERTEX
  8
Обводка_Bottom
  10
-35.9173
  20
58.4901
  42
0
  0
VERTEX
  8
Обводка_Bottom
  10
-36.0665
  20
58.3501
  42
0
  0
VERTEX
  8
Обводка_Bottom
  10
-38.1
  20
58.35
  42
0
  0
VERTEX
  8
Обводка_Bottom
  10
-38.2877
  20
58.3352
  42
0
  0
VERTEX
  8
Обводка_Bottom
  10
-38.4708
  20
58.2913
  42
0
  0
VERTEX
  8
Обводка_Bottom
  10
-38.6448
  20
58.2192
  42
0
  0
VERTEX
  8
Обводка_Bottom
  10
-38.8053
  20
58.1208
  42
0
  0
VERTEX
  8
Обводка_Bottom
  10
-38.9485
  20
57.9985
  42
0
  0
VERTEX
  8
Обводка_Bottom
  10
-39.0708
  20
57.8553
  42
0
  0
VERTEX
  8
Обводка_Bottom
  10
-39.1692
  20
57.6948
  42
0
  0
VERTEX
  8
Обводка_Bottom
  10
-39.2413
  20
57.5208
  42
0
  0
VERTEX
  8
Обводка_Bottom
  10
-39.2852
  20
57.3377
  42
0
  0
VERTEX
  8
Обводка_Bottom
  10
-39.3
  20
57.15
  42
0
  0
VERTEX
  8
Обводка_Bottom
  10
-39.2852
  20
56.9623
  42
0
  0
VERTEX
  8
Обводка_Bottom
  10
-39.2413
  20
56.7792
  42
0
  0
VERTEX
  8
Обводка_Bottom
  10
-39.1692
  20
56.6052
  42
0
  0
VERTEX
  8
Обводка_Bottom
  10
-39.0708
  20
56.4447
  42
0
  0
VERTEX
  8
Обводка_Bottom
  10
-38.9485
  20
56.3015
  42
0
  0
VERTEX
  8
Обводка_Bottom
  10
-38.8053
  20
56.1792
  42
0
  0
VERTEX
  8
Обводка_Bottom
  10
-38.6448
  20
56.0808
  42
0
  0
VERTEX
  8
Обводка_Bottom
  10
-38.4708
  20
56.0087
  42
0
  0
VERTEX
  8
Обводка_Bottom
  10
-38.2877
  20
55.9648
  42
0
  0
VERTEX
  8
Обводка_Bottom
  10
-38.1
  20
55.95
  42
0
  0
VERTEX
  8
Обводка_Bottom
  10
-35.56
  20
55.95
  42
0
  0
VERTEX
  8
Обводка_Bottom
  10
-35.3723
  20
55.9648
  42
0
  0
VERTEX
  8
Обводка_Bottom
  10
-35.1892
  20
56.0087
  42
0
  0
VERTEX
  8
Обводка_Bottom
  10
-35.0152
  20
56.0808
  42
0
  0
VERTEX
  8
Обводка_Bottom
  10
-34.8547
  20
56.1792
  42
0
  0
VERTEX
  8
Обводка_Bottom
  10
-34.711
  20
56.302
  42
0
  0
VERTEX
  8
Обводка_Bottom
  10
-32.1715
  20
58.8415
  42
0
  0
VERTEX
  8
Обводка_Bottom
  10
-32.0492
  20
58.9847
  42
0
  0
VERTEX
  8
Обводка_Bottom
  10
-31.9508
  20
59.1452
  42
0
  0
VERTEX
  8
Обводка_Bottom
  10
-31.8787
  20
59.3192
  42
0
  0
VERTEX
  8
Обводка_Bottom
  10
-31.8348
  20
59.5023
  42
0
  0
VERTEX
  8
Обводка_Bottom
  10
-31.8201
  20
59.6907
  42
0
  0
VERTEX
  8
Обводка_Bottom
  10
-31.82
  20
63.5
  42
0
  0
VERTEX
  8
Обводка_Bottom
  10
-31.8348
  20
63.6877
  42
0
  0
VERTEX
  8
Обводка_Bottom
  10
-31.8787
  20
63.8708
  42
0
  0
VERTEX
  8
Обводка_Bottom
  10
-31.9508
  20
64.0448
  42
0
  0
VERTEX
  8
Обводка_Bottom
  10
-32.0492
  20
64.2053
  42
0
  0
VERTEX
  8
Обводка_Bottom
  10
-32.172
  20
64.349
  42
0
  0
VERTEX
  8
Обводка_Bottom
  10
-33.4415
  20
65.6185
  42
0
  0
VERTEX
  8
Обводка_Bottom
  10
-33.5847
  20
65.7408
  42
0
  0
VERTEX
  8
Обводка_Bottom
  10
-33.7452
  20
65.8392
  42
0
  0
VERTEX
  8
Обводка_Bottom
  10
-33.9192
  20
65.9113
  42
0
  0
VERTEX
  8
Обводка_Bottom
  10
-34.1023
  20
65.9552
  42
0
  0
VERTEX
  8
Обводка_Bottom
  10
-34.2907
  20
65.9699
  42
0
  0
VERTEX
  8
Обводка_Bottom
  10
-38.0335
  20
65.97
  42
0
  0
VERTEX
  8
Обводка_Bottom
  10
-40.5598
  20
68.497
  42
0
  0
VERTEX
  8
Обводка_Bottom
  10
-40.5536
  20
70.3597
  42
0
  0
VERTEX
  8
Обводка_Bottom
  10
-40.5512
  20
70.4351
  42
0
  0
VERTEX
  8
Обводка_Bottom
  10
-40.5513
  20
70.4343
  42
0
  0
SEQEND
  0
ENDSEC
  0
EOF
