  0
SECTION
  2
HEADER
  9
$ACADVER
  1
AC1009
  9
$ANGDIR
  70
0
  9
$CECOLOR
  62
256
  9
$CELTYPE
  6
BYLAYER
  9
$EXTMIN
  10
0.0
  20
0.0
  9
$EXTMAX
  10
73.66
  20
76.2
  9
$FILLMODE
  70
1
  9
$MIRRTEXT
  70
0
  0
ENDSEC
  0
SECTION
  2
TABLES
  0
TABLE
  2
LAYER
  70
23
  0
LAYER
  2
Обводка_Top
  70
64
  62
22
  6
CONTINUOUS
  0
ENDTAB
  0
ENDSEC
  0
SECTION
  2
ENTITIES
  0
POLYLINE
  8
Обводка_Top
  6
CONTINUOUS
  66
1
  70
0
  40
0.9
  41
0.9
  0
VERTEX
  8
Обводка_Top
  10
56.3467
  20
53.3667
  42
0
  0
VERTEX
  8
Обводка_Top
  10
56.5467
  20
53.3667
  42
0
  0
VERTEX
  8
Обводка_Top
  10
56.5467
  20
51.3667
  42
0
  0
VERTEX
  8
Обводка_Top
  10
56.3474
  20
51.3667
  42
0
  0
SEQEND
  0
POLYLINE
  8
Обводка_Top
  6
CONTINUOUS
  66
1
  70
0
  40
0.9
  41
0.9
  0
VERTEX
  8
Обводка_Top
  10
54.7467
  20
51.3667
  42
0
  0
VERTEX
  8
Обводка_Top
  10
54.5467
  20
51.3667
  42
0
  0
VERTEX
  8
Обводка_Top
  10
54.5467
  20
53.3667
  42
0
  0
VERTEX
  8
Обводка_Top
  10
54.7459
  20
53.3667
  42
0
  0
SEQEND
  0
POLYLINE
  8
Обводка_Top
  6
CONTINUOUS
  66
1
  70
0
  40
0.9
  41
0.9
  0
VERTEX
  8
Обводка_Top
  10
52.2067
  20
53.3667
  42
0
  0
VERTEX
  8
Обводка_Top
  10
54.0067
  20
53.3667
  42
0
  0
VERTEX
  8
Обводка_Top
  10
54.0067
  20
51.3667
  42
0
  0
VERTEX
  8
Обводка_Top
  10
52.0067
  20
51.3667
  42
0
  0
VERTEX
  8
Обводка_Top
  10
52.0067
  20
53.3667
  42
0
  0
VERTEX
  8
Обводка_Top
  10
52.2067
  20
53.3667
  42
0
  0
SEQEND
  0
POLYLINE
  8
Обводка_Top
  6
CONTINUOUS
  66
1
  70
0
  40
0.9
  41
0.9
  0
VERTEX
  8
Обводка_Top
  10
56.3467
  20
48.4867
  42
0
  0
VERTEX
  8
Обводка_Top
  10
56.7467
  20
48.4867
  42
0
  0
VERTEX
  8
Обводка_Top
  10
56.7467
  20
46.0867
  42
0
  0
VERTEX
  8
Обводка_Top
  10
56.3474
  20
46.0867
  42
0
  0
SEQEND
  0
POLYLINE
  8
Обводка_Top
  6
CONTINUOUS
  66
1
  70
0
  40
0.9
  41
0.9
  0
VERTEX
  8
Обводка_Top
  10
54.7467
  20
46.0867
  42
0
  0
VERTEX
  8
Обводка_Top
  10
54.3467
  20
46.0867
  42
0
  0
VERTEX
  8
Обводка_Top
  10
54.3467
  20
48.4867
  42
0
  0
VERTEX
  8
Обводка_Top
  10
54.7459
  20
48.4867
  42
0
  0
SEQEND
  0
POLYLINE
  8
Обводка_Top
  6
CONTINUOUS
  66
1
  70
0
  40
0.9
  41
0.9
  0
VERTEX
  8
Обводка_Top
  10
52.0067
  20
48.4867
  42
0
  0
VERTEX
  8
Обводка_Top
  10
54.2067
  20
48.4867
  42
0
  0
VERTEX
  8
Обводка_Top
  10
54.2067
  20
46.0867
  42
0
  0
VERTEX
  8
Обводка_Top
  10
51.8067
  20
46.0867
  42
0
  0
VERTEX
  8
Обводка_Top
  10
51.8067
  20
48.4867
  42
0
  0
VERTEX
  8
Обводка_Top
  10
52.0067
  20
48.4867
  42
0
  0
SEQEND
  0
POLYLINE
  8
Обводка_Top
  6
CONTINUOUS
  66
1
  70
0
  40
0.9
  41
0.9
  0
VERTEX
  8
Обводка_Top
  10
14.2399
  20
32.89
  42
0
  0
VERTEX
  8
Обводка_Top
  10
16.4399
  20
32.89
  42
0
  0
VERTEX
  8
Обводка_Top
  10
16.4399
  20
30.49
  42
0
  0
VERTEX
  8
Обводка_Top
  10
14.0399
  20
30.49
  42
0
  0
VERTEX
  8
Обводка_Top
  10
14.0399
  20
32.89
  42
0
  0
VERTEX
  8
Обводка_Top
  10
14.2399
  20
32.89
  42
0
  0
SEQEND
  0
POLYLINE
  8
Обводка_Top
  6
CONTINUOUS
  66
1
  70
0
  40
0.9
  41
0.9
  0
VERTEX
  8
Обводка_Top
  10
16.4402
  20
24.9908
  42
0
  0
VERTEX
  8
Обводка_Top
  10
16.4402
  20
25.39
  42
0
  0
VERTEX
  8
Обводка_Top
  10
14.0402
  20
25.39
  42
0
  0
VERTEX
  8
Обводка_Top
  10
14.0402
  20
24.99
  42
0
  0
SEQEND
  0
POLYLINE
  8
Обводка_Top
  6
CONTINUOUS
  66
1
  70
0
  40
0.9
  41
0.9
  0
VERTEX
  8
Обводка_Top
  10
16.4402
  20
23.39
  42
0
  0
VERTEX
  8
Обводка_Top
  10
16.4402
  20
22.99
  42
0
  0
VERTEX
  8
Обводка_Top
  10
14.0402
  20
22.99
  42
0
  0
VERTEX
  8
Обводка_Top
  10
14.0402
  20
23.3892
  42
0
  0
SEQEND
  0
POLYLINE
  8
Обводка_Top
  6
CONTINUOUS
  66
1
  70
0
  40
0.9
  41
0.9
  0
VERTEX
  8
Обводка_Top
  10
19.3199
  20
32.89
  42
0
  0
VERTEX
  8
Обводка_Top
  10
21.5199
  20
32.89
  42
0
  0
VERTEX
  8
Обводка_Top
  10
21.5199
  20
30.49
  42
0
  0
VERTEX
  8
Обводка_Top
  10
19.1199
  20
30.49
  42
0
  0
VERTEX
  8
Обводка_Top
  10
19.1199
  20
32.89
  42
0
  0
VERTEX
  8
Обводка_Top
  10
19.3199
  20
32.89
  42
0
  0
SEQEND
  0
POLYLINE
  8
Обводка_Top
  6
CONTINUOUS
  66
1
  70
0
  40
0.9
  41
0.9
  0
VERTEX
  8
Обводка_Top
  10
19.1202
  20
23.3892
  42
0
  0
VERTEX
  8
Обводка_Top
  10
19.1202
  20
22.99
  42
0
  0
VERTEX
  8
Обводка_Top
  10
21.5202
  20
22.99
  42
0
  0
VERTEX
  8
Обводка_Top
  10
21.5202
  20
25.39
  42
0
  0
VERTEX
  8
Обводка_Top
  10
19.1202
  20
25.39
  42
0
  0
VERTEX
  8
Обводка_Top
  10
19.1202
  20
24.99
  42
0
  0
SEQEND
  0
POLYLINE
  8
Обводка_Top
  6
CONTINUOUS
  66
1
  70
0
  40
0.9
  41
0.9
  0
VERTEX
  8
Обводка_Top
  10
41.545
  20
25.31
  42
0
  0
VERTEX
  8
Обводка_Top
  10
43.745
  20
25.31
  42
0
  0
VERTEX
  8
Обводка_Top
  10
43.745
  20
22.91
  42
0
  0
VERTEX
  8
Обводка_Top
  10
41.345
  20
22.91
  42
0
  0
VERTEX
  8
Обводка_Top
  10
41.345
  20
25.31
  42
0
  0
VERTEX
  8
Обводка_Top
  10
41.545
  20
25.31
  42
0
  0
SEQEND
  0
POLYLINE
  8
Обводка_Top
  6
CONTINUOUS
  66
1
  70
0
  40
0.9
  41
0.9
  0
VERTEX
  8
Обводка_Top
  10
43.745
  20
22.4108
  42
0
  0
VERTEX
  8
Обводка_Top
  10
43.745
  20
22.81
  42
0
  0
VERTEX
  8
Обводка_Top
  10
41.345
  20
22.81
  42
0
  0
VERTEX
  8
Обводка_Top
  10
41.345
  20
22.41
  42
0
  0
SEQEND
  0
POLYLINE
  8
Обводка_Top
  6
CONTINUOUS
  66
1
  70
0
  40
0.9
  41
0.9
  0
VERTEX
  8
Обводка_Top
  10
43.745
  20
20.81
  42
0
  0
VERTEX
  8
Обводка_Top
  10
43.745
  20
20.41
  42
0
  0
VERTEX
  8
Обводка_Top
  10
41.345
  20
20.41
  42
0
  0
VERTEX
  8
Обводка_Top
  10
41.345
  20
20.8092
  42
0
  0
VERTEX
  8
Обводка_Top
  10
41.545
  20
20.23
  42
0
  0
VERTEX
  8
Обводка_Top
  10
43.745
  20
20.23
  42
0
  0
VERTEX
  8
Обводка_Top
  10
43.745
  20
19.8308
  42
0
  0
SEQEND
  0
POLYLINE
  8
Обводка_Top
  6
CONTINUOUS
  66
1
  70
0
  40
0.9
  41
0.9
  0
VERTEX
  8
Обводка_Top
  10
43.745
  20
18.23
  42
0
  0
VERTEX
  8
Обводка_Top
  10
43.745
  20
17.83
  42
0
  0
VERTEX
  8
Обводка_Top
  10
41.345
  20
17.83
  42
0
  0
VERTEX
  8
Обводка_Top
  10
41.345
  20
18.2292
  42
0
  0
VERTEX
  8
Обводка_Top
  10
41.545
  20
17.73
  42
0
  0
VERTEX
  8
Обводка_Top
  10
43.745
  20
17.73
  42
0
  0
VERTEX
  8
Обводка_Top
  10
43.745
  20
17.7105
  42
0
  0
VERTEX
  8
Обводка_Top
  10
46.03
  20
17.7099
  42
0
  0
VERTEX
  8
Обводка_Top
  10
46.03
  20
15.3099
  42
0
  0
VERTEX
  8
Обводка_Top
  10
43.63
  20
15.3099
  42
0
  0
VERTEX
  8
Обводка_Top
  10
43.63
  20
15.3294
  42
0
  0
VERTEX
  8
Обводка_Top
  10
41.345
  20
15.33
  42
0
  0
VERTEX
  8
Обводка_Top
  10
41.345
  20
17.73
  42
0
  0
VERTEX
  8
Обводка_Top
  10
41.545
  20
17.73
  42
0
  0
SEQEND
  0
POLYLINE
  8
Обводка_Top
  6
CONTINUOUS
  66
1
  70
0
  40
0.9
  41
0.9
  0
VERTEX
  8
Обводка_Top
  10
50.69
  20
17.7101
  42
0
  0
VERTEX
  8
Обводка_Top
  10
52.89
  20
17.7101
  42
0
  0
VERTEX
  8
Обводка_Top
  10
52.89
  20
15.3101
  42
0
  0
VERTEX
  8
Обводка_Top
  10
50.49
  20
15.3101
  42
0
  0
VERTEX
  8
Обводка_Top
  10
50.49
  20
17.7101
  42
0
  0
VERTEX
  8
Обводка_Top
  10
50.69
  20
17.7101
  42
0
  0
SEQEND
  0
POLYLINE
  8
Обводка_Top
  6
CONTINUOUS
  66
1
  70
0
  40
0.9
  41
0.9
  0
VERTEX
  8
Обводка_Top
  10
23.13
  20
45.65
  42
0
  0
VERTEX
  8
Обводка_Top
  10
25.33
  20
45.65
  42
0
  0
VERTEX
  8
Обводка_Top
  10
25.33
  20
43.25
  42
0
  0
VERTEX
  8
Обводка_Top
  10
22.93
  20
43.25
  42
0
  0
VERTEX
  8
Обводка_Top
  10
22.93
  20
45.65
  42
0
  0
VERTEX
  8
Обводка_Top
  10
23.13
  20
45.65
  42
0
  0
SEQEND
  0
POLYLINE
  8
Обводка_Top
  6
CONTINUOUS
  66
1
  70
0
  40
0.9
  41
0.9
  0
VERTEX
  8
Обводка_Top
  10
23.13
  20
43.11
  42
0
  0
VERTEX
  8
Обводка_Top
  10
25.33
  20
43.11
  42
0
  0
VERTEX
  8
Обводка_Top
  10
25.33
  20
40.71
  42
0
  0
VERTEX
  8
Обводка_Top
  10
22.93
  20
40.71
  42
0
  0
VERTEX
  8
Обводка_Top
  10
22.93
  20
43.11
  42
0
  0
VERTEX
  8
Обводка_Top
  10
23.13
  20
43.11
  42
0
  0
SEQEND
  0
POLYLINE
  8
Обводка_Top
  6
CONTINUOUS
  66
1
  70
0
  40
0.9
  41
0.9
  0
VERTEX
  8
Обводка_Top
  10
23.13
  20
40.57
  42
0
  0
VERTEX
  8
Обводка_Top
  10
25.33
  20
40.57
  42
0
  0
VERTEX
  8
Обводка_Top
  10
25.33
  20
38.17
  42
0
  0
VERTEX
  8
Обводка_Top
  10
22.93
  20
38.17
  42
0
  0
VERTEX
  8
Обводка_Top
  10
22.93
  20
40.57
  42
0
  0
VERTEX
  8
Обводка_Top
  10
23.13
  20
40.57
  42
0
  0
SEQEND
  0
POLYLINE
  8
Обводка_Top
  6
CONTINUOUS
  66
1
  70
0
  40
0.9
  41
0.9
  0
VERTEX
  8
Обводка_Top
  10
23.13
  20
38.03
  42
0
  0
VERTEX
  8
Обводка_Top
  10
25.33
  20
38.03
  42
0
  0
VERTEX
  8
Обводка_Top
  10
25.33
  20
35.63
  42
0
  0
VERTEX
  8
Обводка_Top
  10
22.93
  20
35.63
  42
0
  0
VERTEX
  8
Обводка_Top
  10
22.93
  20
38.03
  42
0
  0
VERTEX
  8
Обводка_Top
  10
23.13
  20
38.03
  42
0
  0
SEQEND
  0
POLYLINE
  8
Обводка_Top
  6
CONTINUOUS
  66
1
  70
0
  40
0.9
  41
0.9
  0
VERTEX
  8
Обводка_Top
  10
23.13
  20
35.49
  42
0
  0
VERTEX
  8
Обводка_Top
  10
25.33
  20
35.49
  42
0
  0
VERTEX
  8
Обводка_Top
  10
25.33
  20
33.09
  42
0
  0
VERTEX
  8
Обводка_Top
  10
22.93
  20
33.09
  42
0
  0
VERTEX
  8
Обводка_Top
  10
22.93
  20
35.49
  42
0
  0
VERTEX
  8
Обводка_Top
  10
23.13
  20
35.49
  42
0
  0
SEQEND
  0
POLYLINE
  8
Обводка_Top
  6
CONTINUOUS
  66
1
  70
0
  40
0.9
  41
0.9
  0
VERTEX
  8
Обводка_Top
  10
23.13
  20
32.95
  42
0
  0
VERTEX
  8
Обводка_Top
  10
25.33
  20
32.95
  42
0
  0
VERTEX
  8
Обводка_Top
  10
25.33
  20
30.55
  42
0
  0
VERTEX
  8
Обводка_Top
  10
22.93
  20
30.55
  42
0
  0
VERTEX
  8
Обводка_Top
  10
22.93
  20
32.95
  42
0
  0
VERTEX
  8
Обводка_Top
  10
23.13
  20
32.95
  42
0
  0
SEQEND
  0
POLYLINE
  8
Обводка_Top
  6
CONTINUOUS
  66
1
  70
0
  40
0.9
  41
0.9
  0
VERTEX
  8
Обводка_Top
  10
23.13
  20
30.41
  42
0
  0
VERTEX
  8
Обводка_Top
  10
25.33
  20
30.41
  42
0
  0
VERTEX
  8
Обводка_Top
  10
25.33
  20
28.01
  42
0
  0
VERTEX
  8
Обводка_Top
  10
22.93
  20
28.01
  42
0
  0
VERTEX
  8
Обводка_Top
  10
22.93
  20
30.41
  42
0
  0
VERTEX
  8
Обводка_Top
  10
23.13
  20
30.41
  42
0
  0
SEQEND
  0
POLYLINE
  8
Обводка_Top
  6
CONTINUOUS
  66
1
  70
0
  40
0.9
  41
0.9
  0
VERTEX
  8
Обводка_Top
  10
23.13
  20
27.87
  42
0
  0
VERTEX
  8
Обводка_Top
  10
25.33
  20
27.87
  42
0
  0
VERTEX
  8
Обводка_Top
  10
25.33
  20
25.47
  42
0
  0
VERTEX
  8
Обводка_Top
  10
22.93
  20
25.47
  42
0
  0
VERTEX
  8
Обводка_Top
  10
22.93
  20
27.87
  42
0
  0
VERTEX
  8
Обводка_Top
  10
23.13
  20
27.87
  42
0
  0
SEQEND
  0
POLYLINE
  8
Обводка_Top
  6
CONTINUOUS
  66
1
  70
0
  40
0.9
  41
0.9
  0
VERTEX
  8
Обводка_Top
  10
23.13
  20
25.33
  42
0
  0
VERTEX
  8
Обводка_Top
  10
25.33
  20
25.33
  42
0
  0
VERTEX
  8
Обводка_Top
  10
25.33
  20
22.93
  42
0
  0
VERTEX
  8
Обводка_Top
  10
22.93
  20
22.93
  42
0
  0
VERTEX
  8
Обводка_Top
  10
22.93
  20
25.33
  42
0
  0
VERTEX
  8
Обводка_Top
  10
23.13
  20
25.33
  42
0
  0
SEQEND
  0
POLYLINE
  8
Обводка_Top
  6
CONTINUOUS
  66
1
  70
0
  40
0.9
  41
0.9
  0
VERTEX
  8
Обводка_Top
  10
30.75
  20
25.33
  42
0
  0
VERTEX
  8
Обводка_Top
  10
32.95
  20
25.33
  42
0
  0
VERTEX
  8
Обводка_Top
  10
32.95
  20
22.93
  42
0
  0
VERTEX
  8
Обводка_Top
  10
30.55
  20
22.93
  42
0
  0
VERTEX
  8
Обводка_Top
  10
30.55
  20
25.33
  42
0
  0
VERTEX
  8
Обводка_Top
  10
30.75
  20
25.33
  42
0
  0
SEQEND
  0
POLYLINE
  8
Обводка_Top
  6
CONTINUOUS
  66
1
  70
0
  40
0.9
  41
0.9
  0
VERTEX
  8
Обводка_Top
  10
30.75
  20
27.87
  42
0
  0
VERTEX
  8
Обводка_Top
  10
32.95
  20
27.87
  42
0
  0
VERTEX
  8
Обводка_Top
  10
32.95
  20
25.47
  42
0
  0
VERTEX
  8
Обводка_Top
  10
30.55
  20
25.47
  42
0
  0
VERTEX
  8
Обводка_Top
  10
30.55
  20
27.87
  42
0
  0
VERTEX
  8
Обводка_Top
  10
30.75
  20
27.87
  42
0
  0
SEQEND
  0
POLYLINE
  8
Обводка_Top
  6
CONTINUOUS
  66
1
  70
0
  40
0.9
  41
0.9
  0
VERTEX
  8
Обводка_Top
  10
30.75
  20
30.41
  42
0
  0
VERTEX
  8
Обводка_Top
  10
32.95
  20
30.41
  42
0
  0
VERTEX
  8
Обводка_Top
  10
32.95
  20
28.01
  42
0
  0
VERTEX
  8
Обводка_Top
  10
30.55
  20
28.01
  42
0
  0
VERTEX
  8
Обводка_Top
  10
30.55
  20
30.41
  42
0
  0
VERTEX
  8
Обводка_Top
  10
30.75
  20
30.41
  42
0
  0
SEQEND
  0
POLYLINE
  8
Обводка_Top
  6
CONTINUOUS
  66
1
  70
0
  40
0.9
  41
0.9
  0
VERTEX
  8
Обводка_Top
  10
30.75
  20
32.95
  42
0
  0
VERTEX
  8
Обводка_Top
  10
32.95
  20
32.95
  42
0
  0
VERTEX
  8
Обводка_Top
  10
32.95
  20
30.55
  42
0
  0
VERTEX
  8
Обводка_Top
  10
30.55
  20
30.55
  42
0
  0
VERTEX
  8
Обводка_Top
  10
30.55
  20
32.95
  42
0
  0
VERTEX
  8
Обводка_Top
  10
30.75
  20
32.95
  42
0
  0
SEQEND
  0
POLYLINE
  8
Обводка_Top
  6
CONTINUOUS
  66
1
  70
0
  40
0.9
  41
0.9
  0
VERTEX
  8
Обводка_Top
  10
30.75
  20
35.49
  42
0
  0
VERTEX
  8
Обводка_Top
  10
32.95
  20
35.49
  42
0
  0
VERTEX
  8
Обводка_Top
  10
32.95
  20
33.09
  42
0
  0
VERTEX
  8
Обводка_Top
  10
30.55
  20
33.09
  42
0
  0
VERTEX
  8
Обводка_Top
  10
30.55
  20
35.49
  42
0
  0
VERTEX
  8
Обводка_Top
  10
30.75
  20
35.49
  42
0
  0
SEQEND
  0
POLYLINE
  8
Обводка_Top
  6
CONTINUOUS
  66
1
  70
0
  40
0.9
  41
0.9
  0
VERTEX
  8
Обводка_Top
  10
30.75
  20
38.03
  42
0
  0
VERTEX
  8
Обводка_Top
  10
32.95
  20
38.03
  42
0
  0
VERTEX
  8
Обводка_Top
  10
32.95
  20
35.63
  42
0
  0
VERTEX
  8
Обводка_Top
  10
30.55
  20
35.63
  42
0
  0
VERTEX
  8
Обводка_Top
  10
30.55
  20
38.03
  42
0
  0
VERTEX
  8
Обводка_Top
  10
30.75
  20
38.03
  42
0
  0
SEQEND
  0
POLYLINE
  8
Обводка_Top
  6
CONTINUOUS
  66
1
  70
0
  40
0.9
  41
0.9
  0
VERTEX
  8
Обводка_Top
  10
30.75
  20
40.57
  42
0
  0
VERTEX
  8
Обводка_Top
  10
32.95
  20
40.57
  42
0
  0
VERTEX
  8
Обводка_Top
  10
32.95
  20
38.17
  42
0
  0
VERTEX
  8
Обводка_Top
  10
30.55
  20
38.17
  42
0
  0
VERTEX
  8
Обводка_Top
  10
30.55
  20
40.57
  42
0
  0
VERTEX
  8
Обводка_Top
  10
30.75
  20
40.57
  42
0
  0
SEQEND
  0
POLYLINE
  8
Обводка_Top
  6
CONTINUOUS
  66
1
  70
0
  40
0.9
  41
0.9
  0
VERTEX
  8
Обводка_Top
  10
30.75
  20
43.11
  42
0
  0
VERTEX
  8
Обводка_Top
  10
32.95
  20
43.11
  42
0
  0
VERTEX
  8
Обводка_Top
  10
32.95
  20
40.71
  42
0
  0
VERTEX
  8
Обводка_Top
  10
30.55
  20
40.71
  42
0
  0
VERTEX
  8
Обводка_Top
  10
30.55
  20
43.11
  42
0
  0
VERTEX
  8
Обводка_Top
  10
30.75
  20
43.11
  42
0
  0
SEQEND
  0
POLYLINE
  8
Обводка_Top
  6
CONTINUOUS
  66
1
  70
0
  40
0.9
  41
0.9
  0
VERTEX
  8
Обводка_Top
  10
30.75
  20
45.65
  42
0
  0
VERTEX
  8
Обводка_Top
  10
32.95
  20
45.65
  42
0
  0
VERTEX
  8
Обводка_Top
  10
32.95
  20
43.25
  42
0
  0
VERTEX
  8
Обводка_Top
  10
30.55
  20
43.25
  42
0
  0
VERTEX
  8
Обводка_Top
  10
30.55
  20
45.65
  42
0
  0
VERTEX
  8
Обводка_Top
  10
30.75
  20
45.65
  42
0
  0
SEQEND
  0
POLYLINE
  8
Обводка_Top
  6
CONTINUOUS
  66
1
  70
0
  40
0.9
  41
0.9
  0
VERTEX
  8
Обводка_Top
  10
9.16
  20
50.73
  42
0
  0
VERTEX
  8
Обводка_Top
  10
11.36
  20
50.73
  42
0
  0
VERTEX
  8
Обводка_Top
  10
11.36
  20
48.33
  42
0
  0
VERTEX
  8
Обводка_Top
  10
8.96
  20
48.33
  42
0
  0
VERTEX
  8
Обводка_Top
  10
8.96
  20
50.73
  42
0
  0
VERTEX
  8
Обводка_Top
  10
9.16
  20
50.73
  42
0
  0
SEQEND
  0
POLYLINE
  8
Обводка_Top
  6
CONTINUOUS
  66
1
  70
0
  40
0.9
  41
0.9
  0
VERTEX
  8
Обводка_Top
  10
9.16
  20
53.27
  42
0
  0
VERTEX
  8
Обводка_Top
  10
11.36
  20
53.27
  42
0
  0
VERTEX
  8
Обводка_Top
  10
11.36
  20
50.87
  42
0
  0
VERTEX
  8
Обводка_Top
  10
8.96
  20
50.87
  42
0
  0
VERTEX
  8
Обводка_Top
  10
8.96
  20
53.27
  42
0
  0
VERTEX
  8
Обводка_Top
  10
9.16
  20
53.27
  42
0
  0
SEQEND
  0
POLYLINE
  8
Обводка_Top
  6
CONTINUOUS
  66
1
  70
0
  40
0.9
  41
0.9
  0
VERTEX
  8
Обводка_Top
  10
6.42
  20
52.8699
  42
0
  0
VERTEX
  8
Обводка_Top
  10
6.42
  20
53.2699
  42
0
  0
VERTEX
  8
Обводка_Top
  10
8.82
  20
53.2699
  42
0
  0
VERTEX
  8
Обводка_Top
  10
8.82
  20
50.8699
  42
0
  0
VERTEX
  8
Обводка_Top
  10
6.42
  20
50.8699
  42
0
  0
VERTEX
  8
Обводка_Top
  10
6.42
  20
51.2692
  42
0
  0
VERTEX
  8
Обводка_Top
  10
6.62
  20
50.7299
  42
0
  0
VERTEX
  8
Обводка_Top
  10
8.82
  20
50.7299
  42
0
  0
VERTEX
  8
Обводка_Top
  10
8.82
  20
48.3299
  42
0
  0
VERTEX
  8
Обводка_Top
  10
6.42
  20
48.3299
  42
0
  0
VERTEX
  8
Обводка_Top
  10
6.42
  20
50.7299
  42
0
  0
VERTEX
  8
Обводка_Top
  10
6.62
  20
50.7299
  42
0
  0
SEQEND
  0
POLYLINE
  8
Обводка_Top
  6
CONTINUOUS
  66
1
  70
0
  40
0.9
  41
0.9
  0
VERTEX
  8
Обводка_Top
  10
6.4199
  20
53.8092
  42
0
  0
VERTEX
  8
Обводка_Top
  10
6.4199
  20
53.4099
  42
0
  0
VERTEX
  8
Обводка_Top
  10
8.8199
  20
53.4099
  42
0
  0
VERTEX
  8
Обводка_Top
  10
8.8199
  20
55.8099
  42
0
  0
VERTEX
  8
Обводка_Top
  10
6.4199
  20
55.8099
  42
0
  0
VERTEX
  8
Обводка_Top
  10
6.4199
  20
55.4099
  42
0
  0
SEQEND
  0
POLYLINE
  8
Обводка_Top
  6
CONTINUOUS
  66
1
  70
0
  40
0.9
  41
0.9
  0
VERTEX
  8
Обводка_Top
  10
9.1599
  20
58.35
  42
0
  0
VERTEX
  8
Обводка_Top
  10
11.3599
  20
58.35
  42
0
  0
VERTEX
  8
Обводка_Top
  10
11.3599
  20
55.95
  42
0
  0
VERTEX
  8
Обводка_Top
  10
8.9599
  20
55.95
  42
0
  0
VERTEX
  8
Обводка_Top
  10
8.9599
  20
58.35
  42
0
  0
VERTEX
  8
Обводка_Top
  10
9.1599
  20
58.35
  42
0
  0
SEQEND
  0
POLYLINE
  8
Обводка_Top
  6
CONTINUOUS
  66
1
  70
0
  40
0.9
  41
0.9
  0
VERTEX
  8
Обводка_Top
  10
6.4199
  20
56.3492
  42
0
  0
VERTEX
  8
Обводка_Top
  10
6.4199
  20
55.9499
  42
0
  0
VERTEX
  8
Обводка_Top
  10
8.8199
  20
55.9499
  42
0
  0
VERTEX
  8
Обводка_Top
  10
8.8199
  20
58.3499
  42
0
  0
VERTEX
  8
Обводка_Top
  10
6.4199
  20
58.3499
  42
0
  0
VERTEX
  8
Обводка_Top
  10
6.4199
  20
57.9499
  42
0
  0
SEQEND
  0
POLYLINE
  8
Обводка_Top
  6
CONTINUOUS
  66
1
  70
0
  40
0.9
  41
0.9
  0
VERTEX
  8
Обводка_Top
  10
9.1598
  20
60.89
  42
0
  0
VERTEX
  8
Обводка_Top
  10
11.3598
  20
60.89
  42
0
  0
VERTEX
  8
Обводка_Top
  10
11.3598
  20
58.49
  42
0
  0
VERTEX
  8
Обводка_Top
  10
8.9598
  20
58.49
  42
0
  0
VERTEX
  8
Обводка_Top
  10
8.9598
  20
60.89
  42
0
  0
VERTEX
  8
Обводка_Top
  10
9.1598
  20
60.89
  42
0
  0
SEQEND
  0
POLYLINE
  8
Обводка_Top
  6
CONTINUOUS
  66
1
  70
0
  40
0.9
  41
0.9
  0
VERTEX
  8
Обводка_Top
  10
6.4198
  20
58.8892
  42
0
  0
VERTEX
  8
Обводка_Top
  10
6.4198
  20
58.4899
  42
0
  0
VERTEX
  8
Обводка_Top
  10
8.8198
  20
58.4899
  42
0
  0
VERTEX
  8
Обводка_Top
  10
8.8198
  20
60.8899
  42
0
  0
VERTEX
  8
Обводка_Top
  10
6.4198
  20
60.8899
  42
0
  0
VERTEX
  8
Обводка_Top
  10
6.4198
  20
60.4899
  42
0
  0
SEQEND
  0
POLYLINE
  8
Обводка_Top
  6
CONTINUOUS
  66
1
  70
0
  40
0.9
  41
0.9
  0
VERTEX
  8
Обводка_Top
  10
59.62
  20
12.2308
  42
0
  0
VERTEX
  8
Обводка_Top
  10
59.62
  20
12.63
  42
0
  0
VERTEX
  8
Обводка_Top
  10
57.22
  20
12.63
  42
0
  0
VERTEX
  8
Обводка_Top
  10
57.22
  20
12.23
  42
0
  0
SEQEND
  0
POLYLINE
  8
Обводка_Top
  6
CONTINUOUS
  66
1
  70
0
  40
0.9
  41
0.9
  0
VERTEX
  8
Обводка_Top
  10
59.62
  20
10.63
  42
0
  0
VERTEX
  8
Обводка_Top
  10
59.62
  20
10.23
  42
0
  0
VERTEX
  8
Обводка_Top
  10
57.22
  20
10.23
  42
0
  0
VERTEX
  8
Обводка_Top
  10
57.22
  20
10.6292
  42
0
  0
SEQEND
  0
POLYLINE
  8
Обводка_Top
  6
CONTINUOUS
  66
1
  70
0
  40
0.9
  41
0.9
  0
VERTEX
  8
Обводка_Top
  10
57.4199
  20
17.63
  42
0
  0
VERTEX
  8
Обводка_Top
  10
59.6199
  20
17.63
  42
0
  0
VERTEX
  8
Обводка_Top
  10
59.6199
  20
15.23
  42
0
  0
VERTEX
  8
Обводка_Top
  10
57.2199
  20
15.23
  42
0
  0
VERTEX
  8
Обводка_Top
  10
57.2199
  20
17.63
  42
0
  0
VERTEX
  8
Обводка_Top
  10
57.4199
  20
17.63
  42
0
  0
SEQEND
  0
POLYLINE
  8
Обводка_Top
  6
CONTINUOUS
  66
1
  70
0
  40
0.9
  41
0.9
  0
VERTEX
  8
Обводка_Top
  10
68.51
  20
45.2108
  42
0
  0
VERTEX
  8
Обводка_Top
  10
68.51
  20
45.61
  42
0
  0
VERTEX
  8
Обводка_Top
  10
66.11
  20
45.61
  42
0
  0
VERTEX
  8
Обводка_Top
  10
66.11
  20
45.21
  42
0
  0
SEQEND
  0
POLYLINE
  8
Обводка_Top
  6
CONTINUOUS
  66
1
  70
0
  40
0.9
  41
0.9
  0
VERTEX
  8
Обводка_Top
  10
68.51
  20
43.61
  42
0
  0
VERTEX
  8
Обводка_Top
  10
68.51
  20
43.21
  42
0
  0
VERTEX
  8
Обводка_Top
  10
66.11
  20
43.21
  42
0
  0
VERTEX
  8
Обводка_Top
  10
66.11
  20
43.6092
  42
0
  0
VERTEX
  8
Обводка_Top
  10
66.31
  20
43.11
  42
0
  0
VERTEX
  8
Обводка_Top
  10
68.51
  20
43.11
  42
0
  0
VERTEX
  8
Обводка_Top
  10
68.51
  20
40.71
  42
0
  0
VERTEX
  8
Обводка_Top
  10
66.11
  20
40.71
  42
0
  0
VERTEX
  8
Обводка_Top
  10
66.11
  20
43.11
  42
0
  0
VERTEX
  8
Обводка_Top
  10
66.31
  20
43.11
  42
0
  0
SEQEND
  0
POLYLINE
  8
Обводка_Top
  6
CONTINUOUS
  66
1
  70
0
  40
0.9
  41
0.9
  0
VERTEX
  8
Обводка_Top
  10
66.31
  20
48.11
  42
0
  0
VERTEX
  8
Обводка_Top
  10
68.51
  20
48.11
  42
0
  0
VERTEX
  8
Обводка_Top
  10
68.51
  20
45.71
  42
0
  0
VERTEX
  8
Обводка_Top
  10
66.11
  20
45.71
  42
0
  0
VERTEX
  8
Обводка_Top
  10
66.11
  20
48.11
  42
0
  0
VERTEX
  8
Обводка_Top
  10
66.31
  20
48.11
  42
0
  0
SEQEND
  0
POLYLINE
  8
Обводка_Top
  6
CONTINUOUS
  66
1
  70
0
  40
0.9
  41
0.9
  0
VERTEX
  8
Обводка_Top
  10
66.31
  20
50.61
  42
0
  0
VERTEX
  8
Обводка_Top
  10
68.51
  20
50.61
  42
0
  0
VERTEX
  8
Обводка_Top
  10
68.51
  20
48.21
  42
0
  0
VERTEX
  8
Обводка_Top
  10
66.11
  20
48.21
  42
0
  0
VERTEX
  8
Обводка_Top
  10
66.11
  20
50.61
  42
0
  0
VERTEX
  8
Обводка_Top
  10
66.31
  20
50.61
  42
0
  0
SEQEND
  0
POLYLINE
  8
Обводка_Top
  6
CONTINUOUS
  66
1
  70
0
  40
0.9
  41
0.9
  0
VERTEX
  8
Обводка_Top
  10
66.31
  20
53.11
  42
0
  0
VERTEX
  8
Обводка_Top
  10
68.51
  20
53.11
  42
0
  0
VERTEX
  8
Обводка_Top
  10
68.51
  20
50.71
  42
0
  0
VERTEX
  8
Обводка_Top
  10
66.11
  20
50.71
  42
0
  0
VERTEX
  8
Обводка_Top
  10
66.11
  20
53.11
  42
0
  0
VERTEX
  8
Обводка_Top
  10
66.31
  20
53.11
  42
0
  0
SEQEND
  0
POLYLINE
  8
Обводка_Top
  6
CONTINUOUS
  66
1
  70
0
  40
0.9
  41
0.9
  0
VERTEX
  8
Обводка_Top
  10
66.31
  20
55.61
  42
0
  0
VERTEX
  8
Обводка_Top
  10
68.51
  20
55.61
  42
0
  0
VERTEX
  8
Обводка_Top
  10
68.51
  20
53.21
  42
0
  0
VERTEX
  8
Обводка_Top
  10
66.11
  20
53.21
  42
0
  0
VERTEX
  8
Обводка_Top
  10
66.11
  20
55.61
  42
0
  0
VERTEX
  8
Обводка_Top
  10
66.31
  20
55.61
  42
0
  0
SEQEND
  0
POLYLINE
  8
Обводка_Top
  6
CONTINUOUS
  66
1
  70
0
  40
0.9
  41
0.9
  0
VERTEX
  8
Обводка_Top
  10
66.31
  20
58.11
  42
0
  0
VERTEX
  8
Обводка_Top
  10
68.51
  20
58.11
  42
0
  0
VERTEX
  8
Обводка_Top
  10
68.51
  20
55.71
  42
0
  0
VERTEX
  8
Обводка_Top
  10
66.11
  20
55.71
  42
0
  0
VERTEX
  8
Обводка_Top
  10
66.11
  20
58.11
  42
0
  0
VERTEX
  8
Обводка_Top
  10
66.31
  20
58.11
  42
0
  0
SEQEND
  0
POLYLINE
  8
Обводка_Top
  6
CONTINUOUS
  66
1
  70
0
  40
0.9
  41
0.9
  0
VERTEX
  8
Обводка_Top
  10
66.31
  20
60.61
  42
0
  0
VERTEX
  8
Обводка_Top
  10
68.51
  20
60.61
  42
0
  0
VERTEX
  8
Обводка_Top
  10
68.51
  20
58.21
  42
0
  0
VERTEX
  8
Обводка_Top
  10
66.11
  20
58.21
  42
0
  0
VERTEX
  8
Обводка_Top
  10
66.11
  20
60.61
  42
0
  0
VERTEX
  8
Обводка_Top
  10
66.31
  20
60.61
  42
0
  0
SEQEND
  0
POLYLINE
  8
Обводка_Top
  6
CONTINUOUS
  66
1
  70
0
  40
0.9
  41
0.9
  0
VERTEX
  8
Обводка_Top
  10
9.16
  20
32.95
  42
0
  0
VERTEX
  8
Обводка_Top
  10
11.36
  20
32.95
  42
0
  0
VERTEX
  8
Обводка_Top
  10
11.36
  20
30.55
  42
0
  0
VERTEX
  8
Обводка_Top
  10
8.96
  20
30.55
  42
0
  0
VERTEX
  8
Обводка_Top
  10
8.96
  20
32.95
  42
0
  0
VERTEX
  8
Обводка_Top
  10
9.16
  20
32.95
  42
0
  0
SEQEND
  0
POLYLINE
  8
Обводка_Top
  6
CONTINUOUS
  66
1
  70
0
  40
0.9
  41
0.9
  0
VERTEX
  8
Обводка_Top
  10
6.62
  20
32.95
  42
0
  0
VERTEX
  8
Обводка_Top
  10
8.82
  20
32.95
  42
0
  0
VERTEX
  8
Обводка_Top
  10
8.82
  20
30.55
  42
0
  0
VERTEX
  8
Обводка_Top
  10
6.42
  20
30.55
  42
0
  0
VERTEX
  8
Обводка_Top
  10
6.42
  20
32.95
  42
0
  0
VERTEX
  8
Обводка_Top
  10
6.62
  20
32.95
  42
0
  0
SEQEND
  0
POLYLINE
  8
Обводка_Top
  6
CONTINUOUS
  66
1
  70
0
  40
0.9
  41
0.9
  0
VERTEX
  8
Обводка_Top
  10
9.16
  20
35.49
  42
0
  0
VERTEX
  8
Обводка_Top
  10
11.36
  20
35.49
  42
0
  0
VERTEX
  8
Обводка_Top
  10
11.36
  20
33.09
  42
0
  0
VERTEX
  8
Обводка_Top
  10
8.96
  20
33.09
  42
0
  0
VERTEX
  8
Обводка_Top
  10
8.96
  20
35.49
  42
0
  0
VERTEX
  8
Обводка_Top
  10
9.16
  20
35.49
  42
0
  0
SEQEND
  0
POLYLINE
  8
Обводка_Top
  6
CONTINUOUS
  66
1
  70
0
  40
0.9
  41
0.9
  0
VERTEX
  8
Обводка_Top
  10
6.62
  20
35.49
  42
0
  0
VERTEX
  8
Обводка_Top
  10
8.82
  20
35.49
  42
0
  0
VERTEX
  8
Обводка_Top
  10
8.82
  20
33.09
  42
0
  0
VERTEX
  8
Обводка_Top
  10
6.42
  20
33.09
  42
0
  0
VERTEX
  8
Обводка_Top
  10
6.42
  20
35.49
  42
0
  0
VERTEX
  8
Обводка_Top
  10
6.62
  20
35.49
  42
0
  0
SEQEND
  0
POLYLINE
  8
Обводка_Top
  6
CONTINUOUS
  66
1
  70
0
  40
0.9
  41
0.9
  0
VERTEX
  8
Обводка_Top
  10
9.16
  20
38.03
  42
0
  0
VERTEX
  8
Обводка_Top
  10
11.36
  20
38.03
  42
0
  0
VERTEX
  8
Обводка_Top
  10
11.36
  20
35.63
  42
0
  0
VERTEX
  8
Обводка_Top
  10
8.96
  20
35.63
  42
0
  0
VERTEX
  8
Обводка_Top
  10
8.96
  20
38.03
  42
0
  0
VERTEX
  8
Обводка_Top
  10
9.16
  20
38.03
  42
0
  0
SEQEND
  0
POLYLINE
  8
Обводка_Top
  6
CONTINUOUS
  66
1
  70
0
  40
0.9
  41
0.9
  0
VERTEX
  8
Обводка_Top
  10
6.62
  20
38.03
  42
0
  0
VERTEX
  8
Обводка_Top
  10
8.82
  20
38.03
  42
0
  0
VERTEX
  8
Обводка_Top
  10
8.82
  20
35.63
  42
0
  0
VERTEX
  8
Обводка_Top
  10
6.42
  20
35.63
  42
0
  0
VERTEX
  8
Обводка_Top
  10
6.42
  20
38.03
  42
0
  0
VERTEX
  8
Обводка_Top
  10
6.62
  20
38.03
  42
0
  0
SEQEND
  0
POLYLINE
  8
Обводка_Top
  6
CONTINUOUS
  66
1
  70
0
  40
0.9
  41
0.9
  0
VERTEX
  8
Обводка_Top
  10
9.16
  20
40.57
  42
0
  0
VERTEX
  8
Обводка_Top
  10
11.36
  20
40.57
  42
0
  0
VERTEX
  8
Обводка_Top
  10
11.36
  20
38.17
  42
0
  0
VERTEX
  8
Обводка_Top
  10
8.96
  20
38.17
  42
0
  0
VERTEX
  8
Обводка_Top
  10
8.96
  20
40.57
  42
0
  0
VERTEX
  8
Обводка_Top
  10
9.16
  20
40.57
  42
0
  0
SEQEND
  0
POLYLINE
  8
Обводка_Top
  6
CONTINUOUS
  66
1
  70
0
  40
0.9
  41
0.9
  0
VERTEX
  8
Обводка_Top
  10
6.62
  20
40.57
  42
0
  0
VERTEX
  8
Обводка_Top
  10
8.82
  20
40.57
  42
0
  0
VERTEX
  8
Обводка_Top
  10
8.82
  20
38.17
  42
0
  0
VERTEX
  8
Обводка_Top
  10
6.42
  20
38.17
  42
0
  0
VERTEX
  8
Обводка_Top
  10
6.42
  20
40.57
  42
0
  0
VERTEX
  8
Обводка_Top
  10
6.62
  20
40.57
  42
0
  0
SEQEND
  0
POLYLINE
  8
Обводка_Top
  6
CONTINUOUS
  66
1
  70
0
  40
0.9
  41
0.9
  0
VERTEX
  8
Обводка_Top
  10
44.72
  20
25.33
  42
0
  0
VERTEX
  8
Обводка_Top
  10
46.92
  20
25.33
  42
0
  0
VERTEX
  8
Обводка_Top
  10
46.92
  20
22.93
  42
0
  0
VERTEX
  8
Обводка_Top
  10
44.52
  20
22.93
  42
0
  0
VERTEX
  8
Обводка_Top
  10
44.52
  20
25.33
  42
0
  0
VERTEX
  8
Обводка_Top
  10
44.72
  20
25.33
  42
0
  0
SEQEND
  0
POLYLINE
  8
Обводка_Top
  6
CONTINUOUS
  66
1
  70
0
  40
0.9
  41
0.9
  0
VERTEX
  8
Обводка_Top
  10
57.42
  20
25.33
  42
0
  0
VERTEX
  8
Обводка_Top
  10
59.62
  20
25.33
  42
0
  0
VERTEX
  8
Обводка_Top
  10
59.62
  20
22.93
  42
0
  0
VERTEX
  8
Обводка_Top
  10
57.22
  20
22.93
  42
0
  0
VERTEX
  8
Обводка_Top
  10
57.22
  20
25.33
  42
0
  0
VERTEX
  8
Обводка_Top
  10
57.42
  20
25.33
  42
0
  0
SEQEND
  0
POLYLINE
  8
Обводка_Top
  6
CONTINUOUS
  66
1
  70
0
  40
0.9
  41
0.9
  0
VERTEX
  8
Обводка_Top
  10
61.23
  20
25.33
  42
0
  0
VERTEX
  8
Обводка_Top
  10
63.43
  20
25.33
  42
0
  0
VERTEX
  8
Обводка_Top
  10
63.43
  20
22.93
  42
0
  0
VERTEX
  8
Обводка_Top
  10
61.03
  20
22.93
  42
0
  0
VERTEX
  8
Обводка_Top
  10
61.03
  20
25.33
  42
0
  0
VERTEX
  8
Обводка_Top
  10
61.23
  20
25.33
  42
0
  0
SEQEND
  0
POLYLINE
  8
Обводка_Top
  6
CONTINUOUS
  66
1
  70
0
  40
0.9
  41
0.9
  0
VERTEX
  8
Обводка_Top
  10
63.4299
  20
29.9308
  42
0
  0
VERTEX
  8
Обводка_Top
  10
63.4299
  20
30.33
  42
0
  0
VERTEX
  8
Обводка_Top
  10
61.0299
  20
30.33
  42
0
  0
VERTEX
  8
Обводка_Top
  10
61.0299
  20
29.93
  42
0
  0
SEQEND
  0
POLYLINE
  8
Обводка_Top
  6
CONTINUOUS
  66
1
  70
0
  40
0.9
  41
0.9
  0
VERTEX
  8
Обводка_Top
  10
63.4299
  20
28.33
  42
0
  0
VERTEX
  8
Обводка_Top
  10
63.4299
  20
27.93
  42
0
  0
VERTEX
  8
Обводка_Top
  10
61.0299
  20
27.93
  42
0
  0
VERTEX
  8
Обводка_Top
  10
61.0299
  20
28.3292
  42
0
  0
VERTEX
  8
Обводка_Top
  10
61.2299
  20
27.83
  42
0
  0
VERTEX
  8
Обводка_Top
  10
63.4299
  20
27.83
  42
0
  0
VERTEX
  8
Обводка_Top
  10
63.4299
  20
25.43
  42
0
  0
VERTEX
  8
Обводка_Top
  10
61.0299
  20
25.43
  42
0
  0
VERTEX
  8
Обводка_Top
  10
61.0299
  20
27.83
  42
0
  0
VERTEX
  8
Обводка_Top
  10
61.2299
  20
27.83
  42
0
  0
SEQEND
  0
POLYLINE
  8
Обводка_Top
  6
CONTINUOUS
  66
1
  70
0
  40
0.9
  41
0.9
  0
VERTEX
  8
Обводка_Top
  10
61.2299
  20
32.83
  42
0
  0
VERTEX
  8
Обводка_Top
  10
63.4299
  20
32.83
  42
0
  0
VERTEX
  8
Обводка_Top
  10
63.4299
  20
30.43
  42
0
  0
VERTEX
  8
Обводка_Top
  10
61.0299
  20
30.43
  42
0
  0
VERTEX
  8
Обводка_Top
  10
61.0299
  20
32.83
  42
0
  0
VERTEX
  8
Обводка_Top
  10
61.2299
  20
32.83
  42
0
  0
SEQEND
  0
POLYLINE
  8
Обводка_Top
  6
CONTINUOUS
  66
1
  70
0
  40
0.9
  41
0.9
  0
VERTEX
  8
Обводка_Top
  10
61.2298
  20
35.33
  42
0
  0
VERTEX
  8
Обводка_Top
  10
63.4298
  20
35.33
  42
0
  0
VERTEX
  8
Обводка_Top
  10
63.4298
  20
32.93
  42
0
  0
VERTEX
  8
Обводка_Top
  10
61.0298
  20
32.93
  42
0
  0
VERTEX
  8
Обводка_Top
  10
61.0298
  20
35.33
  42
0
  0
VERTEX
  8
Обводка_Top
  10
61.2298
  20
35.33
  42
0
  0
SEQEND
  0
POLYLINE
  8
Обводка_Top
  6
CONTINUOUS
  66
1
  70
0
  40
0.9
  41
0.9
  0
VERTEX
  8
Обводка_Top
  10
25.67
  20
50.73
  42
0
  0
VERTEX
  8
Обводка_Top
  10
27.87
  20
50.73
  42
0
  0
VERTEX
  8
Обводка_Top
  10
27.87
  20
48.33
  42
0
  0
VERTEX
  8
Обводка_Top
  10
25.47
  20
48.33
  42
0
  0
VERTEX
  8
Обводка_Top
  10
25.47
  20
50.73
  42
0
  0
VERTEX
  8
Обводка_Top
  10
25.67
  20
50.73
  42
0
  0
SEQEND
  0
POLYLINE
  8
Обводка_Top
  6
CONTINUOUS
  66
1
  70
0
  40
0.9
  41
0.9
  0
VERTEX
  8
Обводка_Top
  10
27.8696
  20
63.0308
  42
0
  0
VERTEX
  8
Обводка_Top
  10
27.8696
  20
63.43
  42
0
  0
VERTEX
  8
Обводка_Top
  10
25.4696
  20
63.43
  42
0
  0
VERTEX
  8
Обводка_Top
  10
25.4696
  20
63.03
  42
0
  0
SEQEND
  0
POLYLINE
  8
Обводка_Top
  6
CONTINUOUS
  66
1
  70
0
  40
0.9
  41
0.9
  0
VERTEX
  8
Обводка_Top
  10
27.8696
  20
61.43
  42
0
  0
VERTEX
  8
Обводка_Top
  10
27.8696
  20
61.03
  42
0
  0
VERTEX
  8
Обводка_Top
  10
25.4696
  20
61.03
  42
0
  0
VERTEX
  8
Обводка_Top
  10
25.4696
  20
61.4292
  42
0
  0
VERTEX
  8
Обводка_Top
  10
25.6697
  20
60.89
  42
0
  0
VERTEX
  8
Обводка_Top
  10
27.8697
  20
60.89
  42
0
  0
VERTEX
  8
Обводка_Top
  10
27.8697
  20
58.49
  42
0
  0
VERTEX
  8
Обводка_Top
  10
25.4697
  20
58.49
  42
0
  0
VERTEX
  8
Обводка_Top
  10
25.4697
  20
60.89
  42
0
  0
VERTEX
  8
Обводка_Top
  10
25.6697
  20
60.89
  42
0
  0
SEQEND
  0
POLYLINE
  8
Обводка_Top
  6
CONTINUOUS
  66
1
  70
0
  40
0.9
  41
0.9
  0
VERTEX
  8
Обводка_Top
  10
44.8074
  20
30.4101
  42
0
  0
VERTEX
  8
Обводка_Top
  10
46.99
  20
30.41
  42
0
  0
VERTEX
  8
Обводка_Top
  10
47.1777
  20
30.3952
  42
0
  0
VERTEX
  8
Обводка_Top
  10
47.3608
  20
30.3513
  42
0
  0
VERTEX
  8
Обводка_Top
  10
47.5348
  20
30.2792
  42
0
  0
VERTEX
  8
Обводка_Top
  10
47.6953
  20
30.1808
  42
0
  0
VERTEX
  8
Обводка_Top
  10
47.8385
  20
30.0585
  42
0
  0
VERTEX
  8
Обводка_Top
  10
47.9608
  20
29.9153
  42
0
  0
VERTEX
  8
Обводка_Top
  10
48.0592
  20
29.7548
  42
0
  0
VERTEX
  8
Обводка_Top
  10
48.1313
  20
29.5808
  42
0
  0
VERTEX
  8
Обводка_Top
  10
48.1752
  20
29.3977
  42
0
  0
VERTEX
  8
Обводка_Top
  10
48.19
  20
29.21
  42
0
  0
VERTEX
  8
Обводка_Top
  10
48.1752
  20
29.0223
  42
0
  0
VERTEX
  8
Обводка_Top
  10
48.1313
  20
28.8392
  42
0
  0
VERTEX
  8
Обводка_Top
  10
48.0592
  20
28.6652
  42
0
  0
VERTEX
  8
Обводка_Top
  10
47.9608
  20
28.5047
  42
0
  0
VERTEX
  8
Обводка_Top
  10
47.8385
  20
28.3615
  42
0
  0
VERTEX
  8
Обводка_Top
  10
47.6953
  20
28.2392
  42
0
  0
VERTEX
  8
Обводка_Top
  10
47.5348
  20
28.1408
  42
0
  0
VERTEX
  8
Обводка_Top
  10
47.3608
  20
28.0687
  42
0
  0
VERTEX
  8
Обводка_Top
  10
47.1777
  20
28.0248
  42
0
  0
VERTEX
  8
Обводка_Top
  10
46.99
  20
28.01
  42
0
  0
VERTEX
  8
Обводка_Top
  10
42.407
  20
28.0101
  42
0
  0
VERTEX
  8
Обводка_Top
  10
33.8685
  20
19.4715
  42
0
  0
VERTEX
  8
Обводка_Top
  10
33.7253
  20
19.3492
  42
0
  0
VERTEX
  8
Обводка_Top
  10
33.5648
  20
19.2508
  42
0
  0
VERTEX
  8
Обводка_Top
  10
33.3908
  20
19.1787
  42
0
  0
VERTEX
  8
Обводка_Top
  10
33.2077
  20
19.1348
  42
0
  0
VERTEX
  8
Обводка_Top
  10
33.0193
  20
19.1201
  42
0
  0
VERTEX
  8
Обводка_Top
  10
29.21
  20
19.12
  42
0
  0
VERTEX
  8
Обводка_Top
  10
29.0223
  20
19.1348
  42
0
  0
VERTEX
  8
Обводка_Top
  10
28.8392
  20
19.1787
  42
0
  0
VERTEX
  8
Обводка_Top
  10
28.6652
  20
19.2508
  42
0
  0
VERTEX
  8
Обводка_Top
  10
28.5047
  20
19.3492
  42
0
  0
VERTEX
  8
Обводка_Top
  10
28.361
  20
19.472
  42
0
  0
VERTEX
  8
Обводка_Top
  10
27.0915
  20
20.7415
  42
0
  0
VERTEX
  8
Обводка_Top
  10
26.9692
  20
20.8847
  42
0
  0
VERTEX
  8
Обводка_Top
  10
26.8708
  20
21.0452
  42
0
  0
VERTEX
  8
Обводка_Top
  10
26.7987
  20
21.2192
  42
0
  0
VERTEX
  8
Обводка_Top
  10
26.7548
  20
21.4023
  42
0
  0
VERTEX
  8
Обводка_Top
  10
26.7401
  20
21.5907
  42
0
  0
VERTEX
  8
Обводка_Top
  10
26.74
  20
45.2229
  42
0
  0
VERTEX
  8
Обводка_Top
  10
26.1728
  20
45.7901
  42
0
  0
VERTEX
  8
Обводка_Top
  10
24.13
  20
45.79
  42
0
  0
VERTEX
  8
Обводка_Top
  10
23.9423
  20
45.8048
  42
0
  0
VERTEX
  8
Обводка_Top
  10
23.7592
  20
45.8487
  42
0
  0
VERTEX
  8
Обводка_Top
  10
23.5852
  20
45.9208
  42
0
  0
VERTEX
  8
Обводка_Top
  10
23.4247
  20
46.0192
  42
0
  0
VERTEX
  8
Обводка_Top
  10
23.281
  20
46.142
  42
0
  0
VERTEX
  8
Обводка_Top
  10
16.0124
  20
53.4105
  42
0
  0
VERTEX
  8
Обводка_Top
  10
8.9599
  20
53.41
  42
0
  0
VERTEX
  8
Обводка_Top
  10
8.9599
  20
55.81
  42
0
  0
VERTEX
  8
Обводка_Top
  10
16.51
  20
55.81
  42
0
  0
VERTEX
  8
Обводка_Top
  10
16.6977
  20
55.7952
  42
0
  0
VERTEX
  8
Обводка_Top
  10
16.8808
  20
55.7513
  42
0
  0
VERTEX
  8
Обводка_Top
  10
17.0548
  20
55.6792
  42
0
  0
VERTEX
  8
Обводка_Top
  10
17.2153
  20
55.5808
  42
0
  0
VERTEX
  8
Обводка_Top
  10
17.3585
  20
55.4585
  42
0
  0
VERTEX
  8
Обводка_Top
  10
24.6276
  20
48.1895
  42
0
  0
VERTEX
  8
Обводка_Top
  10
26.67
  20
48.19
  42
0
  0
VERTEX
  8
Обводка_Top
  10
26.8577
  20
48.1752
  42
0
  0
VERTEX
  8
Обводка_Top
  10
27.0408
  20
48.1313
  42
0
  0
VERTEX
  8
Обводка_Top
  10
27.2148
  20
48.0592
  42
0
  0
VERTEX
  8
Обводка_Top
  10
27.3753
  20
47.9608
  42
0
  0
VERTEX
  8
Обводка_Top
  10
27.519
  20
47.838
  42
0
  0
VERTEX
  8
Обводка_Top
  10
28.7885
  20
46.5685
  42
0
  0
VERTEX
  8
Обводка_Top
  10
28.9108
  20
46.4253
  42
0
  0
VERTEX
  8
Обводка_Top
  10
29.0092
  20
46.2648
  42
0
  0
VERTEX
  8
Обводка_Top
  10
29.0813
  20
46.0908
  42
0
  0
VERTEX
  8
Обводка_Top
  10
29.1252
  20
45.9077
  42
0
  0
VERTEX
  8
Обводка_Top
  10
29.14
  20
45.72
  42
0
  0
VERTEX
  8
Обводка_Top
  10
29.14
  20
22.0871
  42
0
  0
VERTEX
  8
Обводка_Top
  10
29.7072
  20
21.5199
  42
0
  0
VERTEX
  8
Обводка_Top
  10
32.5232
  20
21.52
  42
0
  0
VERTEX
  8
Обводка_Top
  10
41.0615
  20
30.0586
  42
0
  0
VERTEX
  8
Обводка_Top
  10
41.2047
  20
30.1809
  42
0
  0
VERTEX
  8
Обводка_Top
  10
41.3653
  20
30.2793
  42
0
  0
VERTEX
  8
Обводка_Top
  10
41.5392
  20
30.3513
  42
0
  0
VERTEX
  8
Обводка_Top
  10
41.7223
  20
30.3953
  42
0
  0
VERTEX
  8
Обводка_Top
  10
41.9101
  20
30.4101
  42
0
  0
VERTEX
  8
Обводка_Top
  10
44.8042
  20
30.41
  42
0
  0
VERTEX
  8
Обводка_Top
  10
44.8074
  20
30.4101
  42
0
  0
SEQEND
  0
POLYLINE
  8
Обводка_Top
  6
CONTINUOUS
  66
1
  70
0
  40
0.9
  41
0.9
  0
VERTEX
  8
Обводка_Top
  10
43.8035
  20
32.9501
  42
0
  0
VERTEX
  8
Обводка_Top
  10
46.0035
  20
32.9501
  42
0
  0
VERTEX
  8
Обводка_Top
  10
46.0035
  20
30.5501
  42
0
  0
VERTEX
  8
Обводка_Top
  10
43.6035
  20
30.5501
  42
0
  0
VERTEX
  8
Обводка_Top
  10
43.6035
  20
32.9501
  42
0
  0
VERTEX
  8
Обводка_Top
  10
43.8035
  20
32.9501
  42
0
  0
SEQEND
  0
POLYLINE
  8
Обводка_Top
  6
CONTINUOUS
  66
1
  70
0
  40
0.9
  41
0.9
  0
VERTEX
  8
Обводка_Top
  10
43.8035
  20
35.4901
  42
0
  0
VERTEX
  8
Обводка_Top
  10
46.0035
  20
35.4901
  42
0
  0
VERTEX
  8
Обводка_Top
  10
46.0035
  20
33.0901
  42
0
  0
VERTEX
  8
Обводка_Top
  10
43.6035
  20
33.0901
  42
0
  0
VERTEX
  8
Обводка_Top
  10
43.6035
  20
35.4901
  42
0
  0
VERTEX
  8
Обводка_Top
  10
43.8035
  20
35.4901
  42
0
  0
SEQEND
  0
POLYLINE
  8
Обводка_Top
  6
CONTINUOUS
  66
1
  70
0
  40
0.9
  41
0.9
  0
VERTEX
  8
Обводка_Top
  10
43.8035
  20
38.0301
  42
0
  0
VERTEX
  8
Обводка_Top
  10
46.0035
  20
38.0301
  42
0
  0
VERTEX
  8
Обводка_Top
  10
46.0035
  20
35.6301
  42
0
  0
VERTEX
  8
Обводка_Top
  10
43.6035
  20
35.6301
  42
0
  0
VERTEX
  8
Обводка_Top
  10
43.6035
  20
38.0301
  42
0
  0
VERTEX
  8
Обводка_Top
  10
43.8035
  20
38.0301
  42
0
  0
SEQEND
  0
POLYLINE
  8
Обводка_Top
  6
CONTINUOUS
  66
1
  70
0
  40
0.9
  41
0.9
  0
VERTEX
  8
Обводка_Top
  10
43.8035
  20
40.5701
  42
0
  0
VERTEX
  8
Обводка_Top
  10
46.0035
  20
40.5701
  42
0
  0
VERTEX
  8
Обводка_Top
  10
46.0035
  20
38.1701
  42
0
  0
VERTEX
  8
Обводка_Top
  10
43.6035
  20
38.1701
  42
0
  0
VERTEX
  8
Обводка_Top
  10
43.6035
  20
40.5701
  42
0
  0
VERTEX
  8
Обводка_Top
  10
43.8035
  20
40.5701
  42
0
  0
SEQEND
  0
POLYLINE
  8
Обводка_Top
  6
CONTINUOUS
  66
1
  70
0
  40
0.9
  41
0.9
  0
VERTEX
  8
Обводка_Top
  10
43.8035
  20
43.1101
  42
0
  0
VERTEX
  8
Обводка_Top
  10
46.0035
  20
43.1101
  42
0
  0
VERTEX
  8
Обводка_Top
  10
46.0035
  20
40.7101
  42
0
  0
VERTEX
  8
Обводка_Top
  10
43.6035
  20
40.7101
  42
0
  0
VERTEX
  8
Обводка_Top
  10
43.6035
  20
43.1101
  42
0
  0
VERTEX
  8
Обводка_Top
  10
43.8035
  20
43.1101
  42
0
  0
SEQEND
  0
POLYLINE
  8
Обводка_Top
  6
CONTINUOUS
  66
1
  70
0
  40
0.9
  41
0.9
  0
VERTEX
  8
Обводка_Top
  10
43.8035
  20
45.6501
  42
0
  0
VERTEX
  8
Обводка_Top
  10
46.0035
  20
45.6501
  42
0
  0
VERTEX
  8
Обводка_Top
  10
46.0035
  20
43.2501
  42
0
  0
VERTEX
  8
Обводка_Top
  10
43.6035
  20
43.2501
  42
0
  0
VERTEX
  8
Обводка_Top
  10
43.6035
  20
45.6501
  42
0
  0
VERTEX
  8
Обводка_Top
  10
43.8035
  20
45.6501
  42
0
  0
SEQEND
  0
POLYLINE
  8
Обводка_Top
  6
CONTINUOUS
  66
1
  70
0
  40
0.9
  41
0.9
  0
VERTEX
  8
Обводка_Top
  10
43.8035
  20
50.7301
  42
0
  0
VERTEX
  8
Обводка_Top
  10
46.0035
  20
50.7301
  42
0
  0
VERTEX
  8
Обводка_Top
  10
46.0035
  20
48.3301
  42
0
  0
VERTEX
  8
Обводка_Top
  10
43.6035
  20
48.3301
  42
0
  0
VERTEX
  8
Обводка_Top
  10
43.6035
  20
50.7301
  42
0
  0
VERTEX
  8
Обводка_Top
  10
43.8035
  20
50.7301
  42
0
  0
SEQEND
  0
POLYLINE
  8
Обводка_Top
  6
CONTINUOUS
  66
1
  70
0
  40
0.9
  41
0.9
  0
VERTEX
  8
Обводка_Top
  10
43.8035
  20
53.2701
  42
0
  0
VERTEX
  8
Обводка_Top
  10
46.0035
  20
53.2701
  42
0
  0
VERTEX
  8
Обводка_Top
  10
46.0035
  20
50.8701
  42
0
  0
VERTEX
  8
Обводка_Top
  10
43.6035
  20
50.8701
  42
0
  0
VERTEX
  8
Обводка_Top
  10
43.6035
  20
53.2701
  42
0
  0
VERTEX
  8
Обводка_Top
  10
43.8035
  20
53.2701
  42
0
  0
SEQEND
  0
POLYLINE
  8
Обводка_Top
  6
CONTINUOUS
  66
1
  70
0
  40
0.9
  41
0.9
  0
VERTEX
  8
Обводка_Top
  10
43.8035
  20
55.8101
  42
0
  0
VERTEX
  8
Обводка_Top
  10
46.0035
  20
55.8101
  42
0
  0
VERTEX
  8
Обводка_Top
  10
46.0035
  20
53.4101
  42
0
  0
VERTEX
  8
Обводка_Top
  10
43.6035
  20
53.4101
  42
0
  0
VERTEX
  8
Обводка_Top
  10
43.6035
  20
55.8101
  42
0
  0
VERTEX
  8
Обводка_Top
  10
43.8035
  20
55.8101
  42
0
  0
SEQEND
  0
POLYLINE
  8
Обводка_Top
  6
CONTINUOUS
  66
1
  70
0
  40
0.9
  41
0.9
  0
VERTEX
  8
Обводка_Top
  10
43.8035
  20
58.3501
  42
0
  0
VERTEX
  8
Обводка_Top
  10
46.0035
  20
58.3501
  42
0
  0
VERTEX
  8
Обводка_Top
  10
46.0035
  20
55.9501
  42
0
  0
VERTEX
  8
Обводка_Top
  10
43.6035
  20
55.9501
  42
0
  0
VERTEX
  8
Обводка_Top
  10
43.6035
  20
58.3501
  42
0
  0
VERTEX
  8
Обводка_Top
  10
43.8035
  20
58.3501
  42
0
  0
SEQEND
  0
POLYLINE
  8
Обводка_Top
  6
CONTINUOUS
  66
1
  70
0
  40
0.9
  41
0.9
  0
VERTEX
  8
Обводка_Top
  10
43.8035
  20
60.8901
  42
0
  0
VERTEX
  8
Обводка_Top
  10
46.0035
  20
60.8901
  42
0
  0
VERTEX
  8
Обводка_Top
  10
46.0035
  20
58.4901
  42
0
  0
VERTEX
  8
Обводка_Top
  10
43.6035
  20
58.4901
  42
0
  0
VERTEX
  8
Обводка_Top
  10
43.6035
  20
60.8901
  42
0
  0
VERTEX
  8
Обводка_Top
  10
43.8035
  20
60.8901
  42
0
  0
SEQEND
  0
POLYLINE
  8
Обводка_Top
  6
CONTINUOUS
  66
1
  70
0
  40
0.9
  41
0.9
  0
VERTEX
  8
Обводка_Top
  10
38.061
  20
61.0301
  42
0
  0
VERTEX
  8
Обводка_Top
  10
35.6665
  20
61.0301
  42
0
  0
VERTEX
  8
Обводка_Top
  10
35.6665
  20
63.4301
  42
0
  0
VERTEX
  8
Обводка_Top
  10
38.0665
  20
63.4301
  42
0
  0
VERTEX
  8
Обводка_Top
  10
38.0665
  20
61.0355
  42
0
  0
VERTEX
  8
Обводка_Top
  10
45.189
  20
68.1585
  42
0
  0
VERTEX
  8
Обводка_Top
  10
45.3322
  20
68.2808
  42
0
  0
VERTEX
  8
Обводка_Top
  10
45.4927
  20
68.3792
  42
0
  0
VERTEX
  8
Обводка_Top
  10
45.6667
  20
68.4513
  42
0
  0
VERTEX
  8
Обводка_Top
  10
45.8498
  20
68.4952
  42
0
  0
VERTEX
  8
Обводка_Top
  10
46.0382
  20
68.5099
  42
0
  0
VERTEX
  8
Обводка_Top
  10
47.7626
  20
68.51
  42
0
  0
VERTEX
  8
Обводка_Top
  10
48.0596
  20
68.8067
  42
0
  0
VERTEX
  8
Обводка_Top
  10
48.0546
  20
70.6049
  42
0
  0
VERTEX
  8
Обводка_Top
  10
48.013
  20
72.0377
  42
0
  0
VERTEX
  8
Обводка_Top
  10
48.0223
  20
72.2258
  42
0
  0
VERTEX
  8
Обводка_Top
  10
48.061
  20
72.4101
  42
0
  0
VERTEX
  8
Обводка_Top
  10
48.1279
  20
72.5861
  42
0
  0
VERTEX
  8
Обводка_Top
  10
48.2216
  20
72.7494
  42
0
  0
VERTEX
  8
Обводка_Top
  10
48.3397
  20
72.8961
  42
0
  0
VERTEX
  8
Обводка_Top
  10
48.4793
  20
73.0225
  42
0
  0
VERTEX
  8
Обводка_Top
  10
48.6369
  20
73.1255
  42
0
  0
VERTEX
  8
Обводка_Top
  10
48.8087
  20
73.2025
  42
0
  0
VERTEX
  8
Обводка_Top
  10
48.9905
  20
73.2518
  42
0
  0
VERTEX
  8
Обводка_Top
  10
49.1777
  20
73.272
  42
0
  0
VERTEX
  8
Обводка_Top
  10
49.3658
  20
73.2627
  42
0
  0
VERTEX
  8
Обводка_Top
  10
49.5501
  20
73.224
  42
0
  0
VERTEX
  8
Обводка_Top
  10
49.7261
  20
73.1571
  42
0
  0
VERTEX
  8
Обводка_Top
  10
49.8894
  20
73.0634
  42
0
  0
VERTEX
  8
Обводка_Top
  10
50.0361
  20
72.9453
  42
0
  0
VERTEX
  8
Обводка_Top
  10
50.1625
  20
72.8057
  42
0
  0
VERTEX
  8
Обводка_Top
  10
50.2655
  20
72.6481
  42
0
  0
VERTEX
  8
Обводка_Top
  10
50.3425
  20
72.4763
  42
0
  0
VERTEX
  8
Обводка_Top
  10
50.3918
  20
72.2945
  42
0
  0
VERTEX
  8
Обводка_Top
  10
50.412
  20
72.1073
  42
0
  0
VERTEX
  8
Обводка_Top
  10
50.4257
  20
71.6348
  42
0
  0
VERTEX
  8
Обводка_Top
  10
50.46
  20
71.635
  42
0
  0
VERTEX
  8
Обводка_Top
  10
50.46
  20
68.31
  42
0
  0
VERTEX
  8
Обводка_Top
  10
50.4452
  20
68.1223
  42
0
  0
VERTEX
  8
Обводка_Top
  10
50.4013
  20
67.9392
  42
0
  0
VERTEX
  8
Обводка_Top
  10
50.3292
  20
67.7652
  42
0
  0
VERTEX
  8
Обводка_Top
  10
50.2308
  20
67.6047
  42
0
  0
VERTEX
  8
Обводка_Top
  10
50.1085
  20
67.4615
  42
0
  0
VERTEX
  8
Обводка_Top
  10
49.1085
  20
66.4615
  42
0
  0
VERTEX
  8
Обводка_Top
  10
48.9653
  20
66.3392
  42
0
  0
VERTEX
  8
Обводка_Top
  10
48.8048
  20
66.2408
  42
0
  0
VERTEX
  8
Обводка_Top
  10
48.6308
  20
66.1687
  42
0
  0
VERTEX
  8
Обводка_Top
  10
48.4477
  20
66.1248
  42
0
  0
VERTEX
  8
Обводка_Top
  10
48.26
  20
66.11
  42
0
  0
VERTEX
  8
Обводка_Top
  10
46.5349
  20
66.11
  42
0
  0
VERTEX
  8
Обводка_Top
  10
43.8543
  20
63.4301
  42
0
  0
VERTEX
  8
Обводка_Top
  10
46.0035
  20
63.4301
  42
0
  0
VERTEX
  8
Обводка_Top
  10
46.0035
  20
61.0301
  42
0
  0
VERTEX
  8
Обводка_Top
  10
43.6035
  20
61.0301
  42
0
  0
VERTEX
  8
Обводка_Top
  10
43.6035
  20
63.1793
  42
0
  0
VERTEX
  8
Обводка_Top
  10
39.2661
  20
58.8415
  42
0
  0
VERTEX
  8
Обводка_Top
  10
39.1229
  20
58.7192
  42
0
  0
VERTEX
  8
Обводка_Top
  10
38.9624
  20
58.6209
  42
0
  0
VERTEX
  8
Обводка_Top
  10
38.7884
  20
58.5488
  42
0
  0
VERTEX
  8
Обводка_Top
  10
38.6053
  20
58.5048
  42
0
  0
VERTEX
  8
Обводка_Top
  10
38.4176
  20
58.4901
  42
0
  0
VERTEX
  8
Обводка_Top
  10
34.7863
  20
58.49
  42
0
  0
VERTEX
  8
Обводка_Top
  10
30.0585
  20
53.7615
  42
0
  0
VERTEX
  8
Обводка_Top
  10
29.9153
  20
53.6392
  42
0
  0
VERTEX
  8
Обводка_Top
  10
29.7548
  20
53.5408
  42
0
  0
VERTEX
  8
Обводка_Top
  10
29.5808
  20
53.4687
  42
0
  0
VERTEX
  8
Обводка_Top
  10
29.3977
  20
53.4248
  42
0
  0
VERTEX
  8
Обводка_Top
  10
29.2093
  20
53.4101
  42
0
  0
VERTEX
  8
Обводка_Top
  10
24.13
  20
53.41
  42
0
  0
VERTEX
  8
Обводка_Top
  10
23.9423
  20
53.4248
  42
0
  0
VERTEX
  8
Обводка_Top
  10
23.7592
  20
53.4687
  42
0
  0
VERTEX
  8
Обводка_Top
  10
23.5852
  20
53.5408
  42
0
  0
VERTEX
  8
Обводка_Top
  10
23.4247
  20
53.6392
  42
0
  0
VERTEX
  8
Обводка_Top
  10
23.2815
  20
53.7615
  42
0
  0
VERTEX
  8
Обводка_Top
  10
23.1592
  20
53.9047
  42
0
  0
VERTEX
  8
Обводка_Top
  10
23.0608
  20
54.0652
  42
0
  0
VERTEX
  8
Обводка_Top
  10
22.9887
  20
54.2392
  42
0
  0
VERTEX
  8
Обводка_Top
  10
22.9448
  20
54.4223
  42
0
  0
VERTEX
  8
Обводка_Top
  10
22.93
  20
54.61
  42
0
  0
VERTEX
  8
Обводка_Top
  10
22.9448
  20
54.7977
  42
0
  0
VERTEX
  8
Обводка_Top
  10
22.9887
  20
54.9808
  42
0
  0
VERTEX
  8
Обводка_Top
  10
23.0608
  20
55.1548
  42
0
  0
VERTEX
  8
Обводка_Top
  10
23.1592
  20
55.3153
  42
0
  0
VERTEX
  8
Обводка_Top
  10
23.2815
  20
55.4585
  42
0
  0
VERTEX
  8
Обводка_Top
  10
23.4247
  20
55.5808
  42
0
  0
VERTEX
  8
Обводка_Top
  10
23.5852
  20
55.6792
  42
0
  0
VERTEX
  8
Обводка_Top
  10
23.7592
  20
55.7513
  42
0
  0
VERTEX
  8
Обводка_Top
  10
23.9423
  20
55.7952
  42
0
  0
VERTEX
  8
Обводка_Top
  10
24.13
  20
55.81
  42
0
  0
VERTEX
  8
Обводка_Top
  10
28.713
  20
55.81
  42
0
  0
VERTEX
  8
Обводка_Top
  10
33.4415
  20
60.5385
  42
0
  0
VERTEX
  8
Обводка_Top
  10
33.5847
  20
60.6608
  42
0
  0
VERTEX
  8
Обводка_Top
  10
33.7452
  20
60.7592
  42
0
  0
VERTEX
  8
Обводка_Top
  10
33.9192
  20
60.8313
  42
0
  0
VERTEX
  8
Обводка_Top
  10
34.1023
  20
60.8752
  42
0
  0
VERTEX
  8
Обводка_Top
  10
34.29
  20
60.89
  42
0
  0
VERTEX
  8
Обводка_Top
  10
37.9205
  20
60.8901
  42
0
  0
VERTEX
  8
Обводка_Top
  10
38.061
  20
61.0301
  42
0
  0
SEQEND
  0
POLYLINE
  8
Обводка_Top
  6
CONTINUOUS
  66
1
  70
0
  40
0.9
  41
0.9
  0
VERTEX
  8
Обводка_Top
  10
25.47
  20
53.27
  42
0
  0
VERTEX
  8
Обводка_Top
  10
24.13
  20
53.27
  42
0
  0
VERTEX
  8
Обводка_Top
  10
23.9423
  20
53.2552
  42
0
  0
VERTEX
  8
Обводка_Top
  10
23.7592
  20
53.2113
  42
0
  0
VERTEX
  8
Обводка_Top
  10
23.5852
  20
53.1392
  42
0
  0
VERTEX
  8
Обводка_Top
  10
23.4247
  20
53.0408
  42
0
  0
VERTEX
  8
Обводка_Top
  10
23.2815
  20
52.9185
  42
0
  0
VERTEX
  8
Обводка_Top
  10
23.1592
  20
52.7753
  42
0
  0
VERTEX
  8
Обводка_Top
  10
23.0608
  20
52.6148
  42
0
  0
VERTEX
  8
Обводка_Top
  10
22.9887
  20
52.4408
  42
0
  0
VERTEX
  8
Обводка_Top
  10
22.9448
  20
52.2577
  42
0
  0
VERTEX
  8
Обводка_Top
  10
22.93
  20
52.07
  42
0
  0
VERTEX
  8
Обводка_Top
  10
22.9448
  20
51.8823
  42
0
  0
VERTEX
  8
Обводка_Top
  10
22.9887
  20
51.6992
  42
0
  0
VERTEX
  8
Обводка_Top
  10
23.0608
  20
51.5252
  42
0
  0
VERTEX
  8
Обводка_Top
  10
23.1592
  20
51.3647
  42
0
  0
VERTEX
  8
Обводка_Top
  10
23.2815
  20
51.2215
  42
0
  0
VERTEX
  8
Обводка_Top
  10
23.4247
  20
51.0992
  42
0
  0
VERTEX
  8
Обводка_Top
  10
23.5852
  20
51.0008
  42
0
  0
VERTEX
  8
Обводка_Top
  10
23.7592
  20
50.9287
  42
0
  0
VERTEX
  8
Обводка_Top
  10
23.9423
  20
50.8848
  42
0
  0
VERTEX
  8
Обводка_Top
  10
24.13
  20
50.87
  42
0
  0
VERTEX
  8
Обводка_Top
  10
30.3213
  20
50.87
  42
0
  0
VERTEX
  8
Обводка_Top
  10
30.509
  20
50.8848
  42
0
  0
VERTEX
  8
Обводка_Top
  10
30.6921
  20
50.9287
  42
0
  0
VERTEX
  8
Обводка_Top
  10
30.8661
  20
51.0008
  42
0
  0
VERTEX
  8
Обводка_Top
  10
31.0266
  20
51.0992
  42
0
  0
VERTEX
  8
Обводка_Top
  10
31.1698
  20
51.2215
  42
0
  0
VERTEX
  8
Обводка_Top
  10
35.6665
  20
55.7187
  42
0
  0
VERTEX
  8
Обводка_Top
  10
35.6665
  20
53.4101
  42
0
  0
VERTEX
  8
Обводка_Top
  10
38.0665
  20
53.4101
  42
0
  0
VERTEX
  8
Обводка_Top
  10
38.0665
  20
55.8101
  42
0
  0
VERTEX
  8
Обводка_Top
  10
35.7579
  20
55.8096
  42
0
  0
VERTEX
  8
Обводка_Top
  10
35.8981
  20
55.95
  42
0
  0
VERTEX
  8
Обводка_Top
  10
39.37
  20
55.95
  42
0
  0
VERTEX
  8
Обводка_Top
  10
39.5577
  20
55.9648
  42
0
  0
VERTEX
  8
Обводка_Top
  10
39.7408
  20
56.0087
  42
0
  0
VERTEX
  8
Обводка_Top
  10
39.9148
  20
56.0808
  42
0
  0
VERTEX
  8
Обводка_Top
  10
40.0753
  20
56.1792
  42
0
  0
VERTEX
  8
Обводка_Top
  10
40.2185
  20
56.3015
  42
0
  0
VERTEX
  8
Обводка_Top
  10
40.3408
  20
56.4447
  42
0
  0
VERTEX
  8
Обводка_Top
  10
40.4392
  20
56.6052
  42
0
  0
VERTEX
  8
Обводка_Top
  10
40.5113
  20
56.7792
  42
0
  0
VERTEX
  8
Обводка_Top
  10
40.5552
  20
56.9623
  42
0
  0
VERTEX
  8
Обводка_Top
  10
40.57
  20
57.15
  42
0
  0
VERTEX
  8
Обводка_Top
  10
40.5552
  20
57.3377
  42
0
  0
VERTEX
  8
Обводка_Top
  10
40.5113
  20
57.5208
  42
0
  0
VERTEX
  8
Обводка_Top
  10
40.4392
  20
57.6948
  42
0
  0
VERTEX
  8
Обводка_Top
  10
40.3408
  20
57.8553
  42
0
  0
VERTEX
  8
Обводка_Top
  10
40.2185
  20
57.9985
  42
0
  0
VERTEX
  8
Обводка_Top
  10
40.0753
  20
58.1208
  42
0
  0
VERTEX
  8
Обводка_Top
  10
39.9148
  20
58.2192
  42
0
  0
VERTEX
  8
Обводка_Top
  10
39.7408
  20
58.2913
  42
0
  0
VERTEX
  8
Обводка_Top
  10
39.5577
  20
58.3352
  42
0
  0
VERTEX
  8
Обводка_Top
  10
39.2454
  20
58.35
  42
0
  0
VERTEX
  8
Обводка_Top
  10
35.4013
  20
58.35
  42
0
  0
VERTEX
  8
Обводка_Top
  10
35.2135
  20
58.3352
  42
0
  0
VERTEX
  8
Обводка_Top
  10
35.0304
  20
58.2913
  42
0
  0
VERTEX
  8
Обводка_Top
  10
34.8565
  20
58.2192
  42
0
  0
VERTEX
  8
Обводка_Top
  10
34.6959
  20
58.1208
  42
0
  0
VERTEX
  8
Обводка_Top
  10
34.5522
  20
57.998
  42
0
  0
VERTEX
  8
Обводка_Top
  10
29.8236
  20
53.27
  42
0
  0
VERTEX
  8
Обводка_Top
  10
25.4699
  20
53.2692
  42
0
  0
VERTEX
  8
Обводка_Top
  10
25.47
  20
53.27
  42
0
  0
SEQEND
  0
POLYLINE
  8
Обводка_Top
  6
CONTINUOUS
  66
1
  70
0
  40
0.9
  41
0.9
  0
VERTEX
  8
Обводка_Top
  10
35.8665
  20
53.2701
  42
0
  0
VERTEX
  8
Обводка_Top
  10
39.37
  20
53.27
  42
0
  0
VERTEX
  8
Обводка_Top
  10
39.5577
  20
53.2552
  42
0
  0
VERTEX
  8
Обводка_Top
  10
39.7408
  20
53.2113
  42
0
  0
VERTEX
  8
Обводка_Top
  10
39.9148
  20
53.1392
  42
0
  0
VERTEX
  8
Обводка_Top
  10
40.0753
  20
53.0408
  42
0
  0
VERTEX
  8
Обводка_Top
  10
40.2185
  20
52.9185
  42
0
  0
VERTEX
  8
Обводка_Top
  10
40.3408
  20
52.7753
  42
0
  0
VERTEX
  8
Обводка_Top
  10
40.4392
  20
52.6148
  42
0
  0
VERTEX
  8
Обводка_Top
  10
40.5113
  20
52.4408
  42
0
  0
VERTEX
  8
Обводка_Top
  10
40.5552
  20
52.2577
  42
0
  0
VERTEX
  8
Обводка_Top
  10
40.57
  20
52.07
  42
0
  0
VERTEX
  8
Обводка_Top
  10
40.5552
  20
51.8823
  42
0
  0
VERTEX
  8
Обводка_Top
  10
40.5113
  20
51.6992
  42
0
  0
VERTEX
  8
Обводка_Top
  10
40.4392
  20
51.5252
  42
0
  0
VERTEX
  8
Обводка_Top
  10
40.3408
  20
51.3647
  42
0
  0
VERTEX
  8
Обводка_Top
  10
40.2185
  20
51.2215
  42
0
  0
VERTEX
  8
Обводка_Top
  10
40.0753
  20
51.0992
  42
0
  0
VERTEX
  8
Обводка_Top
  10
39.9148
  20
51.0008
  42
0
  0
VERTEX
  8
Обводка_Top
  10
39.7408
  20
50.9287
  42
0
  0
VERTEX
  8
Обводка_Top
  10
39.5577
  20
50.8848
  42
0
  0
VERTEX
  8
Обводка_Top
  10
39.37
  20
50.87
  42
0
  0
VERTEX
  8
Обводка_Top
  10
34.29
  20
50.87
  42
0
  0
VERTEX
  8
Обводка_Top
  10
34.1023
  20
50.8848
  42
0
  0
VERTEX
  8
Обводка_Top
  10
33.9192
  20
50.9287
  42
0
  0
VERTEX
  8
Обводка_Top
  10
33.7452
  20
51.0008
  42
0
  0
VERTEX
  8
Обводка_Top
  10
33.5847
  20
51.0992
  42
0
  0
VERTEX
  8
Обводка_Top
  10
33.4415
  20
51.2214
  42
0
  0
VERTEX
  8
Обводка_Top
  10
33.3192
  20
51.3646
  42
0
  0
VERTEX
  8
Обводка_Top
  10
33.2208
  20
51.5252
  42
0
  0
VERTEX
  8
Обводка_Top
  10
33.1487
  20
51.6991
  42
0
  0
VERTEX
  8
Обводка_Top
  10
33.1048
  20
51.8822
  42
0
  0
VERTEX
  8
Обводка_Top
  10
33.09
  20
52.07
  42
0
  0
VERTEX
  8
Обводка_Top
  10
33.1048
  20
52.2577
  42
0
  0
VERTEX
  8
Обводка_Top
  10
33.1487
  20
52.4408
  42
0
  0
VERTEX
  8
Обводка_Top
  10
33.2208
  20
52.6148
  42
0
  0
VERTEX
  8
Обводка_Top
  10
33.3192
  20
52.7753
  42
0
  0
VERTEX
  8
Обводка_Top
  10
33.4414
  20
52.9185
  42
0
  0
VERTEX
  8
Обводка_Top
  10
33.5846
  20
53.0408
  42
0
  0
VERTEX
  8
Обводка_Top
  10
33.7452
  20
53.1392
  42
0
  0
VERTEX
  8
Обводка_Top
  10
33.9191
  20
53.2113
  42
0
  0
VERTEX
  8
Обводка_Top
  10
34.1022
  20
53.2552
  42
0
  0
VERTEX
  8
Обводка_Top
  10
34.29
  20
53.27
  42
0
  0
VERTEX
  8
Обводка_Top
  10
35.8665
  20
53.2701
  42
0
  0
SEQEND
  0
POLYLINE
  8
Обводка_Top
  6
CONTINUOUS
  66
1
  70
0
  40
0.9
  41
0.9
  0
VERTEX
  8
Обводка_Top
  10
35.8665
  20
50.7301
  42
0
  0
VERTEX
  8
Обводка_Top
  10
38.0665
  20
50.7301
  42
0
  0
VERTEX
  8
Обводка_Top
  10
38.0665
  20
48.3301
  42
0
  0
VERTEX
  8
Обводка_Top
  10
35.6665
  20
48.3301
  42
0
  0
VERTEX
  8
Обводка_Top
  10
35.6665
  20
50.7301
  42
0
  0
VERTEX
  8
Обводка_Top
  10
35.8665
  20
50.7301
  42
0
  0
SEQEND
  0
POLYLINE
  8
Обводка_Top
  6
CONTINUOUS
  66
1
  70
0
  40
0.9
  41
0.9
  0
VERTEX
  8
Обводка_Top
  10
35.8665
  20
48.1901
  42
0
  0
VERTEX
  8
Обводка_Top
  10
38.0665
  20
48.1901
  42
0
  0
VERTEX
  8
Обводка_Top
  10
38.0665
  20
45.7901
  42
0
  0
VERTEX
  8
Обводка_Top
  10
35.6665
  20
45.7901
  42
0
  0
VERTEX
  8
Обводка_Top
  10
35.6665
  20
48.1901
  42
0
  0
VERTEX
  8
Обводка_Top
  10
35.8665
  20
48.1901
  42
0
  0
SEQEND
  0
POLYLINE
  8
Обводка_Top
  6
CONTINUOUS
  66
1
  70
0
  40
0.9
  41
0.9
  0
VERTEX
  8
Обводка_Top
  10
35.8665
  20
43.1101
  42
0
  0
VERTEX
  8
Обводка_Top
  10
38.0665
  20
43.1101
  42
0
  0
VERTEX
  8
Обводка_Top
  10
38.0665
  20
40.7101
  42
0
  0
VERTEX
  8
Обводка_Top
  10
35.6665
  20
40.7101
  42
0
  0
VERTEX
  8
Обводка_Top
  10
35.6665
  20
43.1101
  42
0
  0
VERTEX
  8
Обводка_Top
  10
35.8665
  20
43.1101
  42
0
  0
SEQEND
  0
POLYLINE
  8
Обводка_Top
  6
CONTINUOUS
  66
1
  70
0
  40
0.9
  41
0.9
  0
VERTEX
  8
Обводка_Top
  10
35.8665
  20
40.5701
  42
0
  0
VERTEX
  8
Обводка_Top
  10
38.0665
  20
40.5701
  42
0
  0
VERTEX
  8
Обводка_Top
  10
38.0665
  20
38.1701
  42
0
  0
VERTEX
  8
Обводка_Top
  10
35.6665
  20
38.1701
  42
0
  0
VERTEX
  8
Обводка_Top
  10
35.6665
  20
40.5701
  42
0
  0
VERTEX
  8
Обводка_Top
  10
35.8665
  20
40.5701
  42
0
  0
SEQEND
  0
POLYLINE
  8
Обводка_Top
  6
CONTINUOUS
  66
1
  70
0
  40
0.9
  41
0.9
  0
VERTEX
  8
Обводка_Top
  10
35.8665
  20
38.0301
  42
0
  0
VERTEX
  8
Обводка_Top
  10
38.0665
  20
38.0301
  42
0
  0
VERTEX
  8
Обводка_Top
  10
38.0665
  20
35.6301
  42
0
  0
VERTEX
  8
Обводка_Top
  10
35.6665
  20
35.6301
  42
0
  0
VERTEX
  8
Обводка_Top
  10
35.6665
  20
38.0301
  42
0
  0
VERTEX
  8
Обводка_Top
  10
35.8665
  20
38.0301
  42
0
  0
SEQEND
  0
POLYLINE
  8
Обводка_Top
  6
CONTINUOUS
  66
1
  70
0
  40
0.9
  41
0.9
  0
VERTEX
  8
Обводка_Top
  10
35.8665
  20
35.4901
  42
0
  0
VERTEX
  8
Обводка_Top
  10
38.0665
  20
35.4901
  42
0
  0
VERTEX
  8
Обводка_Top
  10
38.0665
  20
33.0901
  42
0
  0
VERTEX
  8
Обводка_Top
  10
35.6665
  20
33.0901
  42
0
  0
VERTEX
  8
Обводка_Top
  10
35.6665
  20
35.4901
  42
0
  0
VERTEX
  8
Обводка_Top
  10
35.8665
  20
35.4901
  42
0
  0
SEQEND
  0
POLYLINE
  8
Обводка_Top
  6
CONTINUOUS
  66
1
  70
0
  40
0.9
  41
0.9
  0
VERTEX
  8
Обводка_Top
  10
35.8665
  20
32.9501
  42
0
  0
VERTEX
  8
Обводка_Top
  10
38.0665
  20
32.9501
  42
0
  0
VERTEX
  8
Обводка_Top
  10
38.0665
  20
30.5501
  42
0
  0
VERTEX
  8
Обводка_Top
  10
35.6665
  20
30.5501
  42
0
  0
VERTEX
  8
Обводка_Top
  10
35.6665
  20
32.9501
  42
0
  0
VERTEX
  8
Обводка_Top
  10
35.8665
  20
32.9501
  42
0
  0
SEQEND
  0
POLYLINE
  8
Обводка_Top
  6
CONTINUOUS
  66
1
  70
0
  40
0.9
  41
0.9
  0
VERTEX
  8
Обводка_Top
  10
35.8665
  20
30.4101
  42
0
  0
VERTEX
  8
Обводка_Top
  10
38.0665
  20
30.4101
  42
0
  0
VERTEX
  8
Обводка_Top
  10
38.0665
  20
28.0101
  42
0
  0
VERTEX
  8
Обводка_Top
  10
35.6665
  20
28.0101
  42
0
  0
VERTEX
  8
Обводка_Top
  10
35.6665
  20
30.4101
  42
0
  0
VERTEX
  8
Обводка_Top
  10
35.8665
  20
30.4101
  42
0
  0
SEQEND
  0
POLYLINE
  8
Обводка_Top
  6
CONTINUOUS
  66
1
  70
0
  40
0.9
  41
0.9
  0
VERTEX
  8
Обводка_Top
  10
45.76
  20
71.635
  42
0
  0
VERTEX
  8
Обводка_Top
  10
47.96
  20
71.635
  42
0
  0
VERTEX
  8
Обводка_Top
  10
47.96
  20
69.235
  42
0
  0
VERTEX
  8
Обводка_Top
  10
45.56
  20
69.235
  42
0
  0
VERTEX
  8
Обводка_Top
  10
45.56
  20
71.635
  42
0
  0
VERTEX
  8
Обводка_Top
  10
45.76
  20
71.635
  42
0
  0
SEQEND
  0
POLYLINE
  8
Обводка_Top
  6
CONTINUOUS
  66
1
  70
0
  40
0.9
  41
0.9
  0
VERTEX
  8
Обводка_Top
  10
43.26
  20
71.635
  42
0
  0
VERTEX
  8
Обводка_Top
  10
45.46
  20
71.635
  42
0
  0
VERTEX
  8
Обводка_Top
  10
45.46
  20
69.235
  42
0
  0
VERTEX
  8
Обводка_Top
  10
43.06
  20
69.235
  42
0
  0
VERTEX
  8
Обводка_Top
  10
43.06
  20
71.635
  42
0
  0
VERTEX
  8
Обводка_Top
  10
43.26
  20
71.635
  42
0
  0
SEQEND
  0
POLYLINE
  8
Обводка_Top
  6
CONTINUOUS
  66
1
  70
0
  40
0.9
  41
0.9
  0
VERTEX
  8
Обводка_Top
  10
40.76
  20
71.635
  42
0
  0
VERTEX
  8
Обводка_Top
  10
42.96
  20
71.635
  42
0
  0
VERTEX
  8
Обводка_Top
  10
42.96
  20
69.235
  42
0
  0
VERTEX
  8
Обводка_Top
  10
40.56
  20
69.235
  42
0
  0
VERTEX
  8
Обводка_Top
  10
40.56
  20
71.635
  42
0
  0
VERTEX
  8
Обводка_Top
  10
40.76
  20
71.635
  42
0
  0
SEQEND
  0
POLYLINE
  8
Обводка_Top
  6
CONTINUOUS
  66
1
  70
0
  40
0.9
  41
0.9
  0
VERTEX
  8
Обводка_Top
  10
37.56
  20
71.635
  42
0
  0
VERTEX
  8
Обводка_Top
  10
37.96
  20
71.635
  42
0
  0
VERTEX
  8
Обводка_Top
  10
37.96
  20
69.235
  42
0
  0
VERTEX
  8
Обводка_Top
  10
35.56
  20
69.235
  42
0
  0
VERTEX
  8
Обводка_Top
  10
35.56
  20
71.635
  42
0
  0
VERTEX
  8
Обводка_Top
  10
35.9592
  20
71.635
  42
0
  0
SEQEND
  0
POLYLINE
  8
Обводка_Top
  6
CONTINUOUS
  66
1
  70
0
  40
0.9
  41
0.9
  0
VERTEX
  8
Обводка_Top
  10
35.06
  20
71.635
  42
0
  0
VERTEX
  8
Обводка_Top
  10
35.46
  20
71.635
  42
0
  0
VERTEX
  8
Обводка_Top
  10
35.46
  20
69.235
  42
0
  0
VERTEX
  8
Обводка_Top
  10
35.0608
  20
69.235
  42
0
  0
SEQEND
  0
POLYLINE
  8
Обводка_Top
  6
CONTINUOUS
  66
1
  70
0
  40
0.9
  41
0.9
  0
VERTEX
  8
Обводка_Top
  10
33.46
  20
69.235
  42
0
  0
VERTEX
  8
Обводка_Top
  10
33.06
  20
69.235
  42
0
  0
VERTEX
  8
Обводка_Top
  10
33.06
  20
71.635
  42
0
  0
VERTEX
  8
Обводка_Top
  10
33.4592
  20
71.635
  42
0
  0
SEQEND
  0
POLYLINE
  8
Обводка_Top
  6
CONTINUOUS
  66
1
  70
0
  40
0.9
  41
0.9
  0
VERTEX
  8
Обводка_Top
  10
32.56
  20
71.635
  42
0
  0
VERTEX
  8
Обводка_Top
  10
32.96
  20
71.635
  42
0
  0
VERTEX
  8
Обводка_Top
  10
32.96
  20
69.235
  42
0
  0
VERTEX
  8
Обводка_Top
  10
32.5608
  20
69.235
  42
0
  0
SEQEND
  0
POLYLINE
  8
Обводка_Top
  6
CONTINUOUS
  66
1
  70
0
  40
0.9
  41
0.9
  0
VERTEX
  8
Обводка_Top
  10
30.96
  20
69.235
  42
0
  0
VERTEX
  8
Обводка_Top
  10
30.56
  20
69.235
  42
0
  0
VERTEX
  8
Обводка_Top
  10
30.56
  20
71.635
  42
0
  0
VERTEX
  8
Обводка_Top
  10
30.9592
  20
71.635
  42
0
  0
SEQEND
  0
POLYLINE
  8
Обводка_Top
  6
CONTINUOUS
  66
1
  70
0
  40
0.9
  41
0.9
  0
VERTEX
  8
Обводка_Top
  10
30.06
  20
71.635
  42
0
  0
VERTEX
  8
Обводка_Top
  10
30.46
  20
71.635
  42
0
  0
VERTEX
  8
Обводка_Top
  10
30.46
  20
69.235
  42
0
  0
VERTEX
  8
Обводка_Top
  10
30.0608
  20
69.235
  42
0
  0
SEQEND
  0
POLYLINE
  8
Обводка_Top
  6
CONTINUOUS
  66
1
  70
0
  40
0.9
  41
0.9
  0
VERTEX
  8
Обводка_Top
  10
28.46
  20
69.235
  42
0
  0
VERTEX
  8
Обводка_Top
  10
28.06
  20
69.235
  42
0
  0
VERTEX
  8
Обводка_Top
  10
28.06
  20
71.635
  42
0
  0
VERTEX
  8
Обводка_Top
  10
28.4592
  20
71.635
  42
0
  0
SEQEND
  0
POLYLINE
  8
Обводка_Top
  6
CONTINUOUS
  66
1
  70
0
  40
0.9
  41
0.9
  0
VERTEX
  8
Обводка_Top
  10
25.76
  20
71.635
  42
0
  0
VERTEX
  8
Обводка_Top
  10
27.96
  20
71.635
  42
0
  0
VERTEX
  8
Обводка_Top
  10
27.96
  20
69.235
  42
0
  0
VERTEX
  8
Обводка_Top
  10
25.56
  20
69.235
  42
0
  0
VERTEX
  8
Обводка_Top
  10
25.56
  20
71.635
  42
0
  0
VERTEX
  8
Обводка_Top
  10
25.76
  20
71.635
  42
0
  0
SEQEND
  0
POLYLINE
  8
Обводка_Top
  6
CONTINUOUS
  66
1
  70
0
  40
0.9
  41
0.9
  0
VERTEX
  8
Обводка_Top
  10
40.64
  20
14.485
  42
0
  0
VERTEX
  8
Обводка_Top
  10
42.84
  20
14.485
  42
0
  0
VERTEX
  8
Обводка_Top
  10
42.84
  20
12.085
  42
0
  0
VERTEX
  8
Обводка_Top
  10
40.44
  20
12.085
  42
0
  0
VERTEX
  8
Обводка_Top
  10
40.44
  20
14.485
  42
0
  0
VERTEX
  8
Обводка_Top
  10
40.64
  20
14.485
  42
0
  0
SEQEND
  0
POLYLINE
  8
Обводка_Top
  6
CONTINUOUS
  66
1
  70
0
  40
0.9
  41
0.9
  0
VERTEX
  8
Обводка_Top
  10
38.14
  20
14.485
  42
0
  0
VERTEX
  8
Обводка_Top
  10
40.34
  20
14.485
  42
0
  0
VERTEX
  8
Обводка_Top
  10
40.34
  20
12.085
  42
0
  0
VERTEX
  8
Обводка_Top
  10
37.94
  20
12.085
  42
0
  0
VERTEX
  8
Обводка_Top
  10
37.94
  20
14.485
  42
0
  0
VERTEX
  8
Обводка_Top
  10
38.14
  20
14.485
  42
0
  0
SEQEND
  0
POLYLINE
  8
Обводка_Top
  6
CONTINUOUS
  66
1
  70
0
  40
0.9
  41
0.9
  0
VERTEX
  8
Обводка_Top
  10
35.64
  20
14.485
  42
0
  0
VERTEX
  8
Обводка_Top
  10
37.84
  20
14.485
  42
0
  0
VERTEX
  8
Обводка_Top
  10
37.84
  20
12.085
  42
0
  0
VERTEX
  8
Обводка_Top
  10
35.44
  20
12.085
  42
0
  0
VERTEX
  8
Обводка_Top
  10
35.44
  20
14.485
  42
0
  0
VERTEX
  8
Обводка_Top
  10
35.64
  20
14.485
  42
0
  0
SEQEND
  0
POLYLINE
  8
Обводка_Top
  6
CONTINUOUS
  66
1
  70
0
  40
0.9
  41
0.9
  0
VERTEX
  8
Обводка_Top
  10
33.14
  20
14.485
  42
0
  0
VERTEX
  8
Обводка_Top
  10
35.34
  20
14.485
  42
0
  0
VERTEX
  8
Обводка_Top
  10
35.34
  20
12.085
  42
0
  0
VERTEX
  8
Обводка_Top
  10
32.94
  20
12.085
  42
0
  0
VERTEX
  8
Обводка_Top
  10
32.94
  20
14.485
  42
0
  0
VERTEX
  8
Обводка_Top
  10
33.14
  20
14.485
  42
0
  0
SEQEND
  0
POLYLINE
  8
Обводка_Top
  6
CONTINUOUS
  66
1
  70
0
  40
0.9
  41
0.9
  0
VERTEX
  8
Обводка_Top
  10
48.9817
  20
53.3167
  42
0
  0
VERTEX
  8
Обводка_Top
  10
50.8817
  20
53.3167
  42
0
  0
VERTEX
  8
Обводка_Top
  10
50.8817
  20
51.2167
  42
0
  0
VERTEX
  8
Обводка_Top
  10
48.7817
  20
51.2167
  42
0
  0
VERTEX
  8
Обводка_Top
  10
48.7817
  20
53.3167
  42
0
  0
VERTEX
  8
Обводка_Top
  10
48.9817
  20
53.3167
  42
0
  0
SEQEND
  0
POLYLINE
  8
Обводка_Top
  6
CONTINUOUS
  66
1
  70
0
  40
0.9
  41
0.9
  0
VERTEX
  8
Обводка_Top
  10
48.8317
  20
48.5867
  42
0
  0
VERTEX
  8
Обводка_Top
  10
51.0317
  20
48.5867
  42
0
  0
VERTEX
  8
Обводка_Top
  10
51.0317
  20
46.1867
  42
0
  0
VERTEX
  8
Обводка_Top
  10
48.6317
  20
46.1867
  42
0
  0
VERTEX
  8
Обводка_Top
  10
48.6317
  20
48.5867
  42
0
  0
VERTEX
  8
Обводка_Top
  10
48.8317
  20
48.5867
  42
0
  0
SEQEND
  0
POLYLINE
  8
Обводка_Top
  6
CONTINUOUS
  66
1
  70
0
  40
0.9
  41
0.9
  0
VERTEX
  8
Обводка_Top
  10
47.8385
  20
46.1415
  42
0
  0
VERTEX
  8
Обводка_Top
  10
47.6953
  20
46.0192
  42
0
  0
VERTEX
  8
Обводка_Top
  10
47.5348
  20
45.9208
  42
0
  0
VERTEX
  8
Обводка_Top
  10
47.3608
  20
45.8487
  42
0
  0
VERTEX
  8
Обводка_Top
  10
47.1777
  20
45.8048
  42
0
  0
VERTEX
  8
Обводка_Top
  10
46.99
  20
45.79
  42
0
  0
VERTEX
  8
Обводка_Top
  10
42.4069
  20
45.7899
  42
0
  0
VERTEX
  8
Обводка_Top
  10
40.2186
  20
43.6015
  42
0
  0
VERTEX
  8
Обводка_Top
  10
40.0754
  20
43.4792
  42
0
  0
VERTEX
  8
Обводка_Top
  10
39.9149
  20
43.3809
  42
0
  0
VERTEX
  8
Обводка_Top
  10
39.7409
  20
43.3088
  42
0
  0
VERTEX
  8
Обводка_Top
  10
39.5578
  20
43.2648
  42
0
  0
VERTEX
  8
Обводка_Top
  10
39.3694
  20
43.2501
  42
0
  0
VERTEX
  8
Обводка_Top
  10
34.29
  20
43.25
  42
0
  0
VERTEX
  8
Обводка_Top
  10
34.1023
  20
43.2648
  42
0
  0
VERTEX
  8
Обводка_Top
  10
33.9192
  20
43.3087
  42
0
  0
VERTEX
  8
Обводка_Top
  10
33.7452
  20
43.3808
  42
0
  0
VERTEX
  8
Обводка_Top
  10
33.5847
  20
43.4792
  42
0
  0
VERTEX
  8
Обводка_Top
  10
33.4415
  20
43.6015
  42
0
  0
VERTEX
  8
Обводка_Top
  10
33.3192
  20
43.7447
  42
0
  0
VERTEX
  8
Обводка_Top
  10
33.2208
  20
43.9052
  42
0
  0
VERTEX
  8
Обводка_Top
  10
33.1487
  20
44.0792
  42
0
  0
VERTEX
  8
Обводка_Top
  10
33.1048
  20
44.2623
  42
0
  0
VERTEX
  8
Обводка_Top
  10
33.09
  20
44.45
  42
0
  0
VERTEX
  8
Обводка_Top
  10
33.1048
  20
44.6377
  42
0
  0
VERTEX
  8
Обводка_Top
  10
33.1487
  20
44.8208
  42
0
  0
VERTEX
  8
Обводка_Top
  10
33.2208
  20
44.9948
  42
0
  0
VERTEX
  8
Обводка_Top
  10
33.3192
  20
45.1553
  42
0
  0
VERTEX
  8
Обводка_Top
  10
33.4415
  20
45.2985
  42
0
  0
VERTEX
  8
Обводка_Top
  10
33.5847
  20
45.4208
  42
0
  0
VERTEX
  8
Обводка_Top
  10
33.7452
  20
45.5192
  42
0
  0
VERTEX
  8
Обводка_Top
  10
33.9192
  20
45.5913
  42
0
  0
VERTEX
  8
Обводка_Top
  10
34.1023
  20
45.6352
  42
0
  0
VERTEX
  8
Обводка_Top
  10
34.29
  20
45.65
  42
0
  0
VERTEX
  8
Обводка_Top
  10
38.8727
  20
45.6501
  42
0
  0
VERTEX
  8
Обводка_Top
  10
41.0615
  20
47.8385
  42
0
  0
VERTEX
  8
Обводка_Top
  10
41.2047
  20
47.9608
  42
0
  0
VERTEX
  8
Обводка_Top
  10
41.3652
  20
48.0592
  42
0
  0
VERTEX
  8
Обводка_Top
  10
41.5392
  20
48.1313
  42
0
  0
VERTEX
  8
Обводка_Top
  10
41.7223
  20
48.1752
  42
0
  0
VERTEX
  8
Обводка_Top
  10
41.91
  20
48.19
  42
0
  0
VERTEX
  8
Обводка_Top
  10
46.99
  20
48.19
  42
0
  0
VERTEX
  8
Обводка_Top
  10
47.1777
  20
48.1752
  42
0
  0
VERTEX
  8
Обводка_Top
  10
47.3608
  20
48.1313
  42
0
  0
VERTEX
  8
Обводка_Top
  10
47.5348
  20
48.0592
  42
0
  0
VERTEX
  8
Обводка_Top
  10
47.6953
  20
47.9608
  42
0
  0
VERTEX
  8
Обводка_Top
  10
47.838
  20
47.839
  42
0
  0
VERTEX
  8
Обводка_Top
  10
47.9608
  20
47.6953
  42
0
  0
VERTEX
  8
Обводка_Top
  10
48.0592
  20
47.5348
  42
0
  0
VERTEX
  8
Обводка_Top
  10
48.1313
  20
47.3608
  42
0
  0
VERTEX
  8
Обводка_Top
  10
48.1752
  20
47.1777
  42
0
  0
VERTEX
  8
Обводка_Top
  10
48.19
  20
46.99
  42
0
  0
VERTEX
  8
Обводка_Top
  10
48.1752
  20
46.8023
  42
0
  0
VERTEX
  8
Обводка_Top
  10
48.1313
  20
46.6192
  42
0
  0
VERTEX
  8
Обводка_Top
  10
48.0592
  20
46.4452
  42
0
  0
VERTEX
  8
Обводка_Top
  10
47.9612
  20
46.2853
  42
0
  0
VERTEX
  8
Обводка_Top
  10
47.8385
  20
46.1415
  42
0
  0
SEQEND
  0
POLYLINE
  8
Обводка_Top
  6
CONTINUOUS
  66
1
  70
0
  40
0.9
  41
0.9
  0
VERTEX
  8
Обводка_Top
  10
40.4139
  20
71.635
  42
0
  0
VERTEX
  8
Обводка_Top
  10
40.46
  20
71.635
  42
0
  0
VERTEX
  8
Обводка_Top
  10
40.46
  20
68.1613
  42
0
  0
VERTEX
  8
Обводка_Top
  10
40.4452
  20
67.9736
  42
0
  0
VERTEX
  8
Обводка_Top
  10
40.4013
  20
67.7905
  42
0
  0
VERTEX
  8
Обводка_Top
  10
40.3292
  20
67.6165
  42
0
  0
VERTEX
  8
Обводка_Top
  10
40.2308
  20
67.456
  42
0
  0
VERTEX
  8
Обводка_Top
  10
40.108
  20
67.3123
  42
0
  0
VERTEX
  8
Обводка_Top
  10
37.9872
  20
65.1915
  42
0
  0
VERTEX
  8
Обводка_Top
  10
37.844
  20
65.0692
  42
0
  0
VERTEX
  8
Обводка_Top
  10
37.6835
  20
64.9708
  42
0
  0
VERTEX
  8
Обводка_Top
  10
37.5095
  20
64.8987
  42
0
  0
VERTEX
  8
Обводка_Top
  10
37.3264
  20
64.8548
  42
0
  0
VERTEX
  8
Обводка_Top
  10
37.1379
  20
64.8401
  42
0
  0
VERTEX
  8
Обводка_Top
  10
36.0577
  20
64.84
  42
0
  0
VERTEX
  8
Обводка_Top
  10
34.2196
  20
63.0025
  42
0
  0
VERTEX
  8
Обводка_Top
  10
34.22
  20
61.9125
  42
0
  0
VERTEX
  8
Обводка_Top
  10
34.2052
  20
61.7248
  42
0
  0
VERTEX
  8
Обводка_Top
  10
34.1613
  20
61.5417
  42
0
  0
VERTEX
  8
Обводка_Top
  10
34.0892
  20
61.3677
  42
0
  0
VERTEX
  8
Обводка_Top
  10
33.9908
  20
61.2072
  42
0
  0
VERTEX
  8
Обводка_Top
  10
33.868
  20
61.0635
  42
0
  0
VERTEX
  8
Обводка_Top
  10
29.106
  20
56.3015
  42
0
  0
VERTEX
  8
Обводка_Top
  10
28.9628
  20
56.1792
  42
0
  0
VERTEX
  8
Обводка_Top
  10
28.8023
  20
56.0808
  42
0
  0
VERTEX
  8
Обводка_Top
  10
28.6283
  20
56.0087
  42
0
  0
VERTEX
  8
Обводка_Top
  10
28.4452
  20
55.9648
  42
0
  0
VERTEX
  8
Обводка_Top
  10
28.2568
  20
55.9501
  42
0
  0
VERTEX
  8
Обводка_Top
  10
24.13
  20
55.95
  42
0
  0
VERTEX
  8
Обводка_Top
  10
23.9423
  20
55.9648
  42
0
  0
VERTEX
  8
Обводка_Top
  10
23.7592
  20
56.0087
  42
0
  0
VERTEX
  8
Обводка_Top
  10
23.5852
  20
56.0808
  42
0
  0
VERTEX
  8
Обводка_Top
  10
23.4247
  20
56.1792
  42
0
  0
VERTEX
  8
Обводка_Top
  10
23.2815
  20
56.3015
  42
0
  0
VERTEX
  8
Обводка_Top
  10
23.1592
  20
56.4447
  42
0
  0
VERTEX
  8
Обводка_Top
  10
23.0608
  20
56.6052
  42
0
  0
VERTEX
  8
Обводка_Top
  10
22.9887
  20
56.7792
  42
0
  0
VERTEX
  8
Обводка_Top
  10
22.9448
  20
56.9623
  42
0
  0
VERTEX
  8
Обводка_Top
  10
22.93
  20
57.15
  42
0
  0
VERTEX
  8
Обводка_Top
  10
22.9448
  20
57.3377
  42
0
  0
VERTEX
  8
Обводка_Top
  10
22.9887
  20
57.5208
  42
0
  0
VERTEX
  8
Обводка_Top
  10
23.0608
  20
57.6948
  42
0
  0
VERTEX
  8
Обводка_Top
  10
23.1592
  20
57.8553
  42
0
  0
VERTEX
  8
Обводка_Top
  10
23.2815
  20
57.9985
  42
0
  0
VERTEX
  8
Обводка_Top
  10
23.4247
  20
58.1208
  42
0
  0
VERTEX
  8
Обводка_Top
  10
23.5852
  20
58.2192
  42
0
  0
VERTEX
  8
Обводка_Top
  10
23.7592
  20
58.2913
  42
0
  0
VERTEX
  8
Обводка_Top
  10
23.9423
  20
58.3352
  42
0
  0
VERTEX
  8
Обводка_Top
  10
24.13
  20
58.35
  42
0
  0
VERTEX
  8
Обводка_Top
  10
27.7612
  20
58.35
  42
0
  0
VERTEX
  8
Обводка_Top
  10
31.8199
  20
62.4094
  42
0
  0
VERTEX
  8
Обводка_Top
  10
31.82
  20
63.5
  42
0
  0
VERTEX
  8
Обводка_Top
  10
31.8348
  20
63.6877
  42
0
  0
VERTEX
  8
Обводка_Top
  10
31.8787
  20
63.8708
  42
0
  0
VERTEX
  8
Обводка_Top
  10
31.9508
  20
64.0448
  42
0
  0
VERTEX
  8
Обводка_Top
  10
32.0492
  20
64.2053
  42
0
  0
VERTEX
  8
Обводка_Top
  10
32.1715
  20
64.3485
  42
0
  0
VERTEX
  8
Обводка_Top
  10
34.7115
  20
66.8885
  42
0
  0
VERTEX
  8
Обводка_Top
  10
34.8547
  20
67.0108
  42
0
  0
VERTEX
  8
Обводка_Top
  10
35.0152
  20
67.1092
  42
0
  0
VERTEX
  8
Обводка_Top
  10
35.1892
  20
67.1813
  42
0
  0
VERTEX
  8
Обводка_Top
  10
35.3723
  20
67.2252
  42
0
  0
VERTEX
  8
Обводка_Top
  10
35.56
  20
67.24
  42
0
  0
VERTEX
  8
Обводка_Top
  10
36.6409
  20
67.24
  42
0
  0
VERTEX
  8
Обводка_Top
  10
38.0596
  20
68.658
  42
0
  0
VERTEX
  8
Обводка_Top
  10
38.06
  20
70.4116
  42
0
  0
VERTEX
  8
Обводка_Top
  10
38.0034
  20
71.8669
  42
0
  0
VERTEX
  8
Обводка_Top
  10
38.0108
  20
72.0551
  42
0
  0
VERTEX
  8
Обводка_Top
  10
38.0476
  20
72.2398
  42
0
  0
VERTEX
  8
Обводка_Top
  10
38.1129
  20
72.4164
  42
0
  0
VERTEX
  8
Обводка_Top
  10
38.205
  20
72.5807
  42
0
  0
VERTEX
  8
Обводка_Top
  10
38.3216
  20
72.7285
  42
0
  0
VERTEX
  8
Обводка_Top
  10
38.4599
  20
72.8563
  42
0
  0
VERTEX
  8
Обводка_Top
  10
38.6165
  20
72.9608
  42
0
  0
VERTEX
  8
Обводка_Top
  10
38.7876
  20
73.0396
  42
0
  0
VERTEX
  8
Обводка_Top
  10
38.9688
  20
73.0906
  42
0
  0
VERTEX
  8
Обводка_Top
  10
39.1558
  20
73.1127
  42
0
  0
VERTEX
  8
Обводка_Top
  10
39.344
  20
73.1052
  42
0
  0
VERTEX
  8
Обводка_Top
  10
39.5286
  20
73.0684
  42
0
  0
VERTEX
  8
Обводка_Top
  10
39.7053
  20
73.0032
  42
0
  0
VERTEX
  8
Обводка_Top
  10
39.8695
  20
72.9111
  42
0
  0
VERTEX
  8
Обводка_Top
  10
40.0174
  20
72.7945
  42
0
  0
VERTEX
  8
Обводка_Top
  10
40.1451
  20
72.6562
  42
0
  0
VERTEX
  8
Обводка_Top
  10
40.2497
  20
72.4995
  42
0
  0
VERTEX
  8
Обводка_Top
  10
40.3285
  20
72.3285
  42
0
  0
VERTEX
  8
Обводка_Top
  10
40.3795
  20
72.1473
  42
0
  0
VERTEX
  8
Обводка_Top
  10
40.4016
  20
71.9603
  42
0
  0
VERTEX
  8
Обводка_Top
  10
40.4142
  20
71.6357
  42
0
  0
VERTEX
  8
Обводка_Top
  10
40.4139
  20
71.635
  42
0
  0
SEQEND
  0
ENDSEC
  0
EOF
